<svg width="64" height="64" viewBox="0 0 64 64" fill="none" xmlns="http://www.w3.org/2000/svg">
<path d="M45.722 33.5798L38.864 40.4378L32.006 33.5798L25.148 40.4378L18.29 33.5798" stroke="#111111" stroke-width="2"/>
<path d="M21.8 27.5945C23.0743 26.3158 24.5885 25.3012 26.2557 24.6089C27.9229 23.9167 29.7103 23.5603 31.5155 23.5603C33.3208 23.5603 35.1082 23.9167 36.7754 24.6089C38.4426 25.3012 39.9568 26.3158 41.231 27.5945" stroke="#111111" stroke-width="2"/>
<path d="M32.0021 59.4341C47.1523 59.4341 59.4341 47.1523 59.4341 32.0021C59.4341 16.8518 47.1523 4.57007 32.0021 4.57007C16.8518 4.57007 4.57007 16.8518 4.57007 32.0021C4.57007 47.1523 16.8518 59.4341 32.0021 59.4341Z" stroke="#111111" stroke-width="2"/>
</svg>
