<svg width="64" height="64" viewBox="0 0 64 64" fill="none" xmlns="http://www.w3.org/2000/svg">
<path d="M54.8572 18.2857V13.7143C54.8572 12.5018 54.3756 11.3391 53.5183 10.4818C52.661 9.62445 51.4982 9.14282 50.2858 9.14282H9.14296C7.93054 9.14282 6.76778 9.62445 5.91047 10.4818C5.05316 11.3391 4.57153 12.5018 4.57153 13.7143V50.2857C4.57153 51.4981 5.05316 52.6609 5.91047 53.5182C6.76778 54.3755 7.93054 54.8571 9.14296 54.8571H50.2858C51.4982 54.8571 52.661 54.3755 53.5183 53.5182C54.3756 52.6609 54.8572 51.4981 54.8572 50.2857V45.7142" stroke="#111111" stroke-width="2"/>
<path d="M36.5715 18.2856H57.1429C57.7491 18.2856 58.3305 18.5265 58.7591 18.9551C59.1878 19.3838 59.4286 19.9651 59.4286 20.5714V43.4285C59.4286 44.0347 59.1878 44.6161 58.7591 45.0447C58.3305 45.4734 57.7491 45.7142 57.1429 45.7142H36.5715C32.9342 45.7142 29.4459 44.2693 26.874 41.6974C24.3021 39.1255 22.8572 35.6372 22.8572 31.9999C22.8572 28.3627 24.3021 24.8744 26.874 22.3025C29.4459 19.7305 32.9342 18.2856 36.5715 18.2856V18.2856Z" stroke="#111111" stroke-width="2"/>
<path d="M36.5714 36.5713C39.0962 36.5713 41.1429 34.5246 41.1429 31.9999C41.1429 29.4752 39.0962 27.4285 36.5714 27.4285C34.0467 27.4285 32 29.4752 32 31.9999C32 34.5246 34.0467 36.5713 36.5714 36.5713Z" stroke="#111111" stroke-width="2"/>
</svg>
