<svg width="528" height="435" viewBox="0 0 528 435" fill="none" xmlns="http://www.w3.org/2000/svg">
<g clip-path="url(#clip0_1694_22233)">
<rect width="528" height="435" fill="#F6F6F6"/>
<path d="M263.337 49V387.669" stroke="#9489FE" stroke-width="0.553381" stroke-miterlimit="10"/>
<path d="M248.562 49.6641L278.113 387.005" stroke="#9489FE" stroke-width="0.553381" stroke-miterlimit="10"/>
<path d="M233.948 51.5454L292.717 385.124" stroke="#9489FE" stroke-width="0.553381" stroke-miterlimit="10"/>
<path d="M219.507 54.7551L307.162 381.914" stroke="#9489FE" stroke-width="0.553381" stroke-miterlimit="10"/>
<path d="M205.395 59.2375L321.273 377.432" stroke="#9489FE" stroke-width="0.553381" stroke-miterlimit="10"/>
<path d="M191.78 64.8821L334.885 371.787" stroke="#9489FE" stroke-width="0.553381" stroke-miterlimit="10"/>
<path d="M178.668 71.6885L348.003 364.98" stroke="#9489FE" stroke-width="0.553381" stroke-miterlimit="10"/>
<path d="M166.214 79.6021L360.451 357.067" stroke="#9489FE" stroke-width="0.553381" stroke-miterlimit="10"/>
<path d="M154.483 88.6221L372.183 348.047" stroke="#9489FE" stroke-width="0.553381" stroke-miterlimit="10"/>
<path d="M143.583 98.583L383.086 338.086" stroke="#9489FE" stroke-width="0.553381" stroke-miterlimit="10"/>
<path d="M133.622 109.485L393.047 327.185" stroke="#9489FE" stroke-width="0.553381" stroke-miterlimit="10"/>
<path d="M124.605 121.216L402.071 315.453" stroke="#9489FE" stroke-width="0.553381" stroke-miterlimit="10"/>
<path d="M116.688 133.667L409.98 303.002" stroke="#9489FE" stroke-width="0.553381" stroke-miterlimit="10"/>
<path d="M109.878 146.782L416.784 289.887" stroke="#9489FE" stroke-width="0.553381" stroke-miterlimit="10"/>
<path d="M104.238 160.396L422.432 276.274" stroke="#9489FE" stroke-width="0.553381" stroke-miterlimit="10"/>
<path d="M99.7529 174.507L426.912 262.162" stroke="#9489FE" stroke-width="0.553381" stroke-miterlimit="10"/>
<path d="M96.5454 188.95L430.124 247.719" stroke="#9489FE" stroke-width="0.553381" stroke-miterlimit="10"/>
<path d="M94.6621 203.559L432.004 233.11" stroke="#9489FE" stroke-width="0.553381" stroke-miterlimit="10"/>
<path d="M94 218.334H432.669" stroke="#9489FE" stroke-width="0.553381" stroke-miterlimit="10"/>
<path d="M94.6621 233.11L432.004 203.559" stroke="#9489FE" stroke-width="0.553381" stroke-miterlimit="10"/>
<path d="M96.5454 247.719L430.124 188.95" stroke="#9489FE" stroke-width="0.553381" stroke-miterlimit="10"/>
<path d="M99.7529 262.162L426.912 174.507" stroke="#9489FE" stroke-width="0.553381" stroke-miterlimit="10"/>
<path d="M104.238 276.274L422.432 160.396" stroke="#9489FE" stroke-width="0.553381" stroke-miterlimit="10"/>
<path d="M109.878 289.887L416.784 146.782" stroke="#9489FE" stroke-width="0.553381" stroke-miterlimit="10"/>
<path d="M116.688 303.002L409.98 133.667" stroke="#9489FE" stroke-width="0.553381" stroke-miterlimit="10"/>
<path d="M124.605 315.453L402.071 121.216" stroke="#9489FE" stroke-width="0.553381" stroke-miterlimit="10"/>
<path d="M133.622 327.185L393.047 109.485" stroke="#9489FE" stroke-width="0.553381" stroke-miterlimit="10"/>
<path d="M143.583 338.086L383.086 98.583" stroke="#9489FE" stroke-width="0.553381" stroke-miterlimit="10"/>
<path d="M154.483 348.047L372.183 88.6221" stroke="#9489FE" stroke-width="0.553381" stroke-miterlimit="10"/>
<path d="M166.214 357.067L360.451 79.6021" stroke="#9489FE" stroke-width="0.553381" stroke-miterlimit="10"/>
<path d="M178.668 364.98L348.003 71.6885" stroke="#9489FE" stroke-width="0.553381" stroke-miterlimit="10"/>
<path d="M191.78 371.787L334.885 64.8821" stroke="#9489FE" stroke-width="0.553381" stroke-miterlimit="10"/>
<path d="M205.395 377.432L321.273 59.2375" stroke="#9489FE" stroke-width="0.553381" stroke-miterlimit="10"/>
<path d="M219.507 381.914L307.162 54.7551" stroke="#9489FE" stroke-width="0.553381" stroke-miterlimit="10"/>
<path d="M233.948 385.124L292.717 51.5454" stroke="#9489FE" stroke-width="0.553381" stroke-miterlimit="10"/>
<path d="M248.562 387.005L278.113 49.6641" stroke="#9489FE" stroke-width="0.553381" stroke-miterlimit="10"/>
<path d="M257.413 82.3135L269.256 354.356" stroke="#F9FAFB" stroke-width="0.553381" stroke-miterlimit="10"/>
<path d="M245.569 83.365L281.097 353.304" stroke="#F9FAFB" stroke-width="0.553381" stroke-miterlimit="10"/>
<path d="M233.894 85.4124L292.774 351.257" stroke="#F9FAFB" stroke-width="0.553381" stroke-miterlimit="10"/>
<path d="M222.384 88.5112L304.284 348.158" stroke="#F9FAFB" stroke-width="0.553381" stroke-miterlimit="10"/>
<path d="M211.263 92.551L315.41 344.118" stroke="#F9FAFB" stroke-width="0.553381" stroke-miterlimit="10"/>
<path d="M200.467 97.5869L326.195 339.082" stroke="#F9FAFB" stroke-width="0.553381" stroke-miterlimit="10"/>
<path d="M190.177 103.508L336.491 333.161" stroke="#F9FAFB" stroke-width="0.553381" stroke-miterlimit="10"/>
<path d="M180.438 110.315L346.23 326.355" stroke="#F9FAFB" stroke-width="0.553381" stroke-miterlimit="10"/>
<path d="M171.364 117.951L355.308 318.718" stroke="#F9FAFB" stroke-width="0.553381" stroke-miterlimit="10"/>
<path d="M162.953 126.363L363.72 310.306" stroke="#F9FAFB" stroke-width="0.553381" stroke-miterlimit="10"/>
<path d="M155.317 135.438L371.357 301.231" stroke="#F9FAFB" stroke-width="0.553381" stroke-miterlimit="10"/>
<path d="M148.508 145.177L378.161 291.491" stroke="#F9FAFB" stroke-width="0.553381" stroke-miterlimit="10"/>
<path d="M142.59 155.47L384.086 281.198" stroke="#F9FAFB" stroke-width="0.553381" stroke-miterlimit="10"/>
<path d="M137.551 166.261L389.118 270.408" stroke="#F9FAFB" stroke-width="0.553381" stroke-miterlimit="10"/>
<path d="M133.513 177.384L393.159 259.285" stroke="#F9FAFB" stroke-width="0.553381" stroke-miterlimit="10"/>
<path d="M130.413 188.895L396.257 247.774" stroke="#F9FAFB" stroke-width="0.553381" stroke-miterlimit="10"/>
<path d="M128.365 200.571L398.305 236.098" stroke="#F9FAFB" stroke-width="0.553381" stroke-miterlimit="10"/>
<path d="M127.313 212.413L399.356 224.256" stroke="#F9FAFB" stroke-width="0.553381" stroke-miterlimit="10"/>
<path d="M127.313 224.256L399.356 212.413" stroke="#F9FAFB" stroke-width="0.553381" stroke-miterlimit="10"/>
<path d="M128.365 236.098L398.305 200.571" stroke="#F9FAFB" stroke-width="0.553381" stroke-miterlimit="10"/>
<path d="M130.413 247.774L396.257 188.895" stroke="#F9FAFB" stroke-width="0.553381" stroke-miterlimit="10"/>
<path d="M133.513 259.285L393.159 177.384" stroke="#F9FAFB" stroke-width="0.553381" stroke-miterlimit="10"/>
<path d="M137.551 270.408L389.118 166.261" stroke="#F9FAFB" stroke-width="0.553381" stroke-miterlimit="10"/>
<path d="M142.59 281.198L384.086 155.47" stroke="#F9FAFB" stroke-width="0.553381" stroke-miterlimit="10"/>
<path d="M148.508 291.491L378.161 145.177" stroke="#F9FAFB" stroke-width="0.553381" stroke-miterlimit="10"/>
<path d="M155.317 301.231L371.357 135.438" stroke="#F9FAFB" stroke-width="0.553381" stroke-miterlimit="10"/>
<path d="M162.953 310.306L363.72 126.363" stroke="#F9FAFB" stroke-width="0.553381" stroke-miterlimit="10"/>
<path d="M171.364 318.718L355.308 117.951" stroke="#F9FAFB" stroke-width="0.553381" stroke-miterlimit="10"/>
<path d="M180.438 326.355L346.23 110.315" stroke="#F9FAFB" stroke-width="0.553381" stroke-miterlimit="10"/>
<path d="M190.177 333.161L336.491 103.508" stroke="#F9FAFB" stroke-width="0.553381" stroke-miterlimit="10"/>
<path d="M200.467 339.082L326.195 97.5869" stroke="#F9FAFB" stroke-width="0.553381" stroke-miterlimit="10"/>
<path d="M211.263 344.118L315.41 92.551" stroke="#F9FAFB" stroke-width="0.553381" stroke-miterlimit="10"/>
<path d="M222.384 348.158L304.284 88.5112" stroke="#F9FAFB" stroke-width="0.553381" stroke-miterlimit="10"/>
<path d="M233.894 351.257L292.774 85.4124" stroke="#F9FAFB" stroke-width="0.553381" stroke-miterlimit="10"/>
<path d="M245.569 353.304L281.097 83.365" stroke="#F9FAFB" stroke-width="0.553381" stroke-miterlimit="10"/>
<path d="M257.413 354.356L269.256 82.3135" stroke="#F9FAFB" stroke-width="0.553381" stroke-miterlimit="10"/>
<path d="M258.576 109.872L268.094 326.797" stroke="#121B23" stroke-width="2.21353" stroke-miterlimit="10"/>
<path d="M249.17 110.702L277.503 325.967" stroke="#121B23" stroke-width="2.21353" stroke-miterlimit="10"/>
<path d="M239.819 112.362L286.857 324.307" stroke="#121B23" stroke-width="2.21353" stroke-miterlimit="10"/>
<path d="M230.685 114.797L295.984 321.872" stroke="#121B23" stroke-width="2.21353" stroke-miterlimit="10"/>
<path d="M221.776 118.007L304.894 318.662" stroke="#121B23" stroke-width="2.21353" stroke-miterlimit="10"/>
<path d="M213.197 122.046L313.469 314.623" stroke="#121B23" stroke-width="2.21353" stroke-miterlimit="10"/>
<path d="M205.011 126.75L321.664 309.919" stroke="#121B23" stroke-width="2.21353" stroke-miterlimit="10"/>
<path d="M197.262 132.229L329.41 304.441" stroke="#121B23" stroke-width="2.21353" stroke-miterlimit="10"/>
<path d="M190.016 138.316L336.662 298.354" stroke="#121B23" stroke-width="2.21353" stroke-miterlimit="10"/>
<path d="M183.319 145.012L343.357 291.658" stroke="#121B23" stroke-width="2.21353" stroke-miterlimit="10"/>
<path d="M177.228 152.261L349.44 284.408" stroke="#121B23" stroke-width="2.21353" stroke-miterlimit="10"/>
<path d="M171.752 160.008L354.921 276.661" stroke="#121B23" stroke-width="2.21353" stroke-miterlimit="10"/>
<path d="M167.046 168.198L359.623 268.471" stroke="#121B23" stroke-width="2.21353" stroke-miterlimit="10"/>
<path d="M163.008 176.776L363.664 259.894" stroke="#121B23" stroke-width="2.21353" stroke-miterlimit="10"/>
<path d="M159.796 185.685L366.871 250.984" stroke="#121B23" stroke-width="2.21353" stroke-miterlimit="10"/>
<path d="M157.367 194.816L369.312 241.853" stroke="#121B23" stroke-width="2.21353" stroke-miterlimit="10"/>
<path d="M155.705 204.168L370.97 232.501" stroke="#121B23" stroke-width="2.21353" stroke-miterlimit="10"/>
<path d="M154.874 213.576L371.799 223.094" stroke="#121B23" stroke-width="2.21353" stroke-miterlimit="10"/>
<path d="M154.874 223.094L371.799 213.576" stroke="#121B23" stroke-width="2.21353" stroke-miterlimit="10"/>
<path d="M155.705 232.501L370.97 204.168" stroke="#121B23" stroke-width="2.21353" stroke-miterlimit="10"/>
<path d="M157.367 241.853L369.312 194.816" stroke="#121B23" stroke-width="2.21353" stroke-miterlimit="10"/>
<path d="M159.796 250.984L366.871 185.685" stroke="#121B23" stroke-width="2.21353" stroke-miterlimit="10"/>
<path d="M163.008 259.894L363.664 176.776" stroke="#121B23" stroke-width="2.21353" stroke-miterlimit="10"/>
<path d="M167.046 268.471L359.623 168.198" stroke="#121B23" stroke-width="2.21353" stroke-miterlimit="10"/>
<path d="M171.752 276.661L354.921 160.008" stroke="#121B23" stroke-width="2.21353" stroke-miterlimit="10"/>
<path d="M177.228 284.408L349.44 152.261" stroke="#121B23" stroke-width="2.21353" stroke-miterlimit="10"/>
<path d="M183.319 291.658L343.357 145.012" stroke="#121B23" stroke-width="2.21353" stroke-miterlimit="10"/>
<path d="M190.016 298.354L336.662 138.316" stroke="#121B23" stroke-width="2.21353" stroke-miterlimit="10"/>
<path d="M197.262 304.441L329.41 132.229" stroke="#121B23" stroke-width="2.21353" stroke-miterlimit="10"/>
<path d="M205.011 309.919L321.664 126.75" stroke="#121B23" stroke-width="2.21353" stroke-miterlimit="10"/>
<path d="M213.197 314.623L313.469 122.046" stroke="#121B23" stroke-width="2.21353" stroke-miterlimit="10"/>
<path d="M221.776 318.662L304.894 118.007" stroke="#121B23" stroke-width="2.21353" stroke-miterlimit="10"/>
<path d="M230.685 321.872L295.984 114.797" stroke="#121B23" stroke-width="2.21353" stroke-miterlimit="10"/>
<path d="M239.819 324.307L286.857 112.362" stroke="#121B23" stroke-width="2.21353" stroke-miterlimit="10"/>
<path d="M249.17 325.967L277.503 110.702" stroke="#121B23" stroke-width="2.21353" stroke-miterlimit="10"/>
<path d="M258.576 326.797L268.094 109.872" stroke="#121B23" stroke-width="2.21353" stroke-miterlimit="10"/>
<path d="M263.332 82.2029V354.466" stroke="#121B23" stroke-width="2.21353" stroke-miterlimit="10"/>
<path d="M251.492 82.7009L275.177 353.968" stroke="#121B23" stroke-width="2.21353" stroke-miterlimit="10"/>
<path d="M239.705 84.2502L286.963 352.419" stroke="#121B23" stroke-width="2.21353" stroke-miterlimit="10"/>
<path d="M228.086 86.8513L298.587 349.818" stroke="#121B23" stroke-width="2.21353" stroke-miterlimit="10"/>
<path d="M216.792 90.3931L309.871 346.276" stroke="#121B23" stroke-width="2.21353" stroke-miterlimit="10"/>
<path d="M205.779 94.9307L320.883 341.739" stroke="#121B23" stroke-width="2.21353" stroke-miterlimit="10"/>
<path d="M195.269 100.464L331.401 336.205" stroke="#121B23" stroke-width="2.21353" stroke-miterlimit="10"/>
<path d="M185.251 106.828L341.416 329.841" stroke="#121B23" stroke-width="2.21353" stroke-miterlimit="10"/>
<path d="M175.841 114.078L350.82 322.592" stroke="#121B23" stroke-width="2.21353" stroke-miterlimit="10"/>
<path d="M167.101 122.102L359.567 314.567" stroke="#121B23" stroke-width="2.21353" stroke-miterlimit="10"/>
<path d="M159.075 130.845L367.589 305.824" stroke="#121B23" stroke-width="2.21353" stroke-miterlimit="10"/>
<path d="M151.829 140.252L374.841 296.416" stroke="#121B23" stroke-width="2.21353" stroke-miterlimit="10"/>
<path d="M145.461 150.269L381.201 286.4" stroke="#121B23" stroke-width="2.21353" stroke-miterlimit="10"/>
<path d="M139.933 160.783L386.741 275.886" stroke="#121B23" stroke-width="2.21353" stroke-miterlimit="10"/>
<path d="M135.392 171.795L391.275 264.874" stroke="#121B23" stroke-width="2.21353" stroke-miterlimit="10"/>
<path d="M131.851 183.084L394.818 253.585" stroke="#121B23" stroke-width="2.21353" stroke-miterlimit="10"/>
<path d="M129.245 194.705L397.414 241.964" stroke="#121B23" stroke-width="2.21353" stroke-miterlimit="10"/>
<path d="M127.7 206.492L398.967 230.177" stroke="#121B23" stroke-width="2.21353" stroke-miterlimit="10"/>
<path d="M127.202 218.334H399.465" stroke="#121B23" stroke-width="2.21353" stroke-miterlimit="10"/>
<path d="M127.7 230.177L398.967 206.492" stroke="#121B23" stroke-width="2.21353" stroke-miterlimit="10"/>
<path d="M129.245 241.964L397.414 194.705" stroke="#121B23" stroke-width="2.21353" stroke-miterlimit="10"/>
<path d="M131.851 253.585L394.818 183.084" stroke="#121B23" stroke-width="2.21353" stroke-miterlimit="10"/>
<path d="M135.392 264.874L391.275 171.795" stroke="#121B23" stroke-width="2.21353" stroke-miterlimit="10"/>
<path d="M139.933 275.886L386.741 160.783" stroke="#121B23" stroke-width="2.21353" stroke-miterlimit="10"/>
<path d="M145.461 286.4L381.201 150.269" stroke="#121B23" stroke-width="2.21353" stroke-miterlimit="10"/>
<path d="M151.829 296.416L374.841 140.252" stroke="#121B23" stroke-width="2.21353" stroke-miterlimit="10"/>
<path d="M159.075 305.824L367.589 130.845" stroke="#121B23" stroke-width="2.21353" stroke-miterlimit="10"/>
<path d="M167.101 314.567L359.567 122.102" stroke="#121B23" stroke-width="2.21353" stroke-miterlimit="10"/>
<path d="M175.841 322.592L350.82 114.078" stroke="#121B23" stroke-width="2.21353" stroke-miterlimit="10"/>
<path d="M185.251 329.841L341.416 106.828" stroke="#121B23" stroke-width="2.21353" stroke-miterlimit="10"/>
<path d="M195.269 336.205L331.401 100.464" stroke="#121B23" stroke-width="2.21353" stroke-miterlimit="10"/>
<path d="M205.779 341.739L320.883 94.9307" stroke="#121B23" stroke-width="2.21353" stroke-miterlimit="10"/>
<path d="M216.792 346.276L309.871 90.3931" stroke="#121B23" stroke-width="2.21353" stroke-miterlimit="10"/>
<path d="M228.086 349.818L298.587 86.8513" stroke="#121B23" stroke-width="2.21353" stroke-miterlimit="10"/>
<path d="M239.705 352.419L286.963 84.2502" stroke="#121B23" stroke-width="2.21353" stroke-miterlimit="10"/>
<path d="M251.492 353.968L275.177 82.7009" stroke="#121B23" stroke-width="2.21353" stroke-miterlimit="10"/>
<path d="M263.338 109.872V326.797" stroke="#40DCAF" stroke-width="0.553381" stroke-miterlimit="10"/>
<path d="M253.875 110.259L272.801 326.41" stroke="#40DCAF" stroke-width="0.553381" stroke-miterlimit="10"/>
<path d="M244.52 111.532L282.15 325.137" stroke="#40DCAF" stroke-width="0.553381" stroke-miterlimit="10"/>
<path d="M235.283 113.58L291.395 323.09" stroke="#40DCAF" stroke-width="0.553381" stroke-miterlimit="10"/>
<path d="M226.261 116.402L300.414 320.268" stroke="#40DCAF" stroke-width="0.553381" stroke-miterlimit="10"/>
<path d="M217.517 120.054L309.157 316.615" stroke="#40DCAF" stroke-width="0.553381" stroke-miterlimit="10"/>
<path d="M209.106 124.426L317.569 312.243" stroke="#40DCAF" stroke-width="0.553381" stroke-miterlimit="10"/>
<path d="M201.136 129.462L325.537 307.208" stroke="#40DCAF" stroke-width="0.553381" stroke-miterlimit="10"/>
<path d="M193.613 135.272L333.065 301.397" stroke="#40DCAF" stroke-width="0.553381" stroke-miterlimit="10"/>
<path d="M186.639 141.636L340.037 295.033" stroke="#40DCAF" stroke-width="0.553381" stroke-miterlimit="10"/>
<path d="M180.275 148.609L346.401 288.061" stroke="#40DCAF" stroke-width="0.553381" stroke-miterlimit="10"/>
<path d="M174.462 156.135L352.208 280.535" stroke="#40DCAF" stroke-width="0.553381" stroke-miterlimit="10"/>
<path d="M169.428 164.103L357.245 272.566" stroke="#40DCAF" stroke-width="0.553381" stroke-miterlimit="10"/>
<path d="M165.055 172.515L361.617 264.155" stroke="#40DCAF" stroke-width="0.553381" stroke-miterlimit="10"/>
<path d="M161.406 181.258L365.272 255.411" stroke="#40DCAF" stroke-width="0.553381" stroke-miterlimit="10"/>
<path d="M158.58 190.278L368.09 246.391" stroke="#40DCAF" stroke-width="0.553381" stroke-miterlimit="10"/>
<path d="M156.532 199.52L370.137 237.149" stroke="#40DCAF" stroke-width="0.553381" stroke-miterlimit="10"/>
<path d="M155.259 208.872L371.41 227.797" stroke="#40DCAF" stroke-width="0.553381" stroke-miterlimit="10"/>
<path d="M154.874 218.334H371.799" stroke="#40DCAF" stroke-width="0.553381" stroke-miterlimit="10"/>
<path d="M155.259 227.797L371.41 208.872" stroke="#40DCAF" stroke-width="0.553381" stroke-miterlimit="10"/>
<path d="M156.532 237.149L370.137 199.52" stroke="#40DCAF" stroke-width="0.553381" stroke-miterlimit="10"/>
<path d="M158.58 246.391L368.09 190.278" stroke="#40DCAF" stroke-width="0.553381" stroke-miterlimit="10"/>
<path d="M161.406 255.411L365.272 181.258" stroke="#40DCAF" stroke-width="0.553381" stroke-miterlimit="10"/>
<path d="M165.055 264.155L361.617 172.515" stroke="#40DCAF" stroke-width="0.553381" stroke-miterlimit="10"/>
<path d="M169.428 272.566L357.245 164.103" stroke="#40DCAF" stroke-width="0.553381" stroke-miterlimit="10"/>
<path d="M174.462 280.535L352.208 156.135" stroke="#40DCAF" stroke-width="0.553381" stroke-miterlimit="10"/>
<path d="M180.275 288.061L346.401 148.609" stroke="#40DCAF" stroke-width="0.553381" stroke-miterlimit="10"/>
<path d="M186.639 295.033L340.037 141.636" stroke="#40DCAF" stroke-width="0.553381" stroke-miterlimit="10"/>
<path d="M193.613 301.397L333.065 135.272" stroke="#40DCAF" stroke-width="0.553381" stroke-miterlimit="10"/>
<path d="M201.136 307.208L325.537 129.462" stroke="#40DCAF" stroke-width="0.553381" stroke-miterlimit="10"/>
<path d="M209.106 312.243L317.569 124.426" stroke="#40DCAF" stroke-width="0.553381" stroke-miterlimit="10"/>
<path d="M217.517 316.615L309.157 120.054" stroke="#40DCAF" stroke-width="0.553381" stroke-miterlimit="10"/>
<path d="M226.261 320.268L300.414 116.402" stroke="#40DCAF" stroke-width="0.553381" stroke-miterlimit="10"/>
<path d="M235.283 323.09L291.395 113.58" stroke="#40DCAF" stroke-width="0.553381" stroke-miterlimit="10"/>
<path d="M244.52 325.137L282.15 111.532" stroke="#40DCAF" stroke-width="0.553381" stroke-miterlimit="10"/>
<path d="M253.875 326.41L272.801 110.259" stroke="#40DCAF" stroke-width="0.553381" stroke-miterlimit="10"/>
<path d="M263.334 138.648V298.022" stroke="#121B23" stroke-width="2.21353" stroke-miterlimit="10"/>
<path d="M256.36 138.925L270.306 297.745" stroke="#121B23" stroke-width="2.21353" stroke-miterlimit="10"/>
<path d="M249.503 139.865L277.172 296.804" stroke="#121B23" stroke-width="2.21353" stroke-miterlimit="10"/>
<path d="M242.694 141.36L283.976 295.31" stroke="#121B23" stroke-width="2.21353" stroke-miterlimit="10"/>
<path d="M236.054 143.462L290.617 293.207" stroke="#121B23" stroke-width="2.21353" stroke-miterlimit="10"/>
<path d="M229.634 146.119L297.036 290.551" stroke="#121B23" stroke-width="2.21353" stroke-miterlimit="10"/>
<path d="M223.491 149.328L303.178 287.341" stroke="#121B23" stroke-width="2.21353" stroke-miterlimit="10"/>
<path d="M217.626 153.036L309.044 283.634" stroke="#121B23" stroke-width="2.21353" stroke-miterlimit="10"/>
<path d="M212.093 157.297L314.58 279.373" stroke="#121B23" stroke-width="2.21353" stroke-miterlimit="10"/>
<path d="M206.998 162L319.667 274.669" stroke="#121B23" stroke-width="2.21353" stroke-miterlimit="10"/>
<path d="M202.297 167.092L324.373 269.578" stroke="#121B23" stroke-width="2.21353" stroke-miterlimit="10"/>
<path d="M198.038 172.625L328.636 264.044" stroke="#121B23" stroke-width="2.21353" stroke-miterlimit="10"/>
<path d="M194.328 178.491L332.341 258.178" stroke="#121B23" stroke-width="2.21353" stroke-miterlimit="10"/>
<path d="M191.12 184.634L335.553 252.035" stroke="#121B23" stroke-width="2.21353" stroke-miterlimit="10"/>
<path d="M188.462 191.053L338.207 245.616" stroke="#121B23" stroke-width="2.21353" stroke-miterlimit="10"/>
<path d="M186.363 197.693L340.313 238.976" stroke="#121B23" stroke-width="2.21353" stroke-miterlimit="10"/>
<path d="M184.865 204.5L341.804 232.169" stroke="#121B23" stroke-width="2.21353" stroke-miterlimit="10"/>
<path d="M183.925 211.362L342.746 225.307" stroke="#121B23" stroke-width="2.21353" stroke-miterlimit="10"/>
<path d="M183.648 218.335H343.022" stroke="#121B23" stroke-width="2.21353" stroke-miterlimit="10"/>
<path d="M183.925 225.307L342.746 211.362" stroke="#121B23" stroke-width="2.21353" stroke-miterlimit="10"/>
<path d="M184.865 232.169L341.804 204.5" stroke="#121B23" stroke-width="2.21353" stroke-miterlimit="10"/>
<path d="M186.363 238.976L340.313 197.693" stroke="#121B23" stroke-width="2.21353" stroke-miterlimit="10"/>
<path d="M188.462 245.616L338.207 191.053" stroke="#121B23" stroke-width="2.21353" stroke-miterlimit="10"/>
<path d="M191.12 252.035L335.553 184.634" stroke="#121B23" stroke-width="2.21353" stroke-miterlimit="10"/>
<path d="M194.328 258.178L332.341 178.491" stroke="#121B23" stroke-width="2.21353" stroke-miterlimit="10"/>
<path d="M198.038 264.044L328.636 172.625" stroke="#121B23" stroke-width="2.21353" stroke-miterlimit="10"/>
<path d="M202.297 269.578L324.373 167.092" stroke="#121B23" stroke-width="2.21353" stroke-miterlimit="10"/>
<path d="M206.998 274.669L319.667 162" stroke="#121B23" stroke-width="2.21353" stroke-miterlimit="10"/>
<path d="M212.093 279.373L314.58 157.297" stroke="#121B23" stroke-width="2.21353" stroke-miterlimit="10"/>
<path d="M217.626 283.634L309.044 153.036" stroke="#121B23" stroke-width="2.21353" stroke-miterlimit="10"/>
<path d="M223.491 287.341L303.178 149.328" stroke="#121B23" stroke-width="2.21353" stroke-miterlimit="10"/>
<path d="M229.634 290.551L297.036 146.119" stroke="#121B23" stroke-width="2.21353" stroke-miterlimit="10"/>
<path d="M236.054 293.207L290.617 143.462" stroke="#121B23" stroke-width="2.21353" stroke-miterlimit="10"/>
<path d="M242.694 295.31L283.976 141.36" stroke="#121B23" stroke-width="2.21353" stroke-miterlimit="10"/>
<path d="M249.503 296.804L277.172 139.865" stroke="#121B23" stroke-width="2.21353" stroke-miterlimit="10"/>
<path d="M256.36 297.745L270.306 138.925" stroke="#121B23" stroke-width="2.21353" stroke-miterlimit="10"/>
<path d="M226.532 147.668L300.132 289.002" stroke="#F9FAFB" stroke-width="0.553381" stroke-miterlimit="10"/>
<path d="M220.502 151.154L306.166 285.515" stroke="#F9FAFB" stroke-width="0.553381" stroke-miterlimit="10"/>
<path d="M214.805 155.139L311.868 281.531" stroke="#F9FAFB" stroke-width="0.553381" stroke-miterlimit="10"/>
<path d="M209.49 159.565L317.178 277.104" stroke="#F9FAFB" stroke-width="0.553381" stroke-miterlimit="10"/>
<path d="M204.563 164.491L322.101 272.179" stroke="#F9FAFB" stroke-width="0.553381" stroke-miterlimit="10"/>
<path d="M200.139 169.803L326.531 266.866" stroke="#F9FAFB" stroke-width="0.553381" stroke-miterlimit="10"/>
<path d="M196.156 175.503L330.518 261.167" stroke="#F9FAFB" stroke-width="0.553381" stroke-miterlimit="10"/>
<path d="M192.663 181.535L333.997 255.135" stroke="#F9FAFB" stroke-width="0.553381" stroke-miterlimit="10"/>
<path d="M189.732 187.843L336.932 248.826" stroke="#F9FAFB" stroke-width="0.553381" stroke-miterlimit="10"/>
<path d="M187.356 194.373L339.314 242.296" stroke="#F9FAFB" stroke-width="0.553381" stroke-miterlimit="10"/>
<path d="M185.529 201.069L341.14 235.6" stroke="#F9FAFB" stroke-width="0.553381" stroke-miterlimit="10"/>
<path d="M184.309 207.931L342.354 228.738" stroke="#F9FAFB" stroke-width="0.553381" stroke-miterlimit="10"/>
<path d="M183.703 214.848L342.966 221.821" stroke="#F9FAFB" stroke-width="0.553381" stroke-miterlimit="10"/>
<path d="M183.703 221.821L342.966 214.848" stroke="#F9FAFB" stroke-width="0.553381" stroke-miterlimit="10"/>
<path d="M184.309 228.738L342.354 207.931" stroke="#F9FAFB" stroke-width="0.553381" stroke-miterlimit="10"/>
<path d="M185.529 235.6L341.14 201.069" stroke="#F9FAFB" stroke-width="0.553381" stroke-miterlimit="10"/>
<path d="M187.356 242.296L339.314 194.373" stroke="#F9FAFB" stroke-width="0.553381" stroke-miterlimit="10"/>
<path d="M189.732 248.826L336.932 187.843" stroke="#F9FAFB" stroke-width="0.553381" stroke-miterlimit="10"/>
<path d="M192.663 255.135L333.997 181.535" stroke="#F9FAFB" stroke-width="0.553381" stroke-miterlimit="10"/>
<path d="M196.156 261.167L330.518 175.503" stroke="#F9FAFB" stroke-width="0.553381" stroke-miterlimit="10"/>
<path d="M200.139 266.866L326.531 169.803" stroke="#F9FAFB" stroke-width="0.553381" stroke-miterlimit="10"/>
<path d="M204.563 272.179L322.101 164.491" stroke="#F9FAFB" stroke-width="0.553381" stroke-miterlimit="10"/>
<path d="M209.49 277.104L317.178 159.565" stroke="#F9FAFB" stroke-width="0.553381" stroke-miterlimit="10"/>
<path d="M214.805 281.531L311.868 155.139" stroke="#F9FAFB" stroke-width="0.553381" stroke-miterlimit="10"/>
<path d="M220.502 285.515L306.166 151.154" stroke="#F9FAFB" stroke-width="0.553381" stroke-miterlimit="10"/>
<path d="M226.532 289.002L300.132 147.668" stroke="#F9FAFB" stroke-width="0.553381" stroke-miterlimit="10"/>
<path d="M232.844 291.935L293.826 144.735" stroke="#F9FAFB" stroke-width="0.553381" stroke-miterlimit="10"/>
<path d="M239.372 294.314L287.294 142.356" stroke="#F9FAFB" stroke-width="0.553381" stroke-miterlimit="10"/>
<path d="M246.068 296.14L280.599 140.53" stroke="#F9FAFB" stroke-width="0.553381" stroke-miterlimit="10"/>
<path d="M252.934 297.357L273.741 139.312" stroke="#F9FAFB" stroke-width="0.553381" stroke-miterlimit="10"/>
<path d="M259.851 297.966L266.824 138.703" stroke="#F9FAFB" stroke-width="0.553381" stroke-miterlimit="10"/>
<path d="M266.824 297.966L259.851 138.703" stroke="#F9FAFB" stroke-width="0.553381" stroke-miterlimit="10"/>
<path d="M273.741 297.357L252.934 139.312" stroke="#F9FAFB" stroke-width="0.553381" stroke-miterlimit="10"/>
<path d="M280.599 296.14L246.068 140.53" stroke="#F9FAFB" stroke-width="0.553381" stroke-miterlimit="10"/>
<path d="M287.294 294.314L239.372 142.356" stroke="#F9FAFB" stroke-width="0.553381" stroke-miterlimit="10"/>
<path d="M293.826 291.935L232.844 144.735" stroke="#F9FAFB" stroke-width="0.553381" stroke-miterlimit="10"/>
<path d="M263.887 272.566C293.227 272.566 317.012 248.781 317.012 219.441C317.012 190.101 293.227 166.317 263.887 166.317C234.547 166.317 210.762 190.101 210.762 219.441C210.762 248.781 234.547 272.566 263.887 272.566Z" fill="#121B23"/>
<path d="M263.886 300.235C308.507 300.235 344.68 264.063 344.68 219.441C344.68 174.82 308.507 138.648 263.886 138.648C219.265 138.648 183.092 174.82 183.092 219.441C183.092 264.063 219.265 300.235 263.886 300.235Z" stroke="#121B23" stroke-width="6.64058" stroke-miterlimit="10"/>
<path d="M263.888 329.011C324.401 329.011 373.457 279.955 373.457 219.441C373.457 158.928 324.401 109.872 263.888 109.872C203.374 109.872 154.318 158.928 154.318 219.441C154.318 279.955 203.374 329.011 263.888 329.011Z" stroke="#121B23" stroke-width="6.64058" stroke-miterlimit="10"/>
<path d="M263.887 356.68C339.682 356.68 401.126 295.236 401.126 219.441C401.126 143.647 339.682 82.2029 263.887 82.2029C188.092 82.2029 126.648 143.647 126.648 219.441C126.648 295.236 188.092 356.68 263.887 356.68Z" stroke="#121B23" stroke-width="6.64058" stroke-miterlimit="10"/>
<path d="M431.839 205.828C433.062 205.828 434.053 204.837 434.053 203.615C434.053 202.392 433.062 201.401 431.839 201.401C430.617 201.401 429.626 202.392 429.626 203.615C429.626 204.837 430.617 205.828 431.839 205.828Z" fill="#9489FE"/>
<path d="M365.101 341.794C366.323 341.794 367.315 340.803 367.315 339.58C367.315 338.358 366.323 337.367 365.101 337.367C363.878 337.367 362.887 338.358 362.887 339.58C362.887 340.803 363.878 341.794 365.101 341.794Z" fill="#9489FE"/>
<path d="M301.519 77.776C302.741 77.776 303.732 76.785 303.732 75.5625C303.732 74.34 302.741 73.3489 301.519 73.3489C300.296 73.3489 299.305 74.34 299.305 75.5625C299.305 76.785 300.296 77.776 301.519 77.776Z" fill="#9489FE"/>
<path d="M122.719 271.736C123.941 271.736 124.932 270.745 124.932 269.522C124.932 268.3 123.941 267.309 122.719 267.309C121.496 267.309 120.505 268.3 120.505 269.522C120.505 270.745 121.496 271.736 122.719 271.736Z" fill="#9489FE"/>
<path d="M99.7545 176.72C100.977 176.72 101.968 175.729 101.968 174.507C101.968 173.284 100.977 172.293 99.7545 172.293C98.532 172.293 97.541 173.284 97.541 174.507C97.541 175.729 98.532 176.72 99.7545 176.72Z" fill="#9489FE"/>
<path d="M196.76 77.776C197.983 77.776 198.974 76.785 198.974 75.5625C198.974 74.34 197.983 73.3489 196.76 73.3489C195.538 73.3489 194.547 74.34 194.547 75.5625C194.547 76.785 195.538 77.776 196.76 77.776Z" fill="#9489FE"/>
<path d="M287.904 128.853C289.127 128.853 290.118 127.862 290.118 126.639C290.118 125.417 289.127 124.426 287.904 124.426C286.682 124.426 285.691 125.417 285.691 126.639C285.691 127.862 286.682 128.853 287.904 128.853Z" fill="#40DCAF"/>
<path d="M291.06 323.975C292.283 323.975 293.274 322.984 293.274 321.761C293.274 320.539 292.283 319.548 291.06 319.548C289.838 319.548 288.847 320.539 288.847 321.761C288.847 322.984 289.838 323.975 291.06 323.975Z" fill="#40DCAF"/>
<path d="M176.509 159.676C177.732 159.676 178.723 158.685 178.723 157.463C178.723 156.24 177.732 155.249 176.509 155.249C175.287 155.249 174.296 156.24 174.296 157.463C174.296 158.685 175.287 159.676 176.509 159.676Z" fill="#40DCAF"/>
<path d="M357.855 245.671C359.077 245.671 360.068 244.68 360.068 243.458C360.068 242.235 359.077 241.244 357.855 241.244C356.632 241.244 355.641 242.235 355.641 243.458C355.641 244.68 356.632 245.671 357.855 245.671Z" fill="#121B23"/>
<path d="M329.687 235.268C330.909 235.268 331.9 234.277 331.9 233.054C331.9 231.832 330.909 230.841 329.687 230.841C328.464 230.841 327.473 231.832 327.473 233.054C327.473 234.277 328.464 235.268 329.687 235.268Z" fill="#F9FAFB"/>
<path d="M232.733 279.317C233.955 279.317 234.946 278.326 234.946 277.103C234.946 275.881 233.955 274.89 232.733 274.89C231.51 274.89 230.519 275.881 230.519 277.103C230.519 278.326 231.51 279.317 232.733 279.317Z" fill="#F9FAFB"/>
<path d="M234.226 150.269C235.449 150.269 236.44 149.278 236.44 148.055C236.44 146.833 235.449 145.842 234.226 145.842C233.004 145.842 232.013 146.833 232.013 148.055C232.013 149.278 233.004 150.269 234.226 150.269Z" fill="#121B23"/>
<path d="M361.01 131.066C362.233 131.066 363.224 130.075 363.224 128.853C363.224 127.63 362.233 126.639 361.01 126.639C359.788 126.639 358.797 127.63 358.797 128.853C358.797 130.075 359.788 131.066 361.01 131.066Z" fill="#121B23"/>
<path d="M181.436 326.797C182.658 326.797 183.649 325.806 183.649 324.584C183.649 323.361 182.658 322.37 181.436 322.37C180.213 322.37 179.222 323.361 179.222 324.584C179.222 325.806 180.213 326.797 181.436 326.797Z" fill="#121B23"/>
<path d="M234.226 89.2861C235.449 89.2861 236.44 88.2951 236.44 87.0726C236.44 85.8501 235.449 84.8591 234.226 84.8591C233.004 84.8591 232.013 85.8501 232.013 87.0726C232.013 88.2951 233.004 89.2861 234.226 89.2861Z" fill="#121B23"/>
<path d="M340.478 304.717C341.701 304.717 342.692 303.726 342.692 302.504C342.692 301.281 341.701 300.29 340.478 300.29C339.256 300.29 338.265 301.281 338.265 302.504C338.265 303.726 339.256 304.717 340.478 304.717Z" fill="#121B23"/>
<path opacity="0.4" d="M229.836 336.625C229.836 363.449 245.328 385.139 264.487 385.139C283.646 385.139 299.138 363.449 299.138 336.625V217.327H229.836V336.625Z" fill="#F9FAFB" stroke="url(#paint0_linear_1694_22233)" stroke-width="0.591316" stroke-miterlimit="10"/>
<path d="M264.384 252.309C283.598 252.309 299.175 236.733 299.175 217.519C299.175 198.304 283.598 182.728 264.384 182.728C245.17 182.728 229.594 198.304 229.594 217.519C229.594 236.733 245.17 252.309 264.384 252.309Z" fill="#121B23" stroke="#40DCAF" stroke-width="1.10819" stroke-miterlimit="10"/>
<path d="M267.262 218.184C269.921 217.075 271.695 214.416 271.695 211.424C271.695 207.323 268.37 204.11 264.38 204.11C260.28 204.11 257.066 207.434 257.066 211.424C257.066 214.416 258.95 217.075 261.499 218.184L258.84 230.928H269.921L267.262 218.184Z" fill="url(#paint1_linear_1694_22233)"/>
</g>
<defs>
<linearGradient id="paint0_linear_1694_22233" x1="264.478" y1="216.91" x2="264.478" y2="385.513" gradientUnits="userSpaceOnUse">
<stop stop-color="#121B23" stop-opacity="0.3"/>
<stop offset="1" stop-color="#121B23"/>
</linearGradient>
<linearGradient id="paint1_linear_1694_22233" x1="264.364" y1="203.104" x2="264.364" y2="245.848" gradientUnits="userSpaceOnUse">
<stop stop-color="#40DCAF"/>
<stop offset="1" stop-color="#121B23"/>
</linearGradient>
<clipPath id="clip0_1694_22233">
<rect width="528" height="435" fill="white"/>
</clipPath>
</defs>
</svg>
