<svg width="528" height="435" viewBox="0 0 528 435" fill="none" xmlns="http://www.w3.org/2000/svg">
<g clip-path="url(#clip0_1694_62055)">
<rect width="528" height="435" fill="#111111"/>
<path d="M182.504 242H157.736V198.48H166.568V234.192H182.504V242ZM191.764 242V198.48H219.924V206.16H200.596V216.336H216.084V223.888H200.596V234.32H219.924V242H191.764ZM254.593 198.48H263.873L253.761 242H237.441L227.329 198.48H236.609L244.161 234.32H247.041L254.593 198.48ZM273.443 242V198.48H301.603V206.16H282.275V216.336H297.763V223.888H282.275V234.32H301.603V242H273.443ZM337.489 242H312.721V198.48H321.553V234.192H337.489V242ZM373.675 231.76C374.955 233.979 377.323 235.088 380.779 235.088C384.235 235.088 386.582 233.979 387.819 231.76C389.099 229.499 389.739 225.744 389.739 220.496C389.739 215.205 389.099 211.365 387.819 208.976C386.539 206.587 384.192 205.392 380.779 205.392C377.366 205.392 375.019 206.587 373.739 208.976C372.459 211.365 371.819 215.205 371.819 220.496C371.819 225.744 372.438 229.499 373.675 231.76ZM394.731 237.392C392.043 240.976 387.392 242.768 380.779 242.768C374.166 242.768 369.494 240.976 366.763 237.392C364.075 233.765 362.731 228.112 362.731 220.432C362.731 212.752 364.075 207.056 366.763 203.344C369.494 199.589 374.166 197.712 380.779 197.712C387.392 197.712 392.043 199.589 394.731 203.344C397.462 207.056 398.827 212.752 398.827 220.432C398.827 228.112 397.462 233.765 394.731 237.392ZM410.241 242V198.48H425.153L435.649 234.32H436.289V198.48H445.121V242H430.593L419.713 206.16H419.073V242H410.241ZM458.456 242V198.48H486.616V206.16H467.288V216.336H482.776V223.888H467.288V234.32H486.616V242H458.456Z" fill="white"/>
<path d="M257.752 143H245.368V121.24H249.784V139.096H257.752V143ZM262.382 143V121.24H276.462V125.08H266.798V130.168H274.542V133.944H266.798V139.16H276.462V143H262.382ZM293.797 121.24H298.437L293.381 143H285.221L280.165 121.24H284.805L288.581 139.16H290.021L293.797 121.24ZM303.222 143V121.24H317.302V125.08H307.638V130.168H315.382V133.944H307.638V139.16H317.302V143H303.222ZM335.245 143H322.861V121.24H327.277V139.096H335.245V143ZM353.337 137.88C353.977 138.989 355.161 139.544 356.889 139.544C358.617 139.544 359.791 138.989 360.409 137.88C361.049 136.749 361.369 134.872 361.369 132.248C361.369 129.603 361.049 127.683 360.409 126.488C359.769 125.293 358.596 124.696 356.889 124.696C355.183 124.696 354.009 125.293 353.369 126.488C352.729 127.683 352.409 129.603 352.409 132.248C352.409 134.872 352.719 136.749 353.337 137.88ZM363.865 140.696C362.521 142.488 360.196 143.384 356.889 143.384C353.583 143.384 351.247 142.488 349.881 140.696C348.537 138.883 347.865 136.056 347.865 132.216C347.865 128.376 348.537 125.528 349.881 123.672C351.247 121.795 353.583 120.856 356.889 120.856C360.196 120.856 362.521 121.795 363.865 123.672C365.231 125.528 365.913 128.376 365.913 132.216C365.913 136.056 365.231 138.883 363.865 140.696ZM371.621 143V121.24H379.077L384.325 139.16H384.645V121.24H389.061V143H381.797L376.357 125.08H376.037V143H371.621ZM395.728 143V121.24H409.808V125.08H400.144V130.168H407.888V133.944H400.144V139.16H409.808V143H395.728Z" fill="white" fill-opacity="0.32"/>
<path d="M103.44 73H87.96V45.8H93.48V68.12H103.44V73ZM109.227 73V45.8H126.827V50.6H114.747V56.96H124.427V61.68H114.747V68.2H126.827V73H109.227ZM148.496 45.8H154.296L147.976 73H137.776L131.456 45.8H137.256L141.976 68.2H143.776L148.496 45.8ZM160.277 73V45.8H177.877V50.6H165.797V56.96H175.477V61.68H165.797V68.2H177.877V73H160.277ZM200.306 73H184.826V45.8H190.346V68.12H200.306V73ZM222.922 66.6C223.722 67.9867 225.202 68.68 227.362 68.68C229.522 68.68 230.989 67.9867 231.762 66.6C232.562 65.1867 232.962 62.84 232.962 59.56C232.962 56.2533 232.562 53.8533 231.762 52.36C230.962 50.8667 229.495 50.12 227.362 50.12C225.229 50.12 223.762 50.8667 222.962 52.36C222.162 53.8533 221.762 56.2533 221.762 59.56C221.762 62.84 222.149 65.1867 222.922 66.6ZM236.082 70.12C234.402 72.36 231.495 73.48 227.362 73.48C223.229 73.48 220.309 72.36 218.602 70.12C216.922 67.8533 216.082 64.32 216.082 59.52C216.082 54.72 216.922 51.16 218.602 48.84C220.309 46.4933 223.229 45.32 227.362 45.32C231.495 45.32 234.402 46.4933 236.082 48.84C237.789 51.16 238.642 54.72 238.642 59.52C238.642 64.32 237.789 67.8533 236.082 70.12ZM245.776 73V45.8H255.096L261.656 68.2H262.056V45.8H267.576V73H258.496L251.696 50.6H251.296V73H245.776ZM275.91 73V45.8H293.51V50.6H281.43V56.96H291.11V61.68H281.43V68.2H293.51V73H275.91Z" fill="white" fill-opacity="0.8"/>
<path d="M396.064 306H386.776V289.68H390.088V303.072H396.064V306ZM399.536 306V289.68H410.096V292.56H402.848V296.376H408.656V299.208H402.848V303.12H410.096V306H399.536ZM423.097 289.68H426.577L422.785 306H416.665L412.873 289.68H416.353L419.185 303.12H420.265L423.097 289.68ZM430.166 306V289.68H440.726V292.56H433.478V296.376H439.286V299.208H433.478V303.12H440.726V306H430.166ZM454.183 306H444.895V289.68H448.207V303.072H454.183V306ZM467.753 302.16C468.233 302.992 469.121 303.408 470.417 303.408C471.713 303.408 472.593 302.992 473.057 302.16C473.537 301.312 473.777 299.904 473.777 297.936C473.777 295.952 473.537 294.512 473.057 293.616C472.577 292.72 471.697 292.272 470.417 292.272C469.137 292.272 468.257 292.72 467.777 293.616C467.297 294.512 467.057 295.952 467.057 297.936C467.057 299.904 467.289 301.312 467.753 302.16ZM475.649 304.272C474.641 305.616 472.897 306.288 470.417 306.288C467.937 306.288 466.185 305.616 465.161 304.272C464.153 302.912 463.649 300.792 463.649 297.912C463.649 295.032 464.153 292.896 465.161 291.504C466.185 290.096 467.937 289.392 470.417 289.392C472.897 289.392 474.641 290.096 475.649 291.504C476.673 292.896 477.185 295.032 477.185 297.912C477.185 300.792 476.673 302.912 475.649 304.272ZM481.465 306V289.68H487.057L490.993 303.12H491.233V289.68H494.545V306H489.097L485.017 292.56H484.777V306H481.465ZM499.546 306V289.68H510.106V292.56H502.858V296.376H508.666V299.208H502.858V303.12H510.106V306H499.546Z" fill="white" fill-opacity="0.8"/>
<path d="M5.128 20H-13.448V-12.64H-6.824V14.144H5.128V20ZM12.0726 20V-12.64H33.1926V-6.88H18.6966V0.751999H30.3126V6.416H18.6966V14.24H33.1926V20H12.0726ZM59.1948 -12.64H66.1548L58.5708 20H46.3308L38.7468 -12.64H45.7068L51.3708 14.24H53.5308L59.1948 -12.64ZM73.3326 20V-12.64H94.4526V-6.88H79.9566V0.751999H91.5726V6.416H79.9566V14.24H94.4526V20H73.3326ZM121.367 20H102.791V-12.64H109.415V14.144H121.367V20ZM148.506 12.32C149.466 13.984 151.242 14.816 153.834 14.816C156.426 14.816 158.186 13.984 159.114 12.32C160.074 10.624 160.554 7.808 160.554 3.872C160.554 -0.0960007 160.074 -2.976 159.114 -4.768C158.154 -6.56 156.394 -7.456 153.834 -7.456C151.274 -7.456 149.514 -6.56 148.554 -4.768C147.594 -2.976 147.114 -0.0960007 147.114 3.872C147.114 7.808 147.578 10.624 148.506 12.32ZM164.298 16.544C162.282 19.232 158.794 20.576 153.834 20.576C148.874 20.576 145.37 19.232 143.322 16.544C141.306 13.824 140.298 9.584 140.298 3.824C140.298 -1.936 141.306 -6.208 143.322 -8.992C145.37 -11.808 148.874 -13.216 153.834 -13.216C158.794 -13.216 162.282 -11.808 164.298 -8.992C166.346 -6.208 167.37 -1.936 167.37 3.824C167.37 9.584 166.346 13.824 164.298 16.544ZM175.931 20V-12.64H187.115L194.987 14.24H195.467V-12.64H202.091V20H191.195L183.035 -6.88H182.555V20H175.931ZM212.092 20V-12.64H233.212V-6.88H218.716V0.751999H230.332V6.416H218.716V14.24H233.212V20H212.092Z" fill="white" fill-opacity="0.56"/>
<path d="M379.44 383H363.96V355.8H369.48V378.12H379.44V383ZM385.227 383V355.8H402.827V360.6H390.747V366.96H400.427V371.68H390.747V378.2H402.827V383H385.227ZM424.496 355.8H430.296L423.976 383H413.776L407.456 355.8H413.256L417.976 378.2H419.776L424.496 355.8ZM436.277 383V355.8H453.877V360.6H441.797V366.96H451.477V371.68H441.797V378.2H453.877V383H436.277ZM476.306 383H460.826V355.8H466.346V378.12H476.306V383ZM498.922 376.6C499.722 377.987 501.202 378.68 503.362 378.68C505.522 378.68 506.989 377.987 507.762 376.6C508.562 375.187 508.962 372.84 508.962 369.56C508.962 366.253 508.562 363.853 507.762 362.36C506.962 360.867 505.495 360.12 503.362 360.12C501.229 360.12 499.762 360.867 498.962 362.36C498.162 363.853 497.762 366.253 497.762 369.56C497.762 372.84 498.149 375.187 498.922 376.6ZM512.082 380.12C510.402 382.36 507.495 383.48 503.362 383.48C499.229 383.48 496.309 382.36 494.602 380.12C492.922 377.853 492.082 374.32 492.082 369.52C492.082 364.72 492.922 361.16 494.602 358.84C496.309 356.493 499.229 355.32 503.362 355.32C507.495 355.32 510.402 356.493 512.082 358.84C513.789 361.16 514.642 364.72 514.642 369.52C514.642 374.32 513.789 377.853 512.082 380.12ZM521.776 383V355.8H531.096L537.656 378.2H538.056V355.8H543.576V383H534.496L527.696 360.6H527.296V383H521.776ZM551.91 383V355.8H569.51V360.6H557.43V366.96H567.11V371.68H557.43V378.2H569.51V383H551.91Z" fill="white" fill-opacity="0.8"/>
<path d="M26.752 334H14.368V312.24H18.784V330.096H26.752V334ZM31.3818 334V312.24H45.4618V316.08H35.7978V321.168H43.5418V324.944H35.7978V330.16H45.4618V334H31.3818ZM62.7965 312.24H67.4365L62.3805 334H54.2205L49.1645 312.24H53.8045L57.5805 330.16H59.0205L62.7965 312.24ZM72.2217 334V312.24H86.3017V316.08H76.6377V321.168H84.3817V324.944H76.6377V330.16H86.3017V334H72.2217ZM104.245 334H91.8605V312.24H96.2765V330.096H104.245V334ZM122.337 328.88C122.977 329.989 124.161 330.544 125.889 330.544C127.617 330.544 128.791 329.989 129.409 328.88C130.049 327.749 130.369 325.872 130.369 323.248C130.369 320.603 130.049 318.683 129.409 317.488C128.769 316.293 127.596 315.696 125.889 315.696C124.183 315.696 123.009 316.293 122.369 317.488C121.729 318.683 121.409 320.603 121.409 323.248C121.409 325.872 121.719 327.749 122.337 328.88ZM132.865 331.696C131.521 333.488 129.196 334.384 125.889 334.384C122.583 334.384 120.247 333.488 118.881 331.696C117.537 329.883 116.865 327.056 116.865 323.216C116.865 319.376 117.537 316.528 118.881 314.672C120.247 312.795 122.583 311.856 125.889 311.856C129.196 311.856 131.521 312.795 132.865 314.672C134.231 316.528 134.913 319.376 134.913 323.216C134.913 327.056 134.231 329.883 132.865 331.696ZM140.621 334V312.24H148.077L153.325 330.16H153.645V312.24H158.061V334H150.797L145.357 316.08H145.037V334H140.621ZM164.728 334V312.24H178.808V316.08H169.144V321.168H176.888V324.944H169.144V330.16H178.808V334H164.728Z" fill="white" fill-opacity="0.64"/>
<path d="M19.376 386H13.184V375.12H15.392V384.048H19.376V386ZM21.6909 386V375.12H28.7309V377.04H23.8989V379.584H27.7709V381.472H23.8989V384.08H28.7309V386H21.6909ZM37.3983 375.12H39.7183L37.1903 386H33.1103L30.5823 375.12H32.9023L34.7903 384.08H35.5103L37.3983 375.12ZM42.1109 386V375.12H49.1509V377.04H44.3189V379.584H48.1909V381.472H44.3189V384.08H49.1509V386H42.1109ZM58.1223 386H51.9303V375.12H54.1383V384.048H58.1223V386ZM67.1687 383.44C67.4887 383.995 68.0807 384.272 68.9447 384.272C69.8087 384.272 70.3954 383.995 70.7047 383.44C71.0247 382.875 71.1847 381.936 71.1847 380.624C71.1847 379.301 71.0247 378.341 70.7047 377.744C70.3847 377.147 69.7981 376.848 68.9447 376.848C68.0914 376.848 67.5047 377.147 67.1847 377.744C66.8647 378.341 66.7047 379.301 66.7047 380.624C66.7047 381.936 66.8594 382.875 67.1687 383.44ZM72.4327 384.848C71.7607 385.744 70.5981 386.192 68.9447 386.192C67.2914 386.192 66.1234 385.744 65.4407 384.848C64.7687 383.941 64.4327 382.528 64.4327 380.608C64.4327 378.688 64.7687 377.264 65.4407 376.336C66.1234 375.397 67.2914 374.928 68.9447 374.928C70.5981 374.928 71.7607 375.397 72.4327 376.336C73.1154 377.264 73.4567 378.688 73.4567 380.608C73.4567 382.528 73.1154 383.941 72.4327 384.848ZM76.3103 386V375.12H80.0383L82.6623 384.08H82.8223V375.12H85.0303V386H81.3983L78.6783 377.04H78.5183V386H76.3103ZM88.364 386V375.12H95.404V377.04H90.572V379.584H94.444V381.472H90.572V384.08H95.404V386H88.364Z" fill="white" fill-opacity="0.88"/>
<path d="M138.128 441H119.552V408.36H126.176V435.144H138.128V441ZM145.073 441V408.36H166.193V414.12H151.697V421.752H163.313V427.416H151.697V435.24H166.193V441H145.073ZM192.195 408.36H199.155L191.571 441H179.331L171.747 408.36H178.707L184.371 435.24H186.531L192.195 408.36ZM206.333 441V408.36H227.453V414.12H212.957V421.752H224.573V427.416H212.957V435.24H227.453V441H206.333ZM254.367 441H235.791V408.36H242.415V435.144H254.367V441ZM281.506 433.32C282.466 434.984 284.242 435.816 286.834 435.816C289.426 435.816 291.186 434.984 292.114 433.32C293.074 431.624 293.554 428.808 293.554 424.872C293.554 420.904 293.074 418.024 292.114 416.232C291.154 414.44 289.394 413.544 286.834 413.544C284.274 413.544 282.514 414.44 281.554 416.232C280.594 418.024 280.114 420.904 280.114 424.872C280.114 428.808 280.578 431.624 281.506 433.32ZM297.298 437.544C295.282 440.232 291.794 441.576 286.834 441.576C281.874 441.576 278.37 440.232 276.322 437.544C274.306 434.824 273.298 430.584 273.298 424.824C273.298 419.064 274.306 414.792 276.322 412.008C278.37 409.192 281.874 407.784 286.834 407.784C291.794 407.784 295.282 409.192 297.298 412.008C299.346 414.792 300.37 419.064 300.37 424.824C300.37 430.584 299.346 434.824 297.298 437.544ZM308.931 441V408.36H320.115L327.987 435.24H328.467V408.36H335.091V441H324.195L316.035 414.12H315.555V441H308.931ZM345.092 441V408.36H366.212V414.12H351.716V421.752H363.332V427.416H351.716V435.24H366.212V441H345.092Z" fill="white" fill-opacity="0.72"/>
<path d="M70.22 170H62.48V156.4H65.24V167.56H70.22V170ZM73.1136 170V156.4H81.9136V158.8H75.8736V161.98H80.7136V164.34H75.8736V167.6H81.9136V170H73.1136ZM92.7478 156.4H95.6478L92.4878 170H87.3878L84.2278 156.4H87.1278L89.4878 167.6H90.3878L92.7478 156.4ZM98.6386 170V156.4H107.439V158.8H101.399V161.98H106.239V164.34H101.399V167.6H107.439V170H98.6386ZM118.653 170H110.913V156.4H113.673V167.56H118.653V170ZM129.961 166.8C130.361 167.493 131.101 167.84 132.181 167.84C133.261 167.84 133.994 167.493 134.381 166.8C134.781 166.093 134.981 164.92 134.981 163.28C134.981 161.627 134.781 160.427 134.381 159.68C133.981 158.933 133.248 158.56 132.181 158.56C131.114 158.56 130.381 158.933 129.981 159.68C129.581 160.427 129.381 161.627 129.381 163.28C129.381 164.92 129.574 166.093 129.961 166.8ZM136.541 168.56C135.701 169.68 134.248 170.24 132.181 170.24C130.114 170.24 128.654 169.68 127.801 168.56C126.961 167.427 126.541 165.66 126.541 163.26C126.541 160.86 126.961 159.08 127.801 157.92C128.654 156.747 130.114 156.16 132.181 156.16C134.248 156.16 135.701 156.747 136.541 157.92C137.394 159.08 137.821 160.86 137.821 163.26C137.821 165.66 137.394 167.427 136.541 168.56ZM141.388 170V156.4H146.048L149.328 167.6H149.528V156.4H152.288V170H147.748L144.348 158.8H144.148V170H141.388ZM156.455 170V156.4H165.255V158.8H159.215V161.98H164.055V164.34H159.215V167.6H165.255V170H156.455Z" fill="white" fill-opacity="0.8"/>
<path d="M28.376 272H22.184V261.12H24.392V270.048H28.376V272ZM30.6909 272V261.12H37.7309V263.04H32.8989V265.584H36.7709V267.472H32.8989V270.08H37.7309V272H30.6909ZM46.3983 261.12H48.7183L46.1903 272H42.1103L39.5823 261.12H41.9023L43.7903 270.08H44.5103L46.3983 261.12ZM51.1109 272V261.12H58.1509V263.04H53.3189V265.584H57.1909V267.472H53.3189V270.08H58.1509V272H51.1109ZM67.1223 272H60.9303V261.12H63.1383V270.048H67.1223V272ZM76.1687 269.44C76.4887 269.995 77.0807 270.272 77.9447 270.272C78.8087 270.272 79.3954 269.995 79.7047 269.44C80.0247 268.875 80.1847 267.936 80.1847 266.624C80.1847 265.301 80.0247 264.341 79.7047 263.744C79.3847 263.147 78.7981 262.848 77.9447 262.848C77.0914 262.848 76.5047 263.147 76.1847 263.744C75.8647 264.341 75.7047 265.301 75.7047 266.624C75.7047 267.936 75.8594 268.875 76.1687 269.44ZM81.4327 270.848C80.7607 271.744 79.5981 272.192 77.9447 272.192C76.2914 272.192 75.1234 271.744 74.4407 270.848C73.7687 269.941 73.4327 268.528 73.4327 266.608C73.4327 264.688 73.7687 263.264 74.4407 262.336C75.1234 261.397 76.2914 260.928 77.9447 260.928C79.5981 260.928 80.7607 261.397 81.4327 262.336C82.1154 263.264 82.4567 264.688 82.4567 266.608C82.4567 268.528 82.1154 269.941 81.4327 270.848ZM85.3103 272V261.12H89.0383L91.6623 270.08H91.8223V261.12H94.0303V272H90.3983L87.6783 263.04H87.5183V272H85.3103ZM97.364 272V261.12H104.404V263.04H99.572V265.584H103.444V267.472H99.572V270.08H104.404V272H97.364Z" fill="white" fill-opacity="0.92"/>
<path d="M207.376 290H201.184V279.12H203.392V288.048H207.376V290ZM209.691 290V279.12H216.731V281.04H211.899V283.584H215.771V285.472H211.899V288.08H216.731V290H209.691ZM225.398 279.12H227.718L225.19 290H221.11L218.582 279.12H220.902L222.79 288.08H223.51L225.398 279.12ZM230.111 290V279.12H237.151V281.04H232.319V283.584H236.191V285.472H232.319V288.08H237.151V290H230.111ZM246.122 290H239.93V279.12H242.138V288.048H246.122V290ZM255.169 287.44C255.489 287.995 256.081 288.272 256.945 288.272C257.809 288.272 258.395 287.995 258.705 287.44C259.025 286.875 259.185 285.936 259.185 284.624C259.185 283.301 259.025 282.341 258.705 281.744C258.385 281.147 257.798 280.848 256.945 280.848C256.091 280.848 255.505 281.147 255.185 281.744C254.865 282.341 254.705 283.301 254.705 284.624C254.705 285.936 254.859 286.875 255.169 287.44ZM260.433 288.848C259.761 289.744 258.598 290.192 256.945 290.192C255.291 290.192 254.123 289.744 253.441 288.848C252.769 287.941 252.433 286.528 252.433 284.608C252.433 282.688 252.769 281.264 253.441 280.336C254.123 279.397 255.291 278.928 256.945 278.928C258.598 278.928 259.761 279.397 260.433 280.336C261.115 281.264 261.457 282.688 261.457 284.608C261.457 286.528 261.115 287.941 260.433 288.848ZM264.31 290V279.12H268.038L270.662 288.08H270.822V279.12H273.03V290H269.398L266.678 281.04H266.518V290H264.31ZM276.364 290V279.12H283.404V281.04H278.572V283.584H282.444V285.472H278.572V288.08H283.404V290H276.364Z" fill="white" fill-opacity="0.92"/>
<path d="M395.752 15H383.368V-6.76H387.784V11.096H395.752V15ZM400.382 15V-6.76H414.462V-2.92H404.798V2.168H412.542V5.944H404.798V11.16H414.462V15H400.382ZM431.797 -6.76H436.437L431.381 15H423.221L418.165 -6.76H422.805L426.581 11.16H428.021L431.797 -6.76ZM441.222 15V-6.76H455.302V-2.92H445.638V2.168H453.382V5.944H445.638V11.16H455.302V15H441.222ZM473.245 15H460.861V-6.76H465.277V11.096H473.245V15ZM491.337 9.88C491.977 10.9893 493.161 11.544 494.889 11.544C496.617 11.544 497.791 10.9893 498.409 9.88C499.049 8.74933 499.369 6.872 499.369 4.248C499.369 1.60267 499.049 -0.317334 498.409 -1.512C497.769 -2.70667 496.596 -3.304 494.889 -3.304C493.183 -3.304 492.009 -2.70667 491.369 -1.512C490.729 -0.317334 490.409 1.60267 490.409 4.248C490.409 6.872 490.719 8.74933 491.337 9.88ZM501.865 12.696C500.521 14.488 498.196 15.384 494.889 15.384C491.583 15.384 489.247 14.488 487.881 12.696C486.537 10.8827 485.865 8.056 485.865 4.216C485.865 0.375999 486.537 -2.472 487.881 -4.328C489.247 -6.20533 491.583 -7.144 494.889 -7.144C498.196 -7.144 500.521 -6.20533 501.865 -4.328C503.231 -2.472 503.913 0.375999 503.913 4.216C503.913 8.056 503.231 10.8827 501.865 12.696ZM509.621 15V-6.76H517.077L522.325 11.16H522.645V-6.76H527.061V15H519.797L514.357 -2.92H514.037V15H509.621ZM533.728 15V-6.76H547.808V-2.92H538.144V2.168H545.888V5.944H538.144V11.16H547.808V15H533.728Z" fill="white" fill-opacity="0.8"/>
<path d="M224.298 368H217.332V355.76H219.816V365.804H224.298V368ZM226.902 368V355.76H234.822V357.92H229.386V360.782H233.742V362.906H229.386V365.84H234.822V368H226.902ZM244.573 355.76H247.183L244.339 368H239.749L236.905 355.76H239.515L241.639 365.84H242.449L244.573 355.76ZM249.875 368V355.76H257.795V357.92H252.359V360.782H256.715V362.906H252.359V365.84H257.795V368H249.875ZM267.888 368H260.922V355.76H263.406V365.804H267.888V368ZM278.065 365.12C278.425 365.744 279.091 366.056 280.063 366.056C281.035 366.056 281.695 365.744 282.043 365.12C282.403 364.484 282.583 363.428 282.583 361.952C282.583 360.464 282.403 359.384 282.043 358.712C281.683 358.04 281.023 357.704 280.063 357.704C279.103 357.704 278.443 358.04 278.083 358.712C277.723 359.384 277.543 360.464 277.543 361.952C277.543 363.428 277.717 364.484 278.065 365.12ZM283.987 366.704C283.231 367.712 281.923 368.216 280.063 368.216C278.203 368.216 276.889 367.712 276.121 366.704C275.365 365.684 274.987 364.094 274.987 361.934C274.987 359.774 275.365 358.172 276.121 357.128C276.889 356.072 278.203 355.544 280.063 355.544C281.923 355.544 283.231 356.072 283.987 357.128C284.755 358.172 285.139 359.774 285.139 361.934C285.139 364.094 284.755 365.684 283.987 366.704ZM288.349 368V355.76H292.543L295.495 365.84H295.675V355.76H298.159V368H294.073L291.013 357.92H290.833V368H288.349ZM301.909 368V355.76H309.829V357.92H304.393V360.782H308.749V362.906H304.393V365.84H309.829V368H301.909Z" fill="white" fill-opacity="0.56"/>
<path d="M382.44 85H366.96V57.8H372.48V80.12H382.44V85ZM388.227 85V57.8H405.827V62.6H393.747V68.96H403.427V73.68H393.747V80.2H405.827V85H388.227ZM427.496 57.8H433.296L426.976 85H416.776L410.456 57.8H416.256L420.976 80.2H422.776L427.496 57.8ZM439.277 85V57.8H456.877V62.6H444.797V68.96H454.477V73.68H444.797V80.2H456.877V85H439.277ZM479.306 85H463.826V57.8H469.346V80.12H479.306V85ZM501.922 78.6C502.722 79.9867 504.202 80.68 506.362 80.68C508.522 80.68 509.989 79.9867 510.762 78.6C511.562 77.1867 511.962 74.84 511.962 71.56C511.962 68.2533 511.562 65.8533 510.762 64.36C509.962 62.8667 508.495 62.12 506.362 62.12C504.229 62.12 502.762 62.8667 501.962 64.36C501.162 65.8533 500.762 68.2533 500.762 71.56C500.762 74.84 501.149 77.1867 501.922 78.6ZM515.082 82.12C513.402 84.36 510.495 85.48 506.362 85.48C502.229 85.48 499.309 84.36 497.602 82.12C495.922 79.8533 495.082 76.32 495.082 71.52C495.082 66.72 495.922 63.16 497.602 60.84C499.309 58.4933 502.229 57.32 506.362 57.32C510.495 57.32 513.402 58.4933 515.082 60.84C516.789 63.16 517.642 66.72 517.642 71.52C517.642 76.32 516.789 79.8533 515.082 82.12ZM524.776 85V57.8H534.096L540.656 80.2H541.056V57.8H546.576V85H537.496L530.696 62.6H530.296V85H524.776ZM554.91 85V57.8H572.51V62.6H560.43V68.96H570.11V73.68H560.43V80.2H572.51V85H554.91Z" fill="white" fill-opacity="0.64"/>
<path d="M26.532 111H21.888V102.84H23.544V109.536H26.532V111ZM28.2682 111V102.84H33.5482V104.28H29.9242V106.188H32.8282V107.604H29.9242V109.56H33.5482V111H28.2682ZM40.0487 102.84H41.7887L39.8927 111H36.8327L34.9367 102.84H36.6767L38.0927 109.56H38.6327L40.0487 102.84ZM43.5832 111V102.84H48.8632V104.28H45.2392V106.188H48.1432V107.604H45.2392V109.56H48.8632V111H43.5832ZM55.5917 111H50.9477V102.84H52.6037V109.536H55.5917V111ZM62.3766 109.08C62.6166 109.496 63.0606 109.704 63.7086 109.704C64.3566 109.704 64.7966 109.496 65.0286 109.08C65.2686 108.656 65.3886 107.952 65.3886 106.968C65.3886 105.976 65.2686 105.256 65.0286 104.808C64.7886 104.36 64.3486 104.136 63.7086 104.136C63.0686 104.136 62.6286 104.36 62.3886 104.808C62.1486 105.256 62.0286 105.976 62.0286 106.968C62.0286 107.952 62.1446 108.656 62.3766 109.08ZM66.3246 110.136C65.8206 110.808 64.9486 111.144 63.7086 111.144C62.4686 111.144 61.5926 110.808 61.0806 110.136C60.5766 109.456 60.3246 108.396 60.3246 106.956C60.3246 105.516 60.5766 104.448 61.0806 103.752C61.5926 103.048 62.4686 102.696 63.7086 102.696C64.9486 102.696 65.8206 103.048 66.3246 103.752C66.8366 104.448 67.0926 105.516 67.0926 106.956C67.0926 108.396 66.8366 109.456 66.3246 110.136ZM69.2327 111V102.84H72.0287L73.9967 109.56H74.1167V102.84H75.7727V111H73.0487L71.0087 104.28H70.8887V111H69.2327ZM78.273 111V102.84H83.553V104.28H79.929V106.188H82.833V107.604H79.929V109.56H83.553V111H78.273Z" fill="white" fill-opacity="0.96"/>
</g>
<defs>
<clipPath id="clip0_1694_62055">
<rect width="528" height="435" fill="white"/>
</clipPath>
</defs>
</svg>
