<svg width="528" height="435" viewBox="0 0 528 435" fill="none" xmlns="http://www.w3.org/2000/svg">
<g clip-path="url(#clip0_1694_68202)">
<path d="M528 0.508057H0V434.492H528V0.508057Z" fill="#F3F8FA" fill-opacity="0.91"/>
<mask id="mask0_1694_68202" style="mask-type:alpha" maskUnits="userSpaceOnUse" x="0" y="0" width="528" height="435">
<path d="M528 0.508057H0V434.492H528V0.508057Z" fill="#F3F8FA" fill-opacity="0.91"/>
</mask>
<g mask="url(#mask0_1694_68202)">
<g opacity="0.15">
<path opacity="0.15" d="M252.113 50.3413L273.868 68.2662L269.205 96.0502L242.791 105.909L221.036 87.9843L225.699 60.2003L252.113 50.3413Z" fill="url(#paint0_linear_1694_68202)"/>
<path opacity="0.15" d="M252.113 50.3413L273.868 68.2662L269.205 96.0502L242.791 105.909L221.036 87.9843L225.699 60.2003L252.113 50.3413Z" fill="white"/>
<path opacity="0.15" d="M252.113 50.3413L273.868 68.2662L269.205 96.0502L242.791 105.909L221.036 87.9843L225.699 60.2003L252.113 50.3413Z" stroke="#00E599"/>
</g>
<g opacity="0.15">
<path opacity="0.15" d="M167.041 36.0955L188.796 54.0204L184.138 81.8043L157.72 91.6634L135.964 73.7384L140.627 45.9545L167.041 36.0955Z" fill="url(#paint1_linear_1694_68202)"/>
<path opacity="0.15" d="M167.041 36.0955L188.796 54.0204L184.138 81.8043L157.72 91.6634L135.964 73.7384L140.627 45.9545L167.041 36.0955Z" fill="white"/>
<path opacity="0.15" d="M167.041 36.0955L188.796 54.0204L184.138 81.8043L157.72 91.6634L135.964 73.7384L140.627 45.9545L167.041 36.0955Z" stroke="#00E599"/>
</g>
<g opacity="0.02">
<path opacity="0.02" d="M81.974 21.8516L103.729 39.7765L99.066 67.5605L72.6522 77.4195L50.897 59.4945L55.5601 31.7106L81.974 21.8516Z" fill="url(#paint2_linear_1694_68202)"/>
<path opacity="0.02" d="M81.974 21.8516L103.729 39.7765L99.066 67.5605L72.6522 77.4195L50.897 59.4945L55.5601 31.7106L81.974 21.8516Z" fill="white"/>
<path opacity="0.02" d="M81.974 21.8516L103.729 39.7765L99.066 67.5605L72.6522 77.4195L50.897 59.4945L55.5601 31.7106L81.974 21.8516Z" stroke="#00E599"/>
</g>
<g opacity="0.15">
<path opacity="0.15" d="M335.864 72.4292L351.477 85.293L348.134 105.232L329.174 112.307L313.561 99.4436L316.908 79.5045L335.864 72.4292Z" fill="url(#paint3_linear_1694_68202)"/>
<path opacity="0.15" d="M335.864 72.4292L351.477 85.293L348.134 105.232L329.174 112.307L313.561 99.4436L316.908 79.5045L335.864 72.4292Z" fill="#F1F5F6"/>
<path opacity="0.15" d="M335.864 72.4292L351.477 85.293L348.134 105.232L329.174 112.307L313.561 99.4436L316.908 79.5045L335.864 72.4292Z" stroke="#00E599"/>
</g>
<g opacity="0.15">
<path opacity="0.15" d="M250.797 58.1871L266.41 71.0509L263.063 90.99L244.107 98.0653L228.494 85.2015L231.841 65.2624L250.797 58.1871Z" fill="url(#paint4_linear_1694_68202)"/>
<path opacity="0.15" d="M250.797 58.1871L266.41 71.0509L263.063 90.99L244.107 98.0653L228.494 85.2015L231.841 65.2624L250.797 58.1871Z" fill="#F1F5F6"/>
<path opacity="0.15" d="M250.797 58.1871L266.41 71.0509L263.063 90.99L244.107 98.0653L228.494 85.2015L231.841 65.2624L250.797 58.1871Z" stroke="#00E599"/>
</g>
<g opacity="0.15">
<path opacity="0.15" d="M165.729 43.9412L181.338 56.8049L177.995 76.744L159.035 83.8193L143.427 70.9555L146.769 51.0165L165.729 43.9412Z" fill="url(#paint5_linear_1694_68202)"/>
<path opacity="0.15" d="M165.729 43.9412L181.338 56.8049L177.995 76.744L159.035 83.8193L143.427 70.9555L146.769 51.0165L165.729 43.9412Z" fill="#F1F5F6"/>
<path opacity="0.15" d="M165.729 43.9412L181.338 56.8049L177.995 76.744L159.035 83.8193L143.427 70.9555L146.769 51.0165L165.729 43.9412Z" stroke="#00E599"/>
</g>
<path d="M373.521 371.066L459.005 385.752" stroke="#00E599" stroke-dasharray="6 6"/>
<path d="M217.254 255.844L132.45 240.933L117.298 330.174L202.329 344.181L217.254 255.844Z" stroke="#00E599" stroke-dasharray="6 6"/>
<path d="M492.515 181.327L514.266 199.252L509.607 227.036L483.189 236.895L461.438 218.97L466.097 191.186L492.515 181.327Z" fill="url(#paint6_linear_1694_68202)"/>
<path d="M492.515 181.327L514.266 199.252L509.607 227.036L483.189 236.895L461.438 218.97L466.097 191.186L492.515 181.327Z" fill="#F5F9FA"/>
<path d="M492.515 181.327L514.266 199.252L509.607 227.036L483.189 236.895L461.438 218.97L466.097 191.186L492.515 181.327Z" stroke="#BFF8E5"/>
<path d="M477.707 269.584L499.462 287.508L494.799 315.292L468.385 325.151L446.63 307.227L451.288 279.443L477.707 269.584Z" stroke="#BFF8E5"/>
<g opacity="0.25">
<path opacity="0.25" d="M392.636 255.34L414.391 273.265L409.728 301.049L383.314 310.908L361.559 292.983L366.222 265.199L392.636 255.34Z" fill="url(#paint7_linear_1694_68202)"/>
<path opacity="0.25" d="M392.636 255.34L414.391 273.265L409.728 301.049L383.314 310.908L361.559 292.983L366.222 265.199L392.636 255.34Z" fill="white"/>
<path opacity="0.25" d="M392.636 255.34L414.391 273.265L409.728 301.049L383.314 310.908L361.559 292.983L366.222 265.199L392.636 255.34Z" stroke="#00E599"/>
</g>
<g opacity="0.15">
<path opacity="0.15" d="M337.18 64.5835L358.935 82.5084L354.272 110.292L327.858 120.151L306.103 102.226L310.766 74.4425L337.18 64.5835Z" fill="url(#paint8_linear_1694_68202)"/>
<path opacity="0.15" d="M337.18 64.5835L358.935 82.5084L354.272 110.292L327.858 120.151L306.103 102.226L310.766 74.4425L337.18 64.5835Z" fill="white"/>
<path opacity="0.15" d="M337.18 64.5835L358.935 82.5084L354.272 110.292L327.858 120.151L306.103 102.226L310.766 74.4425L337.18 64.5835Z" stroke="#00E599"/>
</g>
<g opacity="0.15">
<path opacity="0.15" d="M422.224 79.0905L443.98 97.0154L439.316 124.799L412.903 134.658L391.147 116.734L395.811 88.9494L422.224 79.0905Z" fill="url(#paint9_linear_1694_68202)"/>
<path opacity="0.15" d="M422.224 79.0905L443.98 97.0154L439.316 124.799L412.903 134.658L391.147 116.734L395.811 88.9494L422.224 79.0905Z" fill="white"/>
<path opacity="0.15" d="M422.224 79.0905L443.98 97.0154L439.316 124.799L412.903 134.658L391.147 116.734L395.811 88.9494L422.224 79.0905Z" stroke="#00E599"/>
</g>
<g opacity="0.25">
<path opacity="0.25" d="M307.569 241.096L329.324 259.021L324.661 286.805L298.247 296.664L276.492 278.739L281.155 250.955L307.569 241.096Z" fill="url(#paint10_linear_1694_68202)"/>
<path opacity="0.25" d="M307.569 241.096L329.324 259.021L324.661 286.805L298.247 296.664L276.492 278.739L281.155 250.955L307.569 241.096Z" fill="#F5F9FA"/>
<path opacity="0.25" d="M307.569 241.096L329.324 259.021L324.661 286.805L298.247 296.664L276.492 278.739L281.155 250.955L307.569 241.096Z" stroke="#00E599"/>
</g>
<path d="M152.238 124.352L173.988 142.276L169.33 170.06L142.911 179.919L121.161 161.995L125.819 134.211L152.238 124.352Z" stroke="#BFF8E5"/>
<path opacity="0.25" d="M67.1665 110.106L88.9217 128.031L84.2631 155.815L57.8448 165.674L36.0918 147.749L40.7527 119.965L67.1665 110.106Z" stroke="#00E599"/>
<g opacity="0.05">
<path opacity="0.05" d="M491.194 189.173L506.807 202.037L503.46 221.976L484.505 229.051L468.892 216.188L472.239 196.248L491.194 189.173Z" fill="url(#paint11_linear_1694_68202)"/>
<path opacity="0.05" d="M491.194 189.173L506.807 202.037L503.46 221.976L484.505 229.051L468.892 216.188L472.239 196.248L491.194 189.173Z" fill="#010129"/>
<path opacity="0.05" d="M491.194 189.173L506.807 202.037L503.46 221.976L484.505 229.051L468.892 216.188L472.239 196.248L491.194 189.173Z" stroke="#00E599"/>
</g>
<path d="M476.391 277.429L492.004 290.293L488.657 310.232L469.701 317.308L454.088 304.444L457.435 284.505L476.391 277.429Z" fill="url(#paint12_linear_1694_68202)"/>
<path d="M476.391 277.429L492.004 290.293L488.657 310.232L469.701 317.308L454.088 304.444L457.435 284.505L476.391 277.429Z" fill="#F1F5F6"/>
<path d="M476.391 277.429L492.004 290.293L488.657 310.232L469.701 317.308L454.088 304.444L457.435 284.505L476.391 277.429Z" stroke="#00E599"/>
<path d="M391.319 263.186L406.932 276.049L403.585 295.988L384.63 303.063L369.017 290.2L372.363 270.261L391.319 263.186Z" fill="url(#paint13_linear_1694_68202)"/>
<path d="M391.319 263.186L406.932 276.049L403.585 295.988L384.63 303.063L369.017 290.2L372.363 270.261L391.319 263.186Z" fill="#F1F5F6"/>
<path d="M391.319 263.186L406.932 276.049L403.585 295.988L384.63 303.063L369.017 290.2L372.363 270.261L391.319 263.186Z" stroke="#00E599"/>
<g opacity="0.15">
<path opacity="0.15" d="M420.907 86.936L436.521 99.7998L433.174 119.739L414.218 126.814L398.605 113.95L401.952 94.0113L420.907 86.936Z" fill="url(#paint14_linear_1694_68202)"/>
<path opacity="0.15" d="M420.907 86.936L436.521 99.7998L433.174 119.739L414.218 126.814L398.605 113.95L401.952 94.0113L420.907 86.936Z" fill="#F1F5F6"/>
<path opacity="0.15" d="M420.907 86.936L436.521 99.7998L433.174 119.739L414.218 126.814L398.605 113.95L401.952 94.0113L420.907 86.936Z" stroke="#00E599"/>
</g>
<path d="M65.8547 117.953L81.4633 130.817L78.1208 150.756L59.1607 157.831L43.5522 144.968L46.8946 125.029L65.8547 117.953Z" fill="url(#paint15_linear_1694_68202)"/>
<path d="M65.8547 117.953L81.4633 130.817L78.1208 150.756L59.1607 157.831L43.5522 144.968L46.8946 125.029L65.8547 117.953Z" fill="#F1F5F6"/>
<path d="M65.8547 117.953L81.4633 130.817L78.1208 150.756L59.1607 157.831L43.5522 144.968L46.8946 125.029L65.8547 117.953Z" stroke="#00E599"/>
<path d="M207.693 315.106L229.448 333.031L224.785 360.815L198.371 370.674L176.616 352.749L181.279 324.965L207.693 315.106Z" fill="#F5F9FA" stroke="#BFF8E5"/>
<path d="M137.429 212.604L159.185 230.529L154.522 258.313L128.108 268.172L106.353 250.247L111.016 222.463L137.429 212.604Z" fill="#F5F9FA" stroke="#BFF8E5"/>
<path d="M122.622 300.86L144.377 318.785L139.718 346.569L113.3 356.428L91.5449 338.503L96.208 310.72L122.622 300.86Z" fill="#F5F9FA" stroke="#BFF8E5"/>
<path d="M206.377 322.95L221.986 335.814L218.643 355.753L199.688 362.828L184.075 349.964L187.417 330.026L206.377 322.95Z" fill="url(#paint16_linear_1694_68202)"/>
<path d="M206.377 322.95L221.986 335.814L218.643 355.753L199.688 362.828L184.075 349.964L187.417 330.026L206.377 322.95Z" fill="#F1F5F6"/>
<path d="M206.377 322.95L221.986 335.814L218.643 355.753L199.688 362.828L184.075 349.964L187.417 330.026L206.377 322.95Z" stroke="#00E599"/>
<path d="M136.113 220.45L151.727 233.314L148.38 253.253L129.424 260.328L113.811 247.464L117.158 227.525L136.113 220.45Z" fill="url(#paint17_linear_1694_68202)"/>
<path d="M136.113 220.45L151.727 233.314L148.38 253.253L129.424 260.328L113.811 247.464L117.158 227.525L136.113 220.45Z" fill="#F1F5F6"/>
<path d="M136.113 220.45L151.727 233.314L148.38 253.253L129.424 260.328L113.811 247.464L117.158 227.525L136.113 220.45Z" stroke="#00E599"/>
<path d="M121.31 308.706L136.923 321.57L133.576 341.509L114.621 348.584L99.0078 335.721L102.355 315.781L121.31 308.706Z" fill="url(#paint18_linear_1694_68202)"/>
<path d="M121.31 308.706L136.923 321.57L133.576 341.509L114.621 348.584L99.0078 335.721L102.355 315.781L121.31 308.706Z" fill="#F5F9FA"/>
<path d="M121.31 308.706L136.923 321.57L133.576 341.509L114.621 348.584L99.0078 335.721L102.355 315.781L121.31 308.706Z" stroke="#00E599"/>
<path d="M222.502 226.852L244.257 244.777L239.594 272.561L213.18 282.42L191.425 264.495L196.083 236.711L222.502 226.852Z" fill="#F5F9FA" stroke="#BFF8E5"/>
<path d="M221.185 234.696L236.794 247.56L233.451 267.499L214.491 274.574L198.883 261.71L202.225 241.771L221.185 234.696Z" fill="url(#paint19_linear_1694_68202)"/>
<path d="M221.185 234.696L236.794 247.56L233.451 267.499L214.491 274.574L198.883 261.71L202.225 241.771L221.185 234.696Z" fill="#F5F9FA"/>
<path d="M221.185 234.696L236.794 247.56L233.451 267.499L214.491 274.574L198.883 261.71L202.225 241.771L221.185 234.696Z" stroke="#00E599"/>
<path d="M132.798 237.757L134.544 236.522L133.305 234.78L132.893 235.072L133.848 236.403L132.509 237.346L132.798 237.757Z" fill="#000231"/>
<path d="M131.373 246.128L133.119 244.892L131.88 243.151L131.468 243.443L132.423 244.774L131.084 245.717L131.373 246.128Z" fill="#000231"/>
<path d="M123.124 232.261L122.31 237.054L125.191 238.691L126.014 233.856L129.533 233.183L126.715 231.58L123.124 232.261Z" fill="#00E599"/>
<path d="M126.204 234.065L125.761 236.672L128.664 238.316L129.492 233.429L126.204 234.065Z" fill="#00AF92"/>
<path fill-rule="evenodd" clip-rule="evenodd" d="M124.055 247.398L120.835 245.61L121.64 240.89L125.286 240.236L128.18 241.842L127.353 246.821L124.435 245.165L124.055 247.398ZM121.183 245.432L123.797 246.891L124.566 242.367L127.52 241.817L125.218 240.535L121.911 241.133L121.183 245.432ZM127.122 246.321L124.49 244.828L124.86 242.654L127.823 242.111L127.122 246.321Z" fill="#000231"/>
<path d="M138.018 234.789L137.204 239.582L140.085 241.22L140.908 236.385L144.432 235.711L141.609 234.108L138.018 234.789Z" fill="#00E599"/>
<path d="M141.098 236.593L140.655 239.2L143.559 240.844L144.391 235.957L141.098 236.593Z" fill="#00AF92"/>
<path fill-rule="evenodd" clip-rule="evenodd" d="M138.954 249.926L135.733 248.138L136.538 243.418L140.179 242.764L143.079 244.37L142.251 249.349L139.334 247.693L138.954 249.926ZM136.082 247.96L138.696 249.419L139.465 244.895L142.418 244.345L140.116 243.063L136.81 243.661L136.082 247.96ZM142.02 248.849L139.383 247.356L139.754 245.182L142.721 244.639L142.02 248.849Z" fill="#000231"/>
<path d="M202.904 340.328L204.65 339.092L203.41 337.351L202.999 337.643L203.953 338.974L202.614 339.917L202.904 340.328Z" fill="#000231"/>
<path d="M201.479 348.698L203.225 347.463L201.985 345.722L201.574 346.013L202.528 347.345L201.189 348.288L201.479 348.698Z" fill="#000231"/>
<path d="M193.229 334.831L192.415 339.625L195.296 341.262L196.119 336.427L199.638 335.754L196.82 334.151L193.229 334.831Z" fill="#00E599"/>
<path d="M196.309 336.636L195.866 339.242L198.77 340.887L199.597 336L196.309 336.636Z" fill="#00AF92"/>
<path fill-rule="evenodd" clip-rule="evenodd" d="M194.161 349.969L190.94 348.18L191.746 343.461L195.391 342.807L198.286 344.413L197.458 349.392L194.541 347.735L194.161 349.969ZM191.289 348.002L193.903 349.461L194.672 344.938L197.625 344.388L195.323 343.105L192.017 343.704L191.289 348.002ZM197.227 348.892L194.595 347.399L194.966 345.225L197.928 344.681L197.227 348.892Z" fill="#00E599"/>
<path d="M208.123 337.359L207.309 342.153L210.19 343.791L211.013 338.955L214.537 338.282L211.714 336.679L208.123 337.359Z" fill="#00E599"/>
<path d="M211.203 339.164L210.76 341.771L213.664 343.415L214.496 338.528L211.203 339.164Z" fill="#00AF92"/>
<path fill-rule="evenodd" clip-rule="evenodd" d="M209.059 352.497L205.839 350.709L206.644 345.989L210.285 345.335L213.184 346.941L212.356 351.92L209.439 350.264L209.059 352.497ZM206.187 350.531L208.801 351.99L209.57 347.466L212.524 346.916L210.221 345.633L206.915 346.232L206.187 350.531ZM212.126 351.42L209.489 349.927L209.86 347.753L212.827 347.21L212.126 351.42Z" fill="#00E599"/>
<path d="M378.198 343.19L399.953 361.115L395.29 388.899L368.876 398.758L347.121 380.833L351.784 353.049L378.198 343.19Z" fill="#F5F9FA" stroke="#BFF8E5"/>
<path d="M376.882 351.036L392.495 363.899L389.148 383.838L370.192 390.914L354.579 378.05L357.922 358.111L376.882 351.036Z" fill="url(#paint20_linear_1694_68202)"/>
<path d="M376.882 351.036L392.495 363.899L389.148 383.838L370.192 390.914L354.579 378.05L357.922 358.111L376.882 351.036Z" fill="#F1F5F6"/>
<path d="M376.882 351.036L392.495 363.899L389.148 383.838L370.192 390.914L354.579 378.05L357.922 358.111L376.882 351.036Z" stroke="#00E599"/>
<path d="M463.27 357.437L485.021 375.362L480.362 403.146L453.944 413.005L432.193 395.08L436.851 367.296L463.27 357.437Z" fill="url(#paint21_linear_1694_68202)"/>
<path d="M463.27 357.437L485.021 375.362L480.362 403.146L453.944 413.005L432.193 395.08L436.851 367.296L463.27 357.437Z" fill="#F5F9FA"/>
<path d="M463.27 357.437L485.021 375.362L480.362 403.146L453.944 413.005L432.193 395.08L436.851 367.296L463.27 357.437Z" stroke="#BFF8E5"/>
<path d="M373.566 368.343L375.312 367.107L374.073 365.366L373.661 365.658L374.611 366.989L373.277 367.932L373.566 368.343Z" fill="#000231"/>
<path d="M372.142 376.713L373.888 375.478L372.649 373.737L372.237 374.028L373.187 375.359L371.853 376.302L372.142 376.713Z" fill="#000231"/>
<path d="M363.892 362.846L363.074 367.64L365.959 369.277L366.778 364.442L370.301 363.768L367.484 362.166L363.892 362.846Z" fill="#00E599"/>
<path d="M366.972 364.651L366.529 367.257L369.428 368.901L370.26 364.014L366.972 364.651Z" fill="#00AF92"/>
<path fill-rule="evenodd" clip-rule="evenodd" d="M364.824 377.984L361.604 376.195L362.409 371.476L366.054 370.822L368.949 372.428L368.121 377.407L365.204 375.75L364.824 377.984ZM361.952 376.017L364.566 377.476L365.335 372.953L368.288 372.403L365.986 371.12L362.68 371.719L361.952 376.017ZM367.89 376.907L365.258 375.414L365.624 373.24L368.591 372.696L367.89 376.907Z" fill="#00E599"/>
<path d="M378.786 365.374L377.972 370.168L380.853 371.806L381.676 366.97L385.2 366.297L382.377 364.694L378.786 365.374Z" fill="#00E599"/>
<path d="M381.866 367.179L381.423 369.785L384.327 371.43L385.159 366.542L381.866 367.179Z" fill="#00AF92"/>
<path fill-rule="evenodd" clip-rule="evenodd" d="M379.722 380.512L376.502 378.724L377.303 374.004L380.948 373.35L383.847 374.956L383.015 379.935L380.102 378.278L379.722 380.512ZM376.85 378.545L379.465 380.005L380.233 375.481L383.187 374.931L380.885 373.648L377.578 374.247L376.85 378.545ZM382.784 379.435L380.152 377.942L380.523 375.768L383.49 375.224L382.784 379.435Z" fill="#00E599"/>
<path d="M461.908 365.371L477.521 378.235L474.174 398.174L455.219 405.249L439.605 392.386L442.952 372.447L461.908 365.371Z" fill="url(#paint22_linear_1694_68202)"/>
<path d="M461.908 365.371L477.521 378.235L474.174 398.174L455.219 405.249L439.605 392.386L442.952 372.447L461.908 365.371Z" fill="#F5F9FA"/>
<path d="M461.908 365.371L477.521 378.235L474.174 398.174L455.219 405.249L439.605 392.386L442.952 372.447L461.908 365.371Z" stroke="#00E599"/>
<path d="M306.234 249.198L321.875 262.025L318.577 281.972L299.635 289.092L283.995 276.265L287.292 256.318L306.234 249.198Z" fill="url(#paint23_linear_1694_68202)"/>
<path d="M306.234 249.198L321.875 262.025L318.577 281.972L299.635 289.092L283.995 276.265L287.292 256.318L306.234 249.198Z" fill="#F1F5F6"/>
<path d="M306.234 249.198L321.875 262.025L318.577 281.972L299.635 289.092L283.995 276.265L287.292 256.318L306.234 249.198Z" stroke="#00E599"/>
<path d="M463.075 389.136C462.863 390.365 460.293 390.947 457.34 390.436C454.387 389.925 452.166 388.514 452.378 387.284C452.926 384.136 455.16 385.472 458.113 385.984C461.067 386.495 463.582 386.21 463.075 389.136Z" fill="#F1F5F6"/>
<path fill-rule="evenodd" clip-rule="evenodd" d="M462.116 389.372C462.338 389.22 462.392 389.094 462.406 389.02C462.519 388.37 462.442 388.01 462.333 387.801C462.225 387.601 462.026 387.432 461.65 387.287C461.261 387.138 460.755 387.042 460.113 386.952C459.918 386.925 459.715 386.898 459.502 386.869C459.027 386.808 458.516 386.741 457.996 386.652C457.394 386.547 456.815 386.408 456.295 386.284C456.155 386.251 456.024 386.219 455.893 386.189C455.255 386.039 454.753 385.941 454.341 385.94C453.948 385.938 453.717 386.025 453.554 386.177C453.373 386.344 453.174 386.684 453.048 387.4C453.034 387.475 453.048 387.612 453.202 387.829C453.36 388.048 453.631 388.301 454.038 388.558C454.843 389.069 456.046 389.524 457.458 389.768C458.869 390.012 460.153 389.989 461.085 389.778C461.551 389.671 461.895 389.526 462.116 389.372ZM457.34 390.436C460.293 390.947 462.863 390.365 463.075 389.136C463.496 386.708 461.836 386.491 459.57 386.195C459.104 386.135 458.616 386.071 458.113 385.984C457.535 385.883 456.983 385.751 456.463 385.627C454.346 385.121 452.817 384.755 452.378 387.284C452.166 388.514 454.387 389.925 457.34 390.436Z" fill="#000231"/>
<path d="M463.383 387.354C463.17 388.584 460.601 389.166 457.647 388.655C454.694 388.144 452.473 386.733 452.686 385.504C452.903 384.274 455.467 383.692 458.421 384.203C461.374 384.714 463.595 386.125 463.383 387.354Z" fill="#F1F5F6"/>
<path fill-rule="evenodd" clip-rule="evenodd" d="M462.428 387.591C462.645 387.439 462.704 387.314 462.713 387.239C462.727 387.164 462.718 387.027 462.564 386.81C462.406 386.59 462.13 386.338 461.727 386.082C460.922 385.57 459.714 385.115 458.308 384.871C456.897 384.627 455.608 384.65 454.676 384.862C454.21 384.967 453.866 385.113 453.645 385.266C453.428 385.419 453.369 385.544 453.355 385.619C453.342 385.694 453.355 385.831 453.509 386.048C453.667 386.268 453.943 386.52 454.346 386.777C455.151 387.288 456.354 387.743 457.765 387.987C459.176 388.231 460.465 388.208 461.392 387.997C461.863 387.891 462.202 387.745 462.428 387.591ZM457.647 388.655C460.601 389.166 463.17 388.584 463.383 387.354C463.595 386.125 461.374 384.714 458.421 384.203C455.467 383.692 452.903 384.274 452.686 385.504C452.473 386.733 454.694 388.144 457.647 388.655Z" fill="#000231"/>
<path fill-rule="evenodd" clip-rule="evenodd" d="M452.379 387.284L452.691 385.504L453.134 385.58L452.826 387.362L452.379 387.284Z" fill="#000231"/>
<path fill-rule="evenodd" clip-rule="evenodd" d="M462.627 389.058L462.94 387.278L463.383 387.354L463.075 389.136L462.627 389.058Z" fill="#000231"/>
<path d="M465.766 386.85C465.554 388.079 462.985 388.662 460.031 388.15C457.078 387.639 454.857 386.228 455.07 384.999C455.499 382.519 458.127 381.597 461.081 382.109C464.034 382.62 466.196 384.37 465.766 386.85Z" fill="#F1F5F6"/>
<path fill-rule="evenodd" clip-rule="evenodd" d="M464.812 387.087C465.029 386.935 465.083 386.809 465.097 386.734C465.269 385.744 464.939 384.907 464.224 384.233C463.496 383.539 462.352 383.017 460.963 382.777C459.579 382.536 458.326 382.645 457.404 383.052C456.508 383.448 455.911 384.124 455.739 385.114C455.726 385.189 455.739 385.327 455.893 385.543C456.051 385.763 456.323 386.015 456.73 386.272C457.535 386.784 458.738 387.238 460.149 387.482C461.56 387.727 462.845 387.703 463.776 387.492C464.247 387.386 464.586 387.241 464.812 387.087ZM460.031 388.15C462.985 388.662 465.554 388.079 465.766 386.85C466.196 384.37 464.034 382.62 461.081 382.109C458.127 381.597 455.499 382.519 455.07 384.999C454.857 386.228 457.078 387.639 460.031 388.15Z" fill="#000231"/>
<path d="M466.078 385.069C465.861 386.298 463.297 386.881 460.343 386.369C457.39 385.858 455.169 384.447 455.382 383.218C455.594 381.988 458.159 381.406 461.112 381.917C464.066 382.428 466.291 383.839 466.078 385.069Z" fill="#F1F5F6"/>
<path fill-rule="evenodd" clip-rule="evenodd" d="M465.12 385.306C465.337 385.154 465.396 385.028 465.409 384.953C465.423 384.879 465.409 384.741 465.255 384.524C465.097 384.305 464.821 384.052 464.419 383.796C463.613 383.284 462.41 382.829 460.999 382.585C459.588 382.341 458.299 382.365 457.372 382.576C456.901 382.682 456.558 382.827 456.336 382.981C456.119 383.133 456.06 383.259 456.051 383.333C456.038 383.408 456.047 383.546 456.2 383.763C456.359 383.982 456.635 384.234 457.037 384.491C457.842 385.003 459.05 385.458 460.456 385.702C461.868 385.946 463.157 385.922 464.088 385.711C464.554 385.605 464.898 385.46 465.12 385.306ZM460.343 386.369C463.297 386.881 465.861 386.298 466.078 385.069C466.291 383.839 464.066 382.428 461.112 381.917C458.159 381.406 455.594 381.988 455.382 383.218C455.169 384.447 457.39 385.858 460.343 386.369Z" fill="#000231"/>
<path fill-rule="evenodd" clip-rule="evenodd" d="M455.07 384.999L455.382 383.218L455.825 383.295L455.518 385.076L455.07 384.999Z" fill="#000231"/>
<path fill-rule="evenodd" clip-rule="evenodd" d="M465.323 386.773L465.631 384.992L466.074 385.069L465.766 386.85L465.323 386.773Z" fill="#000231"/>
<path d="M463.401 384.606C463.188 385.836 460.619 386.418 457.666 385.907C454.712 385.396 452.491 383.984 452.704 382.755C453.369 378.939 455.761 379.354 458.715 379.865C461.668 380.376 464.02 381.044 463.401 384.606Z" fill="#F1F5F6"/>
<path fill-rule="evenodd" clip-rule="evenodd" d="M462.442 384.843C462.663 384.691 462.718 384.565 462.731 384.491C462.876 383.671 462.835 383.076 462.7 382.637C462.564 382.21 462.324 381.89 461.985 381.628C461.257 381.07 460.103 380.793 458.597 380.533C457.851 380.404 457.182 380.288 456.571 380.24C455.956 380.192 455.454 380.216 455.042 380.338C454.649 380.454 454.323 380.662 454.052 381.026C453.771 381.403 453.527 381.98 453.373 382.871C453.36 382.945 453.373 383.083 453.527 383.299C453.685 383.519 453.957 383.772 454.364 384.028C455.169 384.54 456.372 384.995 457.783 385.239C459.194 385.483 460.479 385.459 461.411 385.248C461.876 385.142 462.22 384.997 462.442 384.843ZM457.666 385.907C460.619 386.418 463.188 385.836 463.401 384.606C464.02 381.044 461.668 380.376 458.715 379.865C455.761 379.354 453.369 378.939 452.704 382.755C452.491 383.984 454.712 385.396 457.666 385.907Z" fill="#000231"/>
<path d="M463.709 382.825C463.496 384.055 460.932 384.637 457.978 384.126C455.025 383.614 452.804 382.204 453.017 380.974C453.229 379.745 455.794 379.162 458.747 379.673C461.7 380.185 463.926 381.596 463.709 382.825Z" fill="#F1F5F6"/>
<path fill-rule="evenodd" clip-rule="evenodd" d="M462.754 383.062C462.971 382.91 463.03 382.784 463.044 382.709C463.057 382.635 463.044 382.497 462.89 382.281C462.732 382.061 462.456 381.809 462.053 381.552C461.248 381.04 460.045 380.586 458.634 380.341C457.223 380.097 455.934 380.121 455.007 380.332C454.536 380.438 454.192 380.583 453.971 380.737C453.754 380.889 453.695 381.015 453.681 381.09C453.672 381.164 453.681 381.302 453.835 381.519C453.993 381.738 454.269 381.99 454.672 382.247C455.477 382.759 456.68 383.214 458.091 383.458C459.502 383.702 460.791 383.679 461.723 383.467C462.189 383.361 462.533 383.216 462.754 383.062ZM457.978 384.126C460.932 384.637 463.496 384.055 463.709 382.825C463.926 381.596 461.7 380.185 458.747 379.673C455.794 379.162 453.229 379.745 453.017 380.974C452.804 382.204 455.025 383.614 457.978 384.126Z" fill="#000231"/>
<path fill-rule="evenodd" clip-rule="evenodd" d="M452.704 382.755L453.012 380.974L453.459 381.051L453.152 382.832L452.704 382.755Z" fill="#000231"/>
<path fill-rule="evenodd" clip-rule="evenodd" d="M462.958 384.529L463.265 382.748L463.708 382.825L463.401 384.606L462.958 384.529Z" fill="#000231"/>
<path fill-rule="evenodd" clip-rule="evenodd" d="M303.186 268.947C303.434 268.988 303.602 269.22 303.561 269.467L302.381 276.6C302.34 276.846 302.105 277.012 301.861 276.972C301.612 276.931 301.444 276.699 301.485 276.452L302.666 269.319C302.706 269.073 302.941 268.906 303.186 268.947Z" fill="#000023"/>
<path fill-rule="evenodd" clip-rule="evenodd" d="M310.309 267.17C310.381 267.408 310.25 267.661 310.01 267.735L303.244 269.824C303.009 269.898 302.756 269.765 302.679 269.526C302.606 269.288 302.742 269.035 302.977 268.961L309.743 266.872C309.979 266.798 310.232 266.931 310.309 267.17Z" fill="#000023"/>
<path fill-rule="evenodd" clip-rule="evenodd" d="M303.796 261.959C304.153 261.829 304.556 261.896 304.859 262.135L310.237 266.433C310.549 266.682 310.703 267.078 310.635 267.471L309.545 274.078C309.481 274.471 309.205 274.797 308.835 274.933L302.353 277.274C301.991 277.404 301.589 277.338 301.29 277.099L295.913 272.801C295.601 272.552 295.447 272.155 295.51 271.762L296.605 265.156C296.668 264.763 296.939 264.436 297.315 264.301L303.796 261.959ZM304.294 262.84C304.239 262.798 304.167 262.786 304.104 262.809L297.622 265.15C297.559 265.175 297.509 265.233 297.496 265.303L296.406 271.91C296.392 271.98 296.419 272.051 296.474 272.095L301.856 276.393C301.91 276.436 301.982 276.448 302.046 276.424L308.527 274.083C308.59 274.059 308.64 274.001 308.654 273.931L309.744 267.324C309.757 267.254 309.73 267.183 309.671 267.139L304.294 262.84Z" fill="#000023"/>
<path fill-rule="evenodd" clip-rule="evenodd" d="M300.097 267.093C300.341 267.132 300.513 267.364 300.472 267.61L299.382 274.441C299.341 274.687 299.111 274.855 298.862 274.816C298.618 274.777 298.45 274.545 298.486 274.299L299.576 267.468C299.617 267.221 299.848 267.054 300.097 267.093Z" fill="#000023"/>
<path fill-rule="evenodd" clip-rule="evenodd" d="M306.615 268.05C306.859 268.089 307.031 268.32 306.99 268.567L305.9 275.398C305.859 275.644 305.629 275.812 305.38 275.773C305.136 275.733 304.968 275.502 305.004 275.255L306.095 268.425C306.135 268.178 306.366 268.01 306.615 268.05Z" fill="#000023"/>
<path fill-rule="evenodd" clip-rule="evenodd" d="M297.012 264.976C297.161 264.774 297.442 264.729 297.645 264.876L303.376 269.027C303.579 269.174 303.624 269.456 303.475 269.658C303.33 269.86 303.05 269.905 302.846 269.759L297.116 265.607C296.912 265.461 296.867 265.178 297.012 264.976Z" fill="#000023"/>
<path fill-rule="evenodd" clip-rule="evenodd" d="M296.573 267.652C296.718 267.45 297.003 267.405 297.202 267.552L302.937 271.703C303.136 271.85 303.181 272.132 303.036 272.334C302.887 272.536 302.607 272.581 302.403 272.435L296.672 268.283C296.469 268.137 296.424 267.854 296.573 267.652Z" fill="#000023"/>
<path fill-rule="evenodd" clip-rule="evenodd" d="M310.002 269.578C310.074 269.816 309.943 270.069 309.703 270.144L302.742 272.319C302.503 272.393 302.249 272.26 302.177 272.022C302.1 271.784 302.236 271.531 302.471 271.456L309.432 269.281C309.671 269.207 309.925 269.34 310.002 269.578Z" fill="#000023"/>
<path d="M305.045 258.262C305.542 258.343 305.972 258.499 306.334 258.729C306.7 258.951 306.967 259.238 307.134 259.59C307.306 259.942 307.356 260.347 307.283 260.804C307.202 261.277 307.048 261.655 306.808 261.94C306.582 262.218 306.302 262.415 305.967 262.53C305.637 262.637 305.284 262.683 304.909 262.67L304.651 263.757L303.321 263.537L303.624 261.754C304.081 261.773 304.452 261.749 304.742 261.684C305.031 261.618 305.248 261.508 305.397 261.355C305.547 261.201 305.642 261.003 305.682 260.759C305.732 260.459 305.678 260.207 305.524 260.004C305.366 259.8 305.099 259.667 304.723 259.605C304.357 259.544 304.04 259.614 303.783 259.814C303.525 260.006 303.335 260.31 303.217 260.728L301.928 259.908C302.082 259.513 302.299 259.176 302.58 258.898C302.86 258.613 303.199 258.414 303.606 258.303C304.018 258.185 304.497 258.171 305.045 258.262ZM303.869 264.442C304.149 264.487 304.353 264.606 304.488 264.799C304.624 264.991 304.669 265.225 304.624 265.501C304.579 265.785 304.461 265.996 304.267 266.134C304.081 266.265 303.846 266.307 303.57 266.262C303.294 266.216 303.086 266.101 302.95 265.916C302.81 265.724 302.77 265.486 302.815 265.202C302.86 264.926 302.978 264.72 303.168 264.581C303.357 264.442 303.593 264.396 303.869 264.442Z" fill="#000023"/>
<path fill-rule="evenodd" clip-rule="evenodd" d="M301.928 259.908C302.082 259.512 302.299 259.175 302.579 258.898C302.86 258.612 303.199 258.414 303.606 258.302C304.018 258.185 304.497 258.171 305.044 258.261C305.542 258.343 305.971 258.499 306.333 258.729C306.7 258.951 306.966 259.237 307.134 259.589C307.306 259.941 307.355 260.346 307.283 260.803C307.202 261.276 307.048 261.655 306.808 261.939C306.582 262.217 306.302 262.414 305.967 262.529C305.637 262.636 305.284 262.683 304.909 262.67L304.651 263.756L303.321 263.537L303.624 261.754C304.081 261.772 304.452 261.749 304.741 261.683C305.031 261.617 305.248 261.507 305.397 261.354C305.546 261.201 305.641 261.002 305.682 260.758C305.732 260.458 305.677 260.207 305.524 260.003C305.365 259.799 305.099 259.666 304.723 259.604C304.357 259.543 304.04 259.613 303.782 259.813C303.678 259.892 303.583 259.989 303.502 260.105C303.38 260.273 303.285 260.48 303.217 260.727L301.928 259.908ZM303.819 261.081C304.158 261.087 304.411 261.063 304.592 261.022C304.795 260.975 304.881 260.912 304.909 260.882C304.949 260.842 304.99 260.777 305.013 260.647C305.035 260.496 305.004 260.442 304.981 260.414C304.972 260.402 304.9 260.32 304.615 260.273C304.402 260.238 304.284 260.281 304.198 260.349L304.194 260.352L304.189 260.356C304.085 260.433 303.959 260.59 303.868 260.914L303.819 261.081ZM303 261.393L301.096 260.181L301.295 259.663C301.48 259.188 301.747 258.769 302.095 258.42C302.462 258.048 302.909 257.791 303.421 257.65C303.954 257.499 304.538 257.49 305.157 257.592C305.723 257.686 306.243 257.869 306.691 258.153C307.156 258.436 307.514 258.815 307.744 259.292C307.989 259.793 308.047 260.344 307.953 260.914C307.858 261.47 307.663 261.971 307.333 262.371C307.025 262.742 306.645 263.013 306.189 263.169L306.184 263.172L306.18 263.174C305.94 263.25 305.696 263.301 305.447 263.328L305.166 264.528L305.117 264.52C305.311 264.857 305.356 265.237 305.293 265.611C305.225 266.029 305.031 266.416 304.669 266.682L304.66 266.687L304.655 266.691C304.289 266.943 303.868 266.997 303.457 266.93C303.05 266.862 302.665 266.675 302.403 266.32L302.398 266.313L302.394 266.307C302.132 265.937 302.077 265.509 302.145 265.091C302.208 264.717 302.371 264.372 302.665 264.116L302.534 264.094L303 261.393ZM304.488 264.798C304.352 264.606 304.149 264.486 303.868 264.441C303.592 264.395 303.357 264.442 303.167 264.58C302.977 264.719 302.86 264.926 302.814 265.201C302.769 265.485 302.81 265.723 302.946 265.916C303.086 266.1 303.294 266.215 303.57 266.261C303.846 266.307 304.081 266.264 304.266 266.134C304.461 265.995 304.578 265.784 304.624 265.5C304.669 265.224 304.624 264.99 304.488 264.798Z" fill="#F1F5F6"/>
<path d="M150.731 132.215L166.344 145.079L162.997 165.018L144.042 172.093L128.429 159.23L131.776 139.291L150.731 132.215Z" fill="url(#paint24_linear_1694_68202)"/>
<path d="M150.731 132.215L166.344 145.079L162.997 165.018L144.042 172.093L128.429 159.23L131.776 139.291L150.731 132.215Z" fill="#F1F5F6"/>
<path d="M150.731 132.215L166.344 145.079L162.997 165.018L144.042 172.093L128.429 159.23L131.776 139.291L150.731 132.215Z" stroke="#00E599"/>
<path d="M322.3 152.819L344.05 170.743L339.392 198.527L312.973 208.386L291.223 190.462L295.881 162.678L322.3 152.819Z" stroke="#BFF8E5"/>
<path d="M320.793 160.682L336.406 173.545L333.059 193.484L314.104 200.56L298.491 187.696L301.838 167.757L320.793 160.682Z" fill="url(#paint25_linear_1694_68202)"/>
<path d="M320.793 160.682L336.406 173.545L333.059 193.484L314.104 200.56L298.491 187.696L301.838 167.757L320.793 160.682Z" fill="#F1F5F6"/>
<path d="M320.793 160.682L336.406 173.545L333.059 193.484L314.104 200.56L298.491 187.696L301.838 167.757L320.793 160.682Z" stroke="#00E599"/>
<path d="M53.2402 190.823L80.8933 213.61L74.9683 248.93L41.3901 261.463L13.7339 238.676L19.6598 203.356L53.2402 190.823Z" stroke="#00E599"/>
<g filter="url(#filter0_d_1694_68202)">
<path d="M52.2819 198.456L74.0326 216.38L69.3741 244.164L42.9557 254.023L21.2036 236.099L25.8649 208.315L52.2819 198.456Z" fill="url(#paint26_linear_1694_68202)"/>
<path d="M52.2819 198.456L74.0326 216.38L69.3741 244.164L42.9557 254.023L21.2036 236.099L25.8649 208.315L52.2819 198.456Z" fill="white"/>
<path d="M52.2819 198.456L74.0326 216.38L69.3741 244.164L42.9557 254.023L21.2036 236.099L25.8649 208.315L52.2819 198.456Z" stroke="#BFF8E5"/>
</g>
<path d="M50.7752 206.319L66.3883 219.183L63.0413 239.122L44.0858 246.197L28.4731 233.333L31.8183 213.395L50.7752 206.319Z" fill="url(#paint27_linear_1694_68202)"/>
<path d="M50.7752 206.319L66.3883 219.183L63.0413 239.122L44.0858 246.197L28.4731 233.333L31.8183 213.395L50.7752 206.319Z" fill="#F1F5F6"/>
<path d="M50.7752 206.319L66.3883 219.183L63.0413 239.122L44.0858 246.197L28.4731 233.333L31.8183 213.395L50.7752 206.319Z" stroke="#00E599"/>
<path d="M45.2255 221.545C45.0491 221.296 44.6692 221.312 44.5154 221.576L39.4 230.352C39.2191 230.663 39.4859 231.044 39.8432 230.977C40.3453 230.88 49.4227 229.135 49.8253 229.058C50.1238 229.001 50.2686 228.652 50.0876 228.402L45.2255 221.545ZM44.9134 222.564L46.3291 224.556C46.207 225.992 46.4964 227.442 47.1613 228.714L45.2753 229.077C44.1852 227.472 43.8324 225.428 44.339 223.547L44.9134 222.564ZM42.566 229.597C42.2359 229.063 41.9826 228.488 41.8152 227.882L43.2716 225.384C43.2852 226.792 43.6922 228.116 44.3842 229.248L42.566 229.597ZM41.2499 228.847C41.3765 229.162 41.5212 229.469 41.6886 229.766L40.594 229.976L41.2499 228.847ZM48.0297 228.547C47.5367 227.685 47.2427 226.72 47.1613 225.732L49.0248 228.356L48.0297 228.547Z" fill="#000231"/>
<path d="M50.0061 226.143C50.1373 226.333 50.3996 226.377 50.5896 226.243C52.4168 224.95 53.8551 225.691 53.8687 225.698C54.0722 225.808 54.33 225.73 54.4386 225.525C54.5471 225.321 54.4702 225.066 54.2667 224.957C54.1898 224.916 52.3489 223.967 50.1056 225.558C49.9156 225.692 49.8704 225.954 50.0061 226.143Z" fill="#000231"/>
<path d="M47.3288 222.372C47.46 222.562 47.7269 222.606 47.9123 222.472C50.1602 220.882 49.8707 218.836 49.8572 218.749C49.8255 218.52 49.6084 218.363 49.3777 218.398C49.1516 218.433 48.9933 218.648 49.0295 218.877C49.0295 218.893 49.2556 220.493 47.4284 221.786C47.2384 221.92 47.1931 222.183 47.3288 222.372Z" fill="#000231"/>
<path d="M48.6451 223.501C48.4552 223.635 48.4099 223.897 48.5456 224.087C48.6768 224.274 48.9391 224.321 49.1291 224.188C49.3598 224.118 49.9568 224.632 50.391 224.325C50.8161 224.022 50.5402 223.305 50.6759 223.094C50.9201 223.036 51.5081 223.534 51.9333 223.232C52.363 222.929 52.0871 222.211 52.2228 222C52.467 221.942 53.0505 222.441 53.4801 222.138C53.9053 221.835 53.6294 221.118 53.7651 220.906C54.0093 220.848 54.5973 221.347 55.0225 221.044C55.4567 220.738 55.1717 220.004 55.3119 219.809C55.4973 219.675 55.5426 219.414 55.4069 219.226C55.2758 219.036 55.0134 218.992 54.8234 219.126C54.439 219.396 54.4254 219.869 54.43 220.208C54.1133 220.091 53.661 219.949 53.2766 220.219C52.8967 220.49 52.8831 220.962 52.8876 221.302C52.5665 221.185 52.1142 221.042 51.7343 221.313C51.3499 221.584 51.3363 222.056 51.3408 222.396C51.0242 222.278 50.5719 222.136 50.1875 222.407C49.8075 222.678 49.794 223.15 49.7985 223.49C49.4774 223.372 49.0296 223.23 48.6451 223.501Z" fill="#000231"/>
<path d="M51.5895 220.385C51.7795 220.251 51.8247 219.988 51.689 219.799C51.5578 219.609 51.291 219.564 51.1056 219.699C50.9156 219.834 50.8704 220.096 51.0016 220.285C51.1373 220.475 51.3995 220.52 51.5895 220.385Z" fill="#000231"/>
<path d="M53.7103 223.885C53.9364 223.924 54.1535 223.77 54.1942 223.541C54.2349 223.312 54.0811 223.095 53.8504 223.056C53.6198 223.017 53.4027 223.171 53.3665 223.4C53.3258 223.629 53.4796 223.846 53.7103 223.885Z" fill="#000231"/>
<path d="M52.2497 227.129C52.0597 227.263 52.0144 227.525 52.1501 227.715C52.2858 227.905 52.5482 227.949 52.7381 227.815C52.9281 227.681 52.9733 227.418 52.8376 227.229C52.7019 227.039 52.4396 226.994 52.2497 227.129Z" fill="#000231"/>
<path d="M47.383 220.272C47.573 220.138 47.6182 219.875 47.4825 219.686C47.3513 219.496 47.089 219.451 46.899 219.586C46.7091 219.72 46.6639 219.983 46.7995 220.172C46.9307 220.362 47.193 220.407 47.383 220.272Z" fill="#000231"/>
<path d="M238.227 130.727L265.881 153.513L259.956 188.833L226.377 201.367L198.72 178.58L204.645 143.26L238.227 130.727Z" stroke="#00E599"/>
<g filter="url(#filter1_d_1694_68202)">
<path d="M237.269 138.359L259.02 156.284L254.361 184.068L227.943 193.927L206.192 176.002L210.85 148.218L237.269 138.359Z" fill="url(#paint28_linear_1694_68202)"/>
<path d="M237.269 138.359L259.02 156.284L254.361 184.068L227.943 193.927L206.192 176.002L210.85 148.218L237.269 138.359Z" fill="white"/>
<path d="M237.269 138.359L259.02 156.284L254.361 184.068L227.943 193.927L206.192 176.002L210.85 148.218L237.269 138.359Z" stroke="#BFF8E5"/>
</g>
<path d="M235.762 146.222L251.375 159.086L248.028 179.025L229.073 186.101L213.459 173.237L216.806 153.298L235.762 146.222Z" fill="url(#paint29_linear_1694_68202)"/>
<path d="M235.762 146.222L251.375 159.086L248.028 179.025L229.073 186.101L213.459 173.237L216.806 153.298L235.762 146.222Z" fill="#F1F5F6"/>
<path d="M235.762 146.222L251.375 159.086L248.028 179.025L229.073 186.101L213.459 173.237L216.806 153.298L235.762 146.222Z" stroke="#00E599"/>
<path d="M230.213 161.448C230.036 161.2 229.657 161.215 229.503 161.48L224.387 170.256C224.206 170.566 224.473 170.948 224.831 170.88C225.333 170.783 234.41 169.039 234.813 168.961C235.111 168.904 235.256 168.556 235.075 168.305L230.213 161.448ZM229.901 162.467L231.316 164.459C231.194 165.895 231.484 167.346 232.149 168.617L230.263 168.98C229.173 167.375 228.82 165.332 229.326 163.451L229.901 162.467ZM227.553 169.5C227.223 168.967 226.97 168.392 226.803 167.785L228.259 165.288C228.273 166.695 228.68 168.02 229.372 169.151L227.553 169.5ZM226.237 168.75C226.364 169.066 226.509 169.373 226.676 169.669L225.581 169.88L226.237 168.75ZM233.017 168.45C232.524 167.589 232.23 166.624 232.149 165.636L234.012 168.259L233.017 168.45Z" fill="#000231"/>
<path d="M234.993 166.047C235.125 166.236 235.387 166.281 235.577 166.147C237.404 164.854 238.842 165.594 238.856 165.602C239.06 165.711 239.317 165.634 239.426 165.429C239.534 165.224 239.458 164.97 239.254 164.86C239.177 164.819 237.336 163.871 235.093 165.461C234.903 165.596 234.858 165.858 234.993 166.047Z" fill="#000231"/>
<path d="M232.316 162.276C232.447 162.465 232.714 162.51 232.899 162.376C235.147 160.785 234.857 158.739 234.844 158.653C234.812 158.423 234.595 158.266 234.364 158.301C234.138 158.337 233.98 158.552 234.016 158.781C234.016 158.797 234.242 160.397 232.415 161.69C232.225 161.824 232.18 162.087 232.316 162.276Z" fill="#000231"/>
<path d="M233.632 163.404C233.442 163.538 233.397 163.801 233.533 163.99C233.664 164.178 233.926 164.224 234.116 164.092C234.347 164.022 234.944 164.535 235.378 164.229C235.803 163.926 235.528 163.209 235.663 162.997C235.907 162.939 236.495 163.438 236.921 163.135C237.35 162.832 237.074 162.115 237.21 161.904C237.454 161.845 238.038 162.345 238.467 162.041C238.893 161.738 238.617 161.022 238.752 160.81C238.997 160.752 239.585 161.25 240.01 160.947C240.444 160.642 240.159 159.908 240.299 159.713C240.485 159.578 240.53 159.318 240.394 159.129C240.263 158.94 240.001 158.895 239.811 159.029C239.426 159.3 239.413 159.772 239.417 160.112C239.101 159.994 238.648 159.852 238.264 160.123C237.884 160.394 237.87 160.866 237.875 161.206C237.554 161.088 237.102 160.946 236.722 161.217C236.337 161.488 236.324 161.96 236.328 162.3C236.012 162.182 235.559 162.04 235.175 162.311C234.795 162.581 234.781 163.054 234.786 163.393C234.465 163.276 234.017 163.133 233.632 163.404Z" fill="#000231"/>
<path d="M236.576 160.289C236.766 160.155 236.812 159.892 236.676 159.702C236.545 159.513 236.278 159.468 236.092 159.602C235.902 159.737 235.857 159.999 235.988 160.189C236.124 160.379 236.386 160.423 236.576 160.289Z" fill="#000231"/>
<path d="M238.698 163.789C238.924 163.828 239.141 163.674 239.182 163.444C239.223 163.216 239.069 162.998 238.838 162.959C238.607 162.92 238.39 163.074 238.354 163.303C238.313 163.532 238.467 163.75 238.698 163.789Z" fill="#000231"/>
<path d="M237.237 167.032C237.047 167.166 237.002 167.429 237.137 167.619C237.273 167.808 237.535 167.853 237.725 167.718C237.915 167.584 237.961 167.322 237.825 167.132C237.689 166.943 237.427 166.898 237.237 167.032Z" fill="#000231"/>
<path d="M232.37 160.176C232.56 160.041 232.606 159.779 232.47 159.589C232.339 159.4 232.076 159.355 231.886 159.489C231.696 159.624 231.651 159.886 231.787 160.076C231.918 160.265 232.18 160.31 232.37 160.176Z" fill="#000231"/>
<path d="M408.289 159.645L435.942 182.432L430.017 217.752L396.439 230.285L368.781 207.498L374.706 172.178L408.289 159.645Z" stroke="#00E599"/>
<g filter="url(#filter2_d_1694_68202)">
<path d="M407.33 167.278L429.081 185.203L424.422 212.987L398.004 222.846L376.253 204.921L380.911 177.137L407.33 167.278Z" fill="url(#paint30_linear_1694_68202)"/>
<path d="M407.33 167.278L429.081 185.203L424.422 212.987L398.004 222.846L376.253 204.921L380.911 177.137L407.33 167.278Z" fill="white"/>
<path d="M407.33 167.278L429.081 185.203L424.422 212.987L398.004 222.846L376.253 204.921L380.911 177.137L407.33 167.278Z" stroke="#BFF8E5"/>
</g>
<path d="M405.824 175.141L421.437 188.005L418.09 207.944L399.135 215.019L383.521 202.155L386.868 182.216L405.824 175.141Z" fill="url(#paint31_linear_1694_68202)"/>
<path d="M405.824 175.141L421.437 188.005L418.09 207.944L399.135 215.019L383.521 202.155L386.868 182.216L405.824 175.141Z" fill="#F1F5F6"/>
<path d="M405.824 175.141L421.437 188.005L418.09 207.944L399.135 215.019L383.521 202.155L386.868 182.216L405.824 175.141Z" stroke="#00E599"/>
<path d="M400.274 190.367C400.098 190.118 399.718 190.134 399.564 190.398L394.449 199.174C394.268 199.485 394.535 199.866 394.892 199.799C395.394 199.702 404.472 197.957 404.874 197.88C405.173 197.823 405.317 197.474 405.136 197.224L400.274 190.367ZM399.962 191.386L401.378 193.378C401.256 194.814 401.545 196.264 402.21 197.536L400.324 197.899C399.234 196.294 398.881 194.25 399.388 192.369L399.962 191.386ZM397.615 198.419C397.285 197.885 397.031 197.31 396.864 196.704L398.32 194.206C398.334 195.614 398.741 196.938 399.433 198.07L397.615 198.419ZM396.299 197.669C396.425 197.984 396.57 198.291 396.737 198.588L395.643 198.798L396.299 197.669ZM403.078 197.369C402.586 196.507 402.292 195.542 402.21 194.554L404.074 197.178L403.078 197.369Z" fill="#000231"/>
<path d="M405.055 194.966C405.186 195.155 405.448 195.2 405.638 195.065C407.466 193.772 408.904 194.513 408.918 194.521C409.121 194.63 409.379 194.553 409.487 194.347C409.596 194.143 409.519 193.888 409.316 193.779C409.239 193.738 407.398 192.789 405.154 194.38C404.964 194.514 404.919 194.776 405.055 194.966Z" fill="#000231"/>
<path d="M402.377 191.195C402.508 191.384 402.775 191.429 402.961 191.294C405.209 189.704 404.919 187.658 404.905 187.572C404.874 187.342 404.657 187.185 404.426 187.22C404.2 187.256 404.042 187.47 404.078 187.699C404.078 187.716 404.304 189.315 402.477 190.608C402.287 190.743 402.241 191.005 402.377 191.195Z" fill="#000231"/>
<path d="M403.694 192.323C403.504 192.457 403.459 192.719 403.594 192.909C403.726 193.096 403.988 193.143 404.178 193.01C404.409 192.94 405.006 193.454 405.44 193.147C405.865 192.844 405.589 192.128 405.725 191.916C405.969 191.858 406.557 192.357 406.982 192.054C407.412 191.751 407.136 191.034 407.272 190.822C407.516 190.764 408.099 191.263 408.529 190.96C408.954 190.657 408.678 189.94 408.814 189.728C409.058 189.67 409.646 190.169 410.071 189.866C410.505 189.56 410.22 188.826 410.361 188.632C410.546 188.497 410.591 188.236 410.456 188.048C410.325 187.858 410.062 187.814 409.872 187.948C409.488 188.219 409.474 188.691 409.479 189.031C409.162 188.913 408.71 188.771 408.325 189.041C407.945 189.312 407.932 189.784 407.936 190.124C407.615 190.007 407.163 189.864 406.783 190.135C406.399 190.406 406.385 190.878 406.39 191.218C406.073 191.1 405.621 190.958 405.236 191.229C404.856 191.5 404.843 191.972 404.847 192.312C404.526 192.194 404.078 192.052 403.694 192.323Z" fill="#000231"/>
<path d="M406.638 189.208C406.828 189.073 406.873 188.811 406.737 188.621C406.606 188.432 406.339 188.387 406.154 188.521C405.964 188.656 405.919 188.918 406.05 189.108C406.186 189.297 406.448 189.342 406.638 189.208Z" fill="#000231"/>
<path d="M408.759 192.707C408.986 192.746 409.203 192.592 409.243 192.363C409.284 192.134 409.13 191.917 408.9 191.878C408.669 191.839 408.452 191.993 408.416 192.222C408.375 192.451 408.529 192.668 408.759 192.707Z" fill="#000231"/>
<path d="M407.298 195.951C407.109 196.085 407.063 196.347 407.199 196.537C407.335 196.727 407.597 196.771 407.787 196.637C407.977 196.503 408.022 196.24 407.886 196.051C407.751 195.861 407.488 195.816 407.298 195.951Z" fill="#000231"/>
<path d="M402.432 189.095C402.622 188.96 402.667 188.698 402.531 188.508C402.4 188.318 402.138 188.274 401.948 188.408C401.758 188.542 401.713 188.805 401.848 188.995C401.98 189.184 402.242 189.229 402.432 189.095Z" fill="#000231"/>
<path d="M293.859 321.86L321.512 344.647L315.587 379.967L282.009 392.5L254.352 369.713L260.277 334.393L293.859 321.86Z" stroke="#00E599"/>
<g filter="url(#filter3_d_1694_68202)">
<path d="M292.9 329.493L314.651 347.418L309.992 375.202L283.574 385.061L261.823 367.136L266.482 339.352L292.9 329.493Z" fill="url(#paint32_linear_1694_68202)"/>
<path d="M292.9 329.493L314.651 347.418L309.992 375.202L283.574 385.061L261.823 367.136L266.482 339.352L292.9 329.493Z" fill="white"/>
<path d="M292.9 329.493L314.651 347.418L309.992 375.202L283.574 385.061L261.823 367.136L266.482 339.352L292.9 329.493Z" stroke="#BFF8E5"/>
</g>
<path d="M291.394 337.356L307.007 350.22L303.66 370.159L284.705 377.235L269.092 364.371L272.439 344.432L291.394 337.356Z" fill="url(#paint33_linear_1694_68202)"/>
<path d="M291.394 337.356L307.007 350.22L303.66 370.159L284.705 377.235L269.092 364.371L272.439 344.432L291.394 337.356Z" fill="#F1F5F6"/>
<path d="M291.394 337.356L307.007 350.22L303.66 370.159L284.705 377.235L269.092 364.371L272.439 344.432L291.394 337.356Z" stroke="#00E599"/>
<path d="M285.845 352.582C285.668 352.333 285.288 352.349 285.135 352.614L280.019 361.389C279.838 361.7 280.105 362.082 280.462 362.014C280.964 361.917 290.042 360.173 290.444 360.095C290.743 360.038 290.888 359.69 290.707 359.439L285.845 352.582ZM285.533 353.601L286.948 355.593C286.826 357.029 287.116 358.48 287.781 359.751L285.894 360.114C284.804 358.509 284.452 356.466 284.958 354.585L285.533 353.601ZM283.185 360.634C282.855 360.101 282.602 359.526 282.434 358.919L283.891 356.422C283.904 357.829 284.311 359.154 285.003 360.285L283.185 360.634ZM281.869 359.884C281.996 360.2 282.14 360.507 282.308 360.803L281.213 361.014L281.869 359.884ZM288.649 359.584C288.156 358.723 287.862 357.757 287.781 356.77L289.644 359.393L288.649 359.584Z" fill="#000231"/>
<path d="M290.625 357.181C290.756 357.37 291.019 357.415 291.209 357.281C293.036 355.988 294.474 356.728 294.488 356.736C294.691 356.845 294.949 356.768 295.058 356.563C295.166 356.358 295.089 356.104 294.886 355.994C294.809 355.953 292.968 355.005 290.725 356.595C290.535 356.73 290.49 356.992 290.625 357.181Z" fill="#000231"/>
<path d="M287.947 353.41C288.079 353.599 288.345 353.644 288.531 353.51C290.779 351.919 290.489 349.873 290.476 349.787C290.444 349.557 290.227 349.4 289.996 349.435C289.77 349.471 289.612 349.686 289.648 349.915C289.648 349.931 289.874 351.531 288.047 352.824C287.857 352.958 287.812 353.221 287.947 353.41Z" fill="#000231"/>
<path d="M289.264 354.538C289.074 354.672 289.029 354.935 289.165 355.124C289.296 355.312 289.558 355.358 289.748 355.226C289.979 355.156 290.576 355.669 291.01 355.363C291.435 355.059 291.159 354.343 291.295 354.131C291.539 354.073 292.127 354.572 292.552 354.269C292.982 353.966 292.706 353.249 292.842 353.037C293.086 352.979 293.67 353.478 294.099 353.175C294.524 352.872 294.249 352.155 294.384 351.944C294.628 351.886 295.216 352.384 295.642 352.081C296.076 351.775 295.791 351.042 295.931 350.847C296.116 350.712 296.162 350.452 296.026 350.263C295.895 350.074 295.633 350.029 295.443 350.163C295.058 350.434 295.045 350.906 295.049 351.246C294.732 351.128 294.28 350.986 293.896 351.257C293.516 351.528 293.502 352 293.507 352.34C293.186 352.222 292.733 352.08 292.353 352.351C291.969 352.622 291.955 353.093 291.96 353.434C291.643 353.316 291.191 353.173 290.807 353.445C290.427 353.715 290.413 354.187 290.418 354.527C290.097 354.41 289.649 354.267 289.264 354.538Z" fill="#000231"/>
<path d="M292.208 351.423C292.398 351.288 292.443 351.026 292.308 350.836C292.177 350.647 291.91 350.602 291.724 350.736C291.534 350.871 291.489 351.133 291.62 351.323C291.756 351.512 292.018 351.557 292.208 351.423Z" fill="#000231"/>
<path d="M294.33 354.923C294.556 354.962 294.773 354.808 294.814 354.578C294.854 354.35 294.701 354.132 294.47 354.093C294.239 354.054 294.022 354.209 293.986 354.437C293.945 354.666 294.099 354.884 294.33 354.923Z" fill="#000231"/>
<path d="M292.869 358.166C292.679 358.3 292.633 358.563 292.769 358.753C292.905 358.942 293.167 358.987 293.357 358.852C293.547 358.718 293.592 358.456 293.457 358.266C293.321 358.077 293.059 358.032 292.869 358.166Z" fill="#000231"/>
<path d="M288.002 351.31C288.192 351.175 288.237 350.913 288.102 350.723C287.97 350.534 287.708 350.489 287.518 350.623C287.328 350.758 287.283 351.02 287.419 351.21C287.55 351.399 287.812 351.444 288.002 351.31Z" fill="#000231"/>
<path d="M122.499 332.202C122.287 333.431 119.718 334.013 116.764 333.502C113.811 332.991 111.59 331.58 111.803 330.351C112.35 327.203 114.584 328.539 117.538 329.05C120.491 329.561 123.006 329.277 122.499 332.202Z" fill="#F1F5F6"/>
<path fill-rule="evenodd" clip-rule="evenodd" d="M121.541 332.439C121.762 332.287 121.816 332.161 121.83 332.086C121.943 331.437 121.866 331.077 121.758 330.867C121.649 330.668 121.45 330.498 121.075 330.354C120.686 330.205 120.179 330.109 119.537 330.018C119.342 329.991 119.139 329.964 118.926 329.936C118.451 329.875 117.94 329.807 117.42 329.718C116.819 329.614 116.24 329.475 115.72 329.351C115.579 329.318 115.448 329.285 115.317 329.255C114.679 329.106 114.177 329.008 113.766 329.006C113.372 329.004 113.141 329.092 112.979 329.244C112.798 329.41 112.599 329.75 112.472 330.467C112.458 330.541 112.472 330.679 112.626 330.895C112.784 331.115 113.056 331.368 113.463 331.624C114.268 332.136 115.471 332.591 116.882 332.835C118.293 333.079 119.578 333.055 120.509 332.844C120.975 332.738 121.319 332.593 121.541 332.439ZM116.764 333.503C119.718 334.014 122.287 333.432 122.499 332.202C122.92 329.774 121.26 329.557 118.994 329.262C118.528 329.201 118.04 329.137 117.538 329.051C116.959 328.95 116.407 328.818 115.887 328.694C113.77 328.187 112.241 327.822 111.803 330.351C111.59 331.58 113.811 332.992 116.764 333.503Z" fill="#000231"/>
<path d="M122.807 330.421C122.594 331.65 120.025 332.233 117.072 331.722C114.118 331.21 111.898 329.799 112.11 328.57C112.327 327.341 114.892 326.758 117.845 327.269C120.799 327.781 123.02 329.191 122.807 330.421Z" fill="#F1F5F6"/>
<path fill-rule="evenodd" clip-rule="evenodd" d="M121.853 330.658C122.07 330.506 122.128 330.38 122.138 330.305C122.151 330.231 122.142 330.093 121.988 329.876C121.83 329.657 121.554 329.405 121.152 329.148C120.346 328.636 119.139 328.182 117.732 327.937C116.321 327.693 115.032 327.717 114.1 327.928C113.634 328.034 113.291 328.179 113.069 328.333C112.852 328.485 112.793 328.611 112.78 328.686C112.766 328.76 112.78 328.898 112.933 329.115C113.092 329.334 113.368 329.586 113.77 329.843C114.575 330.355 115.778 330.81 117.189 331.054C118.601 331.298 119.89 331.274 120.817 331.063C121.287 330.957 121.626 330.812 121.853 330.658ZM117.072 331.722C120.025 332.233 122.594 331.65 122.807 330.421C123.02 329.191 120.799 327.781 117.845 327.269C114.892 326.758 112.327 327.341 112.11 328.57C111.898 329.799 114.118 331.21 117.072 331.722Z" fill="#000231"/>
<path fill-rule="evenodd" clip-rule="evenodd" d="M111.803 330.351L112.115 328.57L112.558 328.647L112.251 330.428L111.803 330.351Z" fill="#000231"/>
<path fill-rule="evenodd" clip-rule="evenodd" d="M122.052 332.125L122.364 330.344L122.808 330.421L122.5 332.202L122.052 332.125Z" fill="#000231"/>
<path d="M125.191 329.916C124.978 331.146 122.409 331.728 119.456 331.217C116.502 330.706 114.282 329.294 114.494 328.065C114.924 325.585 117.552 324.664 120.505 325.175C123.458 325.686 125.62 327.436 125.191 329.916Z" fill="#F1F5F6"/>
<path fill-rule="evenodd" clip-rule="evenodd" d="M124.236 330.153C124.454 330.001 124.508 329.876 124.521 329.8C124.693 328.81 124.363 327.974 123.648 327.299C122.92 326.605 121.776 326.083 120.387 325.843C119.003 325.603 117.751 325.711 116.828 326.118C115.932 326.515 115.335 327.191 115.163 328.181C115.15 328.256 115.163 328.393 115.317 328.61C115.476 328.829 115.747 329.082 116.154 329.338C116.959 329.85 118.162 330.305 119.573 330.549C120.984 330.793 122.269 330.769 123.201 330.558C123.671 330.453 124.01 330.307 124.236 330.153ZM119.456 331.217C122.409 331.728 124.978 331.146 125.191 329.916C125.62 327.436 123.458 325.686 120.505 325.175C117.552 324.664 114.924 325.585 114.494 328.065C114.282 329.294 116.502 330.706 119.456 331.217Z" fill="#000231"/>
<path d="M125.503 328.135C125.286 329.365 122.721 329.947 119.768 329.436C116.814 328.925 114.593 327.514 114.806 326.284C115.019 325.055 117.583 324.473 120.537 324.984C123.49 325.495 125.715 326.906 125.503 328.135Z" fill="#F1F5F6"/>
<path fill-rule="evenodd" clip-rule="evenodd" d="M124.544 328.372C124.761 328.22 124.82 328.094 124.833 328.02C124.847 327.945 124.833 327.807 124.679 327.591C124.521 327.371 124.245 327.119 123.843 326.862C123.038 326.351 121.835 325.896 120.423 325.652C119.012 325.408 117.723 325.431 116.796 325.642C116.326 325.748 115.982 325.894 115.76 326.047C115.543 326.199 115.484 326.325 115.475 326.4C115.462 326.475 115.471 326.612 115.625 326.829C115.783 327.048 116.059 327.301 116.461 327.557C117.266 328.069 118.474 328.524 119.881 328.768C121.292 329.012 122.581 328.988 123.513 328.777C123.978 328.671 124.322 328.526 124.544 328.372ZM119.768 329.436C122.721 329.947 125.286 329.365 125.503 328.135C125.715 326.906 123.49 325.495 120.537 324.984C117.583 324.473 115.019 325.055 114.806 326.284C114.593 327.514 116.814 328.925 119.768 329.436Z" fill="#000231"/>
<path fill-rule="evenodd" clip-rule="evenodd" d="M114.494 328.065L114.806 326.284L115.25 326.361L114.942 328.142L114.494 328.065Z" fill="#000231"/>
<path fill-rule="evenodd" clip-rule="evenodd" d="M124.748 329.839L125.056 328.058L125.499 328.135L125.191 329.916L124.748 329.839Z" fill="#000231"/>
<path d="M122.825 327.673C122.612 328.902 120.043 329.484 117.09 328.973C114.137 328.462 111.916 327.051 112.128 325.821C112.793 322.006 115.186 322.42 118.139 322.931C121.093 323.442 123.445 324.111 122.825 327.673Z" fill="#F1F5F6"/>
<path fill-rule="evenodd" clip-rule="evenodd" d="M121.866 327.91C122.088 327.757 122.142 327.632 122.156 327.557C122.3 326.737 122.26 326.143 122.124 325.704C121.988 325.277 121.749 324.956 121.409 324.695C120.681 324.137 119.528 323.86 118.022 323.599C117.275 323.47 116.606 323.355 115.995 323.306C115.38 323.258 114.878 323.283 114.467 323.404C114.073 323.52 113.748 323.729 113.476 324.092C113.196 324.469 112.952 325.047 112.798 325.937C112.784 326.012 112.798 326.149 112.952 326.366C113.11 326.586 113.381 326.838 113.788 327.095C114.593 327.606 115.796 328.061 117.208 328.305C118.619 328.549 119.903 328.526 120.835 328.315C121.301 328.209 121.645 328.063 121.866 327.91ZM117.09 328.973C120.043 329.484 122.612 328.902 122.825 327.673C123.445 324.111 121.093 323.442 118.139 322.931C115.186 322.42 112.793 322.006 112.128 325.821C111.916 327.051 114.137 328.462 117.09 328.973Z" fill="#000231"/>
<path d="M123.133 325.891C122.92 327.121 120.356 327.703 117.402 327.192C114.449 326.681 112.228 325.27 112.441 324.041C112.653 322.811 115.218 322.229 118.171 322.74C121.125 323.251 123.35 324.662 123.133 325.891Z" fill="#F1F5F6"/>
<path fill-rule="evenodd" clip-rule="evenodd" d="M122.179 326.129C122.396 325.976 122.455 325.851 122.468 325.776C122.482 325.701 122.468 325.564 122.314 325.347C122.156 325.127 121.88 324.875 121.478 324.619C120.673 324.107 119.469 323.652 118.058 323.408C116.647 323.164 115.358 323.187 114.431 323.399C113.961 323.504 113.617 323.65 113.395 323.804C113.178 323.956 113.119 324.081 113.106 324.156C113.097 324.231 113.106 324.368 113.259 324.585C113.418 324.805 113.694 325.057 114.096 325.314C114.901 325.825 116.104 326.28 117.516 326.524C118.927 326.768 120.216 326.745 121.147 326.534C121.613 326.428 121.957 326.282 122.179 326.129ZM117.402 327.192C120.356 327.703 122.92 327.121 123.133 325.891C123.35 324.662 121.125 323.251 118.171 322.74C115.218 322.229 112.653 322.811 112.441 324.041C112.228 325.27 114.449 326.681 117.402 327.192Z" fill="#000231"/>
<path fill-rule="evenodd" clip-rule="evenodd" d="M112.128 325.822L112.436 324.041L112.884 324.118L112.576 325.899L112.128 325.822Z" fill="#000231"/>
<path fill-rule="evenodd" clip-rule="evenodd" d="M122.382 327.595L122.689 325.815L123.133 325.892L122.825 327.673L122.382 327.595Z" fill="#000231"/>
<path d="M222.456 258.55C222.244 259.779 219.675 260.361 216.721 259.85C213.768 259.339 211.547 257.928 211.76 256.699C212.307 253.551 214.541 254.887 217.495 255.398C220.448 255.909 222.963 255.625 222.456 258.55Z" fill="#F1F5F6"/>
<path fill-rule="evenodd" clip-rule="evenodd" d="M221.498 258.787C221.719 258.635 221.773 258.509 221.787 258.434C221.9 257.785 221.823 257.425 221.715 257.215C221.606 257.016 221.407 256.846 221.032 256.702C220.643 256.552 220.136 256.457 219.494 256.366C219.299 256.339 219.096 256.312 218.883 256.284C218.408 256.223 217.897 256.155 217.377 256.066C216.776 255.961 216.197 255.823 215.677 255.698C215.536 255.665 215.405 255.633 215.274 255.603C214.636 255.454 214.134 255.356 213.723 255.354C213.329 255.352 213.098 255.44 212.936 255.592C212.755 255.758 212.556 256.098 212.429 256.815C212.415 256.889 212.429 257.026 212.583 257.243C212.741 257.463 213.013 257.716 213.42 257.972C214.225 258.484 215.428 258.939 216.839 259.183C218.25 259.427 219.535 259.403 220.466 259.192C220.932 259.086 221.276 258.94 221.498 258.787ZM216.721 259.851C219.675 260.362 222.244 259.78 222.456 258.55C222.877 256.122 221.217 255.905 218.951 255.61C218.485 255.549 217.997 255.485 217.495 255.398C216.916 255.298 216.364 255.166 215.844 255.042C213.727 254.535 212.198 254.169 211.76 256.699C211.547 257.928 213.768 259.339 216.721 259.851Z" fill="#000231"/>
<path d="M222.764 256.769C222.551 257.998 219.982 258.581 217.028 258.07C214.075 257.558 211.854 256.147 212.067 254.918C212.284 253.689 214.848 253.106 217.802 253.617C220.755 254.129 222.976 255.539 222.764 256.769Z" fill="#F1F5F6"/>
<path fill-rule="evenodd" clip-rule="evenodd" d="M221.809 257.006C222.026 256.854 222.085 256.728 222.094 256.653C222.108 256.579 222.099 256.441 221.945 256.224C221.787 256.005 221.511 255.753 221.108 255.496C220.303 254.984 219.095 254.529 217.689 254.285C216.278 254.041 214.989 254.065 214.057 254.276C213.591 254.382 213.247 254.527 213.026 254.681C212.809 254.833 212.75 254.959 212.736 255.034C212.723 255.108 212.736 255.246 212.89 255.463C213.048 255.682 213.324 255.934 213.727 256.191C214.532 256.703 215.735 257.157 217.146 257.402C218.557 257.646 219.846 257.622 220.773 257.411C221.244 257.305 221.583 257.16 221.809 257.006ZM217.028 258.07C219.982 258.581 222.551 257.998 222.764 256.769C222.976 255.539 220.755 254.129 217.802 253.617C214.848 253.106 212.284 253.689 212.067 254.918C211.854 256.147 214.075 257.558 217.028 258.07Z" fill="#000231"/>
<path fill-rule="evenodd" clip-rule="evenodd" d="M211.76 256.699L212.072 254.918L212.515 254.995L212.208 256.776L211.76 256.699Z" fill="#000231"/>
<path fill-rule="evenodd" clip-rule="evenodd" d="M222.008 258.473L222.32 256.692L222.764 256.769L222.456 258.55L222.008 258.473Z" fill="#000231"/>
<path d="M225.147 256.264C224.935 257.494 222.366 258.076 219.412 257.564C216.459 257.053 214.238 255.642 214.451 254.413C214.88 251.933 217.508 251.012 220.462 251.523C223.415 252.034 225.577 253.784 225.147 256.264Z" fill="#F1F5F6"/>
<path fill-rule="evenodd" clip-rule="evenodd" d="M224.193 256.501C224.41 256.349 224.464 256.223 224.478 256.148C224.65 255.158 224.32 254.322 223.605 253.647C222.877 252.953 221.732 252.431 220.344 252.191C218.96 251.951 217.707 252.059 216.784 252.466C215.889 252.862 215.292 253.538 215.12 254.528C215.106 254.603 215.12 254.741 215.274 254.958C215.432 255.177 215.703 255.429 216.11 255.686C216.916 256.198 218.119 256.653 219.53 256.897C220.941 257.141 222.225 257.117 223.157 256.906C223.628 256.8 223.967 256.655 224.193 256.501ZM219.412 257.564C222.366 258.076 224.935 257.494 225.147 256.264C225.577 253.784 223.415 252.034 220.462 251.523C217.508 251.012 214.88 251.933 214.451 254.413C214.238 255.642 216.459 257.053 219.412 257.564Z" fill="#000231"/>
<path d="M225.459 254.483C225.242 255.713 222.677 256.295 219.724 255.784C216.77 255.273 214.55 253.861 214.762 252.632C214.975 251.403 217.539 250.821 220.493 251.332C223.446 251.843 225.671 253.254 225.459 254.483Z" fill="#F1F5F6"/>
<path fill-rule="evenodd" clip-rule="evenodd" d="M224.5 254.72C224.717 254.568 224.776 254.442 224.789 254.368C224.803 254.293 224.789 254.155 224.636 253.939C224.477 253.719 224.201 253.467 223.799 253.21C222.994 252.698 221.791 252.243 220.38 251.999C218.968 251.755 217.679 251.779 216.752 251.99C216.282 252.096 215.938 252.242 215.716 252.395C215.499 252.547 215.441 252.673 215.432 252.748C215.418 252.823 215.427 252.96 215.581 253.177C215.739 253.396 216.015 253.649 216.418 253.905C217.223 254.417 218.43 254.872 219.837 255.116C221.248 255.36 222.537 255.336 223.469 255.125C223.935 255.019 224.278 254.874 224.5 254.72ZM219.724 255.784C222.677 256.295 225.242 255.713 225.459 254.483C225.671 253.254 223.446 251.843 220.493 251.332C217.539 250.821 214.975 251.403 214.762 252.632C214.55 253.861 216.77 255.273 219.724 255.784Z" fill="#000231"/>
<path fill-rule="evenodd" clip-rule="evenodd" d="M214.451 254.413L214.763 252.632L215.206 252.709L214.898 254.49L214.451 254.413Z" fill="#000231"/>
<path fill-rule="evenodd" clip-rule="evenodd" d="M224.704 256.187L225.012 254.406L225.455 254.483L225.147 256.264L224.704 256.187Z" fill="#000231"/>
<path d="M222.782 254.021C222.569 255.25 220 255.832 217.047 255.321C214.093 254.81 211.872 253.399 212.085 252.169C212.75 248.354 215.142 248.768 218.096 249.279C221.049 249.79 223.401 250.459 222.782 254.021Z" fill="#F1F5F6"/>
<path fill-rule="evenodd" clip-rule="evenodd" d="M221.823 254.258C222.044 254.105 222.099 253.98 222.112 253.905C222.257 253.085 222.216 252.491 222.081 252.052C221.945 251.625 221.705 251.304 221.366 251.043C220.638 250.485 219.484 250.208 217.978 249.947C217.232 249.818 216.563 249.703 215.952 249.654C215.337 249.606 214.835 249.631 214.423 249.752C214.03 249.868 213.704 250.077 213.433 250.44C213.152 250.817 212.908 251.395 212.754 252.285C212.741 252.36 212.754 252.497 212.908 252.714C213.066 252.934 213.338 253.186 213.745 253.443C214.55 253.954 215.753 254.409 217.164 254.653C218.575 254.897 219.86 254.874 220.791 254.663C221.257 254.557 221.601 254.411 221.823 254.258ZM217.047 255.321C220 255.832 222.569 255.25 222.782 254.021C223.401 250.459 221.049 249.79 218.096 249.279C215.142 248.768 212.75 248.354 212.085 252.169C211.872 253.399 214.093 254.81 217.047 255.321Z" fill="#000231"/>
<path d="M223.089 252.239C222.877 253.469 220.312 254.051 217.359 253.54C214.405 253.029 212.184 251.618 212.397 250.389C212.61 249.159 215.174 248.577 218.127 249.088C221.081 249.599 223.306 251.01 223.089 252.239Z" fill="#F1F5F6"/>
<path fill-rule="evenodd" clip-rule="evenodd" d="M222.135 252.477C222.352 252.324 222.411 252.199 222.424 252.124C222.438 252.049 222.424 251.912 222.27 251.695C222.112 251.475 221.836 251.223 221.434 250.966C220.629 250.454 219.426 250 218.014 249.755C216.603 249.511 215.314 249.535 214.387 249.746C213.917 249.852 213.573 249.998 213.351 250.152C213.134 250.304 213.075 250.429 213.062 250.504C213.053 250.579 213.062 250.716 213.216 250.933C213.374 251.153 213.65 251.405 214.052 251.661C214.857 252.173 216.06 252.628 217.472 252.872C218.883 253.116 220.172 253.093 221.104 252.881C221.569 252.776 221.913 252.63 222.135 252.477ZM217.359 253.54C220.312 254.051 222.877 253.469 223.089 252.239C223.306 251.01 221.081 249.599 218.127 249.088C215.174 248.577 212.61 249.159 212.397 250.389C212.184 251.618 214.405 253.029 217.359 253.54Z" fill="#000231"/>
<path fill-rule="evenodd" clip-rule="evenodd" d="M212.085 252.169L212.393 250.389L212.84 250.465L212.533 252.247L212.085 252.169Z" fill="#000231"/>
<path fill-rule="evenodd" clip-rule="evenodd" d="M222.338 253.943L222.646 252.163L223.089 252.239L222.782 254.021L222.338 253.943Z" fill="#000231"/>
</g>
</g>
<defs>
<filter id="filter0_d_1694_68202" x="-19.3373" y="172.886" width="103.911" height="106.706" filterUnits="userSpaceOnUse" color-interpolation-filters="sRGB">
<feFlood flood-opacity="0" result="BackgroundImageFix"/>
<feColorMatrix in="SourceAlpha" type="matrix" values="0 0 0 0 0 0 0 0 0 0 0 0 0 0 0 0 0 0 127 0" result="hardAlpha"/>
<feOffset dx="-15"/>
<feGaussianBlur stdDeviation="12.5"/>
<feColorMatrix type="matrix" values="0 0 0 0 0 0 0 0 0 0 0 0 0 0 0 0 0 0 0.2 0"/>
<feBlend mode="normal" in2="BackgroundImageFix" result="effect1_dropShadow_1694_68202"/>
<feBlend mode="normal" in="SourceGraphic" in2="effect1_dropShadow_1694_68202" result="shape"/>
</filter>
<filter id="filter1_d_1694_68202" x="165.651" y="112.79" width="103.909" height="106.706" filterUnits="userSpaceOnUse" color-interpolation-filters="sRGB">
<feFlood flood-opacity="0" result="BackgroundImageFix"/>
<feColorMatrix in="SourceAlpha" type="matrix" values="0 0 0 0 0 0 0 0 0 0 0 0 0 0 0 0 0 0 127 0" result="hardAlpha"/>
<feOffset dx="-15"/>
<feGaussianBlur stdDeviation="12.5"/>
<feColorMatrix type="matrix" values="0 0 0 0 0 0 0 0 0 0 0 0 0 0 0 0 0 0 0.2 0"/>
<feBlend mode="normal" in2="BackgroundImageFix" result="effect1_dropShadow_1694_68202"/>
<feBlend mode="normal" in="SourceGraphic" in2="effect1_dropShadow_1694_68202" result="shape"/>
</filter>
<filter id="filter2_d_1694_68202" x="335.712" y="141.709" width="103.909" height="106.706" filterUnits="userSpaceOnUse" color-interpolation-filters="sRGB">
<feFlood flood-opacity="0" result="BackgroundImageFix"/>
<feColorMatrix in="SourceAlpha" type="matrix" values="0 0 0 0 0 0 0 0 0 0 0 0 0 0 0 0 0 0 127 0" result="hardAlpha"/>
<feOffset dx="-15"/>
<feGaussianBlur stdDeviation="12.5"/>
<feColorMatrix type="matrix" values="0 0 0 0 0 0 0 0 0 0 0 0 0 0 0 0 0 0 0.2 0"/>
<feBlend mode="normal" in2="BackgroundImageFix" result="effect1_dropShadow_1694_68202"/>
<feBlend mode="normal" in="SourceGraphic" in2="effect1_dropShadow_1694_68202" result="shape"/>
</filter>
<filter id="filter3_d_1694_68202" x="221.282" y="303.924" width="103.909" height="106.706" filterUnits="userSpaceOnUse" color-interpolation-filters="sRGB">
<feFlood flood-opacity="0" result="BackgroundImageFix"/>
<feColorMatrix in="SourceAlpha" type="matrix" values="0 0 0 0 0 0 0 0 0 0 0 0 0 0 0 0 0 0 127 0" result="hardAlpha"/>
<feOffset dx="-15"/>
<feGaussianBlur stdDeviation="12.5"/>
<feColorMatrix type="matrix" values="0 0 0 0 0 0 0 0 0 0 0 0 0 0 0 0 0 0 0.2 0"/>
<feBlend mode="normal" in2="BackgroundImageFix" result="effect1_dropShadow_1694_68202"/>
<feBlend mode="normal" in="SourceGraphic" in2="effect1_dropShadow_1694_68202" result="shape"/>
</filter>
<linearGradient id="paint0_linear_1694_68202" x1="250.802" y1="56.7642" x2="245.177" y2="90.3415" gradientUnits="userSpaceOnUse">
<stop stop-color="#192E49"/>
<stop offset="1" stop-color="#142436"/>
</linearGradient>
<linearGradient id="paint1_linear_1694_68202" x1="165.73" y1="42.5184" x2="160.109" y2="76.0957" gradientUnits="userSpaceOnUse">
<stop stop-color="#192E49"/>
<stop offset="1" stop-color="#142436"/>
</linearGradient>
<linearGradient id="paint2_linear_1694_68202" x1="80.6623" y1="28.2744" x2="75.0374" y2="61.8518" gradientUnits="userSpaceOnUse">
<stop stop-color="#192E49"/>
<stop offset="1" stop-color="#142436"/>
</linearGradient>
<linearGradient id="paint3_linear_1694_68202" x1="334.923" y1="77.0386" x2="330.887" y2="101.135" gradientUnits="userSpaceOnUse">
<stop stop-color="#192E49"/>
<stop offset="1" stop-color="#142436"/>
</linearGradient>
<linearGradient id="paint4_linear_1694_68202" x1="249.856" y1="62.7965" x2="245.82" y2="86.8932" gradientUnits="userSpaceOnUse">
<stop stop-color="#192E49"/>
<stop offset="1" stop-color="#142436"/>
</linearGradient>
<linearGradient id="paint5_linear_1694_68202" x1="164.784" y1="48.5505" x2="160.748" y2="72.6472" gradientUnits="userSpaceOnUse">
<stop stop-color="#192E49"/>
<stop offset="1" stop-color="#142436"/>
</linearGradient>
<linearGradient id="paint6_linear_1694_68202" x1="491.199" y1="187.75" x2="485.578" y2="221.328" gradientUnits="userSpaceOnUse">
<stop stop-color="#192E49"/>
<stop offset="1" stop-color="#142436"/>
</linearGradient>
<linearGradient id="paint7_linear_1694_68202" x1="391.324" y1="261.763" x2="385.699" y2="295.34" gradientUnits="userSpaceOnUse">
<stop stop-color="#192E49"/>
<stop offset="1" stop-color="#142436"/>
</linearGradient>
<linearGradient id="paint8_linear_1694_68202" x1="335.868" y1="71.0064" x2="330.243" y2="104.584" gradientUnits="userSpaceOnUse">
<stop stop-color="#192E49"/>
<stop offset="1" stop-color="#142436"/>
</linearGradient>
<linearGradient id="paint9_linear_1694_68202" x1="420.913" y1="85.5133" x2="415.288" y2="119.091" gradientUnits="userSpaceOnUse">
<stop stop-color="#192E49"/>
<stop offset="1" stop-color="#142436"/>
</linearGradient>
<linearGradient id="paint10_linear_1694_68202" x1="306.257" y1="247.519" x2="300.632" y2="281.096" gradientUnits="userSpaceOnUse">
<stop stop-color="#192E49"/>
<stop offset="1" stop-color="#142436"/>
</linearGradient>
<linearGradient id="paint11_linear_1694_68202" x1="490.253" y1="193.783" x2="486.217" y2="217.879" gradientUnits="userSpaceOnUse">
<stop stop-color="#192E49"/>
<stop offset="1" stop-color="#142436"/>
</linearGradient>
<linearGradient id="paint12_linear_1694_68202" x1="475.45" y1="282.039" x2="471.414" y2="306.135" gradientUnits="userSpaceOnUse">
<stop stop-color="#192E49"/>
<stop offset="1" stop-color="#142436"/>
</linearGradient>
<linearGradient id="paint13_linear_1694_68202" x1="390.378" y1="267.795" x2="386.342" y2="291.891" gradientUnits="userSpaceOnUse">
<stop stop-color="#192E49"/>
<stop offset="1" stop-color="#142436"/>
</linearGradient>
<linearGradient id="paint14_linear_1694_68202" x1="419.967" y1="91.5454" x2="415.931" y2="115.642" gradientUnits="userSpaceOnUse">
<stop stop-color="#192E49"/>
<stop offset="1" stop-color="#142436"/>
</linearGradient>
<linearGradient id="paint15_linear_1694_68202" x1="64.9094" y1="122.563" x2="60.8735" y2="146.659" gradientUnits="userSpaceOnUse">
<stop stop-color="#192E49"/>
<stop offset="1" stop-color="#142436"/>
</linearGradient>
<linearGradient id="paint16_linear_1694_68202" x1="205.432" y1="327.559" x2="201.401" y2="351.656" gradientUnits="userSpaceOnUse">
<stop stop-color="#192E49"/>
<stop offset="1" stop-color="#142436"/>
</linearGradient>
<linearGradient id="paint17_linear_1694_68202" x1="135.173" y1="225.06" x2="131.137" y2="249.156" gradientUnits="userSpaceOnUse">
<stop stop-color="#192E49"/>
<stop offset="1" stop-color="#142436"/>
</linearGradient>
<linearGradient id="paint18_linear_1694_68202" x1="120.37" y1="313.315" x2="116.334" y2="337.412" gradientUnits="userSpaceOnUse">
<stop stop-color="#192E49"/>
<stop offset="1" stop-color="#142436"/>
</linearGradient>
<linearGradient id="paint19_linear_1694_68202" x1="220.24" y1="239.305" x2="216.204" y2="263.402" gradientUnits="userSpaceOnUse">
<stop stop-color="#192E49"/>
<stop offset="1" stop-color="#142436"/>
</linearGradient>
<linearGradient id="paint20_linear_1694_68202" x1="375.936" y1="355.645" x2="371.905" y2="379.741" gradientUnits="userSpaceOnUse">
<stop stop-color="#192E49"/>
<stop offset="1" stop-color="#142436"/>
</linearGradient>
<linearGradient id="paint21_linear_1694_68202" x1="461.954" y1="363.86" x2="456.333" y2="397.438" gradientUnits="userSpaceOnUse">
<stop stop-color="#192E49"/>
<stop offset="1" stop-color="#142436"/>
</linearGradient>
<linearGradient id="paint22_linear_1694_68202" x1="460.967" y1="369.98" x2="456.931" y2="394.077" gradientUnits="userSpaceOnUse">
<stop stop-color="#192E49"/>
<stop offset="1" stop-color="#142436"/>
</linearGradient>
<linearGradient id="paint23_linear_1694_68202" x1="305.303" y1="253.81" x2="301.321" y2="277.916" gradientUnits="userSpaceOnUse">
<stop stop-color="#192E49"/>
<stop offset="1" stop-color="#142436"/>
</linearGradient>
<linearGradient id="paint24_linear_1694_68202" x1="149.79" y1="136.824" x2="145.755" y2="160.921" gradientUnits="userSpaceOnUse">
<stop stop-color="#192E49"/>
<stop offset="1" stop-color="#142436"/>
</linearGradient>
<linearGradient id="paint25_linear_1694_68202" x1="319.852" y1="165.291" x2="315.817" y2="189.388" gradientUnits="userSpaceOnUse">
<stop stop-color="#192E49"/>
<stop offset="1" stop-color="#142436"/>
</linearGradient>
<linearGradient id="paint26_linear_1694_68202" x1="50.9658" y1="204.878" x2="45.3453" y2="238.456" gradientUnits="userSpaceOnUse">
<stop stop-color="#192E49"/>
<stop offset="1" stop-color="#142436"/>
</linearGradient>
<linearGradient id="paint27_linear_1694_68202" x1="49.8344" y1="210.928" x2="45.7985" y2="235.025" gradientUnits="userSpaceOnUse">
<stop stop-color="#192E49"/>
<stop offset="1" stop-color="#142436"/>
</linearGradient>
<linearGradient id="paint28_linear_1694_68202" x1="235.953" y1="144.782" x2="230.332" y2="178.36" gradientUnits="userSpaceOnUse">
<stop stop-color="#192E49"/>
<stop offset="1" stop-color="#142436"/>
</linearGradient>
<linearGradient id="paint29_linear_1694_68202" x1="234.821" y1="150.832" x2="230.785" y2="174.929" gradientUnits="userSpaceOnUse">
<stop stop-color="#192E49"/>
<stop offset="1" stop-color="#142436"/>
</linearGradient>
<linearGradient id="paint30_linear_1694_68202" x1="406.014" y1="173.701" x2="400.393" y2="207.278" gradientUnits="userSpaceOnUse">
<stop stop-color="#192E49"/>
<stop offset="1" stop-color="#142436"/>
</linearGradient>
<linearGradient id="paint31_linear_1694_68202" x1="404.883" y1="179.75" x2="400.847" y2="203.847" gradientUnits="userSpaceOnUse">
<stop stop-color="#192E49"/>
<stop offset="1" stop-color="#142436"/>
</linearGradient>
<linearGradient id="paint32_linear_1694_68202" x1="291.584" y1="335.916" x2="285.964" y2="369.493" gradientUnits="userSpaceOnUse">
<stop stop-color="#192E49"/>
<stop offset="1" stop-color="#142436"/>
</linearGradient>
<linearGradient id="paint33_linear_1694_68202" x1="290.454" y1="341.966" x2="286.418" y2="366.063" gradientUnits="userSpaceOnUse">
<stop stop-color="#192E49"/>
<stop offset="1" stop-color="#142436"/>
</linearGradient>
<clipPath id="clip0_1694_68202">
<rect width="528" height="435" fill="white"/>
</clipPath>
</defs>
</svg>
