<svg width="528" height="435" viewBox="0 0 528 435" fill="none" xmlns="http://www.w3.org/2000/svg">
<g clip-path="url(#clip0_1694_555)">
<rect width="528" height="435" fill="#F6F6F6"/>
<g opacity="0.4">
<path opacity="0.4" d="M415.761 -19.2061V288.836C415.761 288.907 415.761 289.038 415.761 289.052V289.162L415.74 289.601C415.74 289.898 415.72 290.194 415.717 290.491C415.629 292.783 415.351 295.064 414.886 297.31C414.428 299.534 413.758 301.708 412.885 303.804C412.02 305.916 410.975 307.95 409.763 309.883C408.544 311.838 407.155 313.682 405.611 315.392C402.5 318.801 398.829 321.652 394.756 323.822C394.501 323.947 394.246 324.077 393.994 324.211C393.747 324.354 393.493 324.483 393.232 324.596C392.707 324.813 392.194 325.059 391.678 325.299C391.144 325.497 390.616 325.704 390.094 325.922C389.561 326.114 389.015 326.269 388.484 326.467C386.314 327.148 384.09 327.644 381.836 327.95C381.54 327.982 381.267 328.021 380.985 328.063L380.558 328.128C380.416 328.128 380.262 328.128 380.126 328.151C379.532 328.178 378.975 328.246 378.394 328.285C377.813 328.323 377.223 328.285 376.635 328.326C376.49 328.34 376.343 328.34 376.197 328.326L375.758 328.309C375.461 328.309 375.165 328.291 374.868 328.288C372.575 328.194 370.294 327.908 368.048 327.434C365.826 326.971 363.651 326.3 361.555 325.429C357.31 323.666 353.399 321.189 349.99 318.105C349.786 317.904 349.575 317.705 349.362 317.512L349.041 317.216L348.878 317.071L348.656 316.842L346.877 315.03C346.364 314.461 345.842 313.901 345.314 313.343C344.869 312.813 344.425 312.297 343.977 311.787C342.65 310.221 341.474 308.533 340.466 306.746C339.692 305.335 339.075 303.843 338.625 302.298C338.562 302.09 338.497 301.883 338.426 301.678C338.383 301.571 338.355 301.458 338.34 301.343L338.266 300.987C338.215 300.754 338.158 300.52 338.097 300.285L338.002 299.938C337.975 299.81 337.963 299.671 337.94 299.537C337.863 298.998 337.756 298.476 337.643 297.933C337.59 297.322 337.519 296.717 337.433 296.113C337.412 295.961 337.385 295.816 337.367 295.656L337.341 295.143L337.276 294.123L337.19 293.103C337.169 292.747 337.19 292.353 337.169 291.982L337.142 290.849L337.124 290.283V289.986V289.832V289.429C337.089 287.282 337.035 285.135 336.964 282.989C336.553 274.355 335.399 265.773 333.516 257.337C331.632 248.872 329 240.591 325.649 232.592C318.918 216.629 309.462 201.957 297.705 189.232L295.478 186.887L294.357 185.721C293.981 185.333 293.61 184.945 293.219 184.574C291.667 183.075 290.105 181.593 288.534 180.126C286.917 178.701 285.288 177.287 283.647 175.886C283.244 175.533 282.82 175.198 282.399 174.863L281.13 173.858L278.583 171.862C257.833 156.005 233.235 145.96 207.317 142.759L204.1 142.364C203.026 142.258 201.953 142.181 200.88 142.095L197.656 141.854C197.117 141.822 196.58 141.771 196.043 141.756L194.433 141.706L191.213 141.623L189.603 141.59L188.796 141.576L187.993 141.59C185.846 141.63 183.698 141.686 181.55 141.759C146.632 143.406 113.424 157.361 87.812 181.152C62.1997 204.942 45.8365 237.031 41.6221 271.733L41.2337 274.95L40.9757 278.17C40.8156 280.32 40.6377 282.47 40.605 284.617L40.525 287.837L40.4775 290.405L40.439 293.269C40.3204 297.011 40.0476 300.531 39.6265 303.721C38.7933 310.126 37.204 314.921 35.7718 317.753C35.215 318.89 34.5273 319.959 33.7228 320.937C33.0686 321.713 32.3206 322.404 31.496 322.995C30.2934 323.848 29.0007 324.566 27.6412 325.136C25.5015 326.001 23.2964 326.696 21.0466 327.211C18.455 327.873 15.306 328.32 11.9494 328.676C11.0925 328.75 10.2385 328.833 9.37859 328.919L6.65654 329.056C6.20287 329.08 5.76698 329.112 5.29255 329.133L3.86333 329.151L1.00488 329.207" stroke="black" stroke-width="1.56" stroke-miterlimit="10" stroke-dasharray="6.43 21.45"/>
<path opacity="0.4" d="M433.923 -19.2061V288.323C433.923 289.121 433.905 289.411 433.893 289.856L433.861 291.125C433.736 294.479 433.329 297.817 432.645 301.103C431.962 304.37 430.977 307.566 429.704 310.651C428.436 313.741 426.907 316.717 425.131 319.546C423.348 322.394 421.319 325.081 419.067 327.576C414.533 332.549 409.18 336.707 403.239 339.87L402.121 340.439C401.748 340.626 401.389 340.845 401.001 340.999C400.236 341.332 399.479 341.684 398.72 342.028C397.937 342.325 397.164 342.621 396.393 342.945C395.622 343.268 394.809 343.47 394.02 343.754C390.836 344.763 387.571 345.498 384.262 345.951L383.017 346.111L382.394 346.197C382.186 346.218 381.976 346.224 381.765 346.242C380.923 346.289 380.087 346.378 379.248 346.429C378.409 346.479 377.555 346.458 376.71 346.491C376.498 346.504 376.286 346.504 376.075 346.491L375.441 346.47L374.171 346.441C370.819 346.305 367.484 345.887 364.202 345.189C360.936 344.497 357.741 343.504 354.658 342.224C348.45 339.658 342.732 336.038 337.756 331.526L336.846 330.672L336.383 330.245L336.149 330.031L335.882 329.758L333.729 327.576C333.077 326.864 332.422 326.153 331.76 325.45C331.167 324.75 330.574 324.059 329.981 323.374C327.927 320.928 326.109 318.293 324.552 315.505C323.156 312.964 322.039 310.28 321.219 307.499C321.112 307.143 321.003 306.787 320.89 306.431C320.829 306.25 320.782 306.065 320.748 305.877L320.62 305.307L320.35 304.175L320.208 303.608C320.169 303.413 320.14 303.208 320.107 303.015C319.974 302.209 319.811 301.411 319.674 300.599C319.583 299.741 319.484 298.885 319.378 298.031C319.351 297.814 319.318 297.604 319.295 297.387L319.253 296.705L319.161 295.341L319.054 293.98C319.028 293.515 319.037 293.026 319.022 292.548L318.945 289.491C318.909 287.601 318.862 285.715 318.802 283.831C318.441 276.253 317.428 268.72 315.775 261.316C314.12 253.9 311.808 246.646 308.866 239.64C302.964 225.627 294.672 212.746 284.362 201.57L282.405 199.512L281.42 198.489C281.094 198.148 280.768 197.804 280.424 197.481C279.06 196.167 277.689 194.861 276.311 193.564C274.888 192.315 273.458 191.074 272.021 189.843C271.665 189.546 271.294 189.25 270.923 188.953L269.809 188.064L267.573 186.311C249.376 172.393 227.8 163.576 205.064 160.766C197.558 159.826 189.986 159.528 182.43 159.877C151.788 161.319 122.646 173.565 100.171 194.445C77.6973 215.324 63.3429 243.488 59.6535 273.942L59.3036 276.765L59.0782 279.593C58.9418 281.479 58.7817 283.368 58.755 285.254L58.6838 288.083L58.6364 290.479L58.5919 293.74C58.4761 297.892 58.1515 302.036 57.6193 306.156C56.5786 314.034 54.5652 320.801 51.9588 325.948C50.77 328.337 49.3051 330.578 47.594 332.626C45.9824 334.544 44.1388 336.254 42.1055 337.717C39.8221 339.351 37.366 340.729 34.7814 341.827C31.6782 343.112 28.475 344.142 25.2039 344.905C21.7049 345.776 17.7909 346.337 13.7464 346.761L10.6714 347.057L7.49276 347.221C6.96199 347.247 6.43715 347.286 5.90045 347.306L4.26367 347.33L1.00195 347.392" stroke="black" stroke-width="1.56" stroke-miterlimit="10" stroke-dasharray="2.15 37.54"/>
<path opacity="0.4" d="M452.088 1.28046V289.023L452.073 289.423L452.029 291.033L451.993 292.64C451.993 293.177 451.916 293.711 451.883 294.245L451.762 295.846L451.705 296.646C451.685 296.913 451.637 297.177 451.608 297.441L451.204 300.623C450.536 304.841 449.52 308.996 448.168 313.047C447.821 314.055 447.513 315.075 447.092 316.059L446.499 317.542C446.306 318.037 446.119 318.538 445.885 319.025L444.562 321.939L443.1 324.792C441.061 328.551 438.715 332.135 436.085 335.508C433.454 338.888 430.544 342.041 427.385 344.934C417.889 353.651 406.295 359.758 393.736 362.66C392.695 362.895 391.66 363.17 390.605 363.328L389.03 363.609C388.502 363.701 387.981 363.817 387.45 363.867L384.268 364.273L381.066 364.52C376.784 364.761 372.49 364.661 368.223 364.223L365.042 363.829L361.887 363.268C361.359 363.194 360.84 363.058 360.321 362.939L358.762 362.583C357.712 362.376 356.686 362.05 355.666 361.771C351.561 360.599 347.561 359.086 343.707 357.249L340.846 355.808L338.059 354.227C336.232 353.121 334.417 351.989 332.686 350.731C332.253 350.417 331.796 350.138 331.378 349.8L330.112 348.816L328.84 347.837L327.618 346.797C326.806 346.1 325.972 345.43 325.21 344.676L324.024 343.579L323.431 343.031L322.838 342.417L321.617 341.181L321.006 340.564L320.709 340.267L320.413 339.953L318.112 337.462L315.953 334.951C315.271 334.106 314.619 333.255 313.946 332.409C311.428 329.126 309.234 325.607 307.395 321.901C305.608 318.25 304.189 314.43 303.161 310.497C302.93 309.483 302.692 308.47 302.447 307.46C302.245 306.428 302.079 305.385 301.886 304.338L301.741 303.558C301.687 303.3 301.673 303.024 301.637 302.758L301.441 301.147L301.24 299.54C301.201 299.273 301.183 299.001 301.166 298.722L301.109 297.898L300.878 294.591L300.804 291.208L300.703 287.003L300.638 284.631C300.638 284.237 300.605 283.843 300.576 283.445L300.487 282.259L300.306 279.887C300.246 279.098 300.19 278.31 300.08 277.515L299.487 272.809L298.654 268.133C298.527 267.353 298.337 266.582 298.162 265.811L297.628 263.495C296.132 257.337 294.124 251.315 291.627 245.491C289.123 239.673 286.118 234.084 282.645 228.788C275.73 218.171 267.062 208.807 257.011 201.093C251.991 197.242 246.659 193.816 241.07 190.851L238.956 189.766L237.897 189.232L237.367 188.962L236.827 188.716L232.498 186.759C231.033 186.166 229.556 185.588 228.082 185.01C227.35 184.713 226.6 184.464 225.847 184.209L223.596 183.447C217.571 181.488 211.393 180.034 205.126 179.1L200.417 178.507C198.846 178.365 197.268 178.255 195.694 178.136L194.508 178.05L193.322 178.018L190.949 177.956C190.161 177.941 189.372 177.911 188.577 177.911L186.205 177.967C183.05 177.994 179.898 178.264 176.752 178.56L172.043 179.153C171.652 179.198 171.263 179.266 170.872 179.337L169.704 179.548L167.367 179.969C161.162 181.189 155.069 182.921 149.149 185.146L144.74 186.91L140.42 188.888C139.696 189.206 139.002 189.585 138.296 189.947L136.188 191.038C134.771 191.744 133.425 192.577 132.052 193.366C115.601 203.025 101.894 216.73 92.2322 233.179C89.0084 238.633 86.269 244.359 84.0453 250.291C81.8148 256.222 80.085 262.329 78.874 268.548C77.665 274.759 76.9983 281.063 76.8814 287.389L76.828 289.761L76.7984 291.582L76.7746 293.361C76.7746 293.954 76.7746 294.547 76.7331 295.14L76.576 298.677C76.5611 299.27 76.4959 299.846 76.4574 300.43L76.3239 302.176C75.9596 306.725 75.3279 311.247 74.4321 315.721C73.5564 319.961 72.3499 324.125 70.8235 328.175C69.3893 331.98 67.5701 335.628 65.3942 339.063C61.2189 345.669 55.5037 351.164 48.7387 355.075C45.1856 357.14 41.4433 358.859 37.5629 360.211L34.5147 361.213L31.3716 362.082C31.1107 362.153 30.8527 362.233 30.5858 362.299L29.7763 362.48L28.1692 362.847L26.5532 363.215C26.0046 363.325 25.4442 363.414 24.8927 363.511C20.4982 364.38 15.8785 364.837 11.2231 365.196" stroke="black" stroke-width="1.56" stroke-miterlimit="10" stroke-dasharray="2.68 10.29"/>
<path opacity="0.4" d="M3.1311 365.498L0.993198 365.537" stroke="black" stroke-width="1.56" stroke-miterlimit="10"/>
<path opacity="0.4" d="M470.25 -19.2061V288.323C470.25 289.69 470.19 291.054 470.164 292.421C469.962 297.887 469.295 303.326 468.171 308.679C463.637 330.079 451.302 349.738 433.971 363.093C429.653 366.449 425.052 369.426 420.221 371.989L418.397 372.923C417.784 373.219 417.188 373.563 416.559 373.83C415.314 374.391 414.071 374.963 412.82 375.514L409.007 377.018C407.723 377.486 406.418 377.907 405.128 378.349C399.917 380.013 394.571 381.224 389.152 381.97L387.118 382.228L386.101 382.355C385.76 382.391 385.419 382.411 385.078 382.438C383.717 382.536 382.353 382.658 380.989 382.735L376.891 382.838C376.55 382.838 376.206 382.838 375.865 382.838L374.842 382.815L372.79 382.761C367.325 382.547 361.889 381.863 356.541 380.718C351.189 379.582 345.952 377.961 340.893 375.876C330.761 371.699 321.431 365.795 313.317 358.429L311.834 357.026L311.087 356.327L310.714 355.974L310.352 355.609L307.473 352.688L304.688 349.682L302.02 346.571C298.505 342.365 295.397 337.836 292.736 333.044C287.437 323.466 284.359 312.75 283.247 301.88C283.205 301.542 283.158 301.204 283.125 300.863L283.051 299.84L282.906 297.797L282.761 295.751C282.725 295.069 282.725 294.384 282.704 293.702L282.506 285.503C282.236 280.047 281.504 274.624 280.317 269.292C279.134 263.951 277.474 258.726 275.36 253.681C271.101 243.582 265.124 234.297 257.696 226.238L256.281 224.755L255.573 224.014C255.339 223.765 255.104 223.516 254.852 223.284L251.887 220.456L248.78 217.757C248.525 217.529 248.258 217.318 247.988 217.111L247.181 216.476L245.568 215.21C236.839 208.582 227.026 203.518 216.566 200.245C206.084 197.046 195.13 195.671 184.183 196.18C162.099 197.204 141.092 206.021 124.893 221.067C108.694 236.112 98.3515 256.411 95.7015 278.36L95.4465 280.394L95.2923 282.437C95.1944 283.801 95.061 285.162 95.055 286.529C95.0491 287.896 94.9809 289.263 94.9602 290.63L94.9038 294.731C94.7533 300.196 94.3218 305.651 93.611 311.072C92.9067 316.494 91.7976 321.857 90.2929 327.114C88.8011 332.377 86.8154 337.488 84.3626 342.378C81.9068 347.268 78.8907 351.855 75.3751 356.048C71.8478 360.231 67.8195 363.965 63.3809 367.164C58.937 370.358 54.155 373.053 49.1212 375.2C44.0768 377.314 38.8634 379.001 33.5362 380.241C28.2226 381.54 22.7992 382.317 17.364 382.889L13.281 383.262L9.18603 383.479C8.50403 383.514 7.82204 383.559 7.14004 383.583L5.08813 383.618L0.990234 383.689" stroke="black" stroke-width="1.56" stroke-miterlimit="10" stroke-dasharray="6.43 10.73"/>
<path opacity="0.4" d="M488.412 -19.2061V288.323C488.412 288.949 488.394 289.829 488.376 290.63L488.314 293.07C488.078 299.591 487.284 306.08 485.942 312.465C484.592 318.863 482.666 325.126 480.186 331.176C477.719 337.223 474.73 343.045 471.255 348.576C467.788 354.104 463.843 359.318 459.466 364.158C450.674 373.835 440.272 381.917 428.722 388.045L426.543 389.163C425.811 389.528 425.096 389.922 424.346 390.245C422.863 390.921 421.381 391.6 419.88 392.256L415.323 394.053C413.79 394.616 412.233 395.117 410.688 395.645C404.462 397.63 398.076 399.072 391.601 399.953L389.173 400.25L387.96 400.401C387.554 400.44 387.147 400.466 386.741 400.502C385.116 400.624 383.48 400.763 381.866 400.852L376.986 400.976C376.58 400.976 376.173 400.976 375.767 400.976L374.545 400.95L372.108 400.888C345.746 399.907 320.587 389.61 301.101 371.829L299.321 370.156L298.432 369.32L297.987 368.899L297.581 368.49C296.499 367.396 295.413 366.31 294.34 365.198L291.146 361.75L288.03 358.123C283.796 353.046 280.052 347.581 276.845 341.8C273.586 335.879 270.969 329.626 269.038 323.149L268.323 320.735C268.199 320.335 268.104 319.929 268.009 319.526L267.713 318.313L267.143 315.887L266.861 314.672C266.778 314.268 266.71 313.865 266.636 313.462C266.34 311.846 266.043 310.227 265.785 308.614L265.192 303.792C265.145 303.392 265.091 302.989 265.05 302.588L264.964 301.402L264.792 299.03L264.626 296.658C264.584 295.866 264.581 295.086 264.558 294.286L264.368 286.351C264.151 281.944 263.561 277.564 262.603 273.257C261.649 268.958 260.313 264.754 258.609 260.693C255.168 252.552 250.347 245.065 244.359 238.564L243.214 237.378L242.645 236.785C242.455 236.583 242.268 236.379 242.052 236.192L239.656 233.906L237.153 231.738C236.949 231.551 236.729 231.385 236.513 231.216L235.86 230.706L234.559 229.683C227.524 224.344 219.617 220.263 211.19 217.621C202.728 215.05 193.889 213.947 185.055 214.359C180.655 214.581 176.282 215.172 171.981 216.126C169.829 216.586 167.717 217.212 165.615 217.852L162.493 218.92L159.43 220.147C143.012 227.077 129.562 239.57 121.443 255.433C117.38 263.274 114.769 271.784 113.733 280.554L113.52 282.194L113.401 283.845C113.324 284.946 113.205 286.046 113.211 287.155L113.17 288.812L113.143 289.642V289.85V290.126V290.689L113.078 295.202C112.91 301.325 112.425 307.434 111.625 313.506C110.802 319.796 109.514 326.017 107.77 332.116C105.961 338.481 103.555 344.661 100.585 350.574C97.4946 356.713 93.7025 362.474 89.285 367.74C84.7988 373.059 79.6761 377.807 74.0321 381.878C68.5083 385.852 62.5639 389.206 56.3061 391.879C50.2937 394.41 44.0783 396.428 37.7262 397.913C31.6255 399.344 25.4348 400.359 19.1968 400.953L14.6066 401.371L10.0551 401.617C9.29894 401.653 8.53689 401.7 7.78076 401.73L5.52425 401.771L1.01123 401.845" stroke="black" stroke-width="1.56" stroke-miterlimit="10" stroke-dasharray="2.15 37.54"/>
<path opacity="0.4" d="M506.573 -19.2061V288.323C506.573 288.892 506.556 289.969 506.535 290.888L506.464 293.717C506.189 301.294 505.262 308.834 503.694 316.252C502.123 323.692 499.883 330.976 497.002 338.014C485.433 366.371 464.267 389.762 437.203 404.099L434.67 405.398C433.822 405.822 432.986 406.287 432.117 406.655C430.389 407.444 428.66 408.232 426.919 408.991C425.158 409.697 423.391 410.389 421.618 411.067C419.839 411.722 418.03 412.312 416.23 412.92C408.99 415.23 401.563 416.908 394.032 417.934L391.213 418.29L389.801 418.462C389.33 418.51 388.858 418.542 388.387 418.581C386.501 418.726 384.612 418.877 382.726 418.99C380.84 419.049 378.953 419.097 377.066 419.132C376.594 419.15 376.123 419.132 375.651 419.132L374.234 419.103L371.405 419.031C340.765 417.889 311.521 405.925 288.866 385.264L286.79 383.325L285.758 382.349L285.242 381.86L284.789 381.406C283.585 380.187 282.384 378.987 281.186 377.747L277.586 373.854C276.4 372.487 275.214 371.096 274.028 369.703C269.074 363.755 264.691 357.355 260.937 350.586C257.057 343.536 253.939 336.093 251.635 328.383L250.796 325.518C250.648 325.041 250.535 324.566 250.422 324.089L250.078 322.663L249.405 319.807L249.079 318.375C248.984 317.904 248.901 317.432 248.815 316.961C248.471 315.078 248.133 313.186 247.825 311.3C247.584 309.448 247.353 307.592 247.134 305.732L246.974 304.338L246.87 302.977L246.674 300.249L246.487 297.521C246.44 296.631 246.434 295.742 246.407 294.852L246.229 287.175C246.058 283.827 245.608 280.498 244.883 277.224C244.166 273.965 243.156 270.778 241.868 267.7C239.248 261.514 235.583 255.826 231.033 250.884L230.143 249.974L229.713 249.514C229.568 249.36 229.417 249.218 229.272 249.064C228.655 248.492 228.047 247.911 227.448 247.32C226.803 246.779 226.167 246.229 225.538 245.672C225.386 245.53 225.225 245.398 225.058 245.274L224.56 244.889L223.575 244.109C218.234 240.059 212.235 236.959 205.841 234.946C202.645 233.972 199.371 233.278 196.055 232.871C189.368 232.004 182.58 232.334 176.008 233.843C174.374 234.184 172.779 234.671 171.183 235.148C170.393 235.427 169.602 235.696 168.811 235.955C168.04 236.275 167.265 236.585 166.487 236.886C160.309 239.524 154.628 243.2 149.689 247.753C139.724 256.916 133.366 269.342 131.767 282.784L131.601 284.029L131.518 285.289C131.462 286.129 131.355 286.962 131.37 287.813L131.337 289.082L131.316 289.717V289.874V290.17V290.784L131.242 295.709C131.058 302.488 130.521 309.253 129.635 315.976C128.691 323.133 127.219 330.211 125.232 337.151C123.106 344.615 120.281 351.863 116.793 358.797C113.068 366.187 108.499 373.121 103.177 379.458C97.7344 385.914 91.5192 391.678 84.6709 396.618C78.0592 401.372 70.9444 405.384 63.455 408.582C56.4757 411.531 49.2581 413.88 41.8802 415.604C34.7638 417.329 27.8104 418.335 20.9905 419.04L15.8992 419.5L10.888 419.773C10.0548 419.814 9.21568 419.865 8.38543 419.894L5.92135 419.942L0.996166 420.022" stroke="black" stroke-width="1.56" stroke-miterlimit="10" stroke-dasharray="6.43 21.45"/>
<path opacity="0.4" d="M524.735 -19.2061V288.836V289.533L524.706 291.146L524.623 294.366C524.309 302.999 523.253 311.589 521.468 320.042C519.671 328.525 517.117 336.83 513.835 344.857C500.661 377.172 476.544 403.825 445.704 420.155L442.816 421.638C441.849 422.121 440.894 422.631 439.904 423.07C437.935 423.96 435.966 424.87 433.974 425.739C431.967 426.551 429.952 427.347 427.928 428.126C425.896 428.873 423.836 429.549 421.781 430.24C413.528 432.876 405.061 434.789 396.476 435.957L393.262 436.363L391.654 436.556C391.118 436.609 390.581 436.651 390.041 436.695C387.895 436.864 385.745 437.042 383.598 437.158C381.451 437.273 379.301 437.282 377.155 437.321C376.618 437.339 376.081 437.321 375.545 437.321L373.934 437.291L370.714 437.205C335.796 435.896 302.471 422.257 276.652 398.711L274.28 396.502L273.094 395.39L272.501 394.833L272.003 394.334C270.675 392.994 269.358 391.666 268.036 390.305C266.693 388.868 265.358 387.424 264.03 385.973C262.683 384.434 261.361 382.871 260.021 381.308C254.336 374.482 249.308 367.136 245.002 359.366C240.501 351.187 236.883 342.552 234.209 333.607L233.239 330.295C233.073 329.741 232.942 329.195 232.806 328.65L232.409 327.007L231.638 323.718L231.285 322.073C231.175 321.53 231.08 320.993 230.988 320.454C230.594 318.301 230.206 316.136 229.859 313.984C229.584 311.878 229.322 309.772 229.073 307.665L228.895 306.084L228.776 304.551L228.551 301.482L228.346 298.413C228.296 297.402 228.284 296.43 228.252 295.448L228.133 289.788C228.099 289.195 228.083 288.609 228.085 288.032C227.966 285.737 227.657 283.456 227.16 281.212C226.677 278.994 225.993 276.825 225.117 274.73C223.316 270.503 220.81 266.612 217.704 263.226C217.5 263.021 217.298 262.813 217.111 262.603L216.815 262.283C216.722 262.178 216.623 262.079 216.518 261.986C216.087 261.591 215.669 261.195 215.264 260.8C214.816 260.435 214.374 260.062 213.953 259.67C213.848 259.572 213.736 259.481 213.618 259.397L213.271 259.137C213.043 258.962 212.818 258.781 212.595 258.6C208.948 255.838 204.855 253.72 200.494 252.337C198.315 251.676 196.083 251.205 193.823 250.929C193.526 250.893 193.253 250.852 192.972 250.804C192.69 250.757 192.393 250.775 192.106 250.751C191.818 250.727 191.513 250.706 191.24 250.68C191.096 250.661 190.952 250.649 190.807 250.644H190.365C190.069 250.644 189.772 250.644 189.476 250.623L189.037 250.603H188.817H188.598C188.005 250.635 187.412 250.647 186.843 250.644C184.547 250.775 182.267 251.091 180.023 251.59C178.908 251.815 177.828 252.159 176.74 252.48C176.21 252.677 175.674 252.859 175.13 253.025C174.608 253.254 174.083 253.464 173.55 253.663C169.325 255.475 165.438 257.991 162.054 261.102C157.002 265.818 153.259 271.763 151.189 278.357C150.534 280.538 150.068 282.773 149.798 285.034C149.763 285.331 149.721 285.601 149.674 285.885C149.626 286.17 149.647 286.479 149.626 286.751C149.591 287.344 149.502 287.902 149.523 288.492C149.523 288.788 149.523 289.085 149.502 289.381L149.481 289.82V289.93V290.247V290.914L149.401 296.252C149.196 303.691 148.602 311.114 147.622 318.491C146.559 326.508 144.906 334.437 142.679 342.212C140.238 350.783 136.992 359.104 132.986 367.064C128.619 375.684 123.268 383.771 117.042 391.162C110.641 398.754 103.331 405.532 95.2774 411.343C87.5934 416.879 79.3231 421.553 70.6159 425.279C62.6683 428.641 54.4487 431.319 46.0463 433.285C38.0107 435.221 30.3101 436.336 22.7963 437.113L17.198 437.614L11.7302 437.911C10.8228 437.955 9.90361 438.009 9.00219 438.041L6.33351 438.095L0.996166 438.178" stroke="black" stroke-width="1.56" stroke-miterlimit="10" stroke-dasharray="2.7 10.39"/>
</g>
<path d="M158.051 225.612C183.625 225.612 204.358 204.88 204.358 179.305C204.358 153.73 183.625 132.997 158.051 132.997C132.476 132.997 111.743 153.73 111.743 179.305C111.743 204.88 132.476 225.612 158.051 225.612Z" fill="#A28FFF"/>
<path d="M146.863 225.612C172.438 225.612 193.171 204.88 193.171 179.305C193.171 153.73 172.438 132.997 146.863 132.997C121.288 132.997 100.556 153.73 100.556 179.305C100.556 204.88 121.288 225.612 146.863 225.612Z" fill="white" stroke="#282828" stroke-width="4.05" stroke-miterlimit="10"/>
<path d="M193.025 179.574H209.452" stroke="#282828" stroke-width="4.05" stroke-miterlimit="10"/>
<path d="M191.388 166.249H207.252" stroke="#282828" stroke-width="4.05" stroke-miterlimit="10"/>
<path d="M185.242 152.923H201.18" stroke="#282828" stroke-width="4.05" stroke-miterlimit="10"/>
<path d="M191.305 192.9H207.261" stroke="#282828" stroke-width="4.05" stroke-miterlimit="10"/>
<path d="M184.506 206.229H201.165" stroke="#282828" stroke-width="4.05" stroke-miterlimit="10"/>
<path d="M146.694 201.416C158.96 201.416 168.903 191.473 168.903 179.207C168.903 166.941 158.96 156.998 146.694 156.998C134.428 156.998 124.485 166.941 124.485 179.207C124.485 191.473 134.428 201.416 146.694 201.416Z" fill="white" stroke="#282828" stroke-width="4.05" stroke-miterlimit="10"/>
<path d="M167.946 157.721L120.159 195.183" stroke="#282828" stroke-width="4.05" stroke-miterlimit="10"/>
<path d="M172.616 163.56L124.829 201.022" stroke="#282828" stroke-width="4.05" stroke-miterlimit="10"/>
<path d="M169.947 219.536H186.576" stroke="#282828" stroke-width="4.05" stroke-miterlimit="10"/>
<path d="M170.68 139.622H186.621" stroke="#282828" stroke-width="4.05" stroke-miterlimit="10"/>
<path d="M80.2767 361.887C93.1764 361.887 103.634 351.429 103.634 338.53C103.634 325.63 93.1764 315.173 80.2767 315.173C67.3771 315.173 56.9199 325.63 56.9199 338.53C56.9199 351.429 67.3771 361.887 80.2767 361.887Z" fill="#480BE3"/>
<path d="M80.2798 338.509L119.397 407.693" stroke="#282828" stroke-width="2.46" stroke-miterlimit="10" stroke-dasharray="8.36 5.97"/>
<path d="M80.4458 338.479L135.183 397.32" stroke="#282828" stroke-width="2.46" stroke-miterlimit="10" stroke-dasharray="8.36 5.97"/>
<path d="M81.377 338.915L156.823 363.568" stroke="#282828" stroke-width="2.46" stroke-miterlimit="10" stroke-dasharray="8.36 5.97"/>
<path d="M80.2529 338.562L158.73 340.042" stroke="#282828" stroke-width="2.46" stroke-miterlimit="10" stroke-dasharray="8.36 5.97"/>
<path d="M80.4277 338.55L147.465 382.272" stroke="#282828" stroke-width="2.46" stroke-miterlimit="10" stroke-dasharray="8.36 5.97"/>
<path d="M470.612 432.428C483.511 432.428 493.969 421.971 493.969 409.072C493.969 396.172 483.511 385.715 470.612 385.715C457.712 385.715 447.255 396.172 447.255 409.072C447.255 421.971 457.712 432.428 470.612 432.428Z" fill="#A28FFF"/>
<path d="M447.1 410.729C460 410.729 470.457 400.272 470.457 387.372C470.457 374.473 460 364.015 447.1 364.015C434.201 364.015 423.744 374.473 423.744 387.372C423.744 400.272 434.201 410.729 447.1 410.729Z" stroke="#282828" stroke-width="4.05" stroke-miterlimit="10"/>
<path d="M447.276 387.147L431.35 310.099" stroke="#282828" stroke-width="2.46" stroke-miterlimit="10" stroke-dasharray="8.35 5.97"/>
<path d="M447.29 387.209L413.203 315.348" stroke="#282828" stroke-width="2.46" stroke-miterlimit="10" stroke-dasharray="8.35 5.97"/>
<path d="M447.329 387.064L382.563 341.204" stroke="#282828" stroke-width="2.46" stroke-miterlimit="10" stroke-dasharray="8.35 5.97"/>
<path d="M447.539 387.432L373.792 363.12" stroke="#282828" stroke-width="2.46" stroke-miterlimit="10" stroke-dasharray="8.35 5.97"/>
<path d="M447.243 386.951L397.027 326.1" stroke="#282828" stroke-width="2.46" stroke-miterlimit="10" stroke-dasharray="8.35 5.97"/>
<path d="M486.508 59.76C492.404 59.76 497.183 54.9808 497.183 49.0853C497.183 43.1899 492.404 38.4106 486.508 38.4106C480.613 38.4106 475.833 43.1899 475.833 49.0853C475.833 54.9808 480.613 59.76 486.508 59.76Z" fill="#A28FFF"/>
<path d="M498.754 78.0375C507.052 78.0375 513.779 71.3108 513.779 63.0129C513.779 54.715 507.052 47.9883 498.754 47.9883C490.456 47.9883 483.729 54.715 483.729 63.0129C483.729 71.3108 490.456 78.0375 498.754 78.0375Z" fill="white" stroke="#282828" stroke-width="4.05" stroke-miterlimit="10"/>
<path d="M505.598 149.931C511.494 149.931 516.273 145.152 516.273 139.257C516.273 133.361 511.494 128.582 505.598 128.582C499.703 128.582 494.923 133.361 494.923 139.257C494.923 145.152 499.703 149.931 505.598 149.931Z" fill="#480BE3"/>
<path d="M498.754 67.6859C501.335 67.6859 503.427 65.5936 503.427 63.0127C503.427 60.4318 501.335 58.3396 498.754 58.3396C496.173 58.3396 494.081 60.4318 494.081 63.0127C494.081 65.5936 496.173 67.6859 498.754 67.6859Z" fill="white" stroke="#282828" stroke-width="4.05" stroke-miterlimit="10"/>
<path d="M408.853 33.3076C417.151 33.3076 423.877 26.5808 423.877 18.2829C423.877 9.98506 417.151 3.2583 408.853 3.2583C400.555 3.2583 393.828 9.98506 393.828 18.2829C393.828 26.5808 400.555 33.3076 408.853 33.3076Z" fill="white" stroke="#282828" stroke-width="4.05" stroke-miterlimit="10"/>
<path d="M422.733 40.2964L458.538 93.8092L475.709 69.6992" stroke="#282828" stroke-width="2.46" stroke-miterlimit="10" stroke-dasharray="8.35 5.97"/>
<path d="M456.343 131.197C464.641 131.197 471.368 124.47 471.368 116.173C471.368 107.875 464.641 101.148 456.343 101.148C448.045 101.148 441.318 107.875 441.318 116.173C441.318 124.47 448.045 131.197 456.343 131.197Z" fill="white" stroke="#282828" stroke-width="4.05" stroke-miterlimit="10"/>
<path d="M462.769 110.358C462.733 112.038 462.04 113.637 460.839 114.812C459.638 115.987 458.025 116.645 456.345 116.645C454.664 116.645 453.051 115.987 451.85 114.812C450.649 113.637 449.957 112.038 449.92 110.358" stroke="#282828" stroke-width="4.05" stroke-miterlimit="10"/>
<path d="M456.343 116.766V125.157" stroke="#282828" stroke-width="4.05" stroke-miterlimit="10"/>
<path d="M498.76 155.918L487.646 189.007" stroke="#282828" stroke-width="2.46" stroke-miterlimit="10" stroke-dasharray="8.35 5.97"/>
<path d="M422.389 41.7406C423.412 41.7406 424.242 40.8844 424.242 39.8281C424.242 38.7718 423.412 37.9155 422.389 37.9155C421.365 37.9155 420.536 38.7718 420.536 39.8281C420.536 40.8844 421.365 41.7406 422.389 41.7406Z" fill="#282828"/>
<path d="M458.537 95.9027C459.561 95.9027 460.391 95.0465 460.391 93.9902C460.391 92.9339 459.561 92.0776 458.537 92.0776C457.514 92.0776 456.684 92.9339 456.684 93.9902C456.684 95.0465 457.514 95.9027 458.537 95.9027Z" fill="#282828"/>
<path d="M476.898 70.3339C477.921 70.3339 478.751 69.4776 478.751 68.4213C478.751 67.3651 477.921 66.5088 476.898 66.5088C475.874 66.5088 475.044 67.3651 475.044 68.4213C475.044 69.4776 475.874 70.3339 476.898 70.3339Z" fill="#282828"/>
<path d="M500.785 155.858C500.947 154.814 500.258 153.841 499.246 153.685C498.235 153.528 497.284 154.248 497.122 155.292C496.961 156.335 497.65 157.308 498.662 157.465C499.673 157.621 500.624 156.902 500.785 155.858Z" fill="#282828"/>
<path d="M489.499 189.151C489.66 188.107 488.971 187.134 487.959 186.978C486.948 186.821 485.997 187.541 485.836 188.585C485.674 189.628 486.363 190.601 487.375 190.758C488.386 190.914 489.337 190.195 489.499 189.151Z" fill="#282828"/>
<path d="M408.838 18.2205C408.23 18.2157 407.635 18.0472 407.115 17.7327C406.595 17.4181 406.169 16.9692 405.883 16.4331C405.596 15.8971 405.46 15.2937 405.487 14.6866C405.515 14.0795 405.706 13.491 406.04 12.9832C406.374 12.4754 406.838 12.0669 407.385 11.8009C407.931 11.5349 408.539 11.4212 409.145 11.4716C409.75 11.5221 410.331 11.7349 410.826 12.0877C411.321 12.4404 411.712 12.9201 411.957 13.4762" stroke="#282828" stroke-width="4.05" stroke-miterlimit="10"/>
<path d="M408.838 18.2207C409.46 18.2251 410.069 18.4012 410.597 18.7295C411.126 19.0579 411.554 19.5258 411.833 20.0817C412.113 20.6376 412.234 21.26 412.183 21.8801C412.131 22.5003 411.91 23.0942 411.542 23.5965C411.175 24.0988 410.676 24.4899 410.1 24.7268C409.525 24.9637 408.895 25.0371 408.281 24.939C407.666 24.8409 407.091 24.575 406.618 24.1707C406.145 23.7665 405.792 23.2394 405.6 22.6477" stroke="#282828" stroke-width="4.05" stroke-miterlimit="10"/>
<path d="M64.6355 210.392C65.4805 210.392 66.1655 209.707 66.1655 208.862C66.1655 208.017 65.4805 207.332 64.6355 207.332C63.7905 207.332 63.1055 208.017 63.1055 208.862C63.1055 209.707 63.7905 210.392 64.6355 210.392Z" fill="#282828"/>
<path d="M184.948 252.349C185.793 252.349 186.478 251.664 186.478 250.819C186.478 249.974 185.793 249.289 184.948 249.289C184.103 249.289 183.418 249.974 183.418 250.819C183.418 251.664 184.103 252.349 184.948 252.349Z" fill="#282828"/>
<path d="M75.296 278.428L77.2891 280.75L79.6111 278.757L77.618 276.435L75.296 278.428Z" fill="#282828"/>
<path d="M234.517 188.965C235.362 188.965 236.047 188.28 236.047 187.435C236.047 186.59 235.362 185.905 234.517 185.905C233.672 185.905 232.987 186.59 232.987 187.435C232.987 188.28 233.672 188.965 234.517 188.965Z" fill="#282828"/>
<path d="M365.22 328.258C366.065 328.258 366.75 327.573 366.75 326.728C366.75 325.883 366.065 325.198 365.22 325.198C364.375 325.198 363.69 325.883 363.69 326.728C363.69 327.573 364.375 328.258 365.22 328.258Z" fill="#282828"/>
<path d="M332.762 411.582L334.194 414.287L336.898 412.855L335.467 410.151L332.762 411.582Z" fill="#282828"/>
<path d="M350.886 418.115C351.731 418.115 352.416 417.43 352.416 416.585C352.416 415.74 351.731 415.055 350.886 415.055C350.041 415.055 349.356 415.74 349.356 416.585C349.356 417.43 350.041 418.115 350.886 418.115Z" fill="#282828"/>
<path d="M486.229 286.963L488.328 289.19L490.555 287.092L488.457 284.865L486.229 286.963Z" fill="#282828"/>
<path d="M413.685 146.999L415.852 149.16L418.013 146.993L415.846 144.832L413.685 146.999Z" fill="#282828"/>
<path d="M468.092 7.12851L470.259 9.28931L472.42 7.12249L470.253 4.96169L468.092 7.12851Z" fill="#282828"/>
<path d="M524.889 227.477C525.734 227.477 526.419 226.792 526.419 225.947C526.419 225.102 525.734 224.417 524.889 224.417C524.044 224.417 523.359 225.102 523.359 225.947C523.359 226.792 524.044 227.477 524.889 227.477Z" fill="#282828"/>
<path d="M487.926 300.406C488.771 300.406 489.456 299.721 489.456 298.876C489.456 298.031 488.771 297.346 487.926 297.346C487.081 297.346 486.396 298.031 486.396 298.876C486.396 299.721 487.081 300.406 487.926 300.406Z" fill="#282828"/>
<path d="M434.072 253.346C434.917 253.346 435.602 252.661 435.602 251.816C435.602 250.971 434.917 250.286 434.072 250.286C433.227 250.286 432.542 250.971 432.542 251.816C432.542 252.661 433.227 253.346 434.072 253.346Z" fill="#282828"/>
<path d="M49.9487 432.309L52.5918 433.851L54.1338 431.208L51.4907 429.666L49.9487 432.309Z" fill="#282828"/>
<path d="M171.759 254.09C171.759 254.09 148.375 263.478 149.247 295.899" stroke="#282828" stroke-width="4.05" stroke-miterlimit="10"/>
<path d="M375.364 437.419C375.364 437.419 397.033 437.751 417.283 431.598" stroke="#282828" stroke-width="4.05" stroke-miterlimit="10"/>
<path d="M480.311 225.17C488.609 225.17 495.335 218.444 495.335 210.146C495.335 201.848 488.609 195.121 480.311 195.121C472.013 195.121 465.286 201.848 465.286 210.146C465.286 218.444 472.013 225.17 480.311 225.17Z" fill="white" stroke="#282828" stroke-width="4.05" stroke-miterlimit="10"/>
<path d="M485.334 206.487C485.334 206.487 483.602 203.848 480.797 203.848C477.992 203.848 474.867 205.95 474.867 210.238C474.867 214.525 478.289 216.382 480.474 216.382C481.457 216.364 482.422 216.113 483.29 215.649C484.157 215.185 484.901 214.521 485.461 213.713" stroke="#282828" stroke-width="4.05" stroke-miterlimit="10"/>
<path d="M21.3108 328.697C22.1558 328.697 22.8408 328.012 22.8408 327.167C22.8408 326.322 22.1558 325.637 21.3108 325.637C20.4658 325.637 19.7808 326.322 19.7808 327.167C19.7808 328.012 20.4658 328.697 21.3108 328.697Z" fill="#282828"/>
<path d="M45.8568 249.571C45.8568 249.571 40.8159 265.224 40.6113 281.479" stroke="#282828" stroke-width="4.05" stroke-miterlimit="10"/>
<path d="M79.1707 268.649C80.0157 268.649 80.7007 267.964 80.7007 267.119C80.7007 266.274 80.0157 265.589 79.1707 265.589C78.3256 265.589 77.6406 266.274 77.6406 267.119C77.6406 267.964 78.3256 268.649 79.1707 268.649Z" fill="#282828"/>
<path d="M251.772 370.37L244.631 395.538" stroke="#282828" stroke-width="4.05" stroke-miterlimit="10"/>
<path d="M251.525 370.269L299.295 339.425L330.56 348.205" stroke="#282828" stroke-width="4.05" stroke-miterlimit="10"/>
<path d="M299.12 339.333L292.314 291.777L355.867 259.848" stroke="#282828" stroke-width="4.05" stroke-miterlimit="10"/>
<path d="M251.798 370.082L212.619 364.354" stroke="#282828" stroke-width="4.05" stroke-miterlimit="10"/>
<path d="M210.028 367.025C211.636 367.025 212.939 365.721 212.939 364.113C212.939 362.505 211.636 361.201 210.028 361.201C208.419 361.201 207.116 362.505 207.116 364.113C207.116 365.721 208.419 367.025 210.028 367.025Z" fill="#282828"/>
<path d="M244.507 398.856C246.115 398.856 247.419 397.553 247.419 395.945C247.419 394.336 246.115 393.033 244.507 393.033C242.899 393.033 241.595 394.336 241.595 395.945C241.595 397.553 242.899 398.856 244.507 398.856Z" fill="#282828"/>
<path d="M299.223 342.349C300.831 342.349 302.135 341.045 302.135 339.437C302.135 337.829 300.831 336.525 299.223 336.525C297.615 336.525 296.312 337.829 296.312 339.437C296.312 341.045 297.615 342.349 299.223 342.349Z" fill="#282828"/>
<path d="M332.721 351.577C334.33 351.577 335.633 350.273 335.633 348.665C335.633 347.057 334.33 345.753 332.721 345.753C331.113 345.753 329.81 347.057 329.81 348.665C329.81 350.273 331.113 351.577 332.721 351.577Z" fill="#282828"/>
<path d="M327.428 305.936C329.037 305.936 330.34 304.633 330.34 303.024C330.34 301.416 329.037 300.113 327.428 300.113C325.82 300.113 324.517 301.416 324.517 303.024C324.517 304.633 325.82 305.936 327.428 305.936Z" fill="#282828"/>
<path d="M292.605 294.826C294.213 294.826 295.517 293.522 295.517 291.914C295.517 290.306 294.213 289.002 292.605 289.002C290.997 289.002 289.693 290.306 289.693 291.914C289.693 293.522 290.997 294.826 292.605 294.826Z" fill="#282828"/>
<path d="M357.626 261.912C359.234 261.912 360.538 260.608 360.538 259C360.538 257.392 359.234 256.088 357.626 256.088C356.018 256.088 354.714 257.392 354.714 259C354.714 260.608 356.018 261.912 357.626 261.912Z" fill="#282828"/>
<path d="M327.108 302.909L292.463 291.946" stroke="#282828" stroke-width="4.05" stroke-miterlimit="10"/>
<path d="M302.313 259.552C303.921 259.552 305.225 258.248 305.225 256.64C305.225 255.032 303.921 253.728 302.313 253.728C300.705 253.728 299.401 255.032 299.401 256.64C299.401 258.248 300.705 259.552 302.313 259.552Z" fill="#282828"/>
<path d="M292.567 291.567L302.014 257.847" stroke="#282828" stroke-width="4.05" stroke-miterlimit="10"/>
<path d="M251.599 373.196C253.207 373.196 254.511 371.892 254.511 370.284C254.511 368.676 253.207 367.372 251.599 367.372C249.991 367.372 248.688 368.676 248.688 370.284C248.688 371.892 249.991 373.196 251.599 373.196Z" fill="#282828"/>
<path d="M250.559 154.978C250.559 154.978 282.342 169.786 302.387 194.166" stroke="#282828" stroke-width="4.05" stroke-miterlimit="10"/>
<path d="M255.727 200.006L256.116 203.041L259.151 202.652L258.763 199.617L255.727 200.006Z" fill="#282828"/>
<path d="M239.422 263.685C240.267 263.685 240.952 263 240.952 262.155C240.952 261.31 240.267 260.625 239.422 260.625C238.577 260.625 237.892 261.31 237.892 262.155C237.892 263 238.577 263.685 239.422 263.685Z" fill="#282828"/>
<path d="M415.726 200.951V242.084" stroke="#282828" stroke-width="4.05" stroke-miterlimit="10"/>
<path d="M524.809 95.2534C525.654 95.2534 526.339 94.5684 526.339 93.7234C526.339 92.8784 525.654 92.1934 524.809 92.1934C523.964 92.1934 523.279 92.8784 523.279 93.7234C523.279 94.5684 523.964 95.2534 524.809 95.2534Z" fill="#282828"/>
</g>
<defs>
<clipPath id="clip0_1694_555">
<rect width="528" height="435" fill="white"/>
</clipPath>
</defs>
</svg>
