<?xml version="1.0" standalone="no"?>
<!DOCTYPE svg PUBLIC "-//W3C//DTD SVG 20010904//EN"
 "http://www.w3.org/TR/2001/REC-SVG-20010904/DTD/svg10.dtd">
<svg version="1.0" xmlns="http://www.w3.org/2000/svg"
 width="700.000000pt" height="700.000000pt" viewBox="0 0 700.000000 700.000000"
 preserveAspectRatio="xMidYMid meet">
<metadata>
Created by potrace 1.14, written by Peter Selinger 2001-2017
</metadata>
<g transform="translate(0.000000,700.000000) scale(0.100000,-0.100000)"
fill="#000000" stroke="none">
<path d="M196 6984 c-36 -11 -65 -31 -107 -73 -99 -99 -89 275 -89 -3411 0
-3686 -10 -3312 89 -3411 99 -99 -275 -89 3411 -89 3686 0 3312 -10 3411 89
99 99 89 -275 89 3411 0 3686 10 3312 -89 3411 -99 99 276 89 -3415 88 -2866
0 -3257 -2 -3300 -15z m2429 -3484 l0 -2185 -437 -3 -438 -2 0 2190 0 2190
438 -2 437 -3 0 -2185z m2625 1750 l0 -440 -1095 0 -1095 0 0 440 0 440 1095
0 1095 0 0 -440z m0 -1750 l0 -440 -1095 0 -1095 0 0 440 0 440 1095 0 1095 0
0 -440z"/>
</g>
</svg>
