<svg width="64" height="64" viewBox="0 0 64 64" fill="none" xmlns="http://www.w3.org/2000/svg">
<path d="M18.2857 27.4287V18.2858C18.2857 14.6486 19.7306 11.1603 22.3025 8.58835C24.8744 6.01643 28.3627 4.57153 32 4.57153C35.6372 4.57153 39.1255 6.01643 41.6974 8.58835C44.2694 11.1603 45.7143 14.6486 45.7143 18.2858V27.4287H13.7143C12.5018 27.4287 11.3391 27.9103 10.4818 28.7676C9.62445 29.6249 9.14282 30.7877 9.14282 32.0001V54.8572C9.14282 56.0697 9.62445 57.2324 10.4818 58.0897C11.3391 58.947 12.5018 59.4287 13.7143 59.4287H50.2857C51.4981 59.4287 52.6609 58.947 53.5182 58.0897C54.3755 57.2324 54.8571 56.0697 54.8571 54.8572V41.143" stroke="#111111" stroke-width="2" stroke-miterlimit="5"/>
<path d="M59.4286 27.4285L32 50.2856L22.8572 41.1428" stroke="#111111" stroke-width="2" stroke-miterlimit="5"/>
</svg>
