<svg width="64" height="64" viewBox="0 0 64 64" fill="none" xmlns="http://www.w3.org/2000/svg">
<path d="M28 10.5H36" stroke="#111111"/>
<path d="M28 11.5H36" stroke="#111111"/>
<path d="M28 12.5H36" stroke="#111111"/>
<path d="M28 13.5H36" stroke="#111111"/>
<path d="M28 14.5H36" stroke="#111111"/>
<path d="M28 15.5H36" stroke="#111111"/>
<path d="M28 16.5H36" stroke="#111111"/>
<path d="M28 28.5H36" stroke="#111111"/>
<path d="M28 29.5H36" stroke="#111111"/>
<path d="M28 30.5H36" stroke="#111111"/>
<path d="M28 31.5H36" stroke="#111111"/>
<path d="M28 32.5H36" stroke="#111111"/>
<path d="M28 33.5H36" stroke="#111111"/>
<path d="M28 34.5H36" stroke="#111111"/>
<path d="M28 46.5H36" stroke="#111111"/>
<path d="M28 47.5H36" stroke="#111111"/>
<path d="M28 48.5H36" stroke="#111111"/>
<path d="M28 49.5H36" stroke="#111111"/>
<path d="M28 50.5H36" stroke="#111111"/>
<path d="M28 51.5H36" stroke="#111111"/>
<path d="M28 52.5H36" stroke="#111111"/>
<path d="M28 53.5H36" stroke="#111111"/>
</svg>
