<svg width="64" height="64" viewBox="0 0 64 64" fill="none" xmlns="http://www.w3.org/2000/svg">
<path d="M47.9999 45.7143C43.3785 45.715 38.8207 44.6376 34.6886 42.568C30.5566 40.4983 26.9642 37.4934 24.1971 33.7921C21.43 30.0907 19.5643 25.7949 18.7484 21.2462C17.9325 16.6974 18.1888 12.021 19.497 7.58862C15.648 9.5591 12.3194 12.4117 9.78284 15.9136C7.24625 19.4155 5.57355 23.4675 4.90122 27.7389C4.22888 32.0104 4.57597 36.3803 5.91415 40.4921C7.25233 44.6039 9.5437 48.3411 12.6013 51.3986C15.6588 54.4562 19.396 56.7476 23.5078 58.0858C27.6196 59.4239 31.9895 59.771 36.261 59.0987C40.5325 58.4264 44.5845 56.7537 48.0863 54.2171C51.5882 51.6805 54.4408 48.3519 56.4113 44.5029C53.6792 45.304 50.847 45.7119 47.9999 45.7143V45.7143Z" stroke="#111111" stroke-width="2" stroke-miterlimit="5"/>
</svg>
