<svg width="64" height="64" viewBox="0 0 64 64" fill="none" xmlns="http://www.w3.org/2000/svg">
<path d="M32 15.0401C29.2208 13.4279 26.0658 12.5765 22.8529 12.5716C19.6399 12.5666 16.4823 13.4084 13.6981 15.012C10.914 16.6156 8.60148 18.9246 6.99357 21.7063C5.38565 24.488 4.53906 27.6443 4.53906 30.8572C4.53906 34.0702 5.38565 37.2265 6.99357 40.0082C8.60148 42.7899 10.914 45.0988 13.6981 46.7025C16.4823 48.3061 19.6399 49.1479 22.8529 49.1429C26.0658 49.138 29.2208 48.2866 32 46.6744" stroke="#111111" stroke-width="2"/>
<path d="M41.1429 49.143C51.2418 49.143 59.4286 40.9562 59.4286 30.8572C59.4286 20.7583 51.2418 12.5715 41.1429 12.5715C31.044 12.5715 22.8572 20.7583 22.8572 30.8572C22.8572 40.9562 31.044 49.143 41.1429 49.143Z" stroke="#111111" stroke-width="2"/>
<path d="M13.7142 30.8572H45.7142" stroke="#111111" stroke-width="2"/>
<path d="M36.5714 40.0001L45.7143 30.8572L36.5714 21.7144" stroke="#111111" stroke-width="2"/>
</svg>
