<svg width="64" height="64" viewBox="0 0 64 64" fill="none" xmlns="http://www.w3.org/2000/svg">
<path d="M32.0001 59.4287C47.1485 59.4287 59.4287 47.1485 59.4287 32.0001C59.4287 16.8517 47.1485 4.57153 32.0001 4.57153C16.8517 4.57153 4.57153 16.8517 4.57153 32.0001C4.57153 47.1485 16.8517 59.4287 32.0001 59.4287Z" stroke="#111111" stroke-width="2" stroke-miterlimit="5"/>
<path d="M32 11.4285V16.5713" stroke="#111111" stroke-width="2" stroke-miterlimit="5"/>
<path d="M32 52.5713V47.4285" stroke="#111111" stroke-width="2" stroke-miterlimit="5"/>
<path d="M52.5713 32H47.4285" stroke="#111111" stroke-width="2" stroke-miterlimit="5"/>
<path d="M11.4285 32H16.5713" stroke="#111111" stroke-width="2" stroke-miterlimit="5"/>
<path d="M46.5486 17.4514L42.9143 21.0857" stroke="#111111" stroke-width="2" stroke-miterlimit="5"/>
<path d="M17.4514 46.5486L21.0857 42.9143" stroke="#111111" stroke-width="2" stroke-miterlimit="5"/>
<path d="M46.5486 46.5486L42.9143 42.9143" stroke="#111111" stroke-width="2" stroke-miterlimit="5"/>
<path d="M17.4514 17.4514L21.0857 21.0857" stroke="#111111" stroke-width="2" stroke-miterlimit="5"/>
<path d="M32 41.1429C37.0495 41.1429 41.1429 37.0495 41.1429 32C41.1429 26.9506 37.0495 22.8572 32 22.8572C26.9506 22.8572 22.8572 26.9506 22.8572 32C22.8572 37.0495 26.9506 41.1429 32 41.1429Z" stroke="#111111" stroke-width="2" stroke-miterlimit="5"/>
</svg>
