<svg width="64" height="64" viewBox="0 0 64 64" fill="none" xmlns="http://www.w3.org/2000/svg">
<path d="M54.8571 13.7144L50.2857 59.4286H13.7143L9.14282 13.7144" stroke="#111111" stroke-width="2" stroke-miterlimit="5"/>
<path d="M18.2858 13.7144V9.21153C18.2858 8.6022 18.4058 7.99883 18.639 7.43588C18.8721 6.87293 19.2139 6.36142 19.6448 5.93056C20.515 5.06039 21.6952 4.57153 22.9258 4.57153H41.0743C41.6837 4.57153 42.287 4.69155 42.85 4.92473C43.4129 5.15791 43.9244 5.49969 44.3553 5.93056C44.7862 6.36142 45.128 6.87293 45.3611 7.43588C45.5943 7.99883 45.7143 8.6022 45.7143 9.21153V13.7144" stroke="#111111" stroke-width="2" stroke-miterlimit="5"/>
<path d="M4.57141 13.7144H59.4285" stroke="#111111" stroke-width="2" stroke-miterlimit="5"/>
<path d="M22.8572 27.4285L41.1429 45.7142" stroke="#111111" stroke-width="2" stroke-miterlimit="5"/>
<path d="M41.1429 27.4285L22.8572 45.7142" stroke="#111111" stroke-width="2" stroke-miterlimit="5"/>
</svg>
