<svg width="64" height="64" viewBox="0 0 64 64" fill="none" xmlns="http://www.w3.org/2000/svg">
<rect width="64" height="64" rx="4" fill="black"/>
<path d="M21.5309 48L26.1587 39.9859L30.7866 32L35.3862 23.9859L36.1481 22.716L36.4868 23.9859L37.8977 29.2628L36.3175 32L31.6896 39.9859L27.0899 48H32.6208L37.2487 39.9859L39.6473 35.8377L40.776 39.9859L42.9206 48H47.8871L45.7425 39.9859L43.5979 32L43.0335 29.94L46.4762 23.9859H41.4533L41.2839 23.3933L39.5344 16.8466L39.3086 16H34.4832L34.3704 16.1693L29.8554 23.9859L25.2275 32L20.6279 39.9859L16 48H21.5309V48Z" fill="white"/>
</svg>
