<svg width="64" height="64" viewBox="0 0 64 64" fill="none" xmlns="http://www.w3.org/2000/svg">
<rect width="64" height="64" rx="4" fill="url(#paint0_linear_573_470516)"/>
<path d="M22.6719 20.8V44.8001H42.6719L22.6719 20.8Z" fill="url(#paint1_linear_573_470516)"/>
<path d="M2.67188 44.8001H22.6719V20.8L2.67188 44.8001Z" fill="white"/>
<rect y="51.2" width="64" height="6.4" fill="#FC9965"/>
<path d="M0 57.6003H64V60.0003C64 62.2095 62.2091 64.0003 60 64.0003H4C1.79086 64.0003 0 62.2095 0 60.0003V57.6003Z" fill="#FF2D55"/>
<path d="M42.9271 33.6003V51.2003H57.5991L42.9271 33.6003Z" fill="url(#paint2_linear_573_470516)"/>
<path d="M42.9279 44.8H2.67188C3.66387 47.088 4.92787 49.232 6.39987 51.2H42.9439V44.8H42.9279V44.8Z" fill="#FFBC5B"/>
<path d="M28.2709 51.2003H42.9269V33.6003L28.2709 51.2003Z" fill="white"/>
<circle cx="42.9271" cy="20.8" r="8" fill="#FFC95B"/>
<circle cx="22.6719" cy="12" r="4" fill="#FFC95B"/>
<defs>
<linearGradient id="paint0_linear_573_470516" x1="32" y1="0" x2="0" y2="32" gradientUnits="userSpaceOnUse">
<stop stop-color="#FF2D55"/>
<stop offset="1" stop-color="#FFBC5B"/>
</linearGradient>
<linearGradient id="paint1_linear_573_470516" x1="22.6651" y1="20.8" x2="22.6651" y2="44.8" gradientUnits="userSpaceOnUse">
<stop stop-color="#A524B3"/>
<stop offset="1" stop-color="#FF2D55"/>
</linearGradient>
<linearGradient id="paint2_linear_573_470516" x1="42.9221" y1="33.6003" x2="42.9221" y2="51.2003" gradientUnits="userSpaceOnUse">
<stop stop-color="#A524B3"/>
<stop offset="1" stop-color="#FF2D55"/>
</linearGradient>
</defs>
</svg>
