<svg width="64" height="64" viewBox="0 0 64 64" fill="none" xmlns="http://www.w3.org/2000/svg">
<g clip-path="url(#clip0_257_1699)">
<rect width="64" height="64" rx="4" fill="white"/>
<path fill-rule="evenodd" clip-rule="evenodd" d="M20.2667 30.0089L32.0717 23.7944L43.7801 30.0475L32.0202 12.8L20.2667 30.0089ZM20.717 31.8036L32.0845 25.7378L43.3041 31.7592L32.0909 37.8317L20.717 31.8036ZM20.2667 33.5408C24.4096 35.741 28.7327 38.044 32.0717 39.826L43.7801 33.5408C39.5407 39.8388 36.0083 45.082 32.0717 50.8848L29.7961 47.5443C26.5094 42.7196 23.109 37.7281 20.2667 33.5408Z" fill="#3AB83A"/>
<path fill-rule="evenodd" clip-rule="evenodd" d="M32.0202 12.8L32.0717 23.7948L43.7801 30.0475L32.0202 12.8ZM32.0845 25.7378L43.3041 31.7592L32.0909 37.8317L32.0845 25.7378ZM32.0717 39.826L43.7801 33.5408C39.5407 39.8388 32.0717 50.8848 32.0717 50.8848V39.826Z" fill="#0B8311"/>
<path d="M20.717 31.8037L32.0851 32.7366L43.3047 31.7651L32.0909 37.8381L20.717 31.8037Z" fill="#0B8311"/>
<path d="M32.0845 32.7366L43.304 31.7651L32.0909 37.8381L32.0845 32.7366Z" fill="#146714"/>
</g>
<defs>
<clipPath id="clip0_257_1699">
<rect width="64" height="64" fill="white"/>
</clipPath>
</defs>
</svg>
