<svg width="64" height="64" viewBox="0 0 64 64" fill="none" xmlns="http://www.w3.org/2000/svg">
<rect y="0.000244141" width="64" height="64" rx="4" fill="#13B5EC"/>
<path fill-rule="evenodd" clip-rule="evenodd" d="M34.6666 25.603L41.8666 21.3819V29.8241L34.6666 25.603ZM41.8666 43.6934L32.2666 49.3216L22.6666 43.6934V33.8442L32.2666 39.4723L41.8666 33.8442V43.6934ZM22.6666 21.3819L29.8666 25.603L22.6666 29.8241V21.3819ZM33.4666 27.613L40.6666 31.8341L33.4666 36.0553V27.613ZM31.0666 36.0553L23.8666 31.8341L31.0666 27.613V36.0553ZM40.6666 19.3718L32.2666 24.196L23.8666 19.3718L32.2666 14.3467L40.6666 19.3718ZM20.2666 18.5678V44.8995L32.2666 51.7336L44.2666 44.8995V18.5678L32.2666 11.7336L20.2666 18.5678Z" fill="white"/>
</svg>
