<svg width="64" height="64" viewBox="0 0 64 64" fill="none" xmlns="http://www.w3.org/2000/svg">
<rect y="0.000244141" width="64" height="64" rx="4" fill="#EDF0F4"/>
<path d="M35.8053 25.0328C34.5023 25.8409 31.8924 27.4611 31.8764 27.4771L19.8899 20.4192L31.8815 13.7761L46.6922 21.9987L49.6163 20.3342L31.9014 10.667L14.1016 20.3241L31.8065 30.5512L38.6795 26.7373L35.8053 25.0328Z" fill="black"/>
<path d="M24.1971 31.5064V28.4301L30.9847 32.2015V53.3202L12.7996 42.0569V21.687L15.6663 23.4908V40.5537L28.1196 48.244V33.8122L24.1971 31.5064Z" fill="black"/>
<path d="M32.734 53.3334V49.9622L47.9558 40.5866V26.7045L35.613 33.9037V38.4837L32.7319 40.3311V32.2224L50.9569 21.585V42.0767L32.734 53.3334Z" fill="black"/>
</svg>
