<svg width="64" height="64" viewBox="0 0 64 64" fill="none" xmlns="http://www.w3.org/2000/svg">
<rect y="0.000244141" width="64" height="64" rx="4" fill="white"/>
<path d="M31.9994 6.40015C17.8639 6.40015 6.38205 17.8772 6.40005 31.9968C6.40359 34.8217 6.85415 37.5391 7.69978 40.0809H15.3597V18.5477L31.9994 35.1837L48.6383 18.5477V40.0813H56.2998C57.1467 37.5396 57.5949 34.8222 57.6 31.9972C57.6241 17.8629 46.1364 6.40355 31.9994 6.40355V6.40015Z" fill="#F26822"/>
<path d="M28.1727 39.0081L20.911 31.7476V45.2974H15.3591L10.1202 45.2984C14.614 52.6694 22.7352 57.6001 31.9994 57.6001C41.2636 57.6001 49.3852 52.6683 53.8798 45.2973H43.0861V31.7476L35.824 39.0081L31.9986 42.8328L28.173 39.0081H28.1727Z" fill="#4D4D4D"/>
</svg>
