<svg width="64" height="64" viewBox="0 0 64 64" fill="none" xmlns="http://www.w3.org/2000/svg">
<g clip-path="url(#clip0_234_2062)">
<rect y="0.000488281" width="64" height="64" rx="4" fill="white"/>
<path d="M48.9688 12.1206H55.9063L41.4688 26.4156C36.2403 31.5897 27.7634 31.5897 22.5313 26.4156L8.08813 12.1206H15.0313L26 22.9797C27.5982 24.5548 29.7519 25.4377 31.9958 25.4377C34.2397 25.4377 36.3934 24.5548 37.9916 22.9797L48.9688 12.1206Z" fill="#23292F"/>
<path d="M14.9422 51.8707H8L22.5312 37.4875C27.7597 32.3134 36.2366 32.3134 41.4688 37.4875L56 51.8707H49.0625L38 40.9234C36.4019 39.3483 34.2481 38.4654 32.0042 38.4654C29.7603 38.4654 27.6066 39.3483 26.0084 40.9234L14.9422 51.8707Z" fill="#23292F"/>
</g>
<defs>
<clipPath id="clip0_234_2062">
<rect width="64" height="64" fill="white" transform="translate(0 0.000488281)"/>
</clipPath>
</defs>
</svg>
