<svg width="1440" height="824" viewBox="0 0 1440 824" fill="none" xmlns="http://www.w3.org/2000/svg">
<g clip-path="url(#clip0_1543_70814)">
<path d="M1440 0H0V824H1440V0Z" fill="#008BD0"/>
<g opacity="0.8" filter="url(#filter0_f_1543_70814)">
<path d="M112 1212C414.1 1212 659 967.1 659 665C659 362.9 414.1 118 112 118C-190.1 118 -435 362.9 -435 665C-435 967.1 -190.1 1212 112 1212Z" fill="#F5F5F5"/>
<path d="M135 417C437.1 417 682 172.1 682 -130C682 -432.1 437.1 -677 135 -677C-167.1 -677 -412 -432.1 -412 -130C-412 172.1 -167.1 417 135 417Z" fill="#F5F5F5"/>
<path d="M1113 686C1415.1 686 1660 441.1 1660 139C1660 -163.1 1415.1 -408 1113 -408C810.9 -408 566 -163.1 566 139C566 441.1 810.9 686 1113 686Z" fill="#008BD0"/>
<path d="M1182 393C1484.1 393 1729 148.1 1729 -154C1729 -456.1 1484.1 -701 1182 -701C879.9 -701 635 -456.1 635 -154C635 148.1 879.9 393 1182 393Z" fill="#008BD0"/>
<path d="M1209 1263C1511.1 1263 1756 1018.1 1756 716C1756 413.9 1511.1 169 1209 169C906.9 169 662 413.9 662 716C662 1018.1 906.9 1263 1209 1263Z" fill="#F5F5F5"/>
<path d="M1209 1263C1511.1 1263 1756 1018.1 1756 716C1756 413.9 1511.1 169 1209 169C906.9 169 662 413.9 662 716C662 1018.1 906.9 1263 1209 1263Z" fill="#F5F5F5"/>
<path d="M1283 704C1585.1 704 1830 459.1 1830 157C1830 -145.1 1585.1 -390 1283 -390C980.9 -390 736 -145.1 736 157C736 459.1 980.9 704 1283 704Z" fill="#F5F5F5"/>
<path d="M1283 704C1585.1 704 1830 459.1 1830 157C1830 -145.1 1585.1 -390 1283 -390C980.9 -390 736 -145.1 736 157C736 459.1 980.9 704 1283 704Z" fill="#F5F5F5"/>
<path d="M676 1080C978.1 1080 1223 835.1 1223 533C1223 230.9 978.1 -14 676 -14C373.9 -14 129 230.9 129 533C129 835.1 373.9 1080 676 1080Z" fill="#F5F5F5"/>
<path d="M675 489C977.1 489 1222 244.1 1222 -58C1222 -360.1 977.1 -605 675 -605C372.9 -605 128 -360.1 128 -58C128 244.1 372.9 489 675 489Z" fill="#F5F5F5"/>
<path d="M221 707C523.1 707 768 462.1 768 160C768 -142.1 523.1 -387 221 -387C-81.0998 -387 -326 -142.1 -326 160C-326 462.1 -81.0998 707 221 707Z" fill="#008BD0"/>
<path d="M220 116C522.1 116 767 -128.9 767 -431C767 -733.1 522.1 -978 220 -978C-82.0998 -978 -327 -733.1 -327 -431C-327 -128.9 -82.0998 116 220 116Z" fill="#008BD0"/>
<path d="M297 1219C599.1 1219 844 974.1 844 672C844 369.9 599.1 125 297 125C-5.09976 125 -250 369.9 -250 672C-250 974.1 -5.09976 1219 297 1219Z" fill="#F5F5F5"/>
<path d="M429 611C731.1 611 976 366.1 976 64C976 -238.1 731.1 -483 429 -483C126.9 -483 -118 -238.1 -118 64C-118 366.1 126.9 611 429 611Z" fill="#F5F5F5"/>
<path d="M189 611C491.1 611 736 366.1 736 64C736 -238.1 491.1 -483 189 -483C-113.1 -483 -358 -238.1 -358 64C-358 366.1 -113.1 611 189 611Z" fill="#F5F5F5"/>
</g>
<g opacity="0.5">
<g clip-path="url(#clip1_1543_70814)" filter="url(#filter1_f_1543_70814)">
<rect x="1066.87" y="262" width="80" height="80" rx="20" transform="rotate(33.2514 1066.87 262)" fill="#F7931A"/>
<path d="M1097.01 323.665C1100.59 319.65 1098.77 315.035 1095.19 310.4L1100.64 305.356L1097.57 302.035L1092.26 306.946C1091.45 306.073 1090.61 305.196 1089.77 304.326L1095.12 299.382L1092.05 296.062L1086.6 301.104C1085.92 300.399 1085.25 299.705 1084.61 299.017L1084.63 299L1080.4 294.417L1076.85 297.698C1076.85 297.698 1079.16 300.108 1079.08 300.108C1080.32 301.454 1079.95 302.614 1079.39 303.365L1073.18 309.112C1073.26 309.205 1073.37 309.329 1073.48 309.484C1073.37 309.374 1073.27 309.255 1073.15 309.134L1064.44 317.183C1063.96 317.516 1063.06 317.891 1062.19 316.953C1062.19 317.03 1059.96 314.538 1059.96 314.538L1055.38 317.544L1059.37 321.867C1060.12 322.673 1060.84 323.477 1061.55 324.258L1056.03 329.362L1059.1 332.68L1064.56 327.632C1065.38 328.561 1066.19 329.449 1066.99 330.309L1061.55 335.332L1064.62 338.654L1070.13 333.562C1075.61 338.85 1080.63 341.459 1086.33 337.096C1090.91 333.585 1090.96 329.857 1088.79 325.983C1091.55 327.002 1094.39 326.609 1097.01 323.667L1097.01 323.665L1097.01 323.665ZM1080.91 329.927C1076.79 333.741 1070.73 326.245 1068.65 323.996L1075.96 317.237C1078.04 319.49 1085.21 325.95 1080.91 329.927L1080.91 329.927ZM1089.8 318.845C1086.05 322.312 1081.04 316.018 1079.31 314.143L1085.94 308.012C1087.67 309.888 1093.71 315.227 1089.8 318.845L1089.8 318.845Z" fill="white"/>
</g>
<g clip-path="url(#clip2_1543_70814)" filter="url(#filter2_f_1543_70814)">
<rect x="620.529" y="328.967" width="80" height="80" rx="20" transform="rotate(6.86443 620.529 328.967)" fill="white"/>
<path d="M659.048 344.018L659.045 344.047C659.056 344.197 659.035 344.373 659.014 344.549L656.467 365.707C656.424 365.821 656.332 365.839 656.237 365.888C655.585 366.107 654.967 366.3 654.319 366.49C653.422 366.769 652.492 367.074 651.595 367.353L648.344 368.391C647.447 368.67 646.55 368.949 645.683 369.231C644.629 369.581 643.549 369.897 642.494 370.247C641.597 370.526 640.697 370.834 639.771 371.11C639.027 371.348 638.288 371.556 637.574 371.798C637.512 371.82 637.45 371.842 637.391 371.835C637.362 371.832 637.362 371.832 637.336 371.799L638.287 370.574C640.117 368.234 641.914 365.92 643.743 363.58C645.682 361.074 647.651 358.572 649.59 356.067C651.387 353.753 653.213 351.442 655.01 349.128C656.314 347.439 657.648 345.754 658.953 344.066C658.99 344.01 659.023 343.985 659.03 343.926L659.059 343.93C659.026 343.955 659.052 343.988 659.048 344.018Z" fill="#8A92B2"/>
<path d="M673.458 376.147L673.484 376.18L668.863 378.214L654.341 384.593C654.279 384.615 654.217 384.638 654.184 384.663C654.096 384.653 654.106 384.565 654.11 384.535L654.142 384.271L656.325 366.136C656.335 366.048 656.35 365.931 656.389 365.846C656.433 365.733 656.517 365.772 656.602 365.812C656.962 366.034 657.352 366.26 657.712 366.482C658.793 367.148 659.874 367.814 660.958 368.451C661.903 369.011 662.815 369.597 663.76 370.157C664.704 370.717 665.646 371.307 666.59 371.867C667.395 372.351 668.226 372.868 669.031 373.352C669.836 373.836 670.667 374.353 671.472 374.837C672.112 375.211 672.748 375.615 673.388 375.99C673.377 376.078 673.403 376.111 673.458 376.147Z" fill="#454A75"/>
<path d="M651.961 402.883C651.957 402.912 651.924 402.938 651.921 402.968L651.891 402.964C651.898 402.905 651.843 402.869 651.821 402.807C650.309 400.035 648.8 397.233 647.288 394.461C645.754 391.627 644.194 388.76 642.66 385.926C641.173 383.187 639.661 380.415 638.175 377.675C637.787 376.944 637.395 376.242 637.007 375.51C636.985 375.448 636.959 375.415 636.911 375.32C636.999 375.331 637.05 375.397 637.076 375.429C639.449 377.233 641.792 379.034 644.165 380.838C646.891 382.922 649.588 385.003 652.314 387.088L653.705 388.148C653.756 388.214 653.749 388.273 653.742 388.332L652.039 402.476C652.022 402.622 652.004 402.769 651.961 402.883Z" fill="#8A92B2"/>
<path d="M637.298 371.854L637.302 371.825C638.29 371.527 639.253 371.196 640.241 370.898C641.512 370.486 642.778 370.102 644.049 369.69C645.008 369.388 646 369.061 646.959 368.76C648.383 368.306 649.774 367.878 651.198 367.424C652.157 367.123 653.116 366.822 654.108 366.495C654.789 366.279 655.5 366.067 656.181 365.851C656.243 365.829 656.334 365.81 656.371 365.755C656.4 365.758 656.397 365.788 656.364 365.813L654.12 384.447C654.11 384.535 654.07 384.62 654.122 384.686C654.052 384.767 654.004 384.672 653.978 384.639C653.732 384.46 653.485 384.282 653.243 384.074C647.982 380.047 642.695 375.987 637.434 371.96C637.408 371.927 637.353 371.89 637.298 371.854Z" fill="#62688F"/>
<path d="M672.975 379.662L673.005 379.665C672.998 379.724 672.932 379.776 672.895 379.831C666.581 386.781 660.263 393.761 653.949 400.711C653.296 401.436 652.614 402.158 651.961 402.883C651.935 402.85 651.938 402.821 651.942 402.791L651.963 402.615L653.676 388.383L653.708 388.119C655.029 387.534 656.317 386.974 657.638 386.389C662.731 384.144 667.82 381.929 672.884 379.68C672.91 379.713 672.943 379.688 672.975 379.662Z" fill="#62688F"/>
<path d="M656.393 365.817L656.4 365.758L656.421 365.582L658.986 344.278C658.997 344.19 658.974 344.128 659.044 344.047C663.81 354.653 668.58 365.23 673.317 375.833C673.365 375.928 673.439 376.056 673.454 376.177C673.061 375.981 672.705 375.729 672.344 375.507C671.899 375.245 671.429 374.951 670.984 374.689C670.708 374.507 670.4 374.35 670.124 374.168C669.653 373.873 669.179 373.608 668.709 373.313C668.429 373.16 668.153 372.978 667.878 372.796L666.047 371.683C665.742 371.497 665.437 371.312 665.102 371.123L663.768 370.337C663.488 370.184 663.213 370.002 662.937 369.82L661.106 368.706C660.801 368.521 660.496 368.335 660.161 368.146L658.827 367.36C658.522 367.175 658.246 366.993 657.941 366.807C657.415 366.476 656.889 366.145 656.331 365.839C656.422 365.821 656.393 365.817 656.393 365.817Z" fill="#62688F"/>
</g>
<g clip-path="url(#clip3_1543_70814)" filter="url(#filter3_f_1543_70814)">
<rect x="994.666" y="108.989" width="80" height="80" rx="20" transform="rotate(170.883 994.666 108.989)" fill="white"/>
<path d="M961.097 78.7136L951.438 92.0652L938.08 82.4023L932.46 90.1709L953.587 105.454L968.865 84.3341L961.097 78.7141L961.097 78.7136ZM978.454 71.0793L972.834 78.8492L965.066 73.2294L970.686 65.4605L978.454 71.0793ZM959.58 69.2588L946.228 59.6007L936.565 72.9579L928.793 67.342L928.796 67.338L944.079 46.2121L965.199 61.4905L965.21 61.4985L959.579 69.2597L959.58 69.2588ZM932.6 78.4351L926.98 86.204L919.212 80.5842L924.832 72.8154L932.6 78.4351Z" fill="#F3BA2F"/>
<path d="M942.044 76.926L942.041 76.9264L949.924 82.6294L954.139 76.8044L954.623 76.1348L955.622 74.754L955.63 74.7433L955.619 74.7351L947.742 69.0362L942.04 76.9194L942.037 76.9237L942.044 76.9261" fill="#F3BA2F"/>
</g>
<g clip-path="url(#clip4_1543_70814)" filter="url(#filter4_f_1543_70814)">
<rect x="281.268" y="212" width="80" height="80" rx="20" transform="rotate(22.2312 281.268 212)" fill="#0AC18E"/>
<path d="M319.792 256.448C319.656 251.468 315.748 248.818 310.157 247.553L311.14 240.343L306.756 239.747L305.752 246.926C304.601 246.762 303.438 246.55 302.253 246.417L303.241 239.275L298.857 238.679L297.873 245.888C296.918 245.783 289.018 244.692 289.018 244.692L288.372 249.386C288.372 249.386 291.619 249.759 291.564 249.813C293.353 250.051 293.784 251.17 293.83 252.077L291.148 271.841C290.993 272.381 290.538 273.226 289.306 273.074C289.357 273.138 286.118 272.637 286.118 272.637L284.526 277.766C284.526 277.766 292.353 278.849 293.379 278.994L292.384 286.286L296.768 286.883L297.783 279.544C298.977 279.735 300.146 279.906 301.292 280.056L300.283 287.354L304.667 287.951L305.659 280.668C312.374 281.68 318.263 279.59 319.788 273.336C320.676 269.554 317.985 265.054 314.896 263.408C317.597 262.461 319.652 260.306 319.792 256.448ZM311.527 271.221C309.931 277.38 301.529 274.779 298.563 274.389L299.8 264.706C302.776 265.1 312.294 265.535 311.527 271.221ZM311.499 257.336C310.215 262.865 303.034 260.632 300.563 260.291L301.677 251.501C304.15 251.864 311.761 251.839 311.499 257.336Z" fill="white"/>
</g>
<g filter="url(#filter5_f_1543_70814)">
<rect x="660" y="732.026" width="80" height="80" rx="20" transform="rotate(-10.8259 660 732.026)" fill="#2A5ADA"/>
<path fill-rule="evenodd" clip-rule="evenodd" d="M697.305 741.332L701.582 737.649L706.917 739.494L721.46 744.559L726.794 746.403L731.803 772.595L727.526 776.277L715.997 786.328L711.72 790.01L706.385 788.166L691.722 783.124L686.387 781.28L681.379 755.088L685.656 751.405L697.305 741.332ZM692.047 758.776L694.942 773.915L709.486 778.98L721.134 768.906L718.239 753.768L703.696 748.703L692.047 758.776Z" fill="white"/>
</g>
<g clip-path="url(#clip5_1543_70814)" filter="url(#filter6_f_1543_70814)">
<rect x="1006" y="541.881" width="80" height="80" rx="20" transform="rotate(-12.1817 1006 541.881)" fill="#172852"/>
<path d="M1041.27 552.556C1045.48 549.855 1050.63 548.738 1055.6 549.139C1062.08 549.713 1068.19 553.189 1072.11 558.362C1073.2 559.841 1074.28 561.397 1074.74 563.204C1070.9 561.962 1066.88 561.487 1062.88 561.128C1056.42 560.26 1049.81 560.114 1043.5 558.368C1042 557.864 1040.14 557.418 1039.43 555.85C1038.98 554.458 1040.31 553.339 1041.27 552.556Z" fill="#FFD83D"/>
<path d="M1030.43 569.381C1030.98 565.497 1032.43 561.689 1034.85 558.577C1036.94 564.588 1040.85 569.988 1046.16 573.54C1052.53 577.824 1060.66 579.543 1068.18 577.79C1071.19 577.237 1073.97 575.913 1076.77 574.723C1076.14 585.728 1066.25 595.078 1055.34 595.697C1048.8 596.258 1042.11 593.757 1037.42 589.201C1032.15 584.184 1029.45 576.594 1030.43 569.381Z" fill="#FFD83D"/>
<path d="M1062.88 561.128C1066.88 561.487 1070.9 561.962 1074.74 563.203L1075 563.275C1075.83 565.588 1076.59 567.966 1076.68 570.442C1074.8 570.085 1073.14 569.107 1071.44 568.291C1068.14 566.565 1064.7 564.516 1062.88 561.128Z" fill="#FF6F03"/>
</g>
<g clip-path="url(#clip6_1543_70814)" filter="url(#filter7_f_1543_70814)">
<rect x="23" y="186.883" width="80" height="80" rx="20" transform="rotate(-23.4871 23 186.883)" fill="white"/>
<path d="M53.2694 188.889C66.4232 183.169 79.5797 177.451 92.7387 171.738C94.5906 175.989 96.4381 180.24 98.2813 184.493C85.1271 190.214 71.9707 195.931 58.812 201.644C56.9599 197.394 55.1124 193.142 53.2694 188.889Z" fill="#02A6C2"/>
<path d="M45.3569 213.196C49.5917 211.33 53.8367 209.485 58.0921 207.662C59.9585 211.897 61.8031 216.142 63.6261 220.397C59.39 222.264 55.1451 224.109 50.8914 225.932C49.0247 221.697 47.1799 217.451 45.3569 213.196Z" fill="#5FCADE"/>
<path d="M60.9071 206.439C70.3938 202.292 79.8887 198.166 89.3917 194.061C91.2562 198.296 93.1009 202.542 94.9257 206.796C85.439 210.942 75.9441 215.068 66.4411 219.174C64.5769 214.938 62.7322 210.693 60.9071 206.439Z" fill="#5FCADE"/>
<path d="M68.5486 223.991C72.7657 222.104 77.0021 220.263 81.2578 218.468C83.1419 222.684 84.9835 226.92 86.7826 231.177C82.5636 233.06 78.3269 234.9 74.0726 236.697C72.1887 232.482 70.3474 228.247 68.5486 223.991Z" fill="#ABEBF4"/>
</g>
<g clip-path="url(#clip7_1543_70814)" filter="url(#filter8_f_1543_70814)">
<rect x="457.359" y="307.832" width="80" height="80" rx="20" transform="rotate(54.9935 457.359 307.832)" fill="#E84142"/>
<path d="M454.786 375.696C457.541 375.458 458.824 377.29 457.659 379.798L450.201 395.558C449.035 398.066 446.785 398.257 445.195 395.987L435.221 381.747C433.649 379.502 434.598 377.453 437.336 377.189L454.786 375.696ZM469.099 345.292C471.854 345.054 473.119 346.86 471.953 349.368L470.218 352.929L466.293 361.216C465.068 363.419 462.875 364.955 460.385 365.353L430.065 368.016C427.516 368.109 425.087 367.003 423.495 365.004L416.249 354.659C414.659 352.389 415.583 350.358 418.364 350.102L469.099 345.292Z" fill="white"/>
</g>
<g filter="url(#filter9_f_1543_70814)">
<rect x="755.076" y="525" width="80" height="80" rx="20" transform="rotate(31.7325 755.076 525)" fill="#345D9D"/>
<path d="M767.922 581.569L756.994 591.322L775.94 603.039C776.199 603.186 776.388 603.431 776.467 603.719C776.545 604.007 776.506 604.314 776.358 604.572L776.164 604.885L771.002 609.551C770.51 610.012 769.764 610.071 769.206 609.693L740.21 591.762L755.309 578.21L748.854 576.495L752.432 573.47L758.888 575.185L780.09 556.183C780.585 555.729 781.326 555.67 781.886 556.041L789.217 560.575C789.476 560.723 789.666 560.967 789.744 561.255C789.823 561.543 789.783 561.85 789.635 562.109L789.442 562.422L771.552 578.461L778.007 580.176L774.409 583.416L767.922 581.569Z" fill="white"/>
</g>
<g filter="url(#filter10_f_1543_70814)">
<rect x="845" y="421.356" width="80" height="80" rx="4" transform="rotate(-31.9682 845 421.356)" fill="white"/>
<path fill-rule="evenodd" clip-rule="evenodd" d="M871.543 434.925L884.934 409.792L913.394 408.805L928.463 432.95L915.072 458.083L886.612 459.07L871.543 434.925ZM883.187 425.386L899.668 415.101L906.871 422.254L886.49 434.974L883.187 425.386ZM899.624 442.387L896.899 436.807L892.166 433.237L902.817 426.59L903.986 432.384L907.76 437.309L903.65 439.874L899.624 442.387ZM917.447 443.495L914.469 445.353L908.864 444.308L907.818 442.632L909.311 436.807L905.831 431.232L908.692 425.078L916.775 425.8L917.447 443.495ZM904.012 451.938L905.51 446.402L904.463 444.725L898.575 443.507L895.096 437.932L888.295 437.866L885.324 445.429L900.992 453.823L904.012 451.938Z" fill="#03316C"/>
</g>
<g filter="url(#filter11_f_1543_70814)">
<rect x="1326.69" y="14" width="80" height="80" rx="20" transform="rotate(13.508 1326.69 14)" fill="#2E3148"/>
<circle cx="1356.24" cy="62.2367" r="23.2099" transform="rotate(13.508 1356.24 62.2367)" fill="#1B1E36"/>
<path fill-rule="evenodd" clip-rule="evenodd" d="M1348.69 60.5099C1353.21 41.7256 1360.27 27.3158 1364.47 28.3243C1368.67 29.3329 1368.41 45.3783 1363.9 64.1626C1359.39 82.9469 1352.33 97.3567 1348.13 96.3481C1343.93 95.3396 1344.18 79.2942 1348.69 60.5099ZM1348.11 94.484C1348.11 94.484 1348.48 95.0798 1349.11 94.5547C1349.11 94.5547 1351.83 93.1742 1355.63 84.4382C1355.63 84.4382 1360.61 72.9366 1362.86 62.136C1362.86 62.136 1366.14 49.8886 1365.76 35.9148C1365.76 35.9148 1365.58 31.3968 1364.4 30.0423C1364.2 29.8162 1363.87 29.7645 1363.61 29.9196C1362.39 30.6562 1358.45 34.3442 1352.4 52.5143C1352.4 52.5143 1345.98 75.6891 1346.75 87.3851C1346.75 87.3851 1346.72 91.7793 1348.11 94.484Z" fill="#6F7390"/>
<path fill-rule="evenodd" clip-rule="evenodd" d="M1354.09 54.8294C1372.64 49.3979 1388.65 48.3521 1389.87 52.4971C1391.08 56.6403 1377.05 64.4094 1358.5 69.8409C1339.96 75.2724 1323.94 76.3163 1322.73 72.1732C1321.52 68.03 1335.54 60.2609 1354.09 54.8294ZM1324.34 71.2293C1324.34 71.2293 1324 71.8437 1324.78 72.1367L1324.78 72.1368C1324.78 72.1368 1327.33 73.8069 1336.8 72.7601C1336.8 72.7601 1349.25 71.3549 1359.74 67.9349C1359.74 67.9349 1372 64.685 1383.92 57.3938C1383.92 57.3938 1387.76 54.9914 1388.34 53.2874C1388.44 53.0036 1388.32 52.6888 1388.05 52.5424C1386.81 51.8566 1381.65 50.2657 1362.88 54.0644C1362.88 54.0644 1339.58 60.0289 1329.82 66.5144C1329.82 66.5144 1325.99 68.6738 1324.34 71.2293Z" fill="#6F7390"/>
<path fill-rule="evenodd" clip-rule="evenodd" d="M1361.7 56.6688C1375.68 69.9889 1384.61 83.3239 1381.63 86.4512C1378.65 89.5854 1364.9 81.3276 1350.9 68.0053C1336.91 54.6829 1327.99 41.3546 1330.96 38.2207C1333.94 35.0867 1347.72 43.3487 1361.7 56.6688ZM1332.59 39.1275C1332.59 39.1275 1331.89 39.1474 1332.02 39.9599L1332.02 39.9685C1332.02 39.9685 1331.86 43.0079 1337.51 50.6812C1337.51 50.6812 1344.96 60.7544 1353.18 68.1111C1353.18 68.1111 1362.13 77.0858 1374.42 83.7619C1374.42 83.7619 1378.42 85.8708 1380.18 85.5245C1380.48 85.4678 1380.69 85.207 1380.68 84.9066C1380.65 83.4875 1379.44 78.2231 1366.75 63.8823C1366.75 63.8823 1349.92 46.7097 1339.41 41.5096C1339.41 41.5096 1335.63 39.2769 1332.59 39.1275Z" fill="#6F7390"/>
<circle cx="1356.24" cy="62.2368" r="4.1152" transform="rotate(13.508 1356.24 62.2368)" fill="#B7B9C8"/>
<ellipse cx="1376.33" cy="50.8124" rx="2.38688" ry="2.46912" transform="rotate(13.508 1376.33 50.8124)" fill="#B7B9C8"/>
<ellipse cx="1336.28" cy="49.8243" rx="2.38688" ry="2.46912" transform="rotate(13.508 1336.28 49.8243)" fill="#B7B9C8"/>
<ellipse cx="1346.17" cy="83.3502" rx="2.38688" ry="2.46912" transform="rotate(13.508 1346.17 83.3502)" fill="#B7B9C8"/>
</g>
<g filter="url(#filter12_f_1543_70814)">
<rect x="66.4025" y="653.421" width="80" height="80" rx="20" transform="rotate(12.2555 66.4025 653.421)" fill="#29BCE1"/>
<path fill-rule="evenodd" clip-rule="evenodd" d="M88.5743 671.199L117.03 677.38L119.157 680.655L108.578 729.356L105.284 731.453L76.8286 725.271L74.7015 721.997L85.2804 673.296L88.5743 671.199ZM103.74 725.492L113.153 682.163L90.118 677.159L80.706 720.489L103.74 725.492Z" fill="white"/>
<path fill-rule="evenodd" clip-rule="evenodd" d="M101.133 694.667L106.969 695.935L105.823 701.209L88.885 697.53L90.0308 692.255L95.8669 693.523L97.1973 687.399L102.463 688.543L101.133 694.667ZM97.8501 709.78L103.686 711.048L104.832 705.773L87.8937 702.094L86.7479 707.368L92.584 708.636L91.2536 714.76L96.5198 715.904L97.8501 709.78Z" fill="white"/>
</g>
<g filter="url(#filter13_f_1543_70814)">
<rect x="1301" y="629.623" width="80" height="80" rx="20" transform="rotate(-14.9387 1301 629.623)" fill="#FC070C"/>
<path fill-rule="evenodd" clip-rule="evenodd" d="M1372.05 640.547C1370.74 639.854 1369.2 638.993 1367.59 638.096L1367.59 638.096L1367.59 638.096C1365.34 636.836 1362.96 635.504 1360.89 634.468L1360.69 634.395C1360.35 634.244 1359.99 634.151 1359.61 634.121L1358.26 634.224C1348.93 634.937 1318.68 637.248 1318.11 637.479C1317.94 637.55 1317.79 637.658 1317.67 637.795L1317.54 637.965C1317.4 638.219 1317.31 638.502 1317.29 638.793L1317.28 638.914L1317.44 639.514L1317.46 639.607C1320.87 644.532 1329.2 655.341 1336.89 665.321C1343.39 673.758 1349.43 681.604 1351.66 684.801L1351.66 684.802C1351.97 685.281 1352.56 686.191 1353.17 686.082L1353.31 686.046C1353.63 685.96 1354.52 683.786 1354.52 683.786C1354.52 683.786 1371.08 647.562 1372.71 643.739C1372.93 643.264 1373.1 642.77 1373.22 642.263C1373.16 641.524 1372.72 640.873 1372.05 640.547ZM1352.12 649.569L1360.25 638.116L1367.89 642.128L1352.12 649.569ZM1325.98 640.141L1347.91 650.086L1356.52 637.744L1325.98 640.141ZM1350.56 653.516L1368.18 645.636L1353.9 676.615L1350.56 653.516ZM1347.15 653.277L1323.93 642.264L1350.67 677.494L1347.15 653.277Z" fill="white"/>
</g>
<g filter="url(#filter14_f_1543_70814)">
<rect x="522" y="157.31" width="80" height="80" rx="20" transform="rotate(-11.7636 522 157.31)" fill="white"/>
<path d="M562.79 156.987C545.492 160.589 534.366 177.56 537.986 194.835C538.71 198.291 539.954 201.501 541.637 204.396L551.011 202.444L545.523 176.093L570.125 192.211L586.248 167.612L591.735 193.964L601.111 192.011C601.5 188.685 601.356 185.246 600.642 181.787C597.069 164.484 580.091 153.389 562.791 156.991L562.79 156.987Z" fill="#F26822"/>
<path d="M566.417 197.866L555.68 190.832L559.133 207.413L552.339 208.828L545.929 210.165C553.306 218.04 564.501 222.004 575.838 219.643C587.175 217.282 595.857 209.177 599.479 199.011L586.27 201.762L582.817 185.181L575.78 195.916L572.074 201.572L566.417 197.866L566.417 197.866Z" fill="#4D4D4D"/>
</g>
<g clip-path="url(#clip8_1543_70814)" filter="url(#filter15_f_1543_70814)">
<rect x="1207.66" y="460" width="80" height="80" rx="20" transform="rotate(14.225 1207.66 460)" fill="white"/>
<path d="M1263.27 489.727L1271.68 491.858L1249.79 504.744C1241.87 509.407 1231.6 506.804 1226.85 498.927L1213.74 477.17L1222.15 479.303L1232.1 495.829C1233.56 498.229 1235.89 499.96 1238.61 500.649C1241.33 501.339 1244.21 500.93 1246.63 499.513L1263.27 489.727Z" fill="#23292F"/>
<path d="M1209.83 527.439L1201.42 525.307L1223.44 512.343C1231.37 507.679 1241.64 510.283 1246.39 518.159L1259.58 540.051L1251.17 537.92L1241.13 521.257C1239.68 518.858 1237.34 517.126 1234.62 516.437C1231.9 515.748 1229.02 516.156 1226.6 517.574L1209.83 527.439Z" fill="#23292F"/>
</g>
<g clip-path="url(#clip9_1543_70814)" filter="url(#filter16_f_1543_70814)">
<rect x="730.205" y="50" width="80" height="80" rx="20" transform="rotate(44.6332 730.205 50)" fill="#1BA27A"/>
<path d="M757.823 105.73L731.004 79.2519L724.611 85.7265L734.784 95.7694L725.388 105.286L731.863 111.678L741.258 102.162L751.431 112.205L757.823 105.73Z" fill="white"/>
<path d="M727.686 109.556C719.271 101.249 713.764 93.1816 715.386 91.5385C717.008 89.8958 725.145 95.2989 733.56 103.607C741.975 111.915 747.482 119.982 745.86 121.625C744.238 123.268 736.101 117.864 727.686 109.556ZM747.242 123.969C749.334 121.85 743.369 112.57 733.921 103.242C724.472 93.9134 715.116 88.0678 713.025 90.1864C711.183 92.0521 715.588 99.4705 723.118 107.585L709.631 121.247L716.105 127.639L729.587 113.983C737.848 121.479 745.391 125.844 747.242 123.969Z" fill="white"/>
</g>
<g filter="url(#filter17_f_1543_70814)">
<rect x="885.941" y="722.942" width="80" height="80" rx="20" transform="rotate(-30.8309 885.941 722.942)" fill="#F5AC37"/>
<path fill-rule="evenodd" clip-rule="evenodd" d="M935.732 765.486L935.809 765.615L935.805 765.623L935.818 765.644L950.717 756.752C952.417 755.769 954.017 754.632 955.497 753.346C957.038 751.963 958.417 750.41 959.603 748.713C960.112 747.968 960.551 747.172 960.995 746.368C961.107 746.165 961.22 745.961 961.334 745.758C961.794 744.71 962.191 743.634 962.529 742.541C963.448 739.544 963.65 736.37 963.117 733.282C963.014 732.961 963.181 732.616 963.496 732.502L967.554 730.08C967.877 729.887 967.919 729.715 967.701 729.351L966.15 726.752C966.023 726.491 965.873 726.239 965.703 726.003C965.664 725.938 965.642 725.863 965.62 725.788C965.576 725.639 965.533 725.491 965.356 725.422L961.966 727.445C961.557 727.689 961.531 727.646 961.313 727.281C960.65 725.903 959.867 724.591 958.969 723.354C958.717 722.98 958.803 722.928 959.103 722.749L962.066 720.981C962.411 720.775 962.487 720.612 962.283 720.269L960.181 716.748C960.031 716.521 959.955 716.406 959.858 716.383C959.757 716.36 959.634 716.433 959.384 716.582L955.542 718.876C955.272 719.106 954.864 719.075 954.631 718.807C953.503 717.919 952.284 717.151 950.994 716.524C949.706 715.912 948.37 715.415 946.993 715.04C945.189 714.586 943.336 714.363 941.473 714.375C938.673 714.408 935.895 714.92 933.267 715.895C931.993 716.368 930.755 716.933 929.559 717.584L913.46 727.193C913.03 727.449 913.082 727.536 913.286 727.879L920.192 739.45C920.436 739.858 920.349 739.91 920.028 740.101L915.413 742.856C915.069 743.061 915.107 743.124 915.248 743.361L917.503 747.138C917.708 747.481 917.815 747.418 918.073 747.264L922.731 744.483C923.074 744.278 923.112 744.342 923.266 744.6L925.675 748.636C925.893 749 925.784 749.065 925.506 749.231L920.526 752.203L922.961 756.282C923.166 756.625 923.272 756.562 923.53 756.408L928.189 753.627C928.532 753.422 928.557 753.464 928.724 753.744L931.735 758.789L932.747 760.485L935.732 765.486ZM949.863 721.795C949.958 721.869 950.021 721.976 950.042 722.095L950.146 722.033C950.179 722.187 949.99 722.359 949.99 722.359L925.218 737.144C924.81 737.388 924.758 737.301 924.567 736.98L920.019 729.36C919.852 729.08 919.818 728.926 920.14 728.734L931.667 721.854C932.888 721.11 934.189 720.508 935.547 720.062C938.257 719.208 941.134 719.008 943.935 719.481C944.471 719.536 944.997 719.665 945.5 719.857C946.464 720.097 947.395 720.449 948.28 720.906C948.834 721.152 949.362 721.451 949.863 721.795ZM956.554 730.669L943.502 738.459L930.707 746.095C930.446 746.251 930.318 746.328 930.216 746.301C930.117 746.276 930.043 746.152 929.898 745.909L927.618 742.089C927.438 741.787 927.461 741.629 927.782 741.437L953.757 725.934C954.037 725.767 954.229 725.797 954.383 726.055C955.283 727.321 956.08 728.656 956.766 730.048C956.963 730.424 956.832 730.503 956.554 730.669ZM958.191 735.748C957.802 735.925 957.434 736.145 957.094 736.403L933.288 750.611C932.966 750.803 932.858 750.868 933.114 751.297L937.561 758.748C937.766 759.091 937.817 759.177 938.247 758.921L949.238 752.361C949.788 752.087 950.291 751.736 950.74 751.32C952.267 750.253 953.629 748.971 954.785 747.507C955.217 746.994 955.595 746.434 955.915 745.843L956.065 745.754C957.842 742.876 958.678 739.521 958.456 736.149C958.456 736.149 958.412 735.735 958.193 735.751L958.191 735.748Z" fill="#FEFEFD"/>
</g>
<g filter="url(#filter18_f_1543_70814)">
<rect x="148.954" y="377.013" width="80" height="80" rx="20" transform="rotate(76.9728 148.954 377.013)" fill="black"/>
<path fill-rule="evenodd" clip-rule="evenodd" d="M104.666 439.792L105.811 444.741L139.929 436.847L138.784 431.898L128.516 434.274L123.475 412.489L133.744 410.113L132.599 405.164L98.4802 413.058L99.6253 418.007L110.147 415.573L115.187 437.358L104.666 439.792ZM119.178 436.68L114.137 414.896L119.574 413.638L124.614 435.423L119.178 436.68Z" fill="white"/>
</g>
<g filter="url(#filter19_f_1543_70814)">
<rect x="361" y="104.036" width="80" height="80" rx="20" transform="rotate(-55.6341 361 104.036)" fill="url(#paint0_linear_1543_70814)"/>
<path d="M439.634 88.1441L405.006 80.85C403.18 80.5254 401.859 80.9959 401.015 82.2298L400.34 83.2169C399.497 84.4509 399.537 85.8525 400.502 87.4366L408.94 100.338L406.426 104.014C405.684 105.118 405.958 106.617 407.058 107.382L407.084 107.399C408.187 108.141 409.692 107.859 410.451 106.767L411.801 104.793L419.837 117.094C420.026 117.348 420.246 117.574 420.51 117.754C421.139 118.185 421.767 118.327 422.388 118.24C423.01 118.153 423.541 117.779 423.971 117.149C424.248 116.726 424.394 116.239 424.374 115.738C424.371 115.212 424.183 114.721 423.908 114.246L414.737 100.481L417.158 96.9407C417.9 95.8371 417.626 94.3383 416.526 93.5733L416.475 93.5384C415.371 92.7962 413.867 93.0787 413.107 94.1707L411.816 96.0598L404.771 85.5225L438.448 92.9655C438.99 93.0491 439.516 93.0467 440.008 92.8581C440.481 92.695 440.888 92.3738 441.176 91.9711C441.607 91.3414 441.757 90.7198 441.619 90.1005C441.48 89.4812 441.115 88.9565 440.485 88.5259C440.235 88.3428 439.942 88.2049 439.634 88.1441Z" fill="white"/>
</g>
<g filter="url(#filter20_f_1543_70814)">
<rect x="1309.38" y="376.538" width="80" height="80" rx="20" transform="rotate(-39.7549 1309.38 376.538)" fill="#2C7DF7"/>
<path d="M1387.15 398.556C1384.23 400.99 1381.51 402.062 1378.99 401.771C1376.75 401.615 1374.66 400.578 1373.19 398.889C1372.74 398.377 1372.43 397.757 1372.29 397.09C1372.18 396.499 1372.24 395.891 1372.45 395.329C1373 394.076 1374.11 393.154 1375.44 392.84C1376.03 392.737 1376.64 392.795 1377.2 393.007C1377.83 393.257 1378.39 393.672 1378.81 394.209C1379.36 394.815 1379.7 395.583 1379.77 396.397C1379.82 397.067 1379.65 397.735 1379.29 398.301C1380.28 398.513 1381.31 398.372 1382.21 397.901C1383.27 397.44 1384.25 396.833 1385.14 396.099C1386.33 395.133 1387.19 393.832 1387.62 392.368C1388.04 390.811 1387.94 389.161 1387.35 387.662C1386.67 385.854 1385.68 384.179 1384.43 382.713C1383.18 381.133 1381.64 379.81 1379.88 378.817C1378.51 378.001 1376.9 377.66 1375.32 377.847C1373.85 378.038 1372.48 378.645 1371.35 379.595C1370.43 380.5 1369.75 381.616 1369.36 382.845L1368.16 385.587L1367.3 384.556L1366.23 364.464L1353.42 375.122L1364.12 387.992C1364.86 388.951 1365.87 389.664 1367.02 390.039C1368.09 390.33 1369.23 390.042 1370.03 389.279C1370.79 388.623 1371.31 387.74 1371.53 386.761C1371.8 385.678 1371.89 384.558 1371.79 383.447C1371.73 383.287 1371.72 383.112 1371.77 382.947C1371.79 382.801 1371.86 382.669 1371.98 382.575C1372.22 382.41 1372.5 382.324 1372.79 382.33C1373.21 382.391 1373.58 382.605 1373.84 382.929C1374 383.166 1374.14 383.412 1374.26 383.666C1374.72 385.146 1374.75 386.728 1374.33 388.222C1373.94 389.594 1373.13 390.815 1372.03 391.723C1369.26 394.03 1366.88 395.082 1364.9 394.879C1362.78 394.582 1360.86 393.442 1359.58 391.715L1348.9 378.878L1342.39 384.299L1340.4 381.908L1346.94 376.462L1342.41 371.01L1339.66 370.757L1338.65 369.534L1343 365.916L1345.33 365.402L1351.43 372.731L1368.31 358.6L1371.4 358.89L1369.7 377.952C1370.12 377.179 1370.65 376.47 1371.27 375.848C1372.65 374.798 1374.26 374.088 1375.96 373.775C1377.84 373.295 1379.81 373.364 1381.65 373.973C1383.25 374.456 1384.74 375.233 1386.05 376.264C1387.1 377.07 1388.05 377.981 1388.91 378.983C1390.53 380.911 1391.68 383.185 1392.27 385.628C1392.86 387.981 1392.64 390.465 1391.62 392.67C1390.61 394.951 1389.08 396.965 1387.15 398.556Z" fill="white"/>
</g>
<g filter="url(#filter21_f_1543_70814)">
<rect x="232.283" y="754.422" width="76" height="76" rx="18" transform="rotate(-43.3178 232.283 754.422)" fill="url(#paint1_linear_1543_70814)" stroke="#FFD9EC" stroke-width="4"/>
<path d="M270.914 749.203C270.467 749.518 270.43 749.517 270.6 749.322C270.904 748.929 271.8 748.226 272.505 747.809C274.157 746.854 276.155 746.53 278.812 746.754L279.521 746.829L279.938 746.294C281.702 743.993 284.088 742.239 286.649 741.384C287.349 741.149 288.543 740.874 288.743 740.898C288.816 740.9 289.102 741.091 289.369 741.299C290.332 742.057 290.895 742.767 291.091 743.539C291.207 743.962 291.277 744.037 291.601 744.192C291.853 744.309 292.202 744.228 292.408 744.034C292.859 743.609 292.656 742.454 291.943 741.247L291.665 740.765L292.011 740.793C293.976 740.96 296.124 741.735 297.228 742.679L297.53 742.925L297.132 742.841C296.443 742.674 295.915 742.641 295.329 742.733C294.284 742.903 293.485 743.408 291.614 744.995C289.912 746.423 288.869 747.158 287.685 747.707C285.669 748.651 284.262 748.738 280.16 748.034C278.345 747.725 277.29 747.621 276.324 747.611C274.208 747.585 272.571 748.066 270.914 749.203Z" fill="#FF007A"/>
<path d="M287.138 738.406C286.503 737.658 286.155 737.101 285.954 736.474C285.87 736.235 285.803 736.014 285.822 735.996C285.841 735.979 285.927 736.145 286.012 736.348C286.252 736.903 286.781 737.502 287.494 738.07C288.422 738.791 288.584 738.85 290.351 738.92C291.171 738.963 292.172 739.047 292.572 739.095L293.28 739.207L292.678 739.207C291.93 739.204 290.357 739.34 290.062 739.441C289.86 739.49 289.842 739.507 289.836 739.689C289.832 739.835 289.919 739.966 290.432 740.51C291.21 741.372 291.593 742.003 291.824 742.812C291.939 743.235 291.868 743.197 291.698 742.754C291.562 742.422 291.475 742.291 290.714 741.485C289.175 739.852 288.616 739.635 286.852 740.058C286.411 740.154 285.694 740.37 285.288 740.504C284.864 740.656 284.533 740.756 284.552 740.738C284.554 740.665 285.962 739.941 286.57 739.721C287.474 739.365 287.605 739.277 287.662 739.188C287.665 739.078 287.561 738.893 287.138 738.406Z" fill="#FF007A"/>
<path d="M276.566 753.656C274.752 753.311 272.653 752.1 271.58 750.737L271.246 750.307L271.469 750.168C271.86 749.906 272.654 749.583 273.095 749.486C274.27 749.229 275.191 749.529 276.961 750.767C277.479 751.129 278.106 751.53 278.321 751.646C278.68 751.839 279.656 752.16 280.345 752.289C280.835 752.395 280.845 752.669 280.341 753.074C279.557 753.671 277.981 753.916 276.566 753.656Z" fill="#FF007A"/>
<path d="M296.512 750.265C291.382 752.267 288.848 752.211 286.779 750.016C286.478 749.697 286.249 749.416 286.249 749.416C286.268 749.399 286.505 749.387 286.798 749.36C288.114 749.252 289.206 748.719 291.87 746.845C293.434 745.76 294.364 745.167 295.306 744.739C298.284 743.349 301.142 743.56 303.443 745.324C304.103 745.836 305.126 747.034 305.542 747.776C305.853 748.369 306.291 749.585 306.215 749.693C306.197 749.71 306.071 749.652 305.929 749.502C305.149 748.749 304.047 748.37 302.842 748.408C301.417 748.476 299.926 748.924 296.512 750.265Z" fill="#FF007A"/>
<path d="M294.469 753.361C294.167 753.115 293.737 752.847 293.539 752.75L293.18 752.557L293.543 752.604C294.052 752.655 294.558 752.816 295.17 753.126C295.637 753.359 295.743 753.471 296.292 754.053C296.822 754.616 296.927 754.765 297.116 755.19C297.406 755.873 297.517 756.442 297.513 757.19C297.492 758.521 296.964 759.728 295.866 761.082C295.659 761.313 295.074 761.97 294.546 762.539C293.21 763.941 292.414 764.975 291.852 766.071C291.775 766.215 291.698 766.359 291.662 766.358C291.589 766.356 291.852 765.469 292.109 764.802C292.465 763.864 292.981 763.058 294.215 761.398C294.841 760.595 295.45 759.738 295.566 759.486C296.875 757.153 296.433 754.841 294.469 753.361Z" fill="#FF007A"/>
<path d="M299.025 754.772C297.529 754.162 296.461 753.255 295.821 752.051C295.77 751.922 295.719 751.792 295.757 751.757C295.795 751.722 295.96 751.672 296.143 751.641C296.51 751.578 297.227 751.399 299.047 750.923C301.345 750.316 302.809 750.14 304.1 750.305C305.226 750.448 306.235 750.879 307.234 751.638C307.806 752.056 308.9 753.329 309.246 753.959C310.337 755.943 310.602 758.103 309.922 760.126C309.822 760.433 309.724 760.668 309.705 760.685C309.686 760.703 309.584 760.445 309.485 760.113C309.033 758.732 308.222 757.76 306.911 757.046C306.104 756.603 304.947 756.241 302.863 755.76C300.416 755.232 299.801 755.068 299.025 754.772Z" fill="#FF007A"/>
<path d="M290.461 773.692C290.753 771.22 291.682 768.784 293.01 767.036C293.579 766.286 294.74 765.262 295.518 764.847C296.76 764.172 298.192 763.886 299.315 764.138C300.402 764.389 301.157 764.776 302.584 765.876C303.137 766.312 303.726 766.748 303.851 766.843C304.638 767.377 305.433 767.62 306.074 767.547C307.063 767.43 308.093 766.494 308.734 765.181C308.85 764.965 308.947 764.768 308.964 764.786C309.037 764.788 308.849 765.604 308.671 766.091C308.432 766.777 308.127 767.206 307.621 767.684C306.72 768.533 305.509 768.789 304.005 768.435C303.697 768.371 302.921 768.075 302.218 767.78C300.129 766.88 299.366 766.748 298.119 766.967C297.037 767.172 296.086 767.892 295.73 768.83C295.256 770.057 296.075 771.376 297.312 771.485C297.821 771.537 298.484 771.337 298.912 771.04C299.695 770.479 299.782 769.369 299.127 768.675C298.703 768.224 298.286 768.121 297.641 768.339C296.793 768.643 296.42 769.562 296.987 770.126C297.217 770.37 297.471 770.414 297.821 770.296C298.042 770.23 298.042 770.23 297.912 770.317C297.261 770.718 296.493 770.166 296.518 769.328C296.548 768.307 297.867 767.488 298.932 767.866C299.365 768.025 299.95 768.608 300.173 769.107C300.632 770.233 300.138 771.514 298.989 772.137C298.211 772.552 297.789 772.63 296.313 772.569C293.726 772.456 292.972 772.671 290.831 774.159L290.421 774.439L290.461 773.692Z" fill="#FF007A"/>
<path fill-rule="evenodd" clip-rule="evenodd" d="M252.128 752.811C261.506 753.998 276.025 755.902 276.788 756.034C277.423 756.144 277.647 756.606 277.425 757.311C277.304 757.709 276.901 758.372 276.639 758.62C276.339 758.903 275.841 759.089 275.367 759.075C275.039 759.065 273.299 758.686 269.224 757.672C266.11 756.888 263.501 756.264 263.465 756.263C263.354 756.296 263.354 756.296 269.5 758.228C273.368 759.436 274.704 759.913 274.81 760.025C275.04 760.269 275.089 760.471 275.107 761.092C275.131 762.133 275.507 762.983 276.595 764.474C277.805 766.133 278.289 767.661 278.525 770.806C278.671 772.653 278.717 772.964 278.917 773.59C279.15 774.363 279.358 774.734 279.957 775.445C280.592 776.193 281.092 776.573 281.935 777.054C282.688 777.477 283.266 777.676 284.498 777.968C285.567 778.236 286.307 778.495 286.484 778.683C286.625 778.833 286.663 778.798 287.197 778.011C288.456 776.114 289.187 774.22 289.176 772.742C289.166 771.83 289.031 771.461 288.394 770.786C287.987 770.354 287.88 770.278 287.52 770.122C286.943 769.886 286.268 769.884 285.003 770.084C283.336 770.345 282.374 770.189 281.553 769.545C280.858 768.996 280.564 768.458 280.012 766.745C279.444 764.977 279.116 764.329 278.042 763.003C277.356 762.162 277.149 761.754 277.144 761.298C277.14 760.805 277.258 760.517 277.769 759.893C278.602 758.86 278.991 758.032 279.037 757.103C279.097 756.302 278.913 755.731 278.383 755.132L277.995 754.683L277.503 754.65C275.666 754.469 250.786 752.552 250.73 752.605C250.711 752.623 251.347 752.696 252.128 752.811ZM283.044 774.058C282.915 773.507 282.377 773.163 281.827 773.256C281.314 773.35 280.915 773.904 281.18 774.186C281.251 774.261 281.359 774.3 281.507 774.232C281.764 774.166 281.871 774.242 281.935 774.573C281.998 774.903 282.175 775.09 282.468 775.063C282.925 775.021 283.175 774.573 283.044 774.058Z" fill="#FF007A"/>
<path fill-rule="evenodd" clip-rule="evenodd" d="M281.337 757.025C281.011 757.581 281.039 758.475 281.368 759.087C281.576 759.458 282.126 759.967 282.417 760.012C282.871 760.08 283.129 759.978 283.655 759.483C284.687 758.51 285.144 757.228 284.725 756.595C284.394 756.057 283.416 755.809 282.607 756.041C282.184 756.156 281.549 756.648 281.337 757.025ZM283.423 756.831C283.36 756.464 283.074 756.273 282.633 756.37C281.826 756.528 281.305 757.516 281.765 758.004C281.995 758.248 282.636 758.139 283.011 757.785C283.255 757.555 283.451 757.087 283.423 756.831Z" fill="#FF007A"/>
</g>
<g filter="url(#filter22_f_1543_70814)">
<rect x="228" y="529.841" width="80" height="80" rx="20" transform="rotate(-30.6981 228 529.841)" fill="#2775CA"/>
<path d="M295.507 543.645C292.529 538.63 288.498 538.697 282.054 541.554C277.414 543.533 275.874 542.897 274.682 540.891C273.491 538.884 274.159 536.744 277.025 535.042C279.604 533.511 281.548 533.519 283.541 535.244C283.94 535.589 284.54 535.62 284.97 535.365L287.262 534.003C287.836 533.663 288.01 532.978 287.67 532.405L287.585 532.261C285.14 529.449 281.114 528.544 277.648 530.214L275.606 526.775C275.265 526.202 274.58 526.027 273.778 526.309L271.629 527.585C271.055 527.926 270.881 528.611 271.163 529.413L273.12 532.709C269.161 535.835 268.14 540.317 270.267 543.9C273.075 548.629 277.047 548.791 283.491 545.934C287.93 544.268 289.73 544.362 291.091 546.655C292.453 548.948 291.382 551.716 288.659 553.332C284.933 555.545 282.707 554.734 281.001 552.839C280.518 552.351 279.918 552.32 279.488 552.575L277.051 554.022C276.478 554.362 276.303 555.047 276.644 555.62L276.729 555.764C279.429 559.006 283.254 560.224 288.408 558.133L290.45 561.573C290.791 562.146 291.476 562.32 292.277 562.038L294.427 560.762C295.001 560.422 295.175 559.737 294.893 558.935L292.851 555.495C296.725 552.226 297.804 547.515 295.507 543.645Z" fill="white"/>
<path fill-rule="evenodd" clip-rule="evenodd" d="M258.583 548.705C260.978 562.208 274.113 571.272 287.674 568.648C288.274 568.68 289.044 568.998 289.299 569.428L290.491 571.434C290.661 571.721 290.746 571.864 290.687 572.092C290.885 572.751 290.481 573.378 289.738 573.431C280.181 575.617 270.36 573.113 263.016 566.619C250.633 555.557 249.492 536.658 260.554 524.275C260.612 524.047 260.899 523.877 261.042 523.792C261.7 523.595 262.242 523.854 262.582 524.428L263.774 526.434C264.199 527.151 264.168 527.751 263.765 528.378C259.165 534.016 257.159 541.41 258.583 548.705ZM275.369 516.255C275.171 515.597 275.575 514.97 276.318 514.916C285.732 512.816 295.696 515.235 303.126 521.872C315.508 532.934 316.65 551.833 305.588 564.215C305.529 564.444 305.243 564.614 305.099 564.699C304.441 564.896 303.899 564.636 303.559 564.063L302.368 562.057C301.942 561.34 301.973 560.74 302.377 560.113C306.976 554.475 308.983 547.081 307.559 539.786C305.163 526.283 292.028 517.218 278.468 519.843C277.867 519.811 277.097 519.493 276.757 518.92L275.566 516.914C275.395 516.627 275.31 516.484 275.369 516.255Z" fill="white"/>
</g>
<g filter="url(#filter23_f_1543_70814)">
<rect x="504.458" y="493" width="80" height="80" rx="20" transform="rotate(14.8164 504.458 493)" fill="white"/>
<path d="M539.641 516.099L544.285 524.305L524.007 536.099L519.323 528.046L539.641 516.099Z" fill="#F0B90B" stroke="#F0B90B"/>
<path d="M546.752 528.323L551.395 536.53L518.893 555.434L514.209 547.381L546.752 528.323Z" fill="#F0B90B" stroke="#F0B90B"/>
<path d="M515.192 530.319L519.835 538.525L511.782 543.209L507.099 535.156L515.192 530.319Z" fill="#F0B90B" stroke="#F0B90B"/>
<path d="M553.862 540.548L558.505 548.754L526.003 567.659L521.319 559.606L553.862 540.548Z" fill="#F0B90B" stroke="#F0B90B"/>
</g>
<g filter="url(#filter24_f_1543_70814)">
<rect x="796.785" y="243.684" width="80" height="80" rx="20" transform="rotate(-38.5897 796.785 243.684)" fill="#0055D5"/>
<path fill-rule="evenodd" clip-rule="evenodd" d="M830.3 250.797C830.3 250.797 824.79 250.793 829.858 257.618C833.734 262.949 841.714 272.936 847.863 275.756C850.287 276.729 851.198 275.112 852.287 271.346C853.18 268.003 855.265 254.467 856.058 248.624C856.851 242.782 856.325 228.258 862.682 233.339C865.319 235.502 867.774 237.167 871.864 243.37C873.123 245.282 873.438 247.241 868.036 247.602C864.062 248.01 860.12 248.187 860.12 248.187C860.12 248.187 858.95 247.708 858.93 250.017C858.929 251.85 858.698 252.485 860.809 252.192C862.925 251.895 874.2 251.107 877.612 249.663C880.447 248.496 881.75 247.435 878.211 242.859C875.335 239.28 866.93 229.171 862.13 225.837C858.967 223.899 856.528 223.818 855.84 229.382C855.152 234.946 852.917 252.41 850.977 261.061C849.54 266.609 849.944 270.258 845.016 266.852C841.356 264.215 831.691 254.63 837.187 253.54C840.548 252.762 841.756 251.788 841.389 253.278C841.018 254.762 840.286 259.45 840.286 259.45C840.286 259.45 839.986 260.805 841.557 261.966C842.774 262.684 843.184 263.197 843.712 259.51C844.24 255.824 844.6 253.069 844.6 253.069C844.6 253.069 844.514 252.269 846.304 252.447C848.094 252.625 848.476 252.771 848.476 252.771C848.476 252.771 849.329 253.288 849.392 251.16C849.46 249.027 849.536 247.698 846.543 248.142C843.546 248.568 830.3 250.797 830.3 250.797Z" fill="white"/>
</g>
<g filter="url(#filter25_f_1543_70814)">
<g clip-path="url(#clip10_1543_70814)">
<rect x="1210.98" y="199.838" width="80" height="80" rx="20" transform="rotate(-15.855 1210.98 199.838)" fill="white"/>
<path fill-rule="evenodd" clip-rule="evenodd" d="M1245.6 229.001L1257.67 217.497L1273.89 221.018L1253.86 204.295L1245.6 229.001ZM1246.75 231.005L1258.35 219.83L1273.9 223.239L1262.49 234.37L1246.75 231.005ZM1246.81 233.248C1252.54 234.479 1258.52 235.772 1263.15 236.774L1275.08 225.218C1272.13 234.239 1269.68 241.75 1266.92 250.072L1263.05 246.832L1263.04 246.83C1257.45 242.152 1251.65 237.312 1246.81 233.248Z" fill="#3AB83A"/>
<path fill-rule="evenodd" clip-rule="evenodd" d="M1253.86 204.295L1257.67 217.498L1273.89 221.018L1253.86 204.295ZM1258.35 219.83L1273.9 223.239L1262.49 234.37L1258.35 219.83ZM1263.15 236.774L1275.08 225.218C1272.13 234.239 1266.92 250.072 1266.92 250.072L1263.15 236.774Z" fill="#0B8311"/>
<path d="M1246.75 231.006L1260.74 228.245L1273.9 223.245L1262.49 234.377L1246.75 231.006Z" fill="#0B8311"/>
<path d="M1260.74 228.245L1273.9 223.246L1262.49 234.377L1260.74 228.245Z" fill="#146714"/>
</g>
</g>
<g clip-path="url(#clip11_1543_70814)" filter="url(#filter26_f_1543_70814)">
<rect x="1140.19" y="673.4" width="80" height="80" rx="20" transform="rotate(23.412 1140.19 673.4)" fill="url(#paint2_linear_1543_70814)"/>
<path d="M1157.06 701.278L1151.38 703.526L1144.58 719.237L1146.82 724.918L1162.53 731.72L1159.1 739.649L1151.32 736.279L1153.04 732.315L1141.14 727.166L1137.71 735.094L1139.96 740.775L1163.6 751.011L1169.28 748.763L1176.14 732.905L1173.9 727.225L1158.18 720.422L1161.62 712.493L1169.55 715.926L1167.83 719.891L1179.72 725.04L1183.16 717.112L1180.91 711.431L1157.12 701.132L1157.06 701.278Z" fill="white"/>
</g>
<g filter="url(#filter27_f_1543_70814)">
<rect x="196.871" y="11.492" width="80" height="80" rx="20" transform="rotate(29.488 196.871 11.492)" fill="#0090FF"/>
<path fill-rule="evenodd" clip-rule="evenodd" d="M217.329 63.6255L213.139 68.618L222.189 75.5761L220.02 77.8005L211.143 70.94C209.171 72.8157 207.446 75.0609 205.4 76.6647C203.157 78.6171 200.914 80.5695 198.596 82.25C195.54 84.4326 191.94 85.1579 188.365 83.8263C186.269 83.1013 184.297 81.7557 183.433 79.657C183.113 79.0155 182.989 78.0254 183.285 77.5025C183.679 76.8052 184.517 76.1288 185.232 76.073C185.676 76.0939 186.441 76.7563 186.86 77.2234C187.082 78.0392 187.205 79.0293 187.156 79.9218C187.403 81.9019 188.686 82.8571 190.658 82.5921C193 82.076 194.947 80.6465 196.549 79.0218C199.951 75.4238 203.254 72.0002 206.483 68.3046L206.877 67.6073L198.517 61.0396L200.341 58.62L209.046 65.383L213.31 60.6624L204.359 53.5299L206.281 50.936L215.676 58.0894C216.613 57.2387 217.278 56.4647 218.116 55.7883C220.754 53.1386 223.391 50.4889 227.04 48.8711C230.688 47.2533 234.09 46.8766 237.616 49.1007C239.17 49.9792 240.428 51.3806 240.773 53.1864C240.847 53.4584 240.995 54.0022 240.798 54.3509C240.404 55.0481 239.911 55.9197 239.097 56.1498C238.111 56.2824 237.347 55.62 237.051 54.5323C236.829 53.7165 236.779 52.9984 236.557 52.1826C236.31 50.2024 234.855 49.1496 232.957 49.6866C231.601 50.0702 230.048 50.8024 228.84 51.7298C225.562 54.7072 222.53 58.0542 219.153 61.2059L227.858 67.9688L225.689 70.1932L217.329 63.6255Z" fill="white"/>
</g>
<g filter="url(#filter28_f_1543_70814)">
<rect x="495.61" y="664.819" width="80" height="80" rx="20" transform="rotate(51.7105 495.61 664.819)" fill="black"/>
<path d="M465.193 723.121L476.641 721.454L488.06 719.809L499.486 718.115L501.322 717.879L500.338 719.195L496.254 724.666L492.344 725.236L480.925 726.881L469.499 728.575L473.783 734.002L485.23 732.335L491.158 731.475L487.962 735.796L481.761 744.107L485.607 748.98L491.809 740.668L497.983 732.379L499.567 730.23L508.075 728.995L504.185 724.067L504.635 723.442L509.703 716.655L510.359 715.778L506.621 711.044L506.368 711.064L495.202 712.689L483.754 714.355L472.357 716.028L460.91 717.695L465.193 723.121V723.121Z" fill="white"/>
</g>
<g filter="url(#filter29_f_1543_70814)">
<rect x="1134.22" y="57" width="80" height="80" rx="20" transform="rotate(40.7472 1134.22 57)" fill="#51CBFF"/>
<path d="M1121.97 127.27L1134.06 80.8425C1134.25 80.0976 1135.17 79.8187 1135.75 80.3157L1141.3 85.0978C1141.59 85.3543 1141.73 85.7632 1141.63 86.1364L1132.94 119.885C1132.15 122.907 1135.17 125.507 1138.04 124.282L1170.08 110.677C1170.44 110.53 1170.86 110.602 1171.16 110.858L1171.85 111.452C1172.26 111.805 1172.15 112.458 1171.66 112.652L1127.07 131.668C1124.2 132.891 1121.18 130.29 1121.97 127.27Z" fill="white"/>
<path opacity="0.1" d="M1121.97 127.27L1141.62 86.1552C1141.73 85.7632 1141.56 85.3569 1141.32 85.1488L1135.75 80.3505C1135.13 79.8213 1134.25 80.1306 1134.04 80.8612L1121.97 127.27Z" fill="white"/>
<path opacity="0.1" d="M1132.92 119.902L1134.06 80.8425C1134.3 80.1112 1135.1 79.8588 1135.67 80.2511L1141.31 85.1139C1141.62 85.4053 1141.68 85.8175 1141.62 86.1203L1132.92 119.902Z" fill="white"/>
</g>
</g>
</g>
<defs>
<filter id="filter0_f_1543_70814" x="-927" y="-1470" width="3249" height="3225" filterUnits="userSpaceOnUse" color-interpolation-filters="sRGB">
<feFlood flood-opacity="0" result="BackgroundImageFix"/>
<feBlend mode="normal" in="SourceGraphic" in2="BackgroundImageFix" result="shape"/>
<feGaussianBlur stdDeviation="246" result="effect1_foregroundBlur_1543_70814"/>
</filter>
<filter id="filter1_f_1543_70814" x="1017" y="256" width="122.767" height="122.767" filterUnits="userSpaceOnUse" color-interpolation-filters="sRGB">
<feFlood flood-opacity="0" result="BackgroundImageFix"/>
<feBlend mode="normal" in="SourceGraphic" in2="BackgroundImageFix" result="shape"/>
<feGaussianBlur stdDeviation="3" result="effect1_foregroundBlur_1543_70814"/>
</filter>
<filter id="filter2_f_1543_70814" x="604.967" y="322.967" width="100.988" height="100.988" filterUnits="userSpaceOnUse" color-interpolation-filters="sRGB">
<feFlood flood-opacity="0" result="BackgroundImageFix"/>
<feBlend mode="normal" in="SourceGraphic" in2="BackgroundImageFix" result="shape"/>
<feGaussianBlur stdDeviation="3" result="effect1_foregroundBlur_1543_70814"/>
</filter>
<filter id="filter3_f_1543_70814" x="897" y="24" width="103.666" height="103.666" filterUnits="userSpaceOnUse" color-interpolation-filters="sRGB">
<feFlood flood-opacity="0" result="BackgroundImageFix"/>
<feBlend mode="normal" in="SourceGraphic" in2="BackgroundImageFix" result="shape"/>
<feGaussianBlur stdDeviation="3" result="effect1_foregroundBlur_1543_70814"/>
</filter>
<filter id="filter4_f_1543_70814" x="245" y="206" width="116.321" height="116.321" filterUnits="userSpaceOnUse" color-interpolation-filters="sRGB">
<feFlood flood-opacity="0" result="BackgroundImageFix"/>
<feBlend mode="normal" in="SourceGraphic" in2="BackgroundImageFix" result="shape"/>
<feGaussianBlur stdDeviation="3" result="effect1_foregroundBlur_1543_70814"/>
</filter>
<filter id="filter5_f_1543_70814" x="654" y="711" width="105.602" height="105.602" filterUnits="userSpaceOnUse" color-interpolation-filters="sRGB">
<feFlood flood-opacity="0" result="BackgroundImageFix"/>
<feBlend mode="normal" in="SourceGraphic" in2="BackgroundImageFix" result="shape"/>
<feGaussianBlur stdDeviation="3" result="effect1_foregroundBlur_1543_70814"/>
</filter>
<filter id="filter6_f_1543_70814" x="1000" y="519" width="107.08" height="107.08" filterUnits="userSpaceOnUse" color-interpolation-filters="sRGB">
<feFlood flood-opacity="0" result="BackgroundImageFix"/>
<feBlend mode="normal" in="SourceGraphic" in2="BackgroundImageFix" result="shape"/>
<feGaussianBlur stdDeviation="3" result="effect1_foregroundBlur_1543_70814"/>
</filter>
<filter id="filter7_f_1543_70814" x="17" y="149" width="117.255" height="117.255" filterUnits="userSpaceOnUse" color-interpolation-filters="sRGB">
<feFlood flood-opacity="0" result="BackgroundImageFix"/>
<feBlend mode="normal" in="SourceGraphic" in2="BackgroundImageFix" result="shape"/>
<feGaussianBlur stdDeviation="3" result="effect1_foregroundBlur_1543_70814"/>
</filter>
<filter id="filter8_f_1543_70814" x="385.832" y="301.832" width="123.421" height="123.421" filterUnits="userSpaceOnUse" color-interpolation-filters="sRGB">
<feFlood flood-opacity="0" result="BackgroundImageFix"/>
<feBlend mode="normal" in="SourceGraphic" in2="BackgroundImageFix" result="shape"/>
<feGaussianBlur stdDeviation="3" result="effect1_foregroundBlur_1543_70814"/>
</filter>
<filter id="filter9_f_1543_70814" x="707" y="519" width="122.117" height="122.117" filterUnits="userSpaceOnUse" color-interpolation-filters="sRGB">
<feFlood flood-opacity="0" result="BackgroundImageFix"/>
<feBlend mode="normal" in="SourceGraphic" in2="BackgroundImageFix" result="shape"/>
<feGaussianBlur stdDeviation="3" result="effect1_foregroundBlur_1543_70814"/>
</filter>
<filter id="filter10_f_1543_70814" x="839" y="373" width="122.223" height="122.223" filterUnits="userSpaceOnUse" color-interpolation-filters="sRGB">
<feFlood flood-opacity="0" result="BackgroundImageFix"/>
<feBlend mode="normal" in="SourceGraphic" in2="BackgroundImageFix" result="shape"/>
<feGaussianBlur stdDeviation="3" result="effect1_foregroundBlur_1543_70814"/>
</filter>
<filter id="filter11_f_1543_70814" x="1302" y="8" width="108.474" height="108.473" filterUnits="userSpaceOnUse" color-interpolation-filters="sRGB">
<feFlood flood-opacity="0" result="BackgroundImageFix"/>
<feBlend mode="normal" in="SourceGraphic" in2="BackgroundImageFix" result="shape"/>
<feGaussianBlur stdDeviation="3" result="effect1_foregroundBlur_1543_70814"/>
</filter>
<filter id="filter12_f_1543_70814" x="43.4207" y="647.421" width="107.159" height="107.159" filterUnits="userSpaceOnUse" color-interpolation-filters="sRGB">
<feFlood flood-opacity="0" result="BackgroundImageFix"/>
<feBlend mode="normal" in="SourceGraphic" in2="BackgroundImageFix" result="shape"/>
<feGaussianBlur stdDeviation="3" result="effect1_foregroundBlur_1543_70814"/>
</filter>
<filter id="filter13_f_1543_70814" x="1295" y="603" width="109.919" height="109.919" filterUnits="userSpaceOnUse" color-interpolation-filters="sRGB">
<feFlood flood-opacity="0" result="BackgroundImageFix"/>
<feBlend mode="normal" in="SourceGraphic" in2="BackgroundImageFix" result="shape"/>
<feGaussianBlur stdDeviation="3" result="effect1_foregroundBlur_1543_70814"/>
</filter>
<filter id="filter14_f_1543_70814" x="516" y="135" width="106.63" height="106.63" filterUnits="userSpaceOnUse" color-interpolation-filters="sRGB">
<feFlood flood-opacity="0" result="BackgroundImageFix"/>
<feBlend mode="normal" in="SourceGraphic" in2="BackgroundImageFix" result="shape"/>
<feGaussianBlur stdDeviation="3" result="effect1_foregroundBlur_1543_70814"/>
</filter>
<filter id="filter15_f_1543_70814" x="1182" y="454" width="109.206" height="109.206" filterUnits="userSpaceOnUse" color-interpolation-filters="sRGB">
<feFlood flood-opacity="0" result="BackgroundImageFix"/>
<feBlend mode="normal" in="SourceGraphic" in2="BackgroundImageFix" result="shape"/>
<feGaussianBlur stdDeviation="3" result="effect1_foregroundBlur_1543_70814"/>
</filter>
<filter id="filter16_f_1543_70814" x="668" y="44" width="125.135" height="125.135" filterUnits="userSpaceOnUse" color-interpolation-filters="sRGB">
<feFlood flood-opacity="0" result="BackgroundImageFix"/>
<feBlend mode="normal" in="SourceGraphic" in2="BackgroundImageFix" result="shape"/>
<feGaussianBlur stdDeviation="3" result="effect1_foregroundBlur_1543_70814"/>
</filter>
<filter id="filter17_f_1543_70814" x="879.941" y="675.941" width="121.695" height="121.695" filterUnits="userSpaceOnUse" color-interpolation-filters="sRGB">
<feFlood flood-opacity="0" result="BackgroundImageFix"/>
<feBlend mode="normal" in="SourceGraphic" in2="BackgroundImageFix" result="shape"/>
<feGaussianBlur stdDeviation="3" result="effect1_foregroundBlur_1543_70814"/>
</filter>
<filter id="filter18_f_1543_70814" x="65.0129" y="371.013" width="107.974" height="107.974" filterUnits="userSpaceOnUse" color-interpolation-filters="sRGB">
<feFlood flood-opacity="0" result="BackgroundImageFix"/>
<feBlend mode="normal" in="SourceGraphic" in2="BackgroundImageFix" result="shape"/>
<feGaussianBlur stdDeviation="3" result="effect1_foregroundBlur_1543_70814"/>
</filter>
<filter id="filter19_f_1543_70814" x="355" y="32" width="123.194" height="123.194" filterUnits="userSpaceOnUse" color-interpolation-filters="sRGB">
<feFlood flood-opacity="0" result="BackgroundImageFix"/>
<feBlend mode="normal" in="SourceGraphic" in2="BackgroundImageFix" result="shape"/>
<feGaussianBlur stdDeviation="3" result="effect1_foregroundBlur_1543_70814"/>
</filter>
<filter id="filter20_f_1543_70814" x="1303.38" y="319.377" width="124.663" height="124.663" filterUnits="userSpaceOnUse" color-interpolation-filters="sRGB">
<feFlood flood-opacity="0" result="BackgroundImageFix"/>
<feBlend mode="normal" in="SourceGraphic" in2="BackgroundImageFix" result="shape"/>
<feGaussianBlur stdDeviation="3" result="effect1_foregroundBlur_1543_70814"/>
</filter>
<filter id="filter21_f_1543_70814" x="223.456" y="693.456" width="125.088" height="125.088" filterUnits="userSpaceOnUse" color-interpolation-filters="sRGB">
<feFlood flood-opacity="0" result="BackgroundImageFix"/>
<feBlend mode="normal" in="SourceGraphic" in2="BackgroundImageFix" result="shape"/>
<feGaussianBlur stdDeviation="3" result="effect1_foregroundBlur_1543_70814"/>
</filter>
<filter id="filter22_f_1543_70814" x="222" y="483" width="121.631" height="121.631" filterUnits="userSpaceOnUse" color-interpolation-filters="sRGB">
<feFlood flood-opacity="0" result="BackgroundImageFix"/>
<feBlend mode="normal" in="SourceGraphic" in2="BackgroundImageFix" result="shape"/>
<feGaussianBlur stdDeviation="3" result="effect1_foregroundBlur_1543_70814"/>
</filter>
<filter id="filter23_f_1543_70814" x="478" y="487" width="109.798" height="109.798" filterUnits="userSpaceOnUse" color-interpolation-filters="sRGB">
<feFlood flood-opacity="0" result="BackgroundImageFix"/>
<feBlend mode="normal" in="SourceGraphic" in2="BackgroundImageFix" result="shape"/>
<feGaussianBlur stdDeviation="3" result="effect1_foregroundBlur_1543_70814"/>
</filter>
<filter id="filter24_f_1543_70814" x="790.785" y="187.785" width="124.43" height="124.43" filterUnits="userSpaceOnUse" color-interpolation-filters="sRGB">
<feFlood flood-opacity="0" result="BackgroundImageFix"/>
<feBlend mode="normal" in="SourceGraphic" in2="BackgroundImageFix" result="shape"/>
<feGaussianBlur stdDeviation="3" result="effect1_foregroundBlur_1543_70814"/>
</filter>
<filter id="filter25_f_1543_70814" x="1204.98" y="171.982" width="110.813" height="110.813" filterUnits="userSpaceOnUse" color-interpolation-filters="sRGB">
<feFlood flood-opacity="0" result="BackgroundImageFix"/>
<feBlend mode="normal" in="SourceGraphic" in2="BackgroundImageFix" result="shape"/>
<feGaussianBlur stdDeviation="3" result="effect1_foregroundBlur_1543_70814"/>
</filter>
<filter id="filter26_f_1543_70814" x="1102.4" y="667.4" width="117.201" height="117.201" filterUnits="userSpaceOnUse" color-interpolation-filters="sRGB">
<feFlood flood-opacity="0" result="BackgroundImageFix"/>
<feBlend mode="normal" in="SourceGraphic" in2="BackgroundImageFix" result="shape"/>
<feGaussianBlur stdDeviation="3" result="effect1_foregroundBlur_1543_70814"/>
</filter>
<filter id="filter27_f_1543_70814" x="151.492" y="5.492" width="121.016" height="121.016" filterUnits="userSpaceOnUse" color-interpolation-filters="sRGB">
<feFlood flood-opacity="0" result="BackgroundImageFix"/>
<feBlend mode="normal" in="SourceGraphic" in2="BackgroundImageFix" result="shape"/>
<feGaussianBlur stdDeviation="3" result="effect1_foregroundBlur_1543_70814"/>
</filter>
<filter id="filter28_f_1543_70814" x="426.819" y="658.819" width="124.362" height="124.362" filterUnits="userSpaceOnUse" color-interpolation-filters="sRGB">
<feFlood flood-opacity="0" result="BackgroundImageFix"/>
<feBlend mode="normal" in="SourceGraphic" in2="BackgroundImageFix" result="shape"/>
<feGaussianBlur stdDeviation="3" result="effect1_foregroundBlur_1543_70814"/>
</filter>
<filter id="filter29_f_1543_70814" x="1076" y="51" width="124.826" height="124.826" filterUnits="userSpaceOnUse" color-interpolation-filters="sRGB">
<feFlood flood-opacity="0" result="BackgroundImageFix"/>
<feBlend mode="normal" in="SourceGraphic" in2="BackgroundImageFix" result="shape"/>
<feGaussianBlur stdDeviation="3" result="effect1_foregroundBlur_1543_70814"/>
</filter>
<linearGradient id="paint0_linear_1543_70814" x1="405.667" y1="89.3693" x2="346.333" y2="139.369" gradientUnits="userSpaceOnUse">
<stop stop-color="#B6509E"/>
<stop offset="1" stop-color="#2EBAC6"/>
</linearGradient>
<linearGradient id="paint1_linear_1543_70814" x1="269.456" y1="754.339" x2="269.456" y2="834.339" gradientUnits="userSpaceOnUse">
<stop stop-color="#FEF3F9"/>
<stop offset="1" stop-color="#FDE5F2"/>
</linearGradient>
<linearGradient id="paint2_linear_1543_70814" x1="1156.99" y1="687" x2="1207.39" y2="743.8" gradientUnits="userSpaceOnUse">
<stop stop-color="#00ADEF"/>
<stop offset="1" stop-color="#0084FF"/>
</linearGradient>
<clipPath id="clip0_1543_70814">
<rect width="1440" height="824" fill="white"/>
</clipPath>
<clipPath id="clip1_1543_70814">
<rect width="80" height="80" fill="white" transform="translate(1066.87 262) rotate(33.2514)"/>
</clipPath>
<clipPath id="clip2_1543_70814">
<rect width="80" height="80" fill="white" transform="translate(620.529 328.967) rotate(6.86443)"/>
</clipPath>
<clipPath id="clip3_1543_70814">
<rect width="80" height="80" fill="white" transform="translate(994.666 108.989) rotate(170.883)"/>
</clipPath>
<clipPath id="clip4_1543_70814">
<rect width="80" height="80" fill="white" transform="translate(281.268 212) rotate(22.2312)"/>
</clipPath>
<clipPath id="clip5_1543_70814">
<rect width="80" height="80" fill="white" transform="translate(1006 541.881) rotate(-12.1817)"/>
</clipPath>
<clipPath id="clip6_1543_70814">
<rect width="80" height="80" fill="white" transform="translate(23 186.883) rotate(-23.4871)"/>
</clipPath>
<clipPath id="clip7_1543_70814">
<rect width="80" height="80" fill="white" transform="translate(457.359 307.832) rotate(54.9935)"/>
</clipPath>
<clipPath id="clip8_1543_70814">
<rect width="80" height="80" fill="white" transform="translate(1207.66 460) rotate(14.225)"/>
</clipPath>
<clipPath id="clip9_1543_70814">
<rect width="80" height="80" fill="white" transform="translate(730.205 50) rotate(44.6332)"/>
</clipPath>
<clipPath id="clip10_1543_70814">
<rect width="80" height="80" fill="white" transform="translate(1210.98 199.838) rotate(-15.855)"/>
</clipPath>
<clipPath id="clip11_1543_70814">
<rect width="80" height="80" fill="white" transform="translate(1140.19 673.4) rotate(23.412)"/>
</clipPath>
</defs>
</svg>
