<svg width="1440" height="800" viewBox="0 0 1440 800" fill="none" xmlns="http://www.w3.org/2000/svg">
<g clip-path="url(#clip0_213_135)">
<rect width="1440" height="800" fill="white"/>
<path d="M0 0H1440V800H720H0V0Z" fill="#111111"/>
<g opacity="0.28">
<path d="M1229 211L1265 223V175L1229 163L1193 175V223L1229 235V187L1265 175" stroke="white" stroke-width="2"/>
<rect x="1170" y="140" width="118" height="118" rx="59" stroke="white" stroke-width="2"/>
<path d="M905.778 674.333C905.778 667.46 900.206 661.889 893.333 661.889C886.46 661.889 880.889 667.46 880.889 674.333V711.667C880.889 718.54 886.46 724.111 893.333 724.111C900.206 724.111 905.778 718.54 905.778 711.667V674.333Z" stroke="white" stroke-width="2"/>
<path d="M943.111 674.333C943.111 667.46 937.539 661.889 930.667 661.889C923.794 661.889 918.222 667.46 918.222 674.333V711.667C918.222 718.54 923.794 724.111 930.667 724.111C937.539 724.111 943.111 718.54 943.111 711.667V674.333Z" stroke="white" stroke-width="2"/>
<path d="M880.889 705.444C887.111 693 899.556 693 906.213 693H917.787C924.444 693 936.889 693 943.111 680.556" stroke="white" stroke-width="2"/>
<rect x="857" y="638" width="110" height="110" rx="55" stroke="white" stroke-width="2"/>
<path d="M283.011 726.011C283.011 720.473 281.369 715.06 278.292 710.455C275.216 705.851 270.843 702.262 265.726 700.143C260.61 698.023 254.98 697.469 249.549 698.549C244.117 699.63 239.128 702.296 235.212 706.212C231.296 710.128 228.63 715.117 227.549 720.549C226.469 725.98 227.023 731.61 229.143 736.726C231.262 741.843 234.851 746.216 239.455 749.292C244.06 752.369 249.473 754.011 255.011 754.011H283.011V726.011Z" stroke="white" stroke-width="2"/>
<path d="M215.345 693.415C219.249 693.415 222.415 690.249 222.415 686.345C222.415 682.44 219.249 679.275 215.345 679.275C211.44 679.275 208.275 682.44 208.275 686.345C208.275 690.249 211.44 693.415 215.345 693.415Z" stroke="white" stroke-width="2"/>
<path d="M226.801 677.618C238.556 670.767 252.403 668.43 265.756 671.043C279.108 673.656 291.053 681.041 299.358 691.818C307.663 702.596 311.76 716.028 310.884 729.605C310.008 743.183 304.219 755.977 294.598 765.598C284.977 775.219 272.183 781.008 258.605 781.884C245.028 782.76 231.596 778.663 220.818 770.358C210.041 762.053 202.656 750.108 200.043 736.756C197.43 723.403 199.767 709.556 206.618 697.801" stroke="white" stroke-width="2"/>
<path d="M463.652 668.037C470.803 678.805 474.008 691.716 472.723 704.578C471.437 717.44 465.741 729.461 456.601 738.601C447.461 747.741 435.44 753.437 422.578 754.723C409.716 756.008 396.805 752.803 386.037 745.653" stroke="white" stroke-width="2"/>
<path d="M416.994 726.989C432.455 726.989 444.989 714.456 444.989 698.995C444.989 683.534 432.455 671 416.994 671C401.533 671 389 683.534 389 698.995C389 714.456 401.533 726.989 416.994 726.989Z" stroke="white" stroke-width="2"/>
<path d="M444.989 698.995C435.752 696.989 426.195 696.962 416.946 698.916C407.698 700.87 398.969 704.761 391.333 710.333C387.859 712.955 384.605 715.858 381.605 719.011C377.808 722.992 374.517 727.427 371.806 732.215H371.573C364.55 722.576 360.842 710.92 361.005 698.995C361.004 688.87 363.748 678.935 368.946 670.247C374.143 661.558 381.599 654.442 390.52 649.655C399.441 644.867 409.493 642.589 419.607 643.061C429.72 643.533 439.516 646.739 447.952 652.337" stroke="white" stroke-width="2"/>
<path d="M772.59 680C768.612 680 764.796 681.58 761.983 684.393C759.17 687.206 757.59 691.022 757.59 695C757.696 697.843 758.505 700.616 759.945 703.07C760.358 703.743 760.631 704.493 760.746 705.274C760.862 706.055 760.818 706.852 760.618 707.615C760.418 708.379 760.065 709.095 759.58 709.718C759.096 710.342 758.49 710.862 757.8 711.245C756.424 712.022 754.796 712.225 753.271 711.81C751.746 711.394 750.446 710.393 749.655 709.025C748.252 706.543 746.251 704.449 743.835 702.935C741.554 701.63 738.97 700.947 736.342 700.955C733.714 700.963 731.134 701.661 728.861 702.979C726.587 704.298 724.7 706.191 723.389 708.468C722.077 710.745 721.386 713.327 721.386 715.955C721.386 718.583 722.077 721.165 723.389 723.442C724.7 725.719 726.587 727.612 728.861 728.93C731.134 730.249 733.714 730.947 736.342 730.955C738.97 730.963 741.554 730.28 743.835 728.975C746.238 727.483 748.237 725.423 749.655 722.975C750.031 722.281 750.543 721.671 751.161 721.18C751.779 720.689 752.49 720.329 753.251 720.12C754.012 719.911 754.807 719.858 755.589 719.965C756.37 720.072 757.123 720.335 757.8 720.74C759.164 721.544 760.154 722.854 760.556 724.386C760.958 725.917 760.738 727.545 759.945 728.915C758.515 731.377 757.716 734.154 757.62 737C757.625 739.632 758.323 742.216 759.643 744.493C760.962 746.77 762.858 748.659 765.139 749.972C767.42 751.284 770.007 751.974 772.638 751.97C775.27 751.967 777.855 751.271 780.133 749.953C782.411 748.635 784.302 746.741 785.616 744.461C786.93 742.181 787.621 739.595 787.62 736.963C787.619 734.331 786.925 731.746 785.608 729.467C784.292 727.188 782.399 725.296 780.12 723.98C777.587 722.661 774.77 721.981 771.915 722C771.121 722.023 770.33 721.883 769.592 721.59C768.854 721.296 768.183 720.855 767.622 720.293C767.06 719.732 766.619 719.061 766.325 718.323C766.032 717.584 765.892 716.794 765.915 716C765.915 714.409 766.547 712.883 767.672 711.757C768.798 710.632 770.324 710 771.915 710C774.792 710.024 777.631 709.339 780.18 708.005C782.478 706.693 784.388 704.798 785.716 702.51C787.045 700.222 787.745 697.623 787.745 694.977C787.745 692.332 787.045 689.733 785.716 687.445C784.388 685.157 782.478 683.261 780.18 681.95C777.896 680.643 775.312 679.95 772.68 679.94L772.59 680Z" stroke="white" stroke-width="2"/>
<rect x="700" y="657" width="118" height="118" rx="59" stroke="white" stroke-width="2"/>
<path d="M1055 692.667L1051.64 699.34C1050.44 701.714 1049.82 704.335 1049.82 706.993C1049.82 709.652 1050.44 712.273 1051.64 714.647L1057.99 727.48C1059.47 730.707 1060.25 734.214 1060.28 737.767C1060.3 741.319 1059.57 744.836 1058.13 748.083L1055.79 753.497" stroke="white" stroke-width="2"/>
<path d="M1034 698.967L1031.34 704.333C1030.4 706.21 1029.91 708.279 1029.91 710.377C1029.91 712.474 1030.4 714.544 1031.34 716.42L1036.33 726.453C1037.51 729.012 1038.13 731.791 1038.15 734.607C1038.17 737.423 1037.59 740.211 1036.45 742.787L1034.56 747.057" stroke="white" stroke-width="2"/>
<path d="M1076 698.967L1073.34 704.333C1072.4 706.21 1071.91 708.279 1071.91 710.377C1071.91 712.474 1072.4 714.544 1073.34 716.42L1078.33 726.453C1079.49 729.02 1080.09 731.804 1080.09 734.62C1080.09 737.436 1079.49 740.22 1078.33 742.787L1076.44 747.057" stroke="white" stroke-width="2"/>
<path d="M1055 779C1085.93 779 1111 753.928 1111 723C1111 692.072 1085.93 667 1055 667C1024.07 667 999 692.072 999 723C999 753.928 1024.07 779 1055 779Z" stroke="white" stroke-width="2"/>
<path d="M1209 768C1239.93 768 1265 742.928 1265 712C1265 681.072 1239.93 656 1209 656C1178.07 656 1153 681.072 1153 712C1153 742.928 1178.07 768 1209 768Z" stroke="white" stroke-width="2"/>
<path d="M1227.67 712H1195C1191.29 712 1187.73 713.475 1185.1 716.101C1182.47 718.726 1181 722.287 1181 726C1181 729.713 1182.47 733.274 1185.1 735.899C1187.73 738.525 1191.29 740 1195 740C1198.71 740 1202.27 738.525 1204.9 735.899C1207.53 733.274 1209 729.713 1209 726V684H1237" stroke="white" stroke-width="2"/>
<path d="M1345.33 575.788L1340.36 577.445C1335.2 579.164 1330.72 582.462 1327.54 586.871C1324.36 591.281 1322.65 596.579 1322.65 602.015V602.015C1322.65 605.707 1321.56 609.316 1319.51 612.385C1317.45 615.455 1314.54 617.848 1311.13 619.26C1307.72 620.673 1303.96 621.043 1300.34 620.323C1296.72 619.602 1293.4 617.825 1290.79 615.214C1288.18 612.603 1286.4 609.277 1285.68 605.656C1284.96 602.035 1285.33 598.282 1286.74 594.871C1288.15 591.46 1290.54 588.545 1293.61 586.494C1296.68 584.443 1300.29 583.348 1303.99 583.348C1309.42 583.348 1314.72 581.637 1319.13 578.459C1323.54 575.28 1326.84 570.795 1328.56 565.638L1330.21 560.668C1330.81 558.775 1331.85 557.051 1333.24 555.639C1334.64 554.227 1336.35 553.167 1338.23 552.547C1340.12 551.926 1342.12 551.764 1344.08 552.073C1346.05 552.381 1347.9 553.152 1349.51 554.321C1349.91 554.648 1350.28 554.975 1350.65 555.348C1351.03 555.721 1351.35 556.095 1351.68 556.491C1352.85 558.095 1353.62 559.954 1353.93 561.915C1354.24 563.876 1354.07 565.882 1353.45 567.767C1352.83 569.653 1351.77 571.364 1350.36 572.758C1348.95 574.153 1347.22 575.192 1345.33 575.788V575.788Z" stroke="white" stroke-width="2"/>
<path d="M1358 587.175C1361.27 599.091 1360.51 611.754 1355.84 623.192C1351.16 634.63 1342.83 644.2 1332.15 650.411C1321.47 656.623 1309.03 659.126 1296.78 657.532C1284.52 655.938 1273.14 650.336 1264.4 641.598C1255.66 632.86 1250.06 621.478 1248.47 609.224C1246.87 596.971 1249.38 584.534 1255.59 573.851C1261.8 563.169 1271.37 554.841 1282.81 550.165C1294.25 545.489 1306.91 544.727 1318.83 547.998" stroke="white" stroke-width="2"/>
<path d="M587 780C617.928 780 643 754.928 643 724C643 693.072 617.928 668 587 668C556.072 668 531 693.072 531 724C531 754.928 556.072 780 587 780Z" stroke="white" stroke-width="2"/>
<path d="M614.44 707.667C614.542 707.665 614.642 707.693 614.729 707.747C614.816 707.801 614.886 707.878 614.93 707.97C614.987 708.052 615.018 708.15 615.018 708.25C615.018 708.35 614.987 708.448 614.93 708.53L604.57 725.12C604.523 725.203 604.455 725.272 604.373 725.321C604.291 725.37 604.199 725.397 604.103 725.4C604.004 725.401 603.907 725.375 603.821 725.326C603.734 725.277 603.663 725.206 603.613 725.12L593.253 708.53C593.196 708.448 593.166 708.35 593.166 708.25C593.166 708.15 593.196 708.052 593.253 707.97C593.298 707.878 593.367 707.801 593.454 707.747C593.541 707.693 593.641 707.665 593.743 707.667H614.44Z" stroke="white" stroke-width="2"/>
<path d="M575.94 708.203L595.167 738.98C595.281 739.162 595.341 739.372 595.341 739.587C595.341 739.801 595.281 740.011 595.167 740.193L587.49 752.49C587.396 752.619 587.256 752.706 587.099 752.732C586.942 752.758 586.78 752.722 586.65 752.63L586.51 752.49L559 708.53C558.943 708.448 558.912 708.35 558.912 708.25C558.912 708.15 558.943 708.052 559 707.97C559.044 707.878 559.114 707.801 559.201 707.747C559.288 707.693 559.388 707.665 559.49 707.667H574.913C575.117 707.654 575.32 707.697 575.501 707.792C575.682 707.886 575.834 708.029 575.94 708.203V708.203Z" stroke="white" stroke-width="2"/>
<path d="M1373 785C1403.93 785 1429 759.928 1429 729C1429 698.072 1403.93 673 1373 673C1342.07 673 1317 698.072 1317 729C1317 759.928 1342.07 785 1373 785Z" stroke="white" stroke-width="2"/>
<path d="M1379.23 697.897C1378.41 697.077 1377.44 696.426 1376.37 695.982C1375.3 695.539 1374.16 695.31 1373 695.31C1371.84 695.31 1370.7 695.539 1369.63 695.982C1368.56 696.426 1367.59 697.077 1366.77 697.897L1341.9 722.77C1341.08 723.587 1340.43 724.558 1339.98 725.627C1339.54 726.696 1339.31 727.842 1339.31 729C1339.31 730.157 1339.54 731.304 1339.98 732.373C1340.43 733.442 1341.08 734.413 1341.9 735.23" stroke="white" stroke-width="2"/>
<path d="M1348.1 741.437C1348.92 742.256 1349.89 742.907 1350.96 743.351C1352.03 743.794 1353.18 744.023 1354.33 744.023C1355.49 744.023 1356.64 743.794 1357.71 743.351C1358.78 742.907 1359.75 742.256 1360.56 741.437L1385.44 716.563C1386.25 715.743 1387.22 715.093 1388.29 714.649C1389.36 714.205 1390.51 713.977 1391.67 713.977C1392.82 713.977 1393.97 714.205 1395.04 714.649C1396.11 715.093 1397.08 715.743 1397.9 716.563L1404.1 722.77C1404.92 723.587 1405.57 724.558 1406.02 725.627C1406.46 726.696 1406.69 727.842 1406.69 729C1406.69 730.157 1406.46 731.304 1406.02 732.373C1405.57 733.442 1404.92 734.413 1404.1 735.23L1379.23 760.103C1378.41 760.923 1377.44 761.573 1376.37 762.017C1375.3 762.461 1374.16 762.69 1373 762.69C1371.84 762.69 1370.7 762.461 1369.63 762.017C1368.56 761.573 1367.59 760.923 1366.77 760.103" stroke="white" stroke-width="2"/>
<path d="M1154 640C1184.93 640 1210 614.928 1210 584C1210 553.072 1184.93 528 1154 528C1123.07 528 1098 553.072 1098 584C1098 614.928 1123.07 640 1154 640Z" stroke="white" stroke-width="2"/>
<path d="M1154 598C1164.31 598 1172.67 589.643 1172.67 579.333C1172.67 569.024 1164.31 560.667 1154 560.667C1143.69 560.667 1135.33 569.024 1135.33 579.333C1135.33 589.643 1143.69 598 1154 598Z" stroke="white" stroke-width="2"/>
<path d="M1182 560.667C1184.58 560.667 1186.67 558.577 1186.67 556C1186.67 553.423 1184.58 551.333 1182 551.333C1179.42 551.333 1177.33 553.423 1177.33 556C1177.33 558.577 1179.42 560.667 1182 560.667Z" stroke="white" stroke-width="2"/>
<path d="M1172.67 602.667L1154 621.333" stroke="white" stroke-width="2"/>
<path d="M1025.67 607V588.333C1025.67 585.858 1024.68 583.484 1022.93 581.734C1021.18 579.983 1018.81 579 1016.33 579H997.667C995.191 579 992.817 578.017 991.067 576.266C989.317 574.516 988.333 572.142 988.333 569.667V551" stroke="white" stroke-width="2"/>
<path d="M988.333 607V593" stroke="white" stroke-width="2"/>
<path d="M1025.67 551V565" stroke="white" stroke-width="2"/>
<path d="M1007 635C1037.93 635 1063 609.928 1063 579C1063 548.072 1037.93 523 1007 523C976.072 523 951 548.072 951 579C951 609.928 976.072 635 1007 635Z" stroke="white" stroke-width="2"/>
<path d="M811.687 586.483H874.313L843 533.517L811.687 586.483V586.483Z" stroke="white" stroke-width="2"/>
<path d="M843 623C873.928 623 899 597.928 899 567C899 536.072 873.928 511 843 511C812.072 511 787 536.072 787 567C787 597.928 812.072 623 843 623Z" stroke="white" stroke-width="2"/>
<path d="M843 567L890.483 537.32" stroke="white" stroke-width="2"/>
<path d="M791.76 544.39L843 567" stroke="white" stroke-width="2"/>
<path d="M899 567H843L787.56 559.09" stroke="white" stroke-width="2"/>
<path d="M649.974 582.722L640.549 605.699L631.124 582.722L621.698 605.699L613 582.722" stroke="white" stroke-width="2"/>
<path d="M686.713 605.699L672.107 582.722L653.678 611.443" stroke="white" stroke-width="2"/>
<path d="M670.981 597.633H681.579" stroke="white" stroke-width="2"/>
<path d="M692.176 576.978L725 605.699" stroke="white" stroke-width="2"/>
<path d="M697.92 605.699L724.203 582.722" stroke="white" stroke-width="2"/>
<path d="M717.427 622.345C712.484 630.883 705.383 637.971 696.835 642.899C688.288 647.827 678.596 650.421 668.73 650.421C658.865 650.421 649.172 647.827 640.625 642.899C632.078 637.971 624.977 630.883 620.034 622.345" stroke="white" stroke-width="2"/>
<path d="M620.034 566.076C624.977 557.538 632.078 550.449 640.625 545.522C649.172 540.594 658.865 538 668.73 538C678.596 538 688.288 540.594 696.835 545.522C705.383 550.449 712.484 557.538 717.427 566.076" stroke="white" stroke-width="2"/>
<path d="M512.777 548.746C511.83 548.059 510.735 547.603 509.58 547.417C507.606 547.093 505.585 547.564 503.958 548.727C502.331 549.89 501.232 551.651 500.9 553.623L491.007 612.913C490.857 613.82 490.529 614.689 490.044 615.469C489.558 616.25 488.923 616.927 488.175 617.462C487.428 617.997 486.582 618.38 485.687 618.588C484.791 618.797 483.864 618.827 482.957 618.677C481.459 618.428 480.084 617.699 479.037 616.6" stroke="white" stroke-width="2"/>
<path d="M513.267 592.963L476.447 586.827" stroke="white" stroke-width="2"/>
<path d="M478.733 573.037L515.553 579.173" stroke="white" stroke-width="2"/>
<path d="M496 639C526.928 639 552 613.928 552 583C552 552.072 526.928 527 496 527C465.072 527 440 552.072 440 583C440 613.928 465.072 639 496 639Z" stroke="white" stroke-width="2"/>
<path d="M290.22 593.22C296.07 593.22 300.813 588.477 300.813 582.627C300.813 576.776 296.07 572.033 290.22 572.033C284.369 572.033 279.626 576.776 279.626 582.627C279.626 588.477 284.369 593.22 290.22 593.22Z" stroke="white" stroke-width="2"/>
<path d="M311.407 593.22C317.257 593.22 322 588.477 322 582.627C322 576.776 317.257 572.033 311.407 572.033C305.556 572.033 300.813 576.776 300.813 582.627C300.813 588.477 305.556 593.22 311.407 593.22Z" stroke="white" stroke-width="2"/>
<path d="M332.593 593.22C338.444 593.22 343.187 588.477 343.187 582.627C343.187 576.776 338.444 572.033 332.593 572.033C326.743 572.033 322 576.776 322 582.627C322 588.477 326.743 593.22 332.593 593.22Z" stroke="white" stroke-width="2"/>
<path d="M353.78 593.22C351.686 593.215 349.64 592.59 347.901 591.423C346.162 590.257 344.808 588.601 344.01 586.665C343.211 584.728 343.005 582.599 343.416 580.546C343.828 578.492 344.838 576.607 346.321 575.128C347.803 573.649 349.691 572.642 351.745 572.235C353.799 571.828 355.928 572.04 357.863 572.842C359.797 573.645 361.45 575.002 362.613 576.744C363.776 578.485 364.397 580.533 364.397 582.627" stroke="white" stroke-width="2"/>
<path d="M300.813 556.12V595.88" stroke="white" stroke-width="2"/>
<path d="M322 556.12V582.627" stroke="white" stroke-width="2"/>
<path d="M322 632C352.928 632 378 606.928 378 576C378 545.072 352.928 520 322 520C291.072 520 266 545.072 266 576C266 606.928 291.072 632 322 632Z" stroke="white" stroke-width="2"/>
<path d="M128.667 604.193C135.378 595.707 143.873 588.799 153.55 583.961C163.228 579.122 173.851 576.47 184.667 576.193V641.807C170.667 631.61 158.697 630.443 147.333 632.193L128.667 604.193Z" stroke="white" stroke-width="2"/>
<path d="M147.333 632.193C147.333 632.193 147.333 594.86 184.667 594.86" stroke="white" stroke-width="2"/>
<path d="M166 665C196.928 665 222 639.928 222 609C222 578.072 196.928 553 166 553C135.072 553 110 578.072 110 609C110 639.928 135.072 665 166 665Z" stroke="white" stroke-width="2"/>
<path d="M75 768C105.928 768 131 742.928 131 712C131 681.072 105.928 656 75 656C44.0721 656 19 681.072 19 712C19 742.928 44.0721 768 75 768Z" stroke="white" stroke-width="2"/>
<path d="M75.0001 673.64L41.7734 692.82" stroke="white" stroke-width="2"/>
<path d="M108.227 692.82L41.7734 731.18" stroke="white" stroke-width="2"/>
<path d="M75 750.36L108.227 731.18" stroke="white" stroke-width="2"/>
<path d="M91.6134 683.23L41.7734 712" stroke="white" stroke-width="2"/>
<path d="M58.3867 740.77L108.227 712" stroke="white" stroke-width="2"/>
<rect x="1319" y="423" width="110" height="110" rx="55" stroke="white" stroke-width="2"/>
<path d="M1374 511.6L1351.6 478L1374 444.4L1396.4 478L1374 511.6Z" stroke="white" stroke-width="2"/>
<path d="M1351.6 478L1374 489.2L1396.4 478" stroke="white" stroke-width="2"/>
<path d="M1374 444.4V511.6" stroke="white" stroke-width="2"/>
<path d="M1238 507C1268.93 507 1294 481.928 1294 451C1294 420.072 1268.93 395 1238 395C1207.07 395 1182 420.072 1182 451C1182 481.928 1207.07 507 1238 507Z" stroke="white" stroke-width="2"/>
<path d="M1277.08 476.527H1240.01C1235.88 476.527 1231.85 475.303 1228.42 473.011C1224.99 470.719 1222.31 467.461 1220.73 463.649C1219.16 459.838 1218.74 455.643 1219.55 451.597C1220.35 447.551 1222.34 443.834 1225.26 440.916C1228.17 437.999 1231.89 436.012 1235.94 435.207C1239.98 434.403 1244.18 434.816 1247.99 436.394C1251.8 437.973 1255.06 440.647 1257.35 444.077C1259.64 447.508 1260.87 451.541 1260.87 455.667" stroke="white" stroke-width="2"/>
<path d="M1267.75 486.957H1240.01C1231.71 486.957 1223.75 483.66 1217.88 477.792C1212.01 471.924 1208.72 463.965 1208.72 455.667C1208.72 447.368 1212.01 439.409 1217.88 433.541C1223.75 427.673 1231.71 424.377 1240.01 424.377C1245.45 424.365 1250.8 425.789 1255.52 428.507" stroke="white" stroke-width="2"/>
<path d="M1246.31 497.387H1240.01C1228.94 497.387 1218.33 492.991 1210.51 485.167C1202.68 477.343 1198.29 466.732 1198.29 455.667C1198.29 444.602 1202.68 433.99 1210.51 426.166C1218.33 418.342 1228.94 413.947 1240.01 413.947" stroke="white" stroke-width="2"/>
<path d="M1145 456.985C1145 469.772 1140.63 482.175 1132.61 492.132C1124.59 502.089 1113.4 509.002 1100.9 511.72C1088.41 514.438 1075.36 512.799 1063.93 507.074C1052.49 501.349 1043.36 491.884 1038.06 480.251C1032.75 468.619 1031.58 455.52 1034.74 443.131C1037.91 430.743 1045.22 419.811 1055.46 412.153C1065.7 404.496 1078.25 400.573 1091.03 401.037C1103.81 401.501 1116.05 406.324 1125.7 414.705" stroke="white" stroke-width="2"/>
<path d="M1052.44 445.715L1074.02 482.838L1096.98 448.421L1112.15 471.568L1137.23 434.421" stroke="white" stroke-width="2"/>
<path d="M932 500C962.928 500 988 474.928 988 444C988 413.072 962.928 388 932 388C901.072 388 876 413.072 876 444C876 474.928 901.072 500 932 500Z" stroke="white" stroke-width="2"/>
<path d="M913.333 425.333H950.153C950.197 425.332 950.241 425.344 950.278 425.368C950.314 425.393 950.343 425.428 950.358 425.469C950.374 425.511 950.376 425.556 950.364 425.598C950.352 425.641 950.328 425.679 950.293 425.707L913.707 462.293C913.672 462.321 913.647 462.359 913.636 462.401C913.624 462.444 913.626 462.489 913.642 462.53C913.657 462.572 913.685 462.607 913.722 462.632C913.759 462.656 913.802 462.668 913.847 462.667H950.667" stroke="white" stroke-width="2"/>
<path d="M932 425.333V406.667" stroke="white" stroke-width="2"/>
<path d="M932 462.667V481.333" stroke="white" stroke-width="2"/>
<path d="M781.333 480L762.387 426.963C762.06 426.063 761.463 425.284 760.678 424.734C759.894 424.184 758.958 423.889 758 423.889C757.042 423.889 756.107 424.184 755.322 424.734C754.537 425.284 753.94 426.063 753.613 426.963L734.667 480" stroke="white" stroke-width="2"/>
<path d="M737 452H755.667" stroke="white" stroke-width="2"/>
<path d="M758 508C788.928 508 814 482.928 814 452C814 421.072 788.928 396 758 396C727.072 396 702 421.072 702 452C702 482.928 727.072 508 758 508Z" stroke="white" stroke-width="2"/>
<path d="M575.693 446.503V458.987C575.687 460.09 575.245 461.147 574.462 461.925C573.679 462.703 572.62 463.14 571.517 463.14V463.14C570.415 463.14 569.359 462.702 568.58 461.923C567.801 461.144 567.363 460.088 567.363 458.987V454.833C567.363 454.833 554.903 456.233 554.903 471.447C554.459 475.852 555.459 480.283 557.753 484.071C560.047 487.859 563.51 490.799 567.62 492.447C574.098 494.897 579.757 499.117 583.953 504.627C583.953 504.627 613.073 492.4 613.073 471.447C613.073 446.503 587.407 448.697 587.407 423.777C583.693 426.267 580.671 429.657 578.623 433.631C576.575 437.605 575.567 442.034 575.693 446.503V446.503Z" stroke="white" stroke-width="2"/>
<path d="M584 488.06V471.447" stroke="white" stroke-width="2"/>
<path d="M570.98 471.447H596.997" stroke="white" stroke-width="2"/>
<path d="M584 519C614.928 519 640 493.928 640 463C640 432.072 614.928 407 584 407C553.072 407 528 432.072 528 463C528 493.928 553.072 519 584 519Z" stroke="white" stroke-width="2"/>
<path d="M439.29 437.093L431.123 441.667L426.597 433.523" stroke="white" stroke-width="2"/>
<path d="M390.687 464.86L398.877 460.333L403.403 468.43" stroke="white" stroke-width="2"/>
<path d="M422 453.754C425.564 455.112 428.71 457.38 431.123 460.334C432.936 463.097 433.827 466.365 433.667 469.667C433.667 474.618 431.7 479.365 428.199 482.866C424.699 486.367 419.951 488.334 415 488.334C410.049 488.334 405.301 486.367 401.801 482.866C398.3 479.365 396.333 474.618 396.333 469.667C396.334 466.385 397.212 463.162 398.877 460.334" stroke="white" stroke-width="2"/>
<path d="M408 448.247C404.436 446.889 401.29 444.62 398.877 441.667C397.063 438.903 396.173 435.635 396.333 432.333C396.333 427.383 398.3 422.635 401.801 419.134C405.301 415.633 410.049 413.667 415 413.667C419.951 413.667 424.699 415.633 428.199 419.134C431.7 422.635 433.667 427.383 433.667 432.333C433.666 435.616 432.788 438.838 431.123 441.667" stroke="white" stroke-width="2"/>
<path d="M415 474.333V427.667" stroke="white" stroke-width="2"/>
<path d="M415 507C445.928 507 471 481.928 471 451C471 420.072 445.928 395 415 395C384.072 395 359 420.072 359 451C359 481.928 384.072 507 415 507Z" stroke="white" stroke-width="2"/>
<path d="M228.333 445.667V464.333H209.667V445.667" stroke="white" stroke-width="2"/>
<path d="M284.333 464.333V445.667H265.667V464.333" stroke="white" stroke-width="2"/>
<path d="M277.333 455H272.667" stroke="white" stroke-width="2"/>
<path d="M256.333 464.333V445.667H255.167L247 455L238.833 445.667H237.667V464.333" stroke="white" stroke-width="2"/>
<path d="M247 511C277.928 511 303 485.928 303 455C303 424.072 277.928 399 247 399C216.072 399 191 424.072 191 455C191 485.928 216.072 511 247 511Z" stroke="white" stroke-width="2"/>
<path d="M69.3333 500V472H102C105.713 472 109.274 473.475 111.899 476.101C114.525 478.726 116 482.287 116 486C116 489.713 114.525 493.274 111.899 495.899C109.274 498.525 105.713 500 102 500H55.3333" stroke="white" stroke-width="2"/>
<path d="M69.3333 509.333V528H102C105.713 528 109.274 526.525 111.899 523.899C114.525 521.274 116 517.713 116 514C116 510.287 114.525 506.726 111.899 504.101C109.274 501.475 105.713 500 102 500" stroke="white" stroke-width="2"/>
<path d="M88 556C118.928 556 144 530.928 144 500C144 469.072 118.928 444 88 444C57.0721 444 32 469.072 32 500C32 530.928 57.0721 556 88 556Z" stroke="white" stroke-width="2"/>
<rect x="1109" y="273" width="110" height="110" rx="55" stroke="white" stroke-width="2"/>
<path d="M1158.4 319.6L1148.6 364.4" stroke="white" stroke-width="2"/>
<path d="M1141.33 333.432C1139.73 330.124 1138.86 326.505 1138.8 322.828C1138.74 319.151 1139.49 315.505 1140.99 312.147C1142.49 308.789 1144.7 305.799 1147.48 303.388C1150.26 300.977 1153.53 299.204 1157.06 298.191C1160.6 297.179 1164.31 296.953 1167.95 297.529C1171.58 298.105 1175.04 299.469 1178.09 301.525C1181.14 303.581 1183.7 306.279 1185.6 309.431C1187.49 312.583 1188.67 316.111 1189.06 319.768C1190.52 333.6 1183.21 342 1173.16 344.618C1162.68 347.418 1152.66 345.836 1150.06 357.736" stroke="white" stroke-width="2"/>
<path d="M1189.2 364.4C1192.29 364.4 1194.8 361.893 1194.8 358.8C1194.8 355.707 1192.29 353.2 1189.2 353.2C1186.11 353.2 1183.6 355.707 1183.6 358.8C1183.6 361.893 1186.11 364.4 1189.2 364.4Z" stroke="white" stroke-width="2"/>
<path d="M1339 388C1369.93 388 1395 362.928 1395 332C1395 301.072 1369.93 276 1339 276C1308.07 276 1283 301.072 1283 332C1283 362.928 1308.07 388 1339 388Z" stroke="white" stroke-width="2"/>
<path d="M1340.03 294.48L1319.73 366.347" stroke="white" stroke-width="2"/>
<path d="M1351.27 297.653L1346.19 315.62" stroke="white" stroke-width="2"/>
<path d="M1330.97 369.52L1336.04 351.553" stroke="white" stroke-width="2"/>
<path d="M1319.24 308.013L1353 317.533C1355.38 318.208 1357.4 319.801 1358.61 321.963C1359.82 324.124 1360.11 326.677 1359.44 329.06C1358.77 331.442 1357.17 333.459 1355.01 334.667C1352.85 335.875 1350.3 336.174 1347.91 335.5L1329.95 330.413" stroke="white" stroke-width="2"/>
<path d="M1347.84 335.5C1349.08 335.783 1350.24 336.314 1351.26 337.059C1352.28 337.805 1353.14 338.75 1353.78 339.838C1354.43 340.926 1354.84 342.133 1355.01 343.387C1355.17 344.64 1355.08 345.914 1354.74 347.131C1354.39 348.348 1353.81 349.482 1353.01 350.465C1352.22 351.449 1351.23 352.26 1350.11 352.85C1348.99 353.44 1347.77 353.797 1346.51 353.899C1345.25 354.001 1343.98 353.846 1342.78 353.443L1309.09 343.947" stroke="white" stroke-width="2"/>
<path d="M999 372C1029.93 372 1055 346.928 1055 316C1055 285.072 1029.93 260 999 260C968.072 260 943 285.072 943 316C943 346.928 968.072 372 999 372Z" stroke="white" stroke-width="2"/>
<path d="M967.757 269.52C943 316 999 334.667 999 334.667" stroke="white" stroke-width="2"/>
<path d="M1022.33 297.333C1017.67 278.667 1008.33 278.667 999 278.667C980.333 278.667 980.333 288 980.333 297.333C980.333 316 1017.67 316 1017.67 334.667C1017.67 344 1017.67 353.333 999 353.333C989.667 353.333 980.333 353.333 975.667 334.667" stroke="white" stroke-width="2"/>
<path d="M1030.24 362.48C1055 316 999 297.333 999 297.333" stroke="white" stroke-width="2"/>
<path d="M834 387C864.928 387 890 361.928 890 331C890 300.072 864.928 275 834 275C803.072 275 778 300.072 778 331C778 361.928 803.072 387 834 387Z" stroke="white" stroke-width="2"/>
<path d="M840.604 324.397L862 303" stroke="white" stroke-width="2"/>
<path d="M806 359L827.397 337.603" stroke="white" stroke-width="2"/>
<path d="M840.604 337.603L862 359" stroke="white" stroke-width="2"/>
<path d="M806 303L827.397 324.397" stroke="white" stroke-width="2"/>
<path d="M834 330.977L834.033 331.012L834 331.044L833.968 331.012L834 330.977Z" stroke="white" stroke-width="2"/>
<path d="M661 393C691.928 393 717 367.928 717 337C717 306.072 691.928 281 661 281C630.072 281 605 306.072 605 337C605 367.928 630.072 393 661 393Z" stroke="white" stroke-width="2"/>
<path d="M660.23 333.593C667.923 333.593 674.16 327.357 674.16 319.663C674.16 311.97 667.923 305.733 660.23 305.733C652.536 305.733 646.3 311.97 646.3 319.663C646.3 327.357 652.536 333.593 660.23 333.593Z" stroke="white" stroke-width="2"/>
<path d="M660.23 375.383C667.923 375.383 674.16 369.147 674.16 361.453C674.16 353.76 667.923 347.523 660.23 347.523C652.536 347.523 646.3 353.76 646.3 361.453C646.3 369.147 652.536 375.383 660.23 375.383Z" stroke="white" stroke-width="2"/>
<path d="M660.23 333.593V347.523" stroke="white" stroke-width="2"/>
<path d="M670.077 309.817L681.113 298.757" stroke="white" stroke-width="2"/>
<path d="M497 392C527.928 392 553 366.928 553 336C553 305.072 527.928 280 497 280C466.072 280 441 305.072 441 336C441 366.928 466.072 392 497 392Z" stroke="white" stroke-width="2"/>
<path d="M547.377 360.5H528.5V318.5L497 350L465.5 318.5V360.5H446.624" stroke="white" stroke-width="2"/>
<path d="M319.667 314.667L338.333 333.333" stroke="white" stroke-width="2"/>
<path d="M347.667 286.667L329 305.333L347.667 324" stroke="white" stroke-width="2"/>
<path d="M310.333 361.333L329 342.667L310.333 324" stroke="white" stroke-width="2"/>
<path d="M329 380C359.928 380 385 354.928 385 324C385 293.072 359.928 268 329 268C298.072 268 273 293.072 273 324C273 354.928 298.072 380 329 380Z" stroke="white" stroke-width="2"/>
<path d="M141 423C168.614 423 191 400.614 191 373C191 345.386 168.614 323 141 323C113.386 323 91 345.386 91 373C91 400.614 113.386 423 141 423Z" stroke="white" stroke-width="2"/>
<path d="M136 408L121 393L136 378" stroke="white" stroke-width="2"/>
<path d="M201 353C201 353 181 393 121 393" stroke="white" stroke-width="2"/>
<path d="M146 338L161 353L146 368" stroke="white" stroke-width="2"/>
<path d="M81 393C81 393 101 353 161 353" stroke="white" stroke-width="2"/>
<path d="M1357.22 205.447C1350.22 206.8 1344.81 210.743 1345.28 218.653C1345.74 226.563 1354.33 231.65 1362.92 231.207C1376.92 230.437 1387.16 218.793 1388.33 205.19" stroke="white" stroke-width="2"/>
<path d="M1374.33 205.05C1377.94 205.52 1381.58 205.676 1385.22 205.517C1396.47 204.887 1403.28 199.123 1402.79 190.49C1402.3 181.857 1393.25 176.303 1384.13 176.817C1369.36 177.633 1358.46 190.607 1357.25 205.447C1359.26 204.985 1361.3 204.696 1363.36 204.583C1367 204.424 1370.64 204.58 1374.26 205.05H1374.33Z" stroke="white" stroke-width="2"/>
<path d="M1374 260C1404.93 260 1430 234.928 1430 204C1430 173.072 1404.93 148 1374 148C1343.07 148 1318 173.072 1318 204C1318 234.928 1343.07 260 1374 260Z" stroke="white" stroke-width="2"/>
<path d="M1085.67 176.667L1104.33 195.333L1085.67 214H1029.67L1048.33 195.333L1029.67 176.667L1048.33 158H1104.33L1085.67 176.667Z" stroke="white" stroke-width="2"/>
<path d="M1029.67 176.667H1085.67" stroke="white" stroke-width="2"/>
<path d="M1048.33 195.333H1104.33" stroke="white" stroke-width="2"/>
<path d="M1067 242C1097.93 242 1123 216.928 1123 186C1123 155.072 1097.93 130 1067 130C1036.07 130 1011 155.072 1011 186C1011 216.928 1036.07 242 1067 242Z" stroke="white" stroke-width="2"/>
<path d="M895 260C925.928 260 951 234.928 951 204C951 173.072 925.928 148 895 148C864.072 148 839 173.072 839 204C839 234.928 864.072 260 895 260Z" stroke="white" stroke-width="2"/>
<path d="M855.17 218.513C851.928 209.636 851.742 199.93 854.641 190.935C857.541 181.939 863.359 174.169 871.175 168.855C878.991 163.542 888.357 160.988 897.788 161.601C907.219 162.213 916.176 165.955 923.239 172.235C930.302 178.515 935.068 186.972 936.78 196.267C938.491 205.561 937.052 215.162 932.69 223.546C928.328 231.93 921.292 238.618 912.698 242.55C904.103 246.482 894.443 247.434 885.247 245.253" stroke="white" stroke-width="2"/>
<path d="M923.583 210.533C922.025 217.248 918.148 223.197 912.635 227.334C907.122 231.471 900.327 233.531 893.445 233.152C886.562 232.772 880.035 229.976 875.011 225.258C869.987 220.539 866.788 214.199 865.978 207.354C865.168 200.509 866.798 193.598 870.582 187.837C874.366 182.076 880.061 177.834 886.664 175.858C893.268 173.882 900.357 174.299 906.683 177.036C913.009 179.772 918.168 184.652 921.25 190.817" stroke="white" stroke-width="2"/>
<path d="M906.993 214.29C905.932 215.988 904.352 217.3 902.488 218.031C900.624 218.763 898.574 218.875 896.641 218.352C894.708 217.829 892.994 216.698 891.754 215.126C890.513 213.554 889.81 211.625 889.75 209.623V189.113" stroke="white" stroke-width="2"/>
<path d="M881.513 197.397H906.993" stroke="white" stroke-width="2"/>
<path d="M737 268C767.928 268 793 242.928 793 212C793 181.072 767.928 156 737 156C706.072 156 681 181.072 681 212C681 242.928 706.072 268 737 268Z" stroke="white" stroke-width="2"/>
<path d="M723.653 202.667L709 238.11C739.847 237.503 755.387 233 764.603 216.503C764.603 216.503 776.993 197.3 762.433 190.51C758.606 188.85 754.494 187.946 750.323 187.85H714.017" stroke="white" stroke-width="2"/>
<path d="M719.36 237.713L715.463 247.77" stroke="white" stroke-width="2"/>
<path d="M742.973 176.977L738.75 187.85" stroke="white" stroke-width="2"/>
<path d="M731.797 236.477L727.387 247.77" stroke="white" stroke-width="2"/>
<path d="M754.92 176.977L750.697 187.85" stroke="white" stroke-width="2"/>
<path d="M562 271C592.928 271 618 245.928 618 215C618 184.072 592.928 159 562 159C531.072 159 506 184.072 506 215C506 245.928 531.072 271 562 271Z" stroke="white" stroke-width="2"/>
<path d="M565.64 178.507L546.693 244.61H581.11" stroke="white" stroke-width="2"/>
<path d="M569.84 213.67L537.547 223.283" stroke="white" stroke-width="2"/>
<path d="M405 257C435.928 257 461 231.928 461 201C461 170.072 435.928 145 405 145C374.072 145 349 170.072 349 201C349 231.928 374.072 257 405 257Z" stroke="white" stroke-width="2"/>
<path d="M386.333 173V229" stroke="white" stroke-width="2"/>
<path d="M423.667 173V229" stroke="white" stroke-width="2"/>
<path d="M386.333 194H423.667" stroke="white" stroke-width="2"/>
<path d="M386.333 208H423.667" stroke="white" stroke-width="2"/>
<path d="M224 279C254.928 279 280 253.928 280 223C280 192.072 254.928 167 224 167C193.072 167 168 192.072 168 223C168 253.928 193.072 279 224 279Z" stroke="white" stroke-width="2"/>
<path d="M224 269.667C249.773 269.667 270.667 248.773 270.667 223C270.667 197.227 249.773 176.333 224 176.333C198.227 176.333 177.333 197.227 177.333 223C177.333 248.773 198.227 269.667 224 269.667Z" stroke="white" stroke-width="2"/>
<path d="M214.667 195V251" stroke="white" stroke-width="2"/>
<path d="M226.333 195V204.333" stroke="white" stroke-width="2"/>
<path d="M226.333 251V241.667" stroke="white" stroke-width="2"/>
<path d="M205.333 241.667H233.333" stroke="white" stroke-width="2"/>
<path d="M205.333 204.333H233.333" stroke="white" stroke-width="2"/>
<path d="M214.667 223H233.333" stroke="white" stroke-width="2"/>
<path d="M233.333 204.333C235.809 204.333 238.183 205.317 239.933 207.067C241.683 208.817 242.667 211.191 242.667 213.667C242.667 216.142 241.683 218.516 239.933 220.266C238.183 222.017 235.809 223 233.333 223" stroke="white" stroke-width="2"/>
<path d="M233.333 223C235.809 223 238.183 223.983 239.933 225.734C241.683 227.484 242.667 229.858 242.667 232.333C242.667 234.809 241.683 237.183 239.933 238.933C238.183 240.683 235.809 241.667 233.333 241.667" stroke="white" stroke-width="2"/>
<path d="M81 304C111.928 304 137 278.928 137 248C137 217.072 111.928 192 81 192C50.0721 192 25 217.072 25 248C25 278.928 50.0721 304 81 304Z" stroke="white" stroke-width="2"/>
<path d="M74 248C70.287 248 66.726 246.525 64.1005 243.899C61.475 241.274 60 237.713 60 234C60 230.287 61.475 226.726 64.1005 224.101C66.726 221.475 70.287 220 74 220" stroke="white" stroke-width="2"/>
<path d="M88 248C91.713 248 95.274 249.475 97.8995 252.101C100.525 254.726 102 258.287 102 262C102 265.713 100.525 269.274 97.8995 271.899C95.274 274.525 91.713 276 88 276" stroke="white" stroke-width="2"/>
<path d="M74 248H88" stroke="white" stroke-width="2"/>
<path d="M99.6667 220H74" stroke="white" stroke-width="2"/>
<path d="M62.3333 276H87.9999" stroke="white" stroke-width="2"/>
<path d="M87.23 238.667L93.4367 229.333" stroke="white" stroke-width="2"/>
<path d="M68.5635 266.667L74.7701 257.333" stroke="white" stroke-width="2"/>
<path d="M1355 130C1385.93 130 1411 104.928 1411 74C1411 43.0721 1385.93 18 1355 18C1324.07 18 1299 43.0721 1299 74C1299 104.928 1324.07 130 1355 130Z" stroke="white" stroke-width="2"/>
<path d="M1341.75 77.7333L1346.41 83.6133C1347.44 84.8968 1348.73 85.9332 1350.21 86.6456C1351.69 87.3579 1353.31 87.7278 1354.95 87.7278C1356.59 87.7278 1358.21 87.3579 1359.69 86.6456C1361.17 85.9332 1362.47 84.8968 1363.49 83.6133L1380.22 62.6133C1381.51 61.004 1382.32 59.0639 1382.55 57.0161C1382.78 54.9684 1382.44 52.8964 1381.54 51.0386C1380.65 49.1808 1379.25 47.6128 1377.51 46.515C1375.76 45.4172 1373.74 44.8343 1371.68 44.8333H1338.27C1336.21 44.8343 1334.19 45.4172 1332.45 46.515C1330.7 47.6128 1329.3 49.1808 1328.41 51.0386C1327.52 52.8964 1327.17 54.9684 1327.4 57.0161C1327.64 59.0639 1328.44 61.004 1329.73 62.6133L1335.77 70.1733" stroke="white" stroke-width="2"/>
<path d="M1368.25 70.2667L1363.59 64.3867C1362.56 63.1032 1361.26 62.0668 1359.79 61.3544C1358.31 60.6421 1356.69 60.2722 1355.05 60.2722C1353.41 60.2722 1351.79 60.6421 1350.31 61.3544C1348.83 62.0668 1347.53 63.1032 1346.51 64.3867L1329.78 85.3867C1328.49 86.996 1327.68 88.9362 1327.45 90.9839C1327.22 93.0316 1327.56 95.1036 1328.46 96.9614C1329.35 98.8192 1330.75 100.387 1332.49 101.485C1334.24 102.583 1336.26 103.166 1338.32 103.167H1371.73C1373.79 103.166 1375.81 102.583 1377.55 101.485C1379.3 100.387 1380.7 98.8192 1381.59 96.9614C1382.48 95.1036 1382.83 93.0316 1382.6 90.9839C1382.36 88.9362 1381.56 86.996 1380.27 85.3867L1374.23 77.7334" stroke="white" stroke-width="2"/>
<path d="M1183.99 52.3966L1164.04 87C1163.63 87.7087 1163.04 88.2973 1162.33 88.7069C1161.63 89.1164 1160.82 89.3325 1160 89.3333H1146C1145.18 89.3325 1144.38 89.1162 1143.67 88.7063C1142.96 88.2964 1142.37 87.7072 1141.97 86.9979C1141.56 86.2886 1141.34 85.4842 1141.34 84.6654C1141.34 83.8467 1141.56 83.0424 1141.97 82.3333L1168.96 35.6666C1169.37 34.9595 1169.96 34.3724 1170.67 33.9644C1171.38 33.5563 1172.18 33.3416 1173 33.3416C1173.82 33.3416 1174.62 33.5563 1175.33 33.9644C1176.04 34.3724 1176.63 34.9595 1177.04 35.6666L1184.04 47.7066C1184.44 48.4229 1184.65 49.2342 1184.65 50.0579C1184.64 50.8817 1184.41 51.6886 1183.99 52.3966V52.3966Z" stroke="white" stroke-width="2"/>
<path d="M1199.93 89.3333H1187C1186.18 89.3325 1185.38 89.1162 1184.67 88.7063C1183.96 88.2964 1183.37 87.7072 1182.96 86.9979C1182.55 86.2886 1182.34 85.4842 1182.34 84.6655C1182.34 83.8467 1182.55 83.0424 1182.96 82.3333L1189.33 71.0633C1189.74 70.3561 1190.33 69.7691 1191.04 69.3611C1191.75 68.953 1192.55 68.7383 1193.37 68.7383C1194.19 68.7383 1194.99 68.953 1195.7 69.3611C1196.41 69.7691 1197 70.3561 1197.41 71.0633L1203.96 82.3333C1204.37 83.0424 1204.59 83.8467 1204.59 84.6655C1204.59 85.4842 1204.37 86.2886 1203.96 86.9979C1203.56 87.7072 1202.97 88.2964 1202.26 88.7063C1201.55 89.1162 1200.75 89.3325 1199.93 89.3333V89.3333Z" stroke="white" stroke-width="2"/>
<path d="M1173 122C1203.93 122 1229 96.9279 1229 66C1229 35.0721 1203.93 10 1173 10C1142.07 10 1117 35.0721 1117 66C1117 96.9279 1142.07 122 1173 122Z" stroke="white" stroke-width="2"/>
<path d="M971 135C1001.93 135 1027 109.928 1027 79C1027 48.0721 1001.93 23 971 23C940.072 23 915 48.0721 915 79C915 109.928 940.072 135 971 135Z" stroke="white" stroke-width="2"/>
<path d="M989.667 88.3333L999 79V107H943L999 51H943V79L952.333 69.6667" stroke="white" stroke-width="2"/>
<path d="M810.253 58.5134C824.533 65.84 828.313 72.7934 828.313 80.7967C828.313 88.8 822.713 95.5667 811.98 95.5667C801.247 95.5667 797.98 98.5534 796.347 102.567C795.25 105.133 794.013 111.457 786.57 111.457C780.013 111.457 769.91 101.4 769.91 83.76C769.91 66.12 771.893 57.65 778.87 54.71C792.59 48.97 810.253 58.5134 810.253 58.5134Z" stroke="white" stroke-width="2"/>
<path d="M797 135C827.928 135 853 109.928 853 79C853 48.0721 827.928 23 797 23C766.072 23 741 48.0721 741 79C741 109.928 766.072 135 797 135Z" stroke="white" stroke-width="2"/>
<path d="M623 138C653.928 138 679 112.928 679 82C679 51.0721 653.928 26 623 26C592.072 26 567 51.0721 567 82C567 112.928 592.072 138 623 138Z" stroke="white" stroke-width="2"/>
<path d="M620.667 82H595" stroke="white" stroke-width="2"/>
<path d="M603.913 103H622.743C627.004 103.317 631.278 102.572 635.18 100.83C641.806 97.7733 645.773 91.2399 647.36 82.6766C649.693 69.9599 646.8 60.9299 630.21 60.9299" stroke="white" stroke-width="2"/>
<path d="M630.21 60.9533H611.31" stroke="white" stroke-width="2"/>
<path d="M451 130C481.928 130 507 104.928 507 74C507 43.0721 481.928 18 451 18C420.072 18 395 43.0721 395 74C395 104.928 420.072 130 451 130Z" stroke="white" stroke-width="2"/>
<path d="M479 102H451C451 102 436.79 102.7 428.087 99.9934C416.537 96.4467 413.667 84.08 413.667 74C413.667 63.92 416.373 52.16 427.667 48.17C435.833 45.2767 451 46 451 46H479" stroke="white" stroke-width="2"/>
<path d="M479 74H413.667" stroke="white" stroke-width="2"/>
<path d="M246.665 90.1416L263.182 102.646L232.34 132.669L300.067 103.695L286.652 94.4806L311.382 81.8367L294.818 69.3327L325.661 39.3558L258.003 68.2596L271.395 77.5443L246.665 90.1416Z" stroke="white" stroke-width="2"/>
<path d="M234.859 120.444C226.73 110.034 222.544 97.0852 223.039 83.8868C223.535 70.6884 228.681 58.0901 237.568 48.3188C246.455 38.5476 258.511 32.2324 271.604 30.4897C284.698 28.7469 297.985 31.6887 309.119 38.7952" stroke="white" stroke-width="2"/>
<path d="M323.141 51.5558C331.269 61.9661 335.456 74.9148 334.96 88.1132C334.465 101.312 329.318 113.91 320.431 123.681C311.544 133.452 299.489 139.768 286.396 141.51C273.302 143.253 260.014 140.311 248.881 133.205" stroke="white" stroke-width="2"/>
<path d="M88 138C118.928 138 144 112.928 144 82C144 51.0721 118.928 26 88 26C57.0721 26 32 51.0721 32 82C32 112.928 57.0721 138 88 138Z" stroke="white" stroke-width="2"/>
<path d="M69.3333 82H106.667" stroke="white" stroke-width="2"/>
<path d="M120.667 110C113.241 110 106.119 107.05 100.868 101.799C95.6167 96.548 92.6667 89.4261 92.6667 82C92.6667 74.5739 95.6167 67.452 100.868 62.201C106.119 56.95 113.241 54 120.667 54" stroke="white" stroke-width="2"/>
<path d="M55.3333 54C62.7593 54 69.8812 56.95 75.1322 62.201C80.3833 67.452 83.3333 74.5739 83.3333 82C83.3333 89.4261 80.3833 96.548 75.1322 101.799C69.8812 107.05 62.7593 110 55.3333 110" stroke="white" stroke-width="2"/>
</g>
</g>
<defs>
<clipPath id="clip0_213_135">
<rect width="1440" height="800" fill="white"/>
</clipPath>
</defs>
</svg>
