<svg width="1440" height="800" viewBox="0 0 1440 800" fill="none" xmlns="http://www.w3.org/2000/svg">
<g clip-path="url(#clip0_1542_70686)">
<rect width="1440" height="800" fill="white"/>
<path d="M0 0H1440V800H720H0V0Z" fill="#111111"/>
<g opacity="0.24">
<path d="M1013 323L1049 335V287L1013 275L977 287V335L1013 347V299L1049 287" stroke="white" stroke-width="2"/>
<rect x="954" y="252" width="118" height="118" rx="59" stroke="white" stroke-width="2"/>
</g>
<g opacity="0.36">
<path d="M1294.78 681.333C1294.78 674.46 1289.21 668.889 1282.33 668.889C1275.46 668.889 1269.89 674.46 1269.89 681.333V718.667C1269.89 725.54 1275.46 731.111 1282.33 731.111C1289.21 731.111 1294.78 725.54 1294.78 718.667V681.333Z" stroke="white" stroke-width="2"/>
<path d="M1332.11 681.333C1332.11 674.46 1326.54 668.889 1319.67 668.889C1312.79 668.889 1307.22 674.46 1307.22 681.333V718.667C1307.22 725.54 1312.79 731.111 1319.67 731.111C1326.54 731.111 1332.11 725.54 1332.11 718.667V681.333Z" stroke="white" stroke-width="2"/>
<path d="M1269.89 712.444C1276.11 700 1288.56 700 1295.21 700H1306.79C1313.44 700 1325.89 700 1332.11 687.556" stroke="white" stroke-width="2"/>
<rect x="1246" y="645" width="110" height="110" rx="55" stroke="white" stroke-width="2"/>
</g>
<g opacity="0.36">
<path d="M772.59 680C768.612 680 764.796 681.58 761.983 684.393C759.17 687.206 757.59 691.022 757.59 695C757.696 697.843 758.505 700.616 759.945 703.07C760.358 703.743 760.631 704.493 760.746 705.274C760.862 706.055 760.818 706.852 760.618 707.615C760.418 708.379 760.065 709.095 759.58 709.718C759.096 710.342 758.49 710.862 757.8 711.245C756.424 712.022 754.796 712.225 753.271 711.81C751.746 711.394 750.446 710.393 749.655 709.025C748.252 706.543 746.251 704.449 743.835 702.935C741.554 701.63 738.97 700.947 736.342 700.955C733.714 700.963 731.134 701.661 728.861 702.979C726.587 704.298 724.7 706.191 723.389 708.468C722.077 710.745 721.386 713.327 721.386 715.955C721.386 718.583 722.077 721.165 723.389 723.442C724.7 725.719 726.587 727.612 728.861 728.93C731.134 730.249 733.714 730.947 736.342 730.955C738.97 730.963 741.554 730.28 743.835 728.975C746.238 727.483 748.237 725.423 749.655 722.975C750.031 722.281 750.543 721.671 751.161 721.18C751.779 720.689 752.49 720.329 753.251 720.12C754.012 719.911 754.807 719.858 755.589 719.965C756.37 720.072 757.123 720.335 757.8 720.74C759.164 721.544 760.154 722.854 760.556 724.386C760.958 725.917 760.738 727.545 759.945 728.915C758.515 731.377 757.716 734.154 757.62 737C757.625 739.632 758.323 742.216 759.643 744.493C760.962 746.77 762.858 748.659 765.139 749.972C767.42 751.284 770.007 751.974 772.638 751.97C775.27 751.967 777.855 751.271 780.133 749.953C782.411 748.635 784.302 746.741 785.616 744.461C786.93 742.181 787.621 739.595 787.62 736.963C787.619 734.331 786.925 731.746 785.608 729.467C784.292 727.188 782.399 725.296 780.12 723.98C777.587 722.661 774.77 721.981 771.915 722C771.121 722.023 770.33 721.883 769.592 721.59C768.854 721.296 768.183 720.855 767.622 720.293C767.06 719.732 766.619 719.061 766.325 718.323C766.032 717.584 765.892 716.794 765.915 716C765.915 714.409 766.547 712.883 767.672 711.757C768.798 710.632 770.324 710 771.915 710C774.792 710.024 777.631 709.339 780.18 708.005C782.478 706.693 784.388 704.798 785.716 702.51C787.045 700.222 787.745 697.623 787.745 694.977C787.745 692.332 787.045 689.733 785.716 687.445C784.388 685.157 782.478 683.261 780.18 681.95C777.896 680.643 775.312 679.95 772.68 679.94L772.59 680Z" stroke="white" stroke-width="2"/>
<rect x="700" y="657" width="118" height="118" rx="59" stroke="white" stroke-width="2"/>
</g>
<g opacity="0.24">
<path d="M431.977 686.658H508.023L470 622.342L431.977 686.658V686.658Z" stroke="white" stroke-width="2"/>
<path d="M470 731C507.555 731 538 700.555 538 663C538 625.445 507.555 595 470 595C432.445 595 402 625.445 402 663C402 700.555 432.445 731 470 731Z" stroke="white" stroke-width="2"/>
<path d="M470 663L527.658 626.96" stroke="white" stroke-width="2"/>
<path d="M407.78 635.545L470 663" stroke="white" stroke-width="2"/>
<path d="M538 663H470L402.68 653.395" stroke="white" stroke-width="2"/>
</g>
<g opacity="0.36">
<rect x="1154" y="415" width="134" height="134" rx="67" stroke="white" stroke-width="2"/>
<path d="M1221 522.8L1193.8 482L1221 441.2L1248.2 482L1221 522.8Z" stroke="white" stroke-width="2"/>
<path d="M1193.8 482L1221 495.6L1248.2 482" stroke="white" stroke-width="2"/>
<path d="M1221 441.2V522.8" stroke="white" stroke-width="2"/>
</g>
<g opacity="0.32">
<path d="M189 770C219.928 770 245 744.928 245 714C245 683.072 219.928 658 189 658C158.072 658 133 683.072 133 714C133 744.928 158.072 770 189 770Z" stroke="white" stroke-width="2"/>
<path d="M228.083 739.527H191.006C186.881 739.527 182.848 738.303 179.417 736.011C175.987 733.719 173.313 730.461 171.734 726.649C170.156 722.838 169.742 718.643 170.547 714.597C171.352 710.551 173.339 706.834 176.256 703.916C179.174 700.999 182.89 699.012 186.937 698.207C190.983 697.403 195.178 697.816 198.989 699.394C202.801 700.973 206.059 703.647 208.351 707.077C210.643 710.508 211.866 714.541 211.866 718.667" stroke="white" stroke-width="2"/>
<path d="M218.75 749.957H191.007C182.708 749.957 174.749 746.66 168.881 740.792C163.013 734.924 159.717 726.965 159.717 718.667C159.717 710.368 163.013 702.409 168.881 696.541C174.749 690.673 182.708 687.377 191.007 687.377C196.452 687.365 201.804 688.789 206.523 691.507" stroke="white" stroke-width="2"/>
<path d="M197.307 760.387H191.007C179.942 760.387 169.33 755.991 161.506 748.167C153.682 740.343 149.287 729.732 149.287 718.667C149.287 707.602 153.682 696.99 161.506 689.166C169.33 681.342 179.942 676.947 191.007 676.947" stroke="white" stroke-width="2"/>
</g>
<g opacity="0.28">
<path d="M630 554C660.928 554 686 528.928 686 498C686 467.072 660.928 442 630 442C599.072 442 574 467.072 574 498C574 528.928 599.072 554 630 554Z" stroke="white" stroke-width="2"/>
<path d="M611.333 479.333H648.153C648.197 479.332 648.241 479.344 648.278 479.368C648.315 479.393 648.343 479.428 648.358 479.469C648.374 479.511 648.376 479.556 648.364 479.598C648.352 479.641 648.328 479.679 648.293 479.707L611.707 516.293C611.672 516.321 611.648 516.359 611.636 516.401C611.624 516.444 611.626 516.489 611.642 516.53C611.657 516.572 611.685 516.607 611.722 516.632C611.759 516.656 611.803 516.668 611.847 516.667H648.667" stroke="white" stroke-width="2"/>
<path d="M630 479.333V460.667" stroke="white" stroke-width="2"/>
<path d="M630 516.667V535.333" stroke="white" stroke-width="2"/>
</g>
<g opacity="0.28">
<path d="M634.693 75.5032V87.9865C634.687 89.0902 634.245 90.1466 633.462 90.9248C632.679 91.703 631.62 92.1399 630.517 92.1399V92.1399C629.415 92.1399 628.359 91.7023 627.58 90.9234C626.801 90.1445 626.363 89.0881 626.363 87.9865V83.8332C626.363 83.8332 613.903 85.2332 613.903 100.447C613.459 104.852 614.459 109.283 616.753 113.071C619.047 116.859 622.51 119.799 626.62 121.447C633.098 123.897 638.757 128.117 642.953 133.627C642.953 133.627 672.073 121.4 672.073 100.447C672.073 75.5032 646.407 77.6965 646.407 52.7765C642.693 55.2665 639.671 58.6569 637.623 62.6312C635.575 66.6054 634.567 71.0339 634.693 75.5032V75.5032Z" stroke="white" stroke-width="2"/>
<path d="M643 117.06V100.447" stroke="white" stroke-width="2"/>
<path d="M629.98 100.447H655.997" stroke="white" stroke-width="2"/>
<path d="M643 148C673.928 148 699 122.928 699 92C699 61.0721 673.928 36 643 36C612.072 36 587 61.0721 587 92C587 122.928 612.072 148 643 148Z" stroke="white" stroke-width="2"/>
</g>
<g opacity="0.28">
<rect x="982" y="589" width="110" height="110" rx="55" stroke="white" stroke-width="2"/>
<path d="M1031.4 635.6L1021.6 680.4" stroke="white" stroke-width="2"/>
<path d="M1014.33 649.432C1012.73 646.124 1011.86 642.505 1011.8 638.828C1011.74 635.151 1012.49 631.505 1013.99 628.147C1015.49 624.789 1017.7 621.799 1020.48 619.388C1023.26 616.977 1026.53 615.204 1030.06 614.191C1033.6 613.179 1037.31 612.953 1040.95 613.529C1044.58 614.105 1048.04 615.469 1051.09 617.525C1054.14 619.581 1056.7 622.279 1058.6 625.431C1060.49 628.583 1061.67 632.111 1062.06 635.768C1063.52 649.6 1056.21 658 1046.16 660.618C1035.68 663.418 1025.66 661.836 1023.06 673.736" stroke="white" stroke-width="2"/>
<path d="M1062.2 680.4C1065.29 680.4 1067.8 677.893 1067.8 674.8C1067.8 671.707 1065.29 669.2 1062.2 669.2C1059.11 669.2 1056.6 671.707 1056.6 674.8C1056.6 677.893 1059.11 680.4 1062.2 680.4Z" stroke="white" stroke-width="2"/>
</g>
<g opacity="0.4">
<path d="M856 535C893.555 535 924 504.555 924 467C924 429.445 893.555 399 856 399C818.445 399 788 429.445 788 467C788 504.555 818.445 535 856 535Z" stroke="white" stroke-width="2"/>
<path d="M857.247 421.44L832.597 508.707" stroke="white" stroke-width="2"/>
<path d="M870.903 425.293L864.727 447.11" stroke="white" stroke-width="2"/>
<path d="M846.253 512.56L852.402 490.743" stroke="white" stroke-width="2"/>
<path d="M832.002 437.873L873 449.433C875.893 450.252 878.342 452.187 879.809 454.812C881.276 457.437 881.639 460.537 880.82 463.43C880.001 466.323 878.066 468.772 875.441 470.239C872.817 471.705 869.717 472.069 866.823 471.25L845.007 465.073" stroke="white" stroke-width="2"/>
<path d="M866.738 471.25C868.234 471.594 869.645 472.238 870.885 473.143C872.125 474.049 873.168 475.197 873.95 476.518C874.733 477.838 875.239 479.304 875.438 480.827C875.637 482.349 875.525 483.896 875.108 485.374C874.691 486.851 873.978 488.229 873.013 489.422C872.047 490.616 870.85 491.601 869.492 492.318C868.134 493.035 866.645 493.468 865.115 493.592C863.584 493.716 862.045 493.527 860.59 493.038L819.676 481.507" stroke="white" stroke-width="2"/>
</g>
<g opacity="0.32">
<path d="M517 378C554.555 378 585 347.555 585 310C585 272.445 554.555 242 517 242C479.445 242 449 272.445 449 310C449 347.555 479.445 378 517 378Z" stroke="white" stroke-width="2"/>
<path d="M479.062 253.56C449 310 517 332.667 517 332.667" stroke="white" stroke-width="2"/>
<path d="M545.333 287.333C539.667 264.667 528.333 264.667 517 264.667C494.333 264.667 494.333 276 494.333 287.333C494.333 310 539.667 310 539.667 332.667C539.667 344 539.667 355.333 517 355.333C505.667 355.333 494.333 355.333 488.667 332.667" stroke="white" stroke-width="2"/>
<path d="M554.938 366.44C585 310 517 287.333 517 287.333" stroke="white" stroke-width="2"/>
</g>
<g opacity="0.28">
<path d="M295 526C325.928 526 351 500.928 351 470C351 439.072 325.928 414 295 414C264.072 414 239 439.072 239 470C239 500.928 264.072 526 295 526Z" stroke="white" stroke-width="2"/>
<path d="M345.377 494.5H326.5V452.5L295 484L263.5 452.5V494.5H244.623" stroke="white" stroke-width="2"/>
</g>
<path d="M1265.22 262.447C1258.22 263.8 1252.81 267.743 1253.28 275.653C1253.74 283.563 1262.33 288.65 1270.92 288.207C1284.92 287.437 1295.16 275.793 1296.33 262.19" stroke="white" stroke-opacity="0.24" stroke-width="2"/>
<path d="M1282.33 262.05C1285.94 262.52 1289.58 262.676 1293.22 262.517C1304.47 261.887 1311.28 256.123 1310.79 247.49C1310.3 238.857 1301.25 233.303 1292.13 233.817C1277.36 234.633 1266.46 247.607 1265.25 262.447C1267.26 261.985 1269.3 261.696 1271.36 261.583C1275 261.424 1278.64 261.58 1282.26 262.05H1282.33Z" stroke="white" stroke-opacity="0.24" stroke-width="2"/>
<path d="M1282 317C1312.93 317 1338 291.928 1338 261C1338 230.072 1312.93 205 1282 205C1251.07 205 1226 230.072 1226 261C1226 291.928 1251.07 317 1282 317Z" stroke="white" stroke-opacity="0.24" stroke-width="2"/>
<g opacity="0.32">
<path d="M795.667 232.667L814.333 251.333L795.667 270H739.667L758.333 251.333L739.667 232.667L758.333 214H814.333L795.667 232.667Z" stroke="white" stroke-width="2"/>
<path d="M739.667 232.667H795.667" stroke="white" stroke-width="2"/>
<path d="M758.333 251.333H814.333" stroke="white" stroke-width="2"/>
<path d="M777 298C807.928 298 833 272.928 833 242C833 211.072 807.928 186 777 186C746.072 186 721 211.072 721 242C721 272.928 746.072 298 777 298Z" stroke="white" stroke-width="2"/>
</g>
<g opacity="0.4">
<path d="M127 387C161.242 387 189 359.242 189 325C189 290.758 161.242 263 127 263C92.7583 263 65 290.758 65 325C65 359.242 92.7583 387 127 387Z" stroke="white" stroke-width="2"/>
<path d="M82.9024 341.068C79.3133 331.239 79.1074 320.494 82.3173 310.535C85.5272 300.576 91.9693 291.973 100.622 286.09C109.276 280.207 119.645 277.38 130.086 278.058C140.528 278.736 150.445 282.879 158.265 289.832C166.085 296.784 171.361 306.148 173.256 316.438C175.151 326.729 173.558 337.358 168.728 346.64C163.898 355.922 156.109 363.327 146.594 367.68C137.079 372.034 126.383 373.087 116.202 370.673" stroke="white" stroke-width="2"/>
<path d="M158.646 332.233C156.921 339.667 152.628 346.254 146.525 350.834C140.421 355.415 132.898 357.695 125.278 357.275C117.658 356.854 110.431 353.76 104.869 348.535C99.3065 343.311 95.7652 336.292 94.8684 328.714C93.9715 321.135 95.7767 313.484 99.966 307.105C104.155 300.727 110.46 296.03 117.771 293.843C125.082 291.656 132.93 292.117 139.935 295.146C146.939 298.176 152.65 303.579 156.063 310.404" stroke="white" stroke-width="2"/>
<path d="M140.278 336.393C139.103 338.273 137.354 339.725 135.29 340.534C133.226 341.344 130.957 341.469 128.817 340.89C126.677 340.31 124.779 339.058 123.406 337.318C122.032 335.578 121.254 333.442 121.188 331.226V308.518" stroke="white" stroke-width="2"/>
<path d="M112.068 317.689H140.278" stroke="white" stroke-width="2"/>
</g>
<g opacity="0.32">
<path d="M357 212C391.242 212 419 184.242 419 150C419 115.758 391.242 88 357 88C322.758 88 295 115.758 295 150C295 184.242 322.758 212 357 212Z" stroke="white" stroke-width="2"/>
<path d="M361.03 109.597L340.053 182.782H378.157" stroke="white" stroke-width="2"/>
<path d="M365.68 148.527L329.927 159.171" stroke="white" stroke-width="2"/>
</g>
<path d="M1355 130C1385.93 130 1411 104.928 1411 74C1411 43.0721 1385.93 18 1355 18C1324.07 18 1299 43.0721 1299 74C1299 104.928 1324.07 130 1355 130Z" stroke="white" stroke-opacity="0.36" stroke-width="2"/>
<path d="M1341.75 77.7333L1346.41 83.6133C1347.44 84.8968 1348.73 85.9332 1350.21 86.6456C1351.69 87.3579 1353.31 87.7278 1354.95 87.7278C1356.59 87.7278 1358.21 87.3579 1359.69 86.6456C1361.17 85.9332 1362.47 84.8968 1363.49 83.6133L1380.22 62.6133C1381.51 61.004 1382.32 59.0639 1382.55 57.0162C1382.78 54.9684 1382.44 52.8964 1381.54 51.0386C1380.65 49.1808 1379.25 47.6128 1377.51 46.515C1375.76 45.4172 1373.74 44.8343 1371.68 44.8333H1338.27C1336.21 44.8343 1334.19 45.4172 1332.45 46.515C1330.7 47.6128 1329.3 49.1808 1328.41 51.0386C1327.52 52.8964 1327.17 54.9684 1327.4 57.0162C1327.64 59.0639 1328.44 61.004 1329.73 62.6133L1335.77 70.1733" stroke="white" stroke-opacity="0.36" stroke-width="2"/>
<path d="M1368.25 70.2667L1363.59 64.3867C1362.56 63.1032 1361.26 62.0668 1359.79 61.3544C1358.31 60.6421 1356.69 60.2722 1355.05 60.2722C1353.41 60.2722 1351.79 60.6421 1350.31 61.3544C1348.83 62.0668 1347.53 63.1032 1346.51 64.3867L1329.78 85.3867C1328.49 86.996 1327.68 88.9362 1327.45 90.9839C1327.22 93.0316 1327.56 95.1036 1328.46 96.9614C1329.35 98.8192 1330.75 100.387 1332.49 101.485C1334.24 102.583 1336.26 103.166 1338.32 103.167H1371.73C1373.79 103.166 1375.81 102.583 1377.55 101.485C1379.3 100.387 1380.7 98.8192 1381.59 96.9614C1382.48 95.1036 1382.83 93.0316 1382.6 90.9839C1382.36 88.9362 1381.56 86.996 1380.27 85.3867L1374.23 77.7333" stroke="white" stroke-opacity="0.36" stroke-width="2"/>
<g opacity="0.24">
<path d="M969.345 86.4816L945.12 128.5C944.623 129.361 943.909 130.075 943.049 130.573C942.188 131.07 941.212 131.332 940.218 131.333H923.218C922.224 131.332 921.248 131.07 920.387 130.572C919.527 130.074 918.812 129.359 918.315 128.497C917.819 127.636 917.557 126.659 917.558 125.665C917.558 124.671 917.82 123.694 918.317 122.833L951.098 66.1666C951.597 65.3079 952.312 64.5951 953.172 64.0996C954.032 63.6041 955.007 63.3433 956 63.3433C956.993 63.3433 957.968 63.6041 958.828 64.0996C959.689 64.5951 960.404 65.3079 960.902 66.1666L969.402 80.7866C969.896 81.6564 970.151 82.6415 970.141 83.6417C970.131 84.642 969.856 85.6218 969.345 86.4816V86.4816Z" stroke="white" stroke-width="2"/>
<path d="M988.697 131.333H973C972.006 131.332 971.029 131.07 970.169 130.572C969.308 130.074 968.594 129.359 968.097 128.498C967.6 127.636 967.339 126.659 967.339 125.665C967.339 124.671 967.601 123.694 968.098 122.833L975.833 109.148C976.331 108.29 977.046 107.577 977.907 107.081C978.767 106.586 979.742 106.325 980.735 106.325C981.728 106.325 982.703 106.586 983.563 107.081C984.424 107.577 985.139 108.29 985.637 109.148L993.598 122.833C994.095 123.694 994.357 124.671 994.358 125.665C994.358 126.659 994.096 127.636 993.6 128.498C993.103 129.359 992.389 130.074 991.528 130.572C990.667 131.07 989.691 131.332 988.697 131.333V131.333Z" stroke="white" stroke-width="2"/>
<path d="M956 171C993.555 171 1024 140.555 1024 103C1024 65.4446 993.555 35 956 35C918.445 35 888 65.4446 888 103C888 140.555 918.445 171 956 171Z" stroke="white" stroke-width="2"/>
</g>
<g opacity="0.24">
<path d="M88 138C118.928 138 144 112.928 144 82C144 51.0721 118.928 26 88 26C57.0721 26 32 51.0721 32 82C32 112.928 57.0721 138 88 138Z" stroke="white" stroke-width="2"/>
<path d="M69.3333 82H106.667" stroke="white" stroke-width="2"/>
<path d="M120.667 110C113.241 110 106.119 107.05 100.868 101.799C95.6167 96.548 92.6667 89.4261 92.6667 82C92.6667 74.5739 95.6167 67.452 100.868 62.201C106.119 56.95 113.241 54 120.667 54" stroke="white" stroke-width="2"/>
<path d="M55.3333 54C62.7594 54 69.8813 56.95 75.1323 62.201C80.3833 67.452 83.3333 74.5739 83.3333 82C83.3333 89.4261 80.3833 96.548 75.1323 101.799C69.8813 107.05 62.7594 110 55.3333 110" stroke="white" stroke-width="2"/>
</g>
</g>
<defs>
<clipPath id="clip0_1542_70686">
<rect width="1440" height="800" fill="white"/>
</clipPath>
</defs>
</svg>
