<svg width="1440" height="720" viewBox="0 0 1440 720" fill="none" xmlns="http://www.w3.org/2000/svg">
<g clip-path="url(#clip0_614_47747)">
<path d="M730 366L780 370L786 295L730 366Z" fill="#3D3D6C" stroke="#3D3D6C" stroke-linejoin="bevel"/>
<path d="M786 295L714 287L730 366L786 295Z" fill="#404072" stroke="#404072" stroke-linejoin="bevel"/>
<path d="M786 295L784 229L714 287L786 295Z" fill="#4A4A83" stroke="#4A4A83" stroke-linejoin="bevel"/>
<path d="M780 370L861 360L786 295L780 370Z" fill="#363661" stroke="#363661" stroke-linejoin="bevel"/>
<path d="M786 295L870 288L784 229L786 295Z" fill="#3D3D6C" stroke="#3D3D6C" stroke-linejoin="bevel"/>
<path d="M638 362L709 436L730 366L638 362Z" fill="#46467D" stroke="#46467D" stroke-linejoin="bevel"/>
<path d="M730 366L709 436L780 370L730 366Z" fill="#50508F" stroke="#50508F" stroke-linejoin="bevel"/>
<path d="M780 370L802 443L861 360L780 370Z" fill="#363661" stroke="#363661" stroke-linejoin="bevel"/>
<path d="M784 229L724 217L714 287L784 229Z" fill="#4D4D89" stroke="#4D4D89" stroke-linejoin="bevel"/>
<path d="M861 360L870 288L786 295L861 360Z" fill="#46467D" stroke="#46467D" stroke-linejoin="bevel"/>
<path d="M709 436L802 443L780 370L709 436Z" fill="#4D4D89" stroke="#4D4D89" stroke-linejoin="bevel"/>
<path d="M645 274L638 362L714 287L645 274Z" fill="#303056" stroke="#303056" stroke-linejoin="bevel"/>
<path d="M714 287L638 362L730 366L714 287Z" fill="#363661" stroke="#363661" stroke-linejoin="bevel"/>
<path d="M724 217L645 274L714 287L724 217Z" fill="#3A3A67" stroke="#3A3A67" stroke-linejoin="bevel"/>
<path d="M802 443L859 441L861 360L802 443Z" fill="#33335B" stroke="#33335B" stroke-linejoin="bevel"/>
<path d="M861 360L931 349L870 288L861 360Z" fill="#434378" stroke="#434378" stroke-linejoin="bevel"/>
<path d="M638 362L643 429L709 436L638 362Z" fill="#404072" stroke="#404072" stroke-linejoin="bevel"/>
<path d="M940 286L877 221L870 288L940 286Z" fill="#4D4D89" stroke="#4D4D89" stroke-linejoin="bevel"/>
<path d="M870 288L877 221L784 229L870 288Z" fill="#46467D" stroke="#46467D" stroke-linejoin="bevel"/>
<path d="M784 229L804 151L724 217L784 229Z" fill="#46467D" stroke="#46467D" stroke-linejoin="bevel"/>
<path d="M724 217L634 225L645 274L724 217Z" fill="#50508F" stroke="#50508F" stroke-linejoin="bevel"/>
<path d="M574 276L572 356L638 362L574 276Z" fill="#363661" stroke="#363661" stroke-linejoin="bevel"/>
<path d="M929 420L931 349L861 360L929 420Z" fill="#363661" stroke="#363661" stroke-linejoin="bevel"/>
<path d="M732 512L785 505L709 436L732 512Z" fill="#46467D" stroke="#46467D" stroke-linejoin="bevel"/>
<path d="M709 436L785 505L802 443L709 436Z" fill="#3D3D6C" stroke="#3D3D6C" stroke-linejoin="bevel"/>
<path d="M802 443L864 498L859 441L802 443Z" fill="#3A3A67" stroke="#3A3A67" stroke-linejoin="bevel"/>
<path d="M649 508L732 512L709 436L649 508Z" fill="#33335B" stroke="#33335B" stroke-linejoin="bevel"/>
<path d="M877 221L804 151L784 229L877 221Z" fill="#363661" stroke="#363661" stroke-linejoin="bevel"/>
<path d="M724 217L644 143L634 225L724 217Z" fill="#33335B" stroke="#33335B" stroke-linejoin="bevel"/>
<path d="M931 349L940 286L870 288L931 349Z" fill="#434378" stroke="#434378" stroke-linejoin="bevel"/>
<path d="M574 276L638 362L645 274L574 276Z" fill="#3D3D6C" stroke="#3D3D6C" stroke-linejoin="bevel"/>
<path d="M638 362L567 421L643 429L638 362Z" fill="#3A3A67" stroke="#3A3A67" stroke-linejoin="bevel"/>
<path d="M804 151L720 145L724 217L804 151Z" fill="#363661" stroke="#363661" stroke-linejoin="bevel"/>
<path d="M589 225L645 274L634 225H589Z" fill="#50508F" stroke="#50508F" stroke-linejoin="bevel"/>
<path d="M589 225L574 276L645 274L589 225Z" fill="#33335B" stroke="#33335B" stroke-linejoin="bevel"/>
<path d="M864 498L929 420L859 441L864 498Z" fill="#434378" stroke="#434378" stroke-linejoin="bevel"/>
<path d="M859 441L929 420L861 360L859 441Z" fill="#434378" stroke="#434378" stroke-linejoin="bevel"/>
<path d="M931 349L994 284L940 286L931 349Z" fill="#46467D" stroke="#46467D" stroke-linejoin="bevel"/>
<path d="M801 573L864 498L785 505L801 573Z" fill="#3D3D6C" stroke="#3D3D6C" stroke-linejoin="bevel"/>
<path d="M785 505L864 498L802 443L785 505Z" fill="#404072" stroke="#404072" stroke-linejoin="bevel"/>
<path d="M644 143L589 225H634L644 143Z" fill="#363661" stroke="#363661" stroke-linejoin="bevel"/>
<path d="M573 504L649 508L643 429L573 504Z" fill="#46467D" stroke="#46467D" stroke-linejoin="bevel"/>
<path d="M643 429L649 508L709 436L643 429Z" fill="#4A4A83" stroke="#4A4A83" stroke-linejoin="bevel"/>
<path d="M940 286L929 210L877 221L940 286Z" fill="#46467D" stroke="#46467D" stroke-linejoin="bevel"/>
<path d="M877 221L866 136L804 151L877 221Z" fill="#33335B" stroke="#33335B" stroke-linejoin="bevel"/>
<path d="M517 369L567 421L572 356L517 369Z" fill="#303056" stroke="#303056" stroke-linejoin="bevel"/>
<path d="M572 356L567 421L638 362L572 356Z" fill="#4D4D89" stroke="#4D4D89" stroke-linejoin="bevel"/>
<path d="M720 145L644 143L724 217L720 145Z" fill="#363661" stroke="#363661" stroke-linejoin="bevel"/>
<path d="M929 210L866 136L877 221L929 210Z" fill="#4D4D89" stroke="#4D4D89" stroke-linejoin="bevel"/>
<path d="M804 151L802 80L720 145L804 151Z" fill="#3A3A67" stroke="#3A3A67" stroke-linejoin="bevel"/>
<path d="M720 145L650 79L644 143L720 145Z" fill="#50508F" stroke="#50508F" stroke-linejoin="bevel"/>
<path d="M1019 358L994 284L931 349L1019 358Z" fill="#363661" stroke="#363661" stroke-linejoin="bevel"/>
<path d="M940 286L994 284L929 210L940 286Z" fill="#363661" stroke="#363661" stroke-linejoin="bevel"/>
<path d="M929 210L933 130L866 136L929 210Z" fill="#404072" stroke="#404072" stroke-linejoin="bevel"/>
<path d="M649 508L706 567L732 512L649 508Z" fill="#4A4A83" stroke="#4A4A83" stroke-linejoin="bevel"/>
<path d="M732 512L801 573L785 505L732 512Z" fill="#363661" stroke="#363661" stroke-linejoin="bevel"/>
<path d="M517 286L572 356L574 276L517 286Z" fill="#3A3A67" stroke="#3A3A67" stroke-linejoin="bevel"/>
<path d="M517 286V369L572 356L517 286Z" fill="#4D4D89" stroke="#4D4D89" stroke-linejoin="bevel"/>
<path d="M567 421L573 504L643 429L567 421Z" fill="#33335B" stroke="#33335B" stroke-linejoin="bevel"/>
<path d="M503 206L574 276L589 225L503 206Z" fill="#3D3D6C" stroke="#3D3D6C" stroke-linejoin="bevel"/>
<path d="M503 206L517 286L574 276L503 206Z" fill="#4D4D89" stroke="#4D4D89" stroke-linejoin="bevel"/>
<path d="M706 567L801 573L732 512L706 567Z" fill="#33335B" stroke="#33335B" stroke-linejoin="bevel"/>
<path d="M503 439L573 504L567 421L503 439Z" fill="#303056" stroke="#303056" stroke-linejoin="bevel"/>
<path d="M649 508L659 578L706 567L649 508Z" fill="#33335B" stroke="#33335B" stroke-linejoin="bevel"/>
<path d="M866 136L802 80L804 151L866 136Z" fill="#4D4D89" stroke="#4D4D89" stroke-linejoin="bevel"/>
<path d="M864 498L942 508L929 420L864 498Z" fill="#434378" stroke="#434378" stroke-linejoin="bevel"/>
<path d="M929 420L1019 358L931 349L929 420Z" fill="#363661" stroke="#363661" stroke-linejoin="bevel"/>
<path d="M931 562L942 508L864 498L931 562Z" fill="#363661" stroke="#363661" stroke-linejoin="bevel"/>
<path d="M650 79L587 137L644 143L650 79Z" fill="#4D4D89" stroke="#4D4D89" stroke-linejoin="bevel"/>
<path d="M644 143L587 137L589 225L644 143Z" fill="#3D3D6C" stroke="#3D3D6C" stroke-linejoin="bevel"/>
<path d="M1020 433L1019 358L929 420L1020 433Z" fill="#3A3A67" stroke="#3A3A67" stroke-linejoin="bevel"/>
<path d="M802 80L719 68L720 145L802 80Z" fill="#50508F" stroke="#50508F" stroke-linejoin="bevel"/>
<path d="M1001 135L933 130L929 210L1001 135Z" fill="#363661" stroke="#363661" stroke-linejoin="bevel"/>
<path d="M866 136L865 76L802 80L866 136Z" fill="#434378" stroke="#434378" stroke-linejoin="bevel"/>
<path d="M576 587L659 578L649 508L576 587Z" fill="#50508F" stroke="#50508F" stroke-linejoin="bevel"/>
<path d="M706 567L714 648L801 573L706 567Z" fill="#3D3D6C" stroke="#3D3D6C" stroke-linejoin="bevel"/>
<path d="M858 646L857 584L801 573L858 646Z" fill="#4A4A83" stroke="#4A4A83" stroke-linejoin="bevel"/>
<path d="M801 573L857 584L864 498L801 573Z" fill="#303056" stroke="#303056" stroke-linejoin="bevel"/>
<path d="M719 68L650 79L720 145L719 68Z" fill="#3A3A67" stroke="#3A3A67" stroke-linejoin="bevel"/>
<path d="M933 130L865 76L866 136L933 130Z" fill="#50508F" stroke="#50508F" stroke-linejoin="bevel"/>
<path d="M802 80V0L719 68L802 80Z" fill="#4D4D89" stroke="#4D4D89" stroke-linejoin="bevel"/>
<path d="M517 369L503 439L567 421L517 369Z" fill="#3A3A67" stroke="#3A3A67" stroke-linejoin="bevel"/>
<path d="M423 357L503 439L517 369L423 357Z" fill="#404072" stroke="#404072" stroke-linejoin="bevel"/>
<path d="M1010 491L1020 433L929 420L1010 491Z" fill="#50508F" stroke="#50508F" stroke-linejoin="bevel"/>
<path d="M497 154L503 206L587 137L497 154Z" fill="#33335B" stroke="#33335B" stroke-linejoin="bevel"/>
<path d="M587 137L503 206L589 225L587 137Z" fill="#46467D" stroke="#46467D" stroke-linejoin="bevel"/>
<path d="M517 286L423 357L517 369V286Z" fill="#363661" stroke="#363661" stroke-linejoin="bevel"/>
<path d="M1072 220L1021 213L994 284L1072 220Z" fill="#33335B" stroke="#33335B" stroke-linejoin="bevel"/>
<path d="M994 284L1021 213L929 210L994 284Z" fill="#3A3A67" stroke="#3A3A67" stroke-linejoin="bevel"/>
<path d="M1090 285L994 284L1019 358L1090 285Z" fill="#4D4D89" stroke="#4D4D89" stroke-linejoin="bevel"/>
<path d="M857 584L931 562L864 498L857 584Z" fill="#4A4A83" stroke="#4A4A83" stroke-linejoin="bevel"/>
<path d="M942 508L1010 491L929 420L942 508Z" fill="#3D3D6C" stroke="#3D3D6C" stroke-linejoin="bevel"/>
<path d="M1012 563L1010 491L942 508L1012 563Z" fill="#50508F" stroke="#50508F" stroke-linejoin="bevel"/>
<path d="M1001 135L933 77V130L1001 135Z" fill="#404072" stroke="#404072" stroke-linejoin="bevel"/>
<path d="M933 130V77L865 76L933 130Z" fill="#363661" stroke="#363661" stroke-linejoin="bevel"/>
<path d="M865 76L802 0V80L865 76Z" fill="#4D4D89" stroke="#4D4D89" stroke-linejoin="bevel"/>
<path d="M1021 213L1001 135L929 210L1021 213Z" fill="#303056" stroke="#303056" stroke-linejoin="bevel"/>
<path d="M421 437L491 496L503 439L421 437Z" fill="#50508F" stroke="#50508F" stroke-linejoin="bevel"/>
<path d="M503 439L491 496L573 504L503 439Z" fill="#3A3A67" stroke="#3A3A67" stroke-linejoin="bevel"/>
<path d="M573 504L576 587L649 508L573 504Z" fill="#434378" stroke="#434378" stroke-linejoin="bevel"/>
<path d="M498 570L576 587L573 504L498 570Z" fill="#4D4D89" stroke="#4D4D89" stroke-linejoin="bevel"/>
<path d="M659 578L714 648L706 567L659 578Z" fill="#50508F" stroke="#50508F" stroke-linejoin="bevel"/>
<path d="M491 80L497 154L587 137L491 80Z" fill="#434378" stroke="#434378" stroke-linejoin="bevel"/>
<path d="M420 293L423 357L517 286L420 293Z" fill="#4D4D89" stroke="#4D4D89" stroke-linejoin="bevel"/>
<path d="M1081 439L1075 362L1020 433L1081 439Z" fill="#434378" stroke="#434378" stroke-linejoin="bevel"/>
<path d="M1020 433L1075 362L1019 358L1020 433Z" fill="#3A3A67" stroke="#3A3A67" stroke-linejoin="bevel"/>
<path d="M1021 213L1093 141L1001 135L1021 213Z" fill="#3A3A67" stroke="#3A3A67" stroke-linejoin="bevel"/>
<path d="M641 651L714 648L659 578L641 651Z" fill="#4A4A83" stroke="#4A4A83" stroke-linejoin="bevel"/>
<path d="M857 584L929 636L931 562L857 584Z" fill="#3D3D6C" stroke="#3D3D6C" stroke-linejoin="bevel"/>
<path d="M714 648L786 654L801 573L714 648Z" fill="#404072" stroke="#404072" stroke-linejoin="bevel"/>
<path d="M650 0L570 62L650 79V0Z" fill="#404072" stroke="#404072" stroke-linejoin="bevel"/>
<path d="M650 79L570 62L587 137L650 79Z" fill="#404072" stroke="#404072" stroke-linejoin="bevel"/>
<path d="M786 654L858 646L801 573L786 654Z" fill="#50508F" stroke="#50508F" stroke-linejoin="bevel"/>
<path d="M931 562L1012 563L942 508L931 562Z" fill="#3A3A67" stroke="#3A3A67" stroke-linejoin="bevel"/>
<path d="M1090 285L1072 220L994 284L1090 285Z" fill="#303056" stroke="#303056" stroke-linejoin="bevel"/>
<path d="M876 0H802L865 76L876 0Z" fill="#4D4D89" stroke="#4D4D89" stroke-linejoin="bevel"/>
<path d="M719 68L650 0V79L719 68Z" fill="#50508F" stroke="#50508F" stroke-linejoin="bevel"/>
<path d="M802 0H710L719 68L802 0Z" fill="#50508F" stroke="#50508F" stroke-linejoin="bevel"/>
<path d="M1075 362L1090 285L1019 358L1075 362Z" fill="#46467D" stroke="#46467D" stroke-linejoin="bevel"/>
<path d="M444 208L517 286L503 206L444 208Z" fill="#3A3A67" stroke="#3A3A67" stroke-linejoin="bevel"/>
<path d="M420 140L444 208L497 154L420 140Z" fill="#50508F" stroke="#50508F" stroke-linejoin="bevel"/>
<path d="M497 154L444 208L503 206L497 154Z" fill="#4D4D89" stroke="#4D4D89" stroke-linejoin="bevel"/>
<path d="M444 208L420 293L517 286L444 208Z" fill="#303056" stroke="#303056" stroke-linejoin="bevel"/>
<path d="M1081 511V439L1010 491L1081 511Z" fill="#46467D" stroke="#46467D" stroke-linejoin="bevel"/>
<path d="M1010 491L1081 439L1020 433L1010 491Z" fill="#3A3A67" stroke="#3A3A67" stroke-linejoin="bevel"/>
<path d="M1075 362L1138 349L1090 285L1075 362Z" fill="#4A4A83" stroke="#4A4A83" stroke-linejoin="bevel"/>
<path d="M589 639L641 651L659 578L589 639Z" fill="#363661" stroke="#363661" stroke-linejoin="bevel"/>
<path d="M714 648L733 720L786 654L714 648Z" fill="#4D4D89" stroke="#4D4D89" stroke-linejoin="bevel"/>
<path d="M929 636L1012 563L931 562L929 636Z" fill="#4D4D89" stroke="#4D4D89" stroke-linejoin="bevel"/>
<path d="M710 0H650L719 68L710 0Z" fill="#46467D" stroke="#46467D" stroke-linejoin="bevel"/>
<path d="M858 646L929 636L857 584L858 646Z" fill="#3D3D6C" stroke="#3D3D6C" stroke-linejoin="bevel"/>
<path d="M930 0H876L933 77L930 0Z" fill="#50508F" stroke="#50508F" stroke-linejoin="bevel"/>
<path d="M933 77L876 0L865 76L933 77Z" fill="#50508F" stroke="#50508F" stroke-linejoin="bevel"/>
<path d="M492 659L589 639L576 587L492 659Z" fill="#3A3A67" stroke="#3A3A67" stroke-linejoin="bevel"/>
<path d="M576 587L589 639L659 578L576 587Z" fill="#434378" stroke="#434378" stroke-linejoin="bevel"/>
<path d="M366 368L421 437L423 357L366 368Z" fill="#363661" stroke="#363661" stroke-linejoin="bevel"/>
<path d="M423 357L421 437L503 439L423 357Z" fill="#303056" stroke="#303056" stroke-linejoin="bevel"/>
<path d="M491 496L498 570L573 504L491 496Z" fill="#3A3A67" stroke="#3A3A67" stroke-linejoin="bevel"/>
<path d="M444 514L498 570L491 496L444 514Z" fill="#363661" stroke="#363661" stroke-linejoin="bevel"/>
<path d="M1093 141L1014 85L1001 135L1093 141Z" fill="#404072" stroke="#404072" stroke-linejoin="bevel"/>
<path d="M1001 135L1014 85L933 77L1001 135Z" fill="#3D3D6C" stroke="#3D3D6C" stroke-linejoin="bevel"/>
<path d="M421 437L444 514L491 496L421 437Z" fill="#363661" stroke="#363661" stroke-linejoin="bevel"/>
<path d="M570 62L491 80L587 137L570 62Z" fill="#404072" stroke="#404072" stroke-linejoin="bevel"/>
<path d="M502 0L491 80L570 62L502 0Z" fill="#363661" stroke="#363661" stroke-linejoin="bevel"/>
<path d="M1069 586L1081 511L1012 563L1069 586Z" fill="#363661" stroke="#363661" stroke-linejoin="bevel"/>
<path d="M1012 563L1081 511L1010 491L1012 563Z" fill="#303056" stroke="#303056" stroke-linejoin="bevel"/>
<path d="M1144 441L1138 349L1075 362L1144 441Z" fill="#4A4A83" stroke="#4A4A83" stroke-linejoin="bevel"/>
<path d="M1013 0H930L933 77L1013 0Z" fill="#33335B" stroke="#33335B" stroke-linejoin="bevel"/>
<path d="M1144 441L1075 362L1081 439L1144 441Z" fill="#404072" stroke="#404072" stroke-linejoin="bevel"/>
<path d="M1159 210L1093 141L1072 220L1159 210Z" fill="#50508F" stroke="#50508F" stroke-linejoin="bevel"/>
<path d="M1072 220L1093 141L1021 213L1072 220Z" fill="#33335B" stroke="#33335B" stroke-linejoin="bevel"/>
<path d="M650 0H568L570 62L650 0Z" fill="#3A3A67" stroke="#3A3A67" stroke-linejoin="bevel"/>
<path d="M1159 210L1072 220L1090 285L1159 210Z" fill="#3D3D6C" stroke="#3D3D6C" stroke-linejoin="bevel"/>
<path d="M1014 85L1013 0L933 77L1014 85Z" fill="#303056" stroke="#303056" stroke-linejoin="bevel"/>
<path d="M440 76L420 140L491 80L440 76Z" fill="#3A3A67" stroke="#3A3A67" stroke-linejoin="bevel"/>
<path d="M491 80L420 140L497 154L491 80Z" fill="#3D3D6C" stroke="#3D3D6C" stroke-linejoin="bevel"/>
<path d="M354 206L363 292L420 293L354 206Z" fill="#303056" stroke="#303056" stroke-linejoin="bevel"/>
<path d="M650 720L714 648L641 651L650 720Z" fill="#3A3A67" stroke="#3A3A67" stroke-linejoin="bevel"/>
<path d="M650 720H733L714 648L650 720Z" fill="#434378" stroke="#434378" stroke-linejoin="bevel"/>
<path d="M786 654L789 720L858 646L786 654Z" fill="#3A3A67" stroke="#3A3A67" stroke-linejoin="bevel"/>
<path d="M858 646L875 720L929 636L858 646Z" fill="#3A3A67" stroke="#3A3A67" stroke-linejoin="bevel"/>
<path d="M733 720H789L786 654L733 720Z" fill="#3D3D6C" stroke="#3D3D6C" stroke-linejoin="bevel"/>
<path d="M363 292L366 368L423 357L363 292Z" fill="#4A4A83" stroke="#4A4A83" stroke-linejoin="bevel"/>
<path d="M421 437L357 505L444 514L421 437Z" fill="#33335B" stroke="#33335B" stroke-linejoin="bevel"/>
<path d="M363 292L423 357L420 293L363 292Z" fill="#50508F" stroke="#50508F" stroke-linejoin="bevel"/>
<path d="M354 206L420 293L444 208L354 206Z" fill="#404072" stroke="#404072" stroke-linejoin="bevel"/>
<path d="M1138 349L1157 293L1090 285L1138 349Z" fill="#3A3A67" stroke="#3A3A67" stroke-linejoin="bevel"/>
<path d="M1081 511L1144 441L1081 439V511Z" fill="#404072" stroke="#404072" stroke-linejoin="bevel"/>
<path d="M1138 349L1228 364L1157 293L1138 349Z" fill="#50508F" stroke="#50508F" stroke-linejoin="bevel"/>
<path d="M1016 655L1069 586L1012 563L1016 655Z" fill="#4A4A83" stroke="#4A4A83" stroke-linejoin="bevel"/>
<path d="M1081 511L1155 503L1144 441L1081 511Z" fill="#50508F" stroke="#50508F" stroke-linejoin="bevel"/>
<path d="M1016 655L1012 563L929 636L1016 655Z" fill="#303056" stroke="#303056" stroke-linejoin="bevel"/>
<path d="M586 720H650L641 651L586 720Z" fill="#46467D" stroke="#46467D" stroke-linejoin="bevel"/>
<path d="M586 720L641 651L589 639L586 720Z" fill="#3D3D6C" stroke="#3D3D6C" stroke-linejoin="bevel"/>
<path d="M444 514L442 583L498 570L444 514Z" fill="#3A3A67" stroke="#3A3A67" stroke-linejoin="bevel"/>
<path d="M498 570L492 659L576 587L498 570Z" fill="#50508F" stroke="#50508F" stroke-linejoin="bevel"/>
<path d="M367 575L442 583L444 514L367 575Z" fill="#434378" stroke="#434378" stroke-linejoin="bevel"/>
<path d="M789 720H875L858 646L789 720Z" fill="#33335B" stroke="#33335B" stroke-linejoin="bevel"/>
<path d="M502 0L440 76L491 80L502 0Z" fill="#4D4D89" stroke="#4D4D89" stroke-linejoin="bevel"/>
<path d="M420 140L354 206L444 208L420 140Z" fill="#404072" stroke="#404072" stroke-linejoin="bevel"/>
<path d="M997 720L1016 655L929 636L997 720Z" fill="#4A4A83" stroke="#4A4A83" stroke-linejoin="bevel"/>
<path d="M293 432L355 428L366 368L293 432Z" fill="#3A3A67" stroke="#3A3A67" stroke-linejoin="bevel"/>
<path d="M366 368L355 428L421 437L366 368Z" fill="#363661" stroke="#363661" stroke-linejoin="bevel"/>
<path d="M1079 61L1013 0L1014 85L1079 61Z" fill="#363661" stroke="#363661" stroke-linejoin="bevel"/>
<path d="M568 0H502L570 62L568 0Z" fill="#3A3A67" stroke="#3A3A67" stroke-linejoin="bevel"/>
<path d="M1157 293L1159 210L1090 285L1157 293Z" fill="#4A4A83" stroke="#4A4A83" stroke-linejoin="bevel"/>
<path d="M1093 141L1079 61L1014 85L1093 141Z" fill="#404072" stroke="#404072" stroke-linejoin="bevel"/>
<path d="M1165 65L1079 61L1093 141L1165 65Z" fill="#46467D" stroke="#46467D" stroke-linejoin="bevel"/>
<path d="M442 583L492 659L498 570L442 583Z" fill="#3A3A67" stroke="#3A3A67" stroke-linejoin="bevel"/>
<path d="M358 153L354 206L420 140L358 153Z" fill="#363661" stroke="#363661" stroke-linejoin="bevel"/>
<path d="M363 292L290 350L366 368L363 292Z" fill="#50508F" stroke="#50508F" stroke-linejoin="bevel"/>
<path d="M875 720H926L929 636L875 720Z" fill="#3D3D6C" stroke="#3D3D6C" stroke-linejoin="bevel"/>
<path d="M492 659L586 720L589 639L492 659Z" fill="#434378" stroke="#434378" stroke-linejoin="bevel"/>
<path d="M1162 562L1081 511L1069 586L1162 562Z" fill="#50508F" stroke="#50508F" stroke-linejoin="bevel"/>
<path d="M1162 562L1155 503L1081 511L1162 562Z" fill="#46467D" stroke="#46467D" stroke-linejoin="bevel"/>
<path d="M1144 441L1228 364L1138 349L1144 441Z" fill="#50508F" stroke="#50508F" stroke-linejoin="bevel"/>
<path d="M1157 293L1229 277L1159 210L1157 293Z" fill="#3A3A67" stroke="#3A3A67" stroke-linejoin="bevel"/>
<path d="M1159 210L1156 156L1093 141L1159 210Z" fill="#4D4D89" stroke="#4D4D89" stroke-linejoin="bevel"/>
<path d="M355 428L357 505L421 437L355 428Z" fill="#3A3A67" stroke="#3A3A67" stroke-linejoin="bevel"/>
<path d="M442 583L440 646L492 659L442 583Z" fill="#4A4A83" stroke="#4A4A83" stroke-linejoin="bevel"/>
<path d="M369 65L420 140L440 76L369 65Z" fill="#303056" stroke="#303056" stroke-linejoin="bevel"/>
<path d="M369 65L358 153L420 140L369 65Z" fill="#33335B" stroke="#33335B" stroke-linejoin="bevel"/>
<path d="M1079 720L1066 651L1016 655L1079 720Z" fill="#4A4A83" stroke="#4A4A83" stroke-linejoin="bevel"/>
<path d="M1016 655L1066 651L1069 586L1016 655Z" fill="#4D4D89" stroke="#4D4D89" stroke-linejoin="bevel"/>
<path d="M367 575L440 646L442 583L367 575Z" fill="#4D4D89" stroke="#4D4D89" stroke-linejoin="bevel"/>
<path d="M492 659L504 720H586L492 659Z" fill="#46467D" stroke="#46467D" stroke-linejoin="bevel"/>
<path d="M1079 61L1072 0H1013L1079 61Z" fill="#46467D" stroke="#46467D" stroke-linejoin="bevel"/>
<path d="M1144 0H1072L1079 61L1144 0Z" fill="#46467D" stroke="#46467D" stroke-linejoin="bevel"/>
<path d="M926 720H997L929 636L926 720Z" fill="#4D4D89" stroke="#4D4D89" stroke-linejoin="bevel"/>
<path d="M357 505L367 575L444 514L357 505Z" fill="#4A4A83" stroke="#4A4A83" stroke-linejoin="bevel"/>
<path d="M445 720L492 659L440 646L445 720Z" fill="#4A4A83" stroke="#4A4A83" stroke-linejoin="bevel"/>
<path d="M445 720H504L492 659L445 720Z" fill="#4A4A83" stroke="#4A4A83" stroke-linejoin="bevel"/>
<path d="M1145 656L1162 562L1069 586L1145 656Z" fill="#4A4A83" stroke="#4A4A83" stroke-linejoin="bevel"/>
<path d="M1236 432L1228 364L1144 441L1236 432Z" fill="#3D3D6C" stroke="#3D3D6C" stroke-linejoin="bevel"/>
<path d="M1221 516L1162 562L1215 572L1221 516Z" fill="#3D3D6C" stroke="#3D3D6C" stroke-linejoin="bevel"/>
<path d="M289 207L293 292L354 206L289 207Z" fill="#33335B" stroke="#33335B" stroke-linejoin="bevel"/>
<path d="M354 206L293 292H363L354 206Z" fill="#46467D" stroke="#46467D" stroke-linejoin="bevel"/>
<path d="M355 428L293 432L357 505L355 428Z" fill="#4D4D89" stroke="#4D4D89" stroke-linejoin="bevel"/>
<path d="M357 505L276 580L367 575L357 505Z" fill="#46467D" stroke="#46467D" stroke-linejoin="bevel"/>
<path d="M293 292L290 350L363 292H293Z" fill="#33335B" stroke="#33335B" stroke-linejoin="bevel"/>
<path d="M419 0L369 65L440 76L419 0Z" fill="#4A4A83" stroke="#4A4A83" stroke-linejoin="bevel"/>
<path d="M358 153L289 207L354 206L358 153Z" fill="#303056" stroke="#303056" stroke-linejoin="bevel"/>
<path d="M1236 432L1144 441L1155 503L1236 432Z" fill="#4A4A83" stroke="#4A4A83" stroke-linejoin="bevel"/>
<path d="M1159 210L1218 202L1156 156L1159 210Z" fill="#3A3A67" stroke="#3A3A67" stroke-linejoin="bevel"/>
<path d="M502 0H419L440 76L502 0Z" fill="#3A3A67" stroke="#3A3A67" stroke-linejoin="bevel"/>
<path d="M1228 364L1229 277L1157 293L1228 364Z" fill="#4D4D89" stroke="#4D4D89" stroke-linejoin="bevel"/>
<path d="M1156 156L1165 65L1093 141L1156 156Z" fill="#303056" stroke="#303056" stroke-linejoin="bevel"/>
<path d="M290 350L293 432L366 368L290 350Z" fill="#4A4A83" stroke="#4A4A83" stroke-linejoin="bevel"/>
<path d="M1229 277L1218 202L1159 210L1229 277Z" fill="#3A3A67" stroke="#3A3A67" stroke-linejoin="bevel"/>
<path d="M288 137L289 207L358 153L288 137Z" fill="#4A4A83" stroke="#4A4A83" stroke-linejoin="bevel"/>
<path d="M293 292L226 289L290 350L293 292Z" fill="#4A4A83" stroke="#4A4A83" stroke-linejoin="bevel"/>
<path d="M1220 144L1165 65L1156 156L1220 144Z" fill="#3A3A67" stroke="#3A3A67" stroke-linejoin="bevel"/>
<path d="M1221 516L1236 432L1155 503L1221 516Z" fill="#363661" stroke="#363661" stroke-linejoin="bevel"/>
<path d="M1228 364L1286 277H1229L1228 364Z" fill="#404072" stroke="#404072" stroke-linejoin="bevel"/>
<path d="M1218 202L1220 144L1156 156L1218 202Z" fill="#33335B" stroke="#33335B" stroke-linejoin="bevel"/>
<path d="M1303 154L1220 144L1218 202L1303 154Z" fill="#404072" stroke="#404072" stroke-linejoin="bevel"/>
<path d="M1145 656L1069 586L1066 651L1145 656Z" fill="#303056" stroke="#303056" stroke-linejoin="bevel"/>
<path d="M1162 562L1221 516L1155 503L1162 562Z" fill="#50508F" stroke="#50508F" stroke-linejoin="bevel"/>
<path d="M369 720H445L440 646L369 720Z" fill="#404072" stroke="#404072" stroke-linejoin="bevel"/>
<path d="M997 720H1079L1016 655L997 720Z" fill="#33335B" stroke="#33335B" stroke-linejoin="bevel"/>
<path d="M1079 720L1145 656L1066 651L1079 720Z" fill="#4A4A83" stroke="#4A4A83" stroke-linejoin="bevel"/>
<path d="M293 432L279 496L357 505L293 432Z" fill="#4A4A83" stroke="#4A4A83" stroke-linejoin="bevel"/>
<path d="M367 575L346 639L440 646L367 575Z" fill="#50508F" stroke="#50508F" stroke-linejoin="bevel"/>
<path d="M222 424L279 496L293 432L222 424Z" fill="#46467D" stroke="#46467D" stroke-linejoin="bevel"/>
<path d="M222 424L293 432L290 350L222 424Z" fill="#4A4A83" stroke="#4A4A83" stroke-linejoin="bevel"/>
<path d="M1223 0H1144L1165 65L1223 0Z" fill="#4A4A83" stroke="#4A4A83" stroke-linejoin="bevel"/>
<path d="M1165 65L1144 0L1079 61L1165 65Z" fill="#50508F" stroke="#50508F" stroke-linejoin="bevel"/>
<path d="M301 65L358 153L369 65H301Z" fill="#363661" stroke="#363661" stroke-linejoin="bevel"/>
<path d="M301 65L288 137L358 153L301 65Z" fill="#3D3D6C" stroke="#3D3D6C" stroke-linejoin="bevel"/>
<path d="M289 207L226 289L293 292L289 207Z" fill="#46467D" stroke="#46467D" stroke-linejoin="bevel"/>
<path d="M276 580L346 639L367 575L276 580Z" fill="#4A4A83" stroke="#4A4A83" stroke-linejoin="bevel"/>
<path d="M1213 637L1215 572L1162 562L1213 637Z" fill="#303056" stroke="#303056" stroke-linejoin="bevel"/>
<path d="M1297 370L1228 364L1236 432L1297 370Z" fill="#363661" stroke="#363661" stroke-linejoin="bevel"/>
<path d="M419 0H356L369 65L419 0Z" fill="#3A3A67" stroke="#3A3A67" stroke-linejoin="bevel"/>
<path d="M1220 144L1212 73L1165 65L1220 144Z" fill="#4A4A83" stroke="#4A4A83" stroke-linejoin="bevel"/>
<path d="M356 0L301 65H369L356 0Z" fill="#363661" stroke="#363661" stroke-linejoin="bevel"/>
<path d="M1297 370L1286 277L1228 364L1297 370Z" fill="#33335B" stroke="#33335B" stroke-linejoin="bevel"/>
<path d="M1229 277L1303 212L1218 202L1229 277Z" fill="#3D3D6C" stroke="#3D3D6C" stroke-linejoin="bevel"/>
<path d="M1220 144L1301 64L1212 73L1220 144Z" fill="#303056" stroke="#303056" stroke-linejoin="bevel"/>
<path d="M1297 370L1236 432L1301 430L1297 370Z" fill="#50508F" stroke="#50508F" stroke-linejoin="bevel"/>
<path d="M215 221L289 207L222 146L215 221Z" fill="#4A4A83" stroke="#4A4A83" stroke-linejoin="bevel"/>
<path d="M215 221L226 289L289 207L215 221Z" fill="#363661" stroke="#363661" stroke-linejoin="bevel"/>
<path d="M1301 430L1236 432L1288 516L1301 430Z" fill="#46467D" stroke="#46467D" stroke-linejoin="bevel"/>
<path d="M219 514L276 580L279 496L219 514Z" fill="#434378" stroke="#434378" stroke-linejoin="bevel"/>
<path d="M279 496L276 580L357 505L279 496Z" fill="#434378" stroke="#434378" stroke-linejoin="bevel"/>
<path d="M211 360L222 424L290 350L211 360Z" fill="#3A3A67" stroke="#3A3A67" stroke-linejoin="bevel"/>
<path d="M1079 720H1143L1145 656L1079 720Z" fill="#50508F" stroke="#50508F" stroke-linejoin="bevel"/>
<path d="M1145 656L1213 637L1162 562L1145 656Z" fill="#434378" stroke="#434378" stroke-linejoin="bevel"/>
<path d="M226 289L211 360L290 350L226 289Z" fill="#46467D" stroke="#46467D" stroke-linejoin="bevel"/>
<path d="M1223 720L1213 637L1145 656L1223 720Z" fill="#46467D" stroke="#46467D" stroke-linejoin="bevel"/>
<path d="M1288 516L1236 432L1221 516H1288Z" fill="#3D3D6C" stroke="#3D3D6C" stroke-linejoin="bevel"/>
<path d="M346 639L369 720L440 646L346 639Z" fill="#50508F" stroke="#50508F" stroke-linejoin="bevel"/>
<path d="M293 720H369L346 639L293 720Z" fill="#33335B" stroke="#33335B" stroke-linejoin="bevel"/>
<path d="M1288 516H1221L1215 572L1288 516Z" fill="#4D4D89" stroke="#4D4D89" stroke-linejoin="bevel"/>
<path d="M222 146L289 207L288 137L222 146Z" fill="#33335B" stroke="#33335B" stroke-linejoin="bevel"/>
<path d="M226 289L151 350L211 360L226 289Z" fill="#404072" stroke="#404072" stroke-linejoin="bevel"/>
<path d="M229 636L296 642L276 580L229 636Z" fill="#3A3A67" stroke="#3A3A67" stroke-linejoin="bevel"/>
<path d="M276 580L296 642L346 639L276 580Z" fill="#4D4D89" stroke="#4D4D89" stroke-linejoin="bevel"/>
<path d="M1355 223L1303 212L1286 277L1355 223Z" fill="#33335B" stroke="#33335B" stroke-linejoin="bevel"/>
<path d="M1286 277L1303 212L1229 277H1286Z" fill="#363661" stroke="#363661" stroke-linejoin="bevel"/>
<path d="M1355 223L1286 277L1375 297L1355 223Z" fill="#50508F" stroke="#50508F" stroke-linejoin="bevel"/>
<path d="M1286 588L1288 516L1215 572L1286 588Z" fill="#4A4A83" stroke="#4A4A83" stroke-linejoin="bevel"/>
<path d="M228 75L288 137L301 65L228 75Z" fill="#404072" stroke="#404072" stroke-linejoin="bevel"/>
<path d="M228 75L222 146L288 137L228 75Z" fill="#363661" stroke="#363661" stroke-linejoin="bevel"/>
<path d="M222 424L219 514L279 496L222 424Z" fill="#303056" stroke="#303056" stroke-linejoin="bevel"/>
<path d="M148 440L219 514L222 424L148 440Z" fill="#3A3A67" stroke="#3A3A67" stroke-linejoin="bevel"/>
<path d="M1301 64L1223 0L1212 73L1301 64Z" fill="#3A3A67" stroke="#3A3A67" stroke-linejoin="bevel"/>
<path d="M1212 73L1223 0L1165 65L1212 73Z" fill="#4A4A83" stroke="#4A4A83" stroke-linejoin="bevel"/>
<path d="M1303 212V154L1218 202L1303 212Z" fill="#4A4A83" stroke="#4A4A83" stroke-linejoin="bevel"/>
<path d="M356 0H283L301 65L356 0Z" fill="#33335B" stroke="#33335B" stroke-linejoin="bevel"/>
<path d="M1290 656L1286 588L1213 637L1290 656Z" fill="#3D3D6C" stroke="#3D3D6C" stroke-linejoin="bevel"/>
<path d="M1213 637L1286 588L1215 572L1213 637Z" fill="#303056" stroke="#303056" stroke-linejoin="bevel"/>
<path d="M1288 516L1358 443L1301 430L1288 516Z" fill="#46467D" stroke="#46467D" stroke-linejoin="bevel"/>
<path d="M283 0L228 75L301 65L283 0Z" fill="#4D4D89" stroke="#4D4D89" stroke-linejoin="bevel"/>
<path d="M154 219L226 289L215 221L154 219Z" fill="#404072" stroke="#404072" stroke-linejoin="bevel"/>
<path d="M219 514L224 581L276 580L219 514Z" fill="#50508F" stroke="#50508F" stroke-linejoin="bevel"/>
<path d="M296 642L293 720L346 639L296 642Z" fill="#3D3D6C" stroke="#3D3D6C" stroke-linejoin="bevel"/>
<path d="M1303 154L1301 64L1220 144L1303 154Z" fill="#3D3D6C" stroke="#3D3D6C" stroke-linejoin="bevel"/>
<path d="M1143 720H1223L1145 656L1143 720Z" fill="#434378" stroke="#434378" stroke-linejoin="bevel"/>
<path d="M229 636L293 720L296 642L229 636Z" fill="#434378" stroke="#434378" stroke-linejoin="bevel"/>
<path d="M1303 212L1355 223L1303 154V212Z" fill="#404072" stroke="#404072" stroke-linejoin="bevel"/>
<path d="M1303 154L1361 58L1301 64L1303 154Z" fill="#404072" stroke="#404072" stroke-linejoin="bevel"/>
<path d="M1369 348L1286 277L1297 370L1369 348Z" fill="#50508F" stroke="#50508F" stroke-linejoin="bevel"/>
<path d="M1358 443L1297 370L1301 430L1358 443Z" fill="#404072" stroke="#404072" stroke-linejoin="bevel"/>
<path d="M130 283L151 350L226 289L130 283Z" fill="#50508F" stroke="#50508F" stroke-linejoin="bevel"/>
<path d="M211 360L148 440L222 424L211 360Z" fill="#404072" stroke="#404072" stroke-linejoin="bevel"/>
<path d="M219 514H148L224 581L219 514Z" fill="#50508F" stroke="#50508F" stroke-linejoin="bevel"/>
<path d="M154 219L215 221L152 144L154 219Z" fill="#3A3A67" stroke="#3A3A67" stroke-linejoin="bevel"/>
<path d="M1370 514L1288 516L1360 584L1370 514Z" fill="#33335B" stroke="#33335B" stroke-linejoin="bevel"/>
<path d="M1370 514L1358 443L1288 516L1370 514Z" fill="#50508F" stroke="#50508F" stroke-linejoin="bevel"/>
<path d="M138 654L229 636L224 581L138 654Z" fill="#303056" stroke="#303056" stroke-linejoin="bevel"/>
<path d="M224 581L229 636L276 580L224 581Z" fill="#46467D" stroke="#46467D" stroke-linejoin="bevel"/>
<path d="M1358 443L1369 348L1297 370L1358 443Z" fill="#303056" stroke="#303056" stroke-linejoin="bevel"/>
<path d="M152 144L215 221L222 146L152 144Z" fill="#46467D" stroke="#46467D" stroke-linejoin="bevel"/>
<path d="M1369 348L1375 297L1286 277L1369 348Z" fill="#3D3D6C" stroke="#3D3D6C" stroke-linejoin="bevel"/>
<path d="M1440 356L1375 297L1369 348L1440 356Z" fill="#4A4A83" stroke="#4A4A83" stroke-linejoin="bevel"/>
<path d="M68 367L148 440L151 350L68 367Z" fill="#4A4A83" stroke="#4A4A83" stroke-linejoin="bevel"/>
<path d="M151 350L148 440L211 360L151 350Z" fill="#50508F" stroke="#50508F" stroke-linejoin="bevel"/>
<path d="M1223 720L1290 656L1213 637L1223 720Z" fill="#303056" stroke="#303056" stroke-linejoin="bevel"/>
<path d="M283 0H228V75L283 0Z" fill="#3D3D6C" stroke="#3D3D6C" stroke-linejoin="bevel"/>
<path d="M157 79L152 144L222 146L157 79Z" fill="#404072" stroke="#404072" stroke-linejoin="bevel"/>
<path d="M77 294L130 283L69 215L77 294Z" fill="#303056" stroke="#303056" stroke-linejoin="bevel"/>
<path d="M154 219L130 283L226 289L154 219Z" fill="#50508F" stroke="#50508F" stroke-linejoin="bevel"/>
<path d="M1361 58L1298 0L1301 64L1361 58Z" fill="#4A4A83" stroke="#4A4A83" stroke-linejoin="bevel"/>
<path d="M1301 64L1298 0H1223L1301 64Z" fill="#404072" stroke="#404072" stroke-linejoin="bevel"/>
<path d="M1376 148L1303 154L1355 223L1376 148Z" fill="#46467D" stroke="#46467D" stroke-linejoin="bevel"/>
<path d="M157 79L222 146L228 75L157 79Z" fill="#50508F" stroke="#50508F" stroke-linejoin="bevel"/>
<path d="M135 570L148 514L70 496L135 570Z" fill="#434378" stroke="#434378" stroke-linejoin="bevel"/>
<path d="M148 440V514H219L148 440Z" fill="#4A4A83" stroke="#4A4A83" stroke-linejoin="bevel"/>
<path d="M1360 584L1288 516L1286 588L1360 584Z" fill="#4D4D89" stroke="#4D4D89" stroke-linejoin="bevel"/>
<path d="M1440 425V356L1369 348L1440 425Z" fill="#50508F" stroke="#50508F" stroke-linejoin="bevel"/>
<path d="M1440 204L1376 148L1355 223L1440 204Z" fill="#4A4A83" stroke="#4A4A83" stroke-linejoin="bevel"/>
<path d="M228 0L157 79L228 75V0Z" fill="#3D3D6C" stroke="#3D3D6C" stroke-linejoin="bevel"/>
<path d="M69 215L130 283L154 219L69 215Z" fill="#50508F" stroke="#50508F" stroke-linejoin="bevel"/>
<path d="M1223 720H1282L1290 656L1223 720Z" fill="#4D4D89" stroke="#4D4D89" stroke-linejoin="bevel"/>
<path d="M1290 656L1360 584L1286 588L1290 656Z" fill="#4D4D89" stroke="#4D4D89" stroke-linejoin="bevel"/>
<path d="M1377 647L1360 584L1290 656L1377 647Z" fill="#4D4D89" stroke="#4D4D89" stroke-linejoin="bevel"/>
<path d="M1376 148L1361 58L1303 154L1376 148Z" fill="#303056" stroke="#303056" stroke-linejoin="bevel"/>
<path d="M148 514L135 570L224 581L148 514Z" fill="#46467D" stroke="#46467D" stroke-linejoin="bevel"/>
<path d="M229 636L204 720H293L229 636Z" fill="#363661" stroke="#363661" stroke-linejoin="bevel"/>
<path d="M70 496L148 514V440L70 496Z" fill="#404072" stroke="#404072" stroke-linejoin="bevel"/>
<path d="M138 654L204 720L229 636L138 654Z" fill="#3A3A67" stroke="#3A3A67" stroke-linejoin="bevel"/>
<path d="M69 215L154 219L152 144L69 215Z" fill="#46467D" stroke="#46467D" stroke-linejoin="bevel"/>
<path d="M130 283L77 294L151 350L130 283Z" fill="#50508F" stroke="#50508F" stroke-linejoin="bevel"/>
<path d="M1440 425L1358 443L1440 499V425Z" fill="#4A4A83" stroke="#4A4A83" stroke-linejoin="bevel"/>
<path d="M1440 425L1369 348L1358 443L1440 425Z" fill="#3D3D6C" stroke="#3D3D6C" stroke-linejoin="bevel"/>
<path d="M1375 297L1440 282L1355 223L1375 297Z" fill="#4A4A83" stroke="#4A4A83" stroke-linejoin="bevel"/>
<path d="M1376 148L1440 65L1361 58L1376 148Z" fill="#3A3A67" stroke="#3A3A67" stroke-linejoin="bevel"/>
<path d="M1440 356V282L1375 297L1440 356Z" fill="#3D3D6C" stroke="#3D3D6C" stroke-linejoin="bevel"/>
<path d="M1440 499L1358 443L1370 514L1440 499Z" fill="#50508F" stroke="#50508F" stroke-linejoin="bevel"/>
<path d="M77 294L68 367L151 350L77 294Z" fill="#4A4A83" stroke="#4A4A83" stroke-linejoin="bevel"/>
<path d="M1440 282V204L1355 223L1440 282Z" fill="#46467D" stroke="#46467D" stroke-linejoin="bevel"/>
<path d="M1379 720L1377 647L1290 656L1379 720Z" fill="#404072" stroke="#404072" stroke-linejoin="bevel"/>
<path d="M1440 578V499L1370 514L1440 578Z" fill="#3A3A67" stroke="#3A3A67" stroke-linejoin="bevel"/>
<path d="M1440 65L1370 0L1361 58L1440 65Z" fill="#3D3D6C" stroke="#3D3D6C" stroke-linejoin="bevel"/>
<path d="M1361 58L1370 0H1298L1361 58Z" fill="#404072" stroke="#404072" stroke-linejoin="bevel"/>
<path d="M68 367L67 432L148 440L68 367Z" fill="#3A3A67" stroke="#3A3A67" stroke-linejoin="bevel"/>
<path d="M135 570L138 654L224 581L135 570Z" fill="#4D4D89" stroke="#4D4D89" stroke-linejoin="bevel"/>
<path d="M60 138L69 215L152 144L60 138Z" fill="#363661" stroke="#363661" stroke-linejoin="bevel"/>
<path d="M77 294L0 350L68 367L77 294Z" fill="#4D4D89" stroke="#4D4D89" stroke-linejoin="bevel"/>
<path d="M68 367L0 443L67 432L68 367Z" fill="#404072" stroke="#404072" stroke-linejoin="bevel"/>
<path d="M65 635L138 654L135 570L65 635Z" fill="#3A3A67" stroke="#3A3A67" stroke-linejoin="bevel"/>
<path d="M1440 578L1370 514L1360 584L1440 578Z" fill="#404072" stroke="#404072" stroke-linejoin="bevel"/>
<path d="M228 0H138L157 79L228 0Z" fill="#46467D" stroke="#46467D" stroke-linejoin="bevel"/>
<path d="M157 79L83 80L152 144L157 79Z" fill="#404072" stroke="#404072" stroke-linejoin="bevel"/>
<path d="M1440 204V148H1376L1440 204Z" fill="#404072" stroke="#404072" stroke-linejoin="bevel"/>
<path d="M67 432L70 496L148 440L67 432Z" fill="#303056" stroke="#303056" stroke-linejoin="bevel"/>
<path d="M138 0L83 80L157 79L138 0Z" fill="#4A4A83" stroke="#4A4A83" stroke-linejoin="bevel"/>
<path d="M83 80L60 138L152 144L83 80Z" fill="#50508F" stroke="#50508F" stroke-linejoin="bevel"/>
<path d="M0 298V350L77 294L0 298Z" fill="#33335B" stroke="#33335B" stroke-linejoin="bevel"/>
<path d="M1377 647L1440 578L1360 584L1377 647Z" fill="#4D4D89" stroke="#4D4D89" stroke-linejoin="bevel"/>
<path d="M1440 148V65L1376 148H1440Z" fill="#33335B" stroke="#33335B" stroke-linejoin="bevel"/>
<path d="M1282 720H1379L1290 656L1282 720Z" fill="#434378" stroke="#434378" stroke-linejoin="bevel"/>
<path d="M1377 647L1440 657V578L1377 647Z" fill="#434378" stroke="#434378" stroke-linejoin="bevel"/>
<path d="M78 720H131L138 654L78 720Z" fill="#4D4D89" stroke="#4D4D89" stroke-linejoin="bevel"/>
<path d="M138 654L131 720H204L138 654Z" fill="#303056" stroke="#303056" stroke-linejoin="bevel"/>
<path d="M70 496L63 586L135 570L70 496Z" fill="#404072" stroke="#404072" stroke-linejoin="bevel"/>
<path d="M0 566L63 586L70 496L0 566Z" fill="#4A4A83" stroke="#4A4A83" stroke-linejoin="bevel"/>
<path d="M0 443L70 496L67 432L0 443Z" fill="#4A4A83" stroke="#4A4A83" stroke-linejoin="bevel"/>
<path d="M138 0H82L83 80L138 0Z" fill="#404072" stroke="#404072" stroke-linejoin="bevel"/>
<path d="M0 79V133L60 138L0 79Z" fill="#4D4D89" stroke="#4D4D89" stroke-linejoin="bevel"/>
<path d="M1379 720L1440 657L1377 647L1379 720Z" fill="#50508F" stroke="#50508F" stroke-linejoin="bevel"/>
<path d="M63 586L65 635L135 570L63 586Z" fill="#363661" stroke="#363661" stroke-linejoin="bevel"/>
<path d="M1440 65V0H1370L1440 65Z" fill="#46467D" stroke="#46467D" stroke-linejoin="bevel"/>
<path d="M0 298L69 215L0 202V298Z" fill="#4D4D89" stroke="#4D4D89" stroke-linejoin="bevel"/>
<path d="M0 298L77 294L69 215L0 298Z" fill="#46467D" stroke="#46467D" stroke-linejoin="bevel"/>
<path d="M63 586L0 645L65 635L63 586Z" fill="#3D3D6C" stroke="#3D3D6C" stroke-linejoin="bevel"/>
<path d="M0 202L69 215L60 138L0 202Z" fill="#434378" stroke="#434378" stroke-linejoin="bevel"/>
<path d="M0 350V443L68 367L0 350Z" fill="#33335B" stroke="#33335B" stroke-linejoin="bevel"/>
<path d="M0 133V202L60 138L0 133Z" fill="#33335B" stroke="#33335B" stroke-linejoin="bevel"/>
<path d="M0 443V505L70 496L0 443Z" fill="#4A4A83" stroke="#4A4A83" stroke-linejoin="bevel"/>
<path d="M0 79L60 138L83 80L0 79Z" fill="#46467D" stroke="#46467D" stroke-linejoin="bevel"/>
<path d="M0 645L78 720L65 635L0 645Z" fill="#434378" stroke="#434378" stroke-linejoin="bevel"/>
<path d="M65 635L78 720L138 654L65 635Z" fill="#46467D" stroke="#46467D" stroke-linejoin="bevel"/>
<path d="M1379 720H1440V657L1379 720Z" fill="#404072" stroke="#404072" stroke-linejoin="bevel"/>
<path d="M0 505V566L70 496L0 505Z" fill="#363661" stroke="#363661" stroke-linejoin="bevel"/>
<path d="M82 0L0 79L83 80L82 0Z" fill="#46467D" stroke="#46467D" stroke-linejoin="bevel"/>
<path d="M0 566V645L63 586L0 566Z" fill="#3D3D6C" stroke="#3D3D6C" stroke-linejoin="bevel"/>
<path d="M82 0H0V79L82 0Z" fill="#3D3D6C" stroke="#3D3D6C" stroke-linejoin="bevel"/>
<path d="M0 645V720H78L0 645Z" fill="#404072" stroke="#404072" stroke-linejoin="bevel"/>
</g>
<defs>
<clipPath id="clip0_614_47747">
<rect width="1440" height="720" fill="white"/>
</clipPath>
</defs>
</svg>
