<svg width="1440" height="720" viewBox="0 0 1440 720" fill="none" xmlns="http://www.w3.org/2000/svg">
<g clip-path="url(#clip0_623_50670)">
<path d="M720 373L728 434L790 430L720 373Z" fill="#4F4F8E" stroke="#4F4F8E" stroke-linejoin="bevel"/>
<path d="M790 430L802 347L720 373L790 430Z" fill="#4A4A84" stroke="#4A4A84" stroke-linejoin="bevel"/>
<path d="M728 434L795 494L790 430L728 434Z" fill="#555598" stroke="#555598" stroke-linejoin="bevel"/>
<path d="M790 430L868 426L802 347L790 430Z" fill="#6665B6" stroke="#6665B6" stroke-linejoin="bevel"/>
<path d="M802 347L780 294L720 373L802 347Z" fill="#4A4A84" stroke="#4A4A84" stroke-linejoin="bevel"/>
<path d="M646 352L652 440L720 373L646 352Z" fill="#4F4F8E" stroke="#4F4F8E" stroke-linejoin="bevel"/>
<path d="M720 373L652 440L728 434L720 373Z" fill="#6060AC" stroke="#6060AC" stroke-linejoin="bevel"/>
<path d="M728 434L716 507L795 494L728 434Z" fill="#4A4A84" stroke="#4A4A84" stroke-linejoin="bevel"/>
<path d="M795 494L868 426L790 430L795 494Z" fill="#4F4F8E" stroke="#4F4F8E" stroke-linejoin="bevel"/>
<path d="M802 347L864 300L780 294L802 347Z" fill="#3F3F71" stroke="#3F3F71" stroke-linejoin="bevel"/>
<path d="M652 440L716 507L728 434L652 440Z" fill="#3F3F71" stroke="#3F3F71" stroke-linejoin="bevel"/>
<path d="M728 278L646 352L720 373L728 278Z" fill="#555598" stroke="#555598" stroke-linejoin="bevel"/>
<path d="M780 294L728 278L720 373L780 294Z" fill="#45457B" stroke="#45457B" stroke-linejoin="bevel"/>
<path d="M868 426L877 349L802 347L868 426Z" fill="#4A4A84" stroke="#4A4A84" stroke-linejoin="bevel"/>
<path d="M877 349L864 300L802 347L877 349Z" fill="#3F3F71" stroke="#3F3F71" stroke-linejoin="bevel"/>
<path d="M780 294L793 210L728 278L780 294Z" fill="#35355F" stroke="#35355F" stroke-linejoin="bevel"/>
<path d="M805 577L851 515L795 494L805 577Z" fill="#3A3A68" stroke="#3A3A68" stroke-linejoin="bevel"/>
<path d="M795 494L851 515L868 426L795 494Z" fill="#6665B6" stroke="#6665B6" stroke-linejoin="bevel"/>
<path d="M728 278L644 297L646 352L728 278Z" fill="#303056" stroke="#303056" stroke-linejoin="bevel"/>
<path d="M571 439L646 506L652 440L571 439Z" fill="#6060AC" stroke="#6060AC" stroke-linejoin="bevel"/>
<path d="M652 440L646 506L716 507L652 440Z" fill="#4F4F8E" stroke="#4F4F8E" stroke-linejoin="bevel"/>
<path d="M716 507L805 577L795 494L716 507Z" fill="#6665B6" stroke="#6665B6" stroke-linejoin="bevel"/>
<path d="M576 372L652 440L646 352L576 372Z" fill="#3F3F71" stroke="#3F3F71" stroke-linejoin="bevel"/>
<path d="M851 515L922 444L868 426L851 515Z" fill="#555598" stroke="#555598" stroke-linejoin="bevel"/>
<path d="M868 426L934 357L877 349L868 426Z" fill="#5B5AA2" stroke="#5B5AA2" stroke-linejoin="bevel"/>
<path d="M877 349L929 296L864 300L877 349Z" fill="#3A3A68" stroke="#3A3A68" stroke-linejoin="bevel"/>
<path d="M922 444L934 357L868 426L922 444Z" fill="#3F3F71" stroke="#3F3F71" stroke-linejoin="bevel"/>
<path d="M577 290L576 372L646 352L577 290Z" fill="#4A4A84" stroke="#4A4A84" stroke-linejoin="bevel"/>
<path d="M708 589L805 577L716 507L708 589Z" fill="#303056" stroke="#303056" stroke-linejoin="bevel"/>
<path d="M851 515L944 510L922 444L851 515Z" fill="#6665B6" stroke="#6665B6" stroke-linejoin="bevel"/>
<path d="M576 372L571 439L652 440L576 372Z" fill="#6060AC" stroke="#6060AC" stroke-linejoin="bevel"/>
<path d="M870 209L793 210L864 300L870 209Z" fill="#5B5AA2" stroke="#5B5AA2" stroke-linejoin="bevel"/>
<path d="M864 300L793 210L780 294L864 300Z" fill="#303056" stroke="#303056" stroke-linejoin="bevel"/>
<path d="M728 278L644 223V297L728 278Z" fill="#6060AC" stroke="#6060AC" stroke-linejoin="bevel"/>
<path d="M657 584L716 507L646 506L657 584Z" fill="#4F4F8E" stroke="#4F4F8E" stroke-linejoin="bevel"/>
<path d="M657 584L708 589L716 507L657 584Z" fill="#555598" stroke="#555598" stroke-linejoin="bevel"/>
<path d="M793 210L713 204L728 278L793 210Z" fill="#4F4F8E" stroke="#4F4F8E" stroke-linejoin="bevel"/>
<path d="M644 297L577 290L646 352L644 297Z" fill="#303056" stroke="#303056" stroke-linejoin="bevel"/>
<path d="M934 357L929 296L877 349L934 357Z" fill="#4F4F8E" stroke="#4F4F8E" stroke-linejoin="bevel"/>
<path d="M713 204L644 223L728 278L713 204Z" fill="#6060AC" stroke="#6060AC" stroke-linejoin="bevel"/>
<path d="M576 511L657 584L646 506L576 511Z" fill="#4F4F8E" stroke="#4F4F8E" stroke-linejoin="bevel"/>
<path d="M644 223L577 290L644 297V223Z" fill="#5B5AA2" stroke="#5B5AA2" stroke-linejoin="bevel"/>
<path d="M576 372L502 431L571 439L576 372Z" fill="#5B5AA2" stroke="#5B5AA2" stroke-linejoin="bevel"/>
<path d="M786 661L850 589L805 577L786 661Z" fill="#35355F" stroke="#35355F" stroke-linejoin="bevel"/>
<path d="M805 577L850 589L851 515L805 577Z" fill="#35355F" stroke="#35355F" stroke-linejoin="bevel"/>
<path d="M571 439L576 511L646 506L571 439Z" fill="#6665B6" stroke="#6665B6" stroke-linejoin="bevel"/>
<path d="M949 570L944 510L851 515L949 570Z" fill="#3A3A68" stroke="#3A3A68" stroke-linejoin="bevel"/>
<path d="M922 444L1007 421L934 357L922 444Z" fill="#6060AC" stroke="#6060AC" stroke-linejoin="bevel"/>
<path d="M929 296L870 209L864 300L929 296Z" fill="#3F3F71" stroke="#3F3F71" stroke-linejoin="bevel"/>
<path d="M793 210L778 135L713 204L793 210Z" fill="#3F3F71" stroke="#3F3F71" stroke-linejoin="bevel"/>
<path d="M944 510L1007 421L922 444L944 510Z" fill="#3F3F71" stroke="#3F3F71" stroke-linejoin="bevel"/>
<path d="M934 357L1013 291L929 296L934 357Z" fill="#35355F" stroke="#35355F" stroke-linejoin="bevel"/>
<path d="M500 360L502 431L576 372L500 360Z" fill="#6665B6" stroke="#6665B6" stroke-linejoin="bevel"/>
<path d="M571 439L507 510L576 511L571 439Z" fill="#6665B6" stroke="#6665B6" stroke-linejoin="bevel"/>
<path d="M850 589L949 570L851 515L850 589Z" fill="#4F4F8E" stroke="#4F4F8E" stroke-linejoin="bevel"/>
<path d="M944 510L1004 513L1007 421L944 510Z" fill="#3A3A68" stroke="#3A3A68" stroke-linejoin="bevel"/>
<path d="M1013 291L940 218L929 296L1013 291Z" fill="#4A4A84" stroke="#4A4A84" stroke-linejoin="bevel"/>
<path d="M929 296L940 218L870 209L929 296Z" fill="#555598" stroke="#555598" stroke-linejoin="bevel"/>
<path d="M1007 421L1015 373L934 357L1007 421Z" fill="#35355F" stroke="#35355F" stroke-linejoin="bevel"/>
<path d="M497 300L500 360L577 290L497 300Z" fill="#4F4F8E" stroke="#4F4F8E" stroke-linejoin="bevel"/>
<path d="M577 290L500 360L576 372L577 290Z" fill="#555598" stroke="#555598" stroke-linejoin="bevel"/>
<path d="M710 661H786L708 589L710 661Z" fill="#4F4F8E" stroke="#4F4F8E" stroke-linejoin="bevel"/>
<path d="M708 589L786 661L805 577L708 589Z" fill="#6665B6" stroke="#6665B6" stroke-linejoin="bevel"/>
<path d="M850 589L865 642L949 570L850 589Z" fill="#3A3A68" stroke="#3A3A68" stroke-linejoin="bevel"/>
<path d="M574 660L659 645L657 584L574 660Z" fill="#6665B6" stroke="#6665B6" stroke-linejoin="bevel"/>
<path d="M657 584L659 645L708 589L657 584Z" fill="#6665B6" stroke="#6665B6" stroke-linejoin="bevel"/>
<path d="M563 582L657 584L576 511L563 582Z" fill="#3F3F71" stroke="#3F3F71" stroke-linejoin="bevel"/>
<path d="M864 143L793 210L870 209L864 143Z" fill="#45457B" stroke="#45457B" stroke-linejoin="bevel"/>
<path d="M864 143L778 135L793 210L864 143Z" fill="#45457B" stroke="#45457B" stroke-linejoin="bevel"/>
<path d="M713 204L659 131L644 223L713 204Z" fill="#45457B" stroke="#45457B" stroke-linejoin="bevel"/>
<path d="M786 661L865 642L850 589L786 661Z" fill="#4A4A84" stroke="#4A4A84" stroke-linejoin="bevel"/>
<path d="M659 645L710 661L708 589L659 645Z" fill="#555598" stroke="#555598" stroke-linejoin="bevel"/>
<path d="M507 510L563 582L576 511L507 510Z" fill="#4A4A84" stroke="#4A4A84" stroke-linejoin="bevel"/>
<path d="M778 135L710 134L713 204L778 135Z" fill="#303056" stroke="#303056" stroke-linejoin="bevel"/>
<path d="M644 223L565 208L577 290L644 223Z" fill="#35355F" stroke="#35355F" stroke-linejoin="bevel"/>
<path d="M659 131L565 208L644 223L659 131Z" fill="#6665B6" stroke="#6665B6" stroke-linejoin="bevel"/>
<path d="M949 570L1004 513L944 510L949 570Z" fill="#303056" stroke="#303056" stroke-linejoin="bevel"/>
<path d="M1007 421L1068 433L1015 373L1007 421Z" fill="#555598" stroke="#555598" stroke-linejoin="bevel"/>
<path d="M502 431L507 510L571 439L502 431Z" fill="#303056" stroke="#303056" stroke-linejoin="bevel"/>
<path d="M934 130L864 143L870 209L934 130Z" fill="#35355F" stroke="#35355F" stroke-linejoin="bevel"/>
<path d="M1015 373L1013 291L934 357L1015 373Z" fill="#303056" stroke="#303056" stroke-linejoin="bevel"/>
<path d="M508 211L497 300L577 290L508 211Z" fill="#3F3F71" stroke="#3F3F71" stroke-linejoin="bevel"/>
<path d="M500 360L437 425L502 431L500 360Z" fill="#3A3A68" stroke="#3A3A68" stroke-linejoin="bevel"/>
<path d="M727 65L659 131L710 134L727 65Z" fill="#303056" stroke="#303056" stroke-linejoin="bevel"/>
<path d="M710 134L659 131L713 204L710 134Z" fill="#3A3A68" stroke="#3A3A68" stroke-linejoin="bevel"/>
<path d="M863 720L923 655L865 642L863 720Z" fill="#45457B" stroke="#45457B" stroke-linejoin="bevel"/>
<path d="M865 642L923 655L949 570L865 642Z" fill="#45457B" stroke="#45457B" stroke-linejoin="bevel"/>
<path d="M949 570L1019 588L1004 513L949 570Z" fill="#3F3F71" stroke="#3F3F71" stroke-linejoin="bevel"/>
<path d="M440 583L511 585L507 510L440 583Z" fill="#6665B6" stroke="#6665B6" stroke-linejoin="bevel"/>
<path d="M507 510L511 585L563 582L507 510Z" fill="#6665B6" stroke="#6665B6" stroke-linejoin="bevel"/>
<path d="M563 582L574 660L657 584L563 582Z" fill="#3A3A68" stroke="#3A3A68" stroke-linejoin="bevel"/>
<path d="M506 139L508 211L565 208L506 139Z" fill="#3A3A68" stroke="#3A3A68" stroke-linejoin="bevel"/>
<path d="M565 208L508 211L577 290L565 208Z" fill="#3A3A68" stroke="#3A3A68" stroke-linejoin="bevel"/>
<path d="M1069 509L1068 433L1004 513L1069 509Z" fill="#3A3A68" stroke="#3A3A68" stroke-linejoin="bevel"/>
<path d="M1004 513L1068 433L1007 421L1004 513Z" fill="#4A4A84" stroke="#4A4A84" stroke-linejoin="bevel"/>
<path d="M1015 373L1093 358L1013 291L1015 373Z" fill="#555598" stroke="#555598" stroke-linejoin="bevel"/>
<path d="M1091 280L1015 216L1013 291L1091 280Z" fill="#555598" stroke="#555598" stroke-linejoin="bevel"/>
<path d="M1013 291L1015 216L940 218L1013 291Z" fill="#555598" stroke="#555598" stroke-linejoin="bevel"/>
<path d="M940 218L934 130L870 209L940 218Z" fill="#6665B6" stroke="#6665B6" stroke-linejoin="bevel"/>
<path d="M515 659L574 660L563 582L515 659Z" fill="#6665B6" stroke="#6665B6" stroke-linejoin="bevel"/>
<path d="M658 720H727L710 661L658 720Z" fill="#6060AC" stroke="#6060AC" stroke-linejoin="bevel"/>
<path d="M444 300L440 353L497 300H444Z" fill="#6665B6" stroke="#6665B6" stroke-linejoin="bevel"/>
<path d="M497 300L440 353L500 360L497 300Z" fill="#5B5AA2" stroke="#5B5AA2" stroke-linejoin="bevel"/>
<path d="M502 431L437 425L507 510L502 431Z" fill="#35355F" stroke="#35355F" stroke-linejoin="bevel"/>
<path d="M440 353L437 425L500 360L440 353Z" fill="#303056" stroke="#303056" stroke-linejoin="bevel"/>
<path d="M658 720L710 661L659 645L658 720Z" fill="#45457B" stroke="#45457B" stroke-linejoin="bevel"/>
<path d="M710 661L727 720L786 661H710Z" fill="#6665B6" stroke="#6665B6" stroke-linejoin="bevel"/>
<path d="M786 661L863 720L865 642L786 661Z" fill="#555598" stroke="#555598" stroke-linejoin="bevel"/>
<path d="M1021 141L934 130L940 218L1021 141Z" fill="#303056" stroke="#303056" stroke-linejoin="bevel"/>
<path d="M864 143L786 69L778 135L864 143Z" fill="#35355F" stroke="#35355F" stroke-linejoin="bevel"/>
<path d="M778 135L727 65L710 134L778 135Z" fill="#3F3F71" stroke="#3F3F71" stroke-linejoin="bevel"/>
<path d="M727 720H788L786 661L727 720Z" fill="#555598" stroke="#555598" stroke-linejoin="bevel"/>
<path d="M1012 647L1019 588L949 570L1012 647Z" fill="#35355F" stroke="#35355F" stroke-linejoin="bevel"/>
<path d="M436 213L444 300H497L436 213Z" fill="#4A4A84" stroke="#4A4A84" stroke-linejoin="bevel"/>
<path d="M659 131L566 132L565 208L659 131Z" fill="#303056" stroke="#303056" stroke-linejoin="bevel"/>
<path d="M1019 588L1069 509L1004 513L1019 588Z" fill="#6665B6" stroke="#6665B6" stroke-linejoin="bevel"/>
<path d="M868 68L786 69L864 143L868 68Z" fill="#6665B6" stroke="#6665B6" stroke-linejoin="bevel"/>
<path d="M659 131L587 75L566 132L659 131Z" fill="#3F3F71" stroke="#3F3F71" stroke-linejoin="bevel"/>
<path d="M786 69L727 65L778 135L786 69Z" fill="#6665B6" stroke="#6665B6" stroke-linejoin="bevel"/>
<path d="M574 660L658 720L659 645L574 660Z" fill="#6665B6" stroke="#6665B6" stroke-linejoin="bevel"/>
<path d="M788 720H863L786 661L788 720Z" fill="#6665B6" stroke="#6665B6" stroke-linejoin="bevel"/>
<path d="M923 655L1012 647L949 570L923 655Z" fill="#6060AC" stroke="#6060AC" stroke-linejoin="bevel"/>
<path d="M1142 370L1093 358L1068 433L1142 370Z" fill="#4A4A84" stroke="#4A4A84" stroke-linejoin="bevel"/>
<path d="M1068 433L1093 358L1015 373L1068 433Z" fill="#303056" stroke="#303056" stroke-linejoin="bevel"/>
<path d="M934 130L868 68L864 143L934 130Z" fill="#6060AC" stroke="#6060AC" stroke-linejoin="bevel"/>
<path d="M786 69L724 0L727 65L786 69Z" fill="#35355F" stroke="#35355F" stroke-linejoin="bevel"/>
<path d="M363 436L420 508L437 425L363 436Z" fill="#5B5AA2" stroke="#5B5AA2" stroke-linejoin="bevel"/>
<path d="M437 425L420 508L507 510L437 425Z" fill="#555598" stroke="#555598" stroke-linejoin="bevel"/>
<path d="M511 585L515 659L563 582L511 585Z" fill="#6665B6" stroke="#6665B6" stroke-linejoin="bevel"/>
<path d="M363 436L437 425L353 369L363 436Z" fill="#555598" stroke="#555598" stroke-linejoin="bevel"/>
<path d="M1093 358L1091 280L1013 291L1093 358Z" fill="#4F4F8E" stroke="#4F4F8E" stroke-linejoin="bevel"/>
<path d="M1015 216L1021 141L940 218L1015 216Z" fill="#555598" stroke="#555598" stroke-linejoin="bevel"/>
<path d="M438 636L515 659L511 585L438 636Z" fill="#555598" stroke="#555598" stroke-linejoin="bevel"/>
<path d="M574 660L569 720H658L574 660Z" fill="#4F4F8E" stroke="#4F4F8E" stroke-linejoin="bevel"/>
<path d="M1019 588L1089 569L1069 509L1019 588Z" fill="#4F4F8E" stroke="#4F4F8E" stroke-linejoin="bevel"/>
<path d="M999 720L1012 647L923 655L999 720Z" fill="#6665B6" stroke="#6665B6" stroke-linejoin="bevel"/>
<path d="M653 0L640 63L727 65L653 0Z" fill="#6060AC" stroke="#6060AC" stroke-linejoin="bevel"/>
<path d="M727 65L640 63L659 131L727 65Z" fill="#3F3F71" stroke="#3F3F71" stroke-linejoin="bevel"/>
<path d="M503 82L506 139L566 132L503 82Z" fill="#555598" stroke="#555598" stroke-linejoin="bevel"/>
<path d="M566 132L506 139L565 208L566 132Z" fill="#3A3A68" stroke="#3A3A68" stroke-linejoin="bevel"/>
<path d="M508 211L436 213L497 300L508 211Z" fill="#303056" stroke="#303056" stroke-linejoin="bevel"/>
<path d="M640 63L587 75L659 131L640 63Z" fill="#3F3F71" stroke="#3F3F71" stroke-linejoin="bevel"/>
<path d="M420 508L440 583L507 510L420 508Z" fill="#6665B6" stroke="#6665B6" stroke-linejoin="bevel"/>
<path d="M863 720H938L923 655L863 720Z" fill="#45457B" stroke="#45457B" stroke-linejoin="bevel"/>
<path d="M1083 206L1021 141L1015 216L1083 206Z" fill="#6060AC" stroke="#6060AC" stroke-linejoin="bevel"/>
<path d="M934 130L943 71L868 68L934 130Z" fill="#3F3F71" stroke="#3F3F71" stroke-linejoin="bevel"/>
<path d="M434 152L436 213L508 211L434 152Z" fill="#4A4A84" stroke="#4A4A84" stroke-linejoin="bevel"/>
<path d="M353 369L437 425L440 353L353 369Z" fill="#3A3A68" stroke="#3A3A68" stroke-linejoin="bevel"/>
<path d="M516 720H569L515 659L516 720Z" fill="#6060AC" stroke="#6060AC" stroke-linejoin="bevel"/>
<path d="M515 659L569 720L574 660L515 659Z" fill="#5B5AA2" stroke="#5B5AA2" stroke-linejoin="bevel"/>
<path d="M1074 635L1089 569L1019 588L1074 635Z" fill="#3F3F71" stroke="#3F3F71" stroke-linejoin="bevel"/>
<path d="M1152 427L1142 370L1068 433L1152 427Z" fill="#5B5AA2" stroke="#5B5AA2" stroke-linejoin="bevel"/>
<path d="M995 79L943 71L934 130L995 79Z" fill="#45457B" stroke="#45457B" stroke-linejoin="bevel"/>
<path d="M1091 280L1083 206L1015 216L1091 280Z" fill="#303056" stroke="#303056" stroke-linejoin="bevel"/>
<path d="M1152 427L1068 433L1149 492L1152 427Z" fill="#35355F" stroke="#35355F" stroke-linejoin="bevel"/>
<path d="M1093 358L1153 300L1091 280L1093 358Z" fill="#303056" stroke="#303056" stroke-linejoin="bevel"/>
<path d="M1091 280L1165 221L1083 206L1091 280Z" fill="#4F4F8E" stroke="#4F4F8E" stroke-linejoin="bevel"/>
<path d="M1012 647L1074 635L1019 588L1012 647Z" fill="#5B5AA2" stroke="#5B5AA2" stroke-linejoin="bevel"/>
<path d="M1149 492L1068 433L1069 509L1149 492Z" fill="#4A4A84" stroke="#303056" stroke-linejoin="bevel"/>
<path d="M1084 720L1074 635L1012 647L1084 720Z" fill="#5B5AA2" stroke="#5B5AA2" stroke-linejoin="bevel"/>
<path d="M370 284L440 353L444 300L370 284Z" fill="#35355F" stroke="#35355F" stroke-linejoin="bevel"/>
<path d="M420 508L352 564L440 583L420 508Z" fill="#303056" stroke="#303056" stroke-linejoin="bevel"/>
<path d="M1149 492L1069 509L1089 569L1149 492Z" fill="#303056" stroke="#303056" stroke-linejoin="bevel"/>
<path d="M361 648L438 636L440 583L361 648Z" fill="#4A4A84" stroke="#4A4A84" stroke-linejoin="bevel"/>
<path d="M440 583L438 636L511 585L440 583Z" fill="#35355F" stroke="#35355F" stroke-linejoin="bevel"/>
<path d="M1021 141L995 79L934 130L1021 141Z" fill="#4F4F8E" stroke="#4F4F8E" stroke-linejoin="bevel"/>
<path d="M1084 65L995 79L1021 141L1084 65Z" fill="#3A3A68" stroke="#3A3A68" stroke-linejoin="bevel"/>
<path d="M804 0L868 68L860 0H804Z" fill="#4A4A84" stroke="#4A4A84" stroke-linejoin="bevel"/>
<path d="M804 0L786 69L868 68L804 0Z" fill="#45457B" stroke="#45457B" stroke-linejoin="bevel"/>
<path d="M804 0H724L786 69L804 0Z" fill="#6060AC" stroke="#6060AC" stroke-linejoin="bevel"/>
<path d="M640 63L588 0L587 75L640 63Z" fill="#45457B" stroke="#45457B" stroke-linejoin="bevel"/>
<path d="M424 720H516L515 659L424 720Z" fill="#5B5AA2" stroke="#5B5AA2" stroke-linejoin="bevel"/>
<path d="M938 720H999L923 655L938 720Z" fill="#5B5AA2" stroke="#5B5AA2" stroke-linejoin="bevel"/>
<path d="M860 0L868 68L938 0H860Z" fill="#303056" stroke="#303056" stroke-linejoin="bevel"/>
<path d="M1141 589L1149 492L1089 569L1141 589Z" fill="#6665B6" stroke="#6665B6" stroke-linejoin="bevel"/>
<path d="M436 213L370 284L444 300L436 213Z" fill="#6060AC" stroke="#6060AC" stroke-linejoin="bevel"/>
<path d="M370 284L353 369L440 353L370 284Z" fill="#45457B" stroke="#45457B" stroke-linejoin="bevel"/>
<path d="M587 75L503 82L566 132L587 75Z" fill="#5B5AA2" stroke="#5B5AA2" stroke-linejoin="bevel"/>
<path d="M506 139L434 152L508 211L506 139Z" fill="#555598" stroke="#555598" stroke-linejoin="bevel"/>
<path d="M436 213L346 227L370 284L436 213Z" fill="#6060AC" stroke="#6060AC" stroke-linejoin="bevel"/>
<path d="M514 0L503 82L587 75L514 0Z" fill="#35355F" stroke="#35355F" stroke-linejoin="bevel"/>
<path d="M432 80L434 152L506 139L432 80Z" fill="#4A4A84" stroke="#4A4A84" stroke-linejoin="bevel"/>
<path d="M352 564L364 509L290 498L352 564Z" fill="#303056" stroke="#303056" stroke-linejoin="bevel"/>
<path d="M363 436L364 509L420 508L363 436Z" fill="#4A4A84" stroke="#4A4A84" stroke-linejoin="bevel"/>
<path d="M1210 358L1153 300L1142 370L1210 358Z" fill="#4A4A84" stroke="#4A4A84" stroke-linejoin="bevel"/>
<path d="M1142 370L1153 300L1093 358L1142 370Z" fill="#4F4F8E" stroke="#4F4F8E" stroke-linejoin="bevel"/>
<path d="M1083 206L1090 141H1021L1083 206Z" fill="#303056" stroke="#303056" stroke-linejoin="bevel"/>
<path d="M938 0L868 68L943 71L938 0Z" fill="#6665B6" stroke="#6665B6" stroke-linejoin="bevel"/>
<path d="M724 0H653L727 65L724 0Z" fill="#6060AC" stroke="#6060AC" stroke-linejoin="bevel"/>
<path d="M1148 131L1090 141L1083 206L1148 131Z" fill="#45457B" stroke="#45457B" stroke-linejoin="bevel"/>
<path d="M1160 659L1141 589L1074 635L1160 659Z" fill="#35355F" stroke="#35355F" stroke-linejoin="bevel"/>
<path d="M1074 635L1141 589L1089 569L1074 635Z" fill="#3A3A68" stroke="#3A3A68" stroke-linejoin="bevel"/>
<path d="M653 0H588L640 63L653 0Z" fill="#4F4F8E" stroke="#4F4F8E" stroke-linejoin="bevel"/>
<path d="M364 509L352 564L420 508L364 509Z" fill="#6060AC" stroke="#6060AC" stroke-linejoin="bevel"/>
<path d="M438 636L424 720L515 659L438 636Z" fill="#45457B" stroke="#45457B" stroke-linejoin="bevel"/>
<path d="M290 498L364 509L363 436L290 498Z" fill="#3F3F71" stroke="#3F3F71" stroke-linejoin="bevel"/>
<path d="M1013 0H938L995 79L1013 0Z" fill="#6060AC" stroke="#6060AC" stroke-linejoin="bevel"/>
<path d="M995 79L938 0L943 71L995 79Z" fill="#303056" stroke="#303056" stroke-linejoin="bevel"/>
<path d="M1153 300L1165 221L1091 280L1153 300Z" fill="#5B5AA2" stroke="#5B5AA2" stroke-linejoin="bevel"/>
<path d="M1222 288L1165 221L1153 300L1222 288Z" fill="#35355F" stroke="#35355F" stroke-linejoin="bevel"/>
<path d="M1210 358L1142 370L1152 427L1210 358Z" fill="#45457B" stroke="#45457B" stroke-linejoin="bevel"/>
<path d="M348 157L436 213L434 152L348 157Z" fill="#555598" stroke="#555598" stroke-linejoin="bevel"/>
<path d="M348 157L346 227L436 213L348 157Z" fill="#35355F" stroke="#35355F" stroke-linejoin="bevel"/>
<path d="M370 284L296 285L353 369L370 284Z" fill="#4A4A84" stroke="#4A4A84" stroke-linejoin="bevel"/>
<path d="M353 369L290 444L363 436L353 369Z" fill="#3A3A68" stroke="#3A3A68" stroke-linejoin="bevel"/>
<path d="M432 80L506 139L503 82L432 80Z" fill="#4F4F8E" stroke="#4F4F8E" stroke-linejoin="bevel"/>
<path d="M1233 441L1152 427L1149 492L1233 441Z" fill="#4F4F8E" stroke="#303056" stroke-linejoin="bevel"/>
<path d="M1233 441L1210 358L1152 427L1233 441Z" fill="#303056" stroke="#303056" stroke-linejoin="bevel"/>
<path d="M426 0L432 80L503 82L426 0Z" fill="#303056" stroke="#303056" stroke-linejoin="bevel"/>
<path d="M999 720H1084L1012 647L999 720Z" fill="#6060AC" stroke="#6060AC" stroke-linejoin="bevel"/>
<path d="M361 648L424 720L438 636L361 648Z" fill="#4A4A84" stroke="#4A4A84" stroke-linejoin="bevel"/>
<path d="M588 0H514L587 75L588 0Z" fill="#3F3F71" stroke="#3F3F71" stroke-linejoin="bevel"/>
<path d="M352 564L361 648L440 583L352 564Z" fill="#3F3F71" stroke="#3F3F71" stroke-linejoin="bevel"/>
<path d="M1090 141L1084 65L1021 141H1090Z" fill="#6060AC" stroke="#6060AC" stroke-linejoin="bevel"/>
<path d="M1148 131L1084 65L1090 141L1148 131Z" fill="#3A3A68" stroke="#3A3A68" stroke-linejoin="bevel"/>
<path d="M278 360L290 444L353 369L278 360Z" fill="#4A4A84" stroke="#4A4A84" stroke-linejoin="bevel"/>
<path d="M352 564L300 643L361 648L352 564Z" fill="#3A3A68" stroke="#3A3A68" stroke-linejoin="bevel"/>
<path d="M1231 142L1148 131L1165 221L1231 142Z" fill="#5B5AA2" stroke="#5B5AA2" stroke-linejoin="bevel"/>
<path d="M1165 221L1148 131L1083 206L1165 221Z" fill="#5B5AA2" stroke="#5B5AA2" stroke-linejoin="bevel"/>
<path d="M1084 65L1013 0L995 79L1084 65Z" fill="#3F3F71" stroke="#3F3F71" stroke-linejoin="bevel"/>
<path d="M292 217L296 285L346 227L292 217Z" fill="#6060AC" stroke="#6060AC" stroke-linejoin="bevel"/>
<path d="M346 227L296 285L370 284L346 227Z" fill="#6665B6" stroke="#6665B6" stroke-linejoin="bevel"/>
<path d="M373 61L348 157L432 80L373 61Z" fill="#3A3A68" stroke="#3A3A68" stroke-linejoin="bevel"/>
<path d="M432 80L348 157L434 152L432 80Z" fill="#303056" stroke="#303056" stroke-linejoin="bevel"/>
<path d="M290 444V498L363 436L290 444Z" fill="#35355F" stroke="#35355F" stroke-linejoin="bevel"/>
<path d="M1230 513L1149 492L1217 572L1230 513Z" fill="#6665B6" stroke="#6665B6" stroke-linejoin="bevel"/>
<path d="M1230 513L1233 441L1149 492L1230 513Z" fill="#3F3F71" stroke="#3F3F71" stroke-linejoin="bevel"/>
<path d="M1210 358L1222 288L1153 300L1210 358Z" fill="#5B5AA2" stroke="#5B5AA2" stroke-linejoin="bevel"/>
<path d="M1283 365L1222 288L1210 358L1283 365Z" fill="#3A3A68" stroke="#3A3A68" stroke-linejoin="bevel"/>
<path d="M1084 720L1160 659L1074 635L1084 720Z" fill="#555598" stroke="#555598" stroke-linejoin="bevel"/>
<path d="M296 285L278 360L353 369L296 285Z" fill="#3A3A68" stroke="#3A3A68" stroke-linejoin="bevel"/>
<path d="M290 444L219 513L290 498V444Z" fill="#35355F" stroke="#35355F" stroke-linejoin="bevel"/>
<path d="M1217 572L1149 492L1141 589L1217 572Z" fill="#4A4A84" stroke="#4A4A84" stroke-linejoin="bevel"/>
<path d="M1223 642L1217 572L1141 589L1223 642Z" fill="#3F3F71" stroke="#3F3F71" stroke-linejoin="bevel"/>
<path d="M348 157L292 217L346 227L348 157Z" fill="#35355F" stroke="#35355F" stroke-linejoin="bevel"/>
<path d="M296 285L211 351L278 360L296 285Z" fill="#3F3F71" stroke="#3F3F71" stroke-linejoin="bevel"/>
<path d="M1222 288L1226 225L1165 221L1222 288Z" fill="#35355F" stroke="#35355F" stroke-linejoin="bevel"/>
<path d="M1284 224L1226 225L1222 288L1284 224Z" fill="#4F4F8E" stroke="#4F4F8E" stroke-linejoin="bevel"/>
<path d="M219 513L285 567L290 498L219 513Z" fill="#3F3F71" stroke="#3F3F71" stroke-linejoin="bevel"/>
<path d="M290 498L285 567L352 564L290 498Z" fill="#4A4A84" stroke="#4A4A84" stroke-linejoin="bevel"/>
<path d="M361 648L372 720H424L361 648Z" fill="#35355F" stroke="#35355F" stroke-linejoin="bevel"/>
<path d="M300 720H372L361 648L300 720Z" fill="#4A4A84" stroke="#4A4A84" stroke-linejoin="bevel"/>
<path d="M1084 720H1150L1160 659L1084 720Z" fill="#5B5AA2" stroke="#5B5AA2" stroke-linejoin="bevel"/>
<path d="M1160 659L1223 642L1141 589L1160 659Z" fill="#3F3F71" stroke="#3F3F71" stroke-linejoin="bevel"/>
<path d="M426 0L373 61L432 80L426 0Z" fill="#6060AC" stroke="#6060AC" stroke-linejoin="bevel"/>
<path d="M348 157L297 149L292 217L348 157Z" fill="#5B5AA2" stroke="#5B5AA2" stroke-linejoin="bevel"/>
<path d="M1214 85L1153 69L1148 131L1214 85Z" fill="#4A4A84" stroke="#4A4A84" stroke-linejoin="bevel"/>
<path d="M1148 131L1153 69L1084 65L1148 131Z" fill="#5B5AA2" stroke="#5B5AA2" stroke-linejoin="bevel"/>
<path d="M1084 65L1087 0H1013L1084 65Z" fill="#4F4F8E" stroke="#4F4F8E" stroke-linejoin="bevel"/>
<path d="M285 567L300 643L352 564L285 567Z" fill="#5B5AA2" stroke="#5B5AA2" stroke-linejoin="bevel"/>
<path d="M1153 69L1087 0L1084 65L1153 69Z" fill="#555598" stroke="#555598" stroke-linejoin="bevel"/>
<path d="M514 0H426L503 82L514 0Z" fill="#6665B6" stroke="#6665B6" stroke-linejoin="bevel"/>
<path d="M283 84L297 149L348 157L283 84Z" fill="#4A4A84" stroke="#4A4A84" stroke-linejoin="bevel"/>
<path d="M212 274L211 351L296 285L212 274Z" fill="#3A3A68" stroke="#3A3A68" stroke-linejoin="bevel"/>
<path d="M1220 720L1223 642L1160 659L1220 720Z" fill="#3F3F71" stroke="#3F3F71" stroke-linejoin="bevel"/>
<path d="M1306 506L1287 445L1230 513L1306 506Z" fill="#3A3A68" stroke="#3A3A68" stroke-linejoin="bevel"/>
<path d="M1287 445L1283 365L1233 441L1287 445Z" fill="#4A4A84" stroke="#4A4A84" stroke-linejoin="bevel"/>
<path d="M1233 441L1283 365L1210 358L1233 441Z" fill="#5B5AA2" stroke="#5B5AA2" stroke-linejoin="bevel"/>
<path d="M1287 445L1233 441L1230 513L1287 445Z" fill="#5B5AA2" stroke="#5B5AA2" stroke-linejoin="bevel"/>
<path d="M1306 506L1230 513L1298 577L1306 506Z" fill="#6665B6" stroke="#6665B6" stroke-linejoin="bevel"/>
<path d="M1226 225L1231 142L1165 221L1226 225Z" fill="#555598" stroke="#555598" stroke-linejoin="bevel"/>
<path d="M1153 69L1160 0H1087L1153 69Z" fill="#6060AC" stroke="#6060AC" stroke-linejoin="bevel"/>
<path d="M1284 224L1231 142L1226 225L1284 224Z" fill="#3A3A68" stroke="#3A3A68" stroke-linejoin="bevel"/>
<path d="M212 274L296 285L292 217L212 274Z" fill="#3A3A68" stroke="#3A3A68" stroke-linejoin="bevel"/>
<path d="M278 360L207 435L290 444L278 360Z" fill="#303056" stroke="#303056" stroke-linejoin="bevel"/>
<path d="M285 567L208 660L300 643L285 567Z" fill="#35355F" stroke="#35355F" stroke-linejoin="bevel"/>
<path d="M207 435L219 513L290 444L207 435Z" fill="#555598" stroke="#555598" stroke-linejoin="bevel"/>
<path d="M211 351L207 435L278 360L211 351Z" fill="#4A4A84" stroke="#4A4A84" stroke-linejoin="bevel"/>
<path d="M1360 280L1298 278L1283 365L1360 280Z" fill="#6060AC" stroke="#6060AC" stroke-linejoin="bevel"/>
<path d="M1283 365L1298 278L1222 288L1283 365Z" fill="#3A3A68" stroke="#3A3A68" stroke-linejoin="bevel"/>
<path d="M1301 82L1214 85L1231 142L1301 82Z" fill="#6665B6" stroke="#6665B6" stroke-linejoin="bevel"/>
<path d="M1231 142L1214 85L1148 131L1231 142Z" fill="#4A4A84" stroke="#4A4A84" stroke-linejoin="bevel"/>
<path d="M1298 278L1284 224L1222 288L1298 278Z" fill="#45457B" stroke="#45457B" stroke-linejoin="bevel"/>
<path d="M222 720H300V643L222 720Z" fill="#555598" stroke="#555598" stroke-linejoin="bevel"/>
<path d="M300 643V720L361 648L300 643Z" fill="#6060AC" stroke="#6060AC" stroke-linejoin="bevel"/>
<path d="M217 205L212 274L292 217L217 205Z" fill="#303056" stroke="#303056" stroke-linejoin="bevel"/>
<path d="M211 351L141 353L207 435L211 351Z" fill="#45457B" stroke="#45457B" stroke-linejoin="bevel"/>
<path d="M1298 577L1230 513L1217 572L1298 577Z" fill="#555598" stroke="#555598" stroke-linejoin="bevel"/>
<path d="M1381 418L1380 360L1283 365L1381 418Z" fill="#4A4A84" stroke="#4A4A84" stroke-linejoin="bevel"/>
<path d="M426 0H364L373 61L426 0Z" fill="#3A3A68" stroke="#3A3A68" stroke-linejoin="bevel"/>
<path d="M373 61L283 84L348 157L373 61Z" fill="#3A3A68" stroke="#3A3A68" stroke-linejoin="bevel"/>
<path d="M297 149L217 205L292 217L297 149Z" fill="#3A3A68" stroke="#3A3A68" stroke-linejoin="bevel"/>
<path d="M1150 720H1220L1160 659L1150 720Z" fill="#3A3A68" stroke="#3A3A68" stroke-linejoin="bevel"/>
<path d="M1223 642L1298 577L1217 572L1223 642Z" fill="#555598" stroke="#555598" stroke-linejoin="bevel"/>
<path d="M1211 0H1160L1153 69L1211 0Z" fill="#5B5AA2" stroke="#5B5AA2" stroke-linejoin="bevel"/>
<path d="M287 0L283 84L373 61L287 0Z" fill="#303056" stroke="#303056" stroke-linejoin="bevel"/>
<path d="M1296 657L1298 577L1223 642L1296 657Z" fill="#5B5AA2" stroke="#5B5AA2" stroke-linejoin="bevel"/>
<path d="M214 143L217 205L297 149L214 143Z" fill="#4A4A84" stroke="#4A4A84" stroke-linejoin="bevel"/>
<path d="M143 516L207 566L219 513L143 516Z" fill="#6665B6" stroke="#6665B6" stroke-linejoin="bevel"/>
<path d="M219 513L207 566L285 567L219 513Z" fill="#555598" stroke="#555598" stroke-linejoin="bevel"/>
<path d="M1284 224L1294 152L1231 142L1284 224Z" fill="#303056" stroke="#303056" stroke-linejoin="bevel"/>
<path d="M1214 85L1211 0L1153 69L1214 85Z" fill="#5B5AA2" stroke="#5B5AA2" stroke-linejoin="bevel"/>
<path d="M1377 205L1294 152L1284 224L1377 205Z" fill="#6665B6" stroke="#6665B6" stroke-linejoin="bevel"/>
<path d="M1360 280L1284 224L1298 278L1360 280Z" fill="#35355F" stroke="#35355F" stroke-linejoin="bevel"/>
<path d="M1220 720L1296 657L1223 642L1220 720Z" fill="#5B5AA2" stroke="#5B5AA2" stroke-linejoin="bevel"/>
<path d="M1370 563L1362 496L1306 506L1370 563Z" fill="#4A4A84" stroke="#4A4A84" stroke-linejoin="bevel"/>
<path d="M213 85L214 143L283 84L213 85Z" fill="#303056" stroke="#303056" stroke-linejoin="bevel"/>
<path d="M283 84L214 143L297 149L283 84Z" fill="#3A3A68" stroke="#3A3A68" stroke-linejoin="bevel"/>
<path d="M151 208L152 276L212 274L151 208Z" fill="#35355F" stroke="#35355F" stroke-linejoin="bevel"/>
<path d="M212 274L152 276L211 351L212 274Z" fill="#45457B" stroke="#45457B" stroke-linejoin="bevel"/>
<path d="M1301 0H1211L1214 85L1301 0Z" fill="#4A4A84" stroke="#4A4A84" stroke-linejoin="bevel"/>
<path d="M207 566L208 660L285 567L207 566Z" fill="#6060AC" stroke="#6060AC" stroke-linejoin="bevel"/>
<path d="M1370 563L1306 506L1298 577L1370 563Z" fill="#35355F" stroke="#35355F" stroke-linejoin="bevel"/>
<path d="M1306 506L1362 496L1287 445L1306 506Z" fill="#6060AC" stroke="#6060AC" stroke-linejoin="bevel"/>
<path d="M1380 360L1360 280L1283 365L1380 360Z" fill="#5B5AA2" stroke="#5B5AA2" stroke-linejoin="bevel"/>
<path d="M364 0H287L373 61L364 0Z" fill="#3A3A68" stroke="#3A3A68" stroke-linejoin="bevel"/>
<path d="M151 208L212 274L217 205L151 208Z" fill="#4A4A84" stroke="#4A4A84" stroke-linejoin="bevel"/>
<path d="M207 435L143 516L219 513L207 435Z" fill="#4A4A84" stroke="#4A4A84" stroke-linejoin="bevel"/>
<path d="M207 566L155 645L208 660L207 566Z" fill="#35355F" stroke="#35355F" stroke-linejoin="bevel"/>
<path d="M152 276L141 353L211 351L152 276Z" fill="#6665B6" stroke="#6665B6" stroke-linejoin="bevel"/>
<path d="M141 353L135 440L207 435L141 353Z" fill="#35355F" stroke="#35355F" stroke-linejoin="bevel"/>
<path d="M149 720H222L208 660L149 720Z" fill="#5B5AA2" stroke="#5B5AA2" stroke-linejoin="bevel"/>
<path d="M208 660L222 720L300 643L208 660Z" fill="#6665B6" stroke="#6665B6" stroke-linejoin="bevel"/>
<path d="M1381 418L1283 365L1287 445L1381 418Z" fill="#303056" stroke="#303056" stroke-linejoin="bevel"/>
<path d="M1362 496L1381 418L1287 445L1362 496Z" fill="#6665B6" stroke="#6665B6" stroke-linejoin="bevel"/>
<path d="M135 440L143 516L207 435L135 440Z" fill="#45457B" stroke="#45457B" stroke-linejoin="bevel"/>
<path d="M225 0L213 85L283 84L225 0Z" fill="#4A4A84" stroke="#4A4A84" stroke-linejoin="bevel"/>
<path d="M214 143L151 208L217 205L214 143Z" fill="#35355F" stroke="#35355F" stroke-linejoin="bevel"/>
<path d="M1379 148L1301 82L1294 152L1379 148Z" fill="#45457B" stroke="#45457B" stroke-linejoin="bevel"/>
<path d="M1294 152L1301 82L1231 142L1294 152Z" fill="#303056" stroke="#303056" stroke-linejoin="bevel"/>
<path d="M1361 635L1370 563L1298 577L1361 635Z" fill="#4A4A84" stroke="#4A4A84" stroke-linejoin="bevel"/>
<path d="M1440 513V418H1381L1440 513Z" fill="#6665B6" stroke="#6665B6" stroke-linejoin="bevel"/>
<path d="M82 563L146 572L143 516L82 563Z" fill="#303056" stroke="#303056" stroke-linejoin="bevel"/>
<path d="M143 516L146 572L207 566L143 516Z" fill="#35355F" stroke="#35355F" stroke-linejoin="bevel"/>
<path d="M1220 720H1305L1296 657L1220 720Z" fill="#4A4A84" stroke="#4A4A84" stroke-linejoin="bevel"/>
<path d="M1296 657L1361 635L1298 577L1296 657Z" fill="#303056" stroke="#303056" stroke-linejoin="bevel"/>
<path d="M65 347L67 442L141 353L65 347Z" fill="#6665B6" stroke="#6665B6" stroke-linejoin="bevel"/>
<path d="M152 142L151 208L214 143L152 142Z" fill="#6665B6" stroke="#6665B6" stroke-linejoin="bevel"/>
<path d="M1361 720V635L1296 657L1361 720Z" fill="#6665B6" stroke="#6665B6" stroke-linejoin="bevel"/>
<path d="M1440 228L1377 205L1360 280L1440 228Z" fill="#4F4F8E" stroke="#4F4F8E" stroke-linejoin="bevel"/>
<path d="M1360 280L1377 205L1284 224L1360 280Z" fill="#5B5AA2" stroke="#5B5AA2" stroke-linejoin="bevel"/>
<path d="M146 572L155 645L207 566L146 572Z" fill="#3A3A68" stroke="#3A3A68" stroke-linejoin="bevel"/>
<path d="M142 78L152 142L213 85L142 78Z" fill="#4A4A84" stroke="#4A4A84" stroke-linejoin="bevel"/>
<path d="M213 85L152 142L214 143L213 85Z" fill="#303056" stroke="#303056" stroke-linejoin="bevel"/>
<path d="M65 347L141 353L61 295L65 347Z" fill="#4A4A84" stroke="#4A4A84" stroke-linejoin="bevel"/>
<path d="M141 353L67 442L135 440L141 353Z" fill="#3F3F71" stroke="#3F3F71" stroke-linejoin="bevel"/>
<path d="M287 0H225L283 84L287 0Z" fill="#555598" stroke="#555598" stroke-linejoin="bevel"/>
<path d="M1377 205L1379 148L1294 152L1377 205Z" fill="#6665B6" stroke="#6665B6" stroke-linejoin="bevel"/>
<path d="M1301 82V0L1214 85L1301 82Z" fill="#6665B6" stroke="#6665B6" stroke-linejoin="bevel"/>
<path d="M1440 130L1379 148L1377 205L1440 130Z" fill="#5B5AA2" stroke="#5B5AA2" stroke-linejoin="bevel"/>
<path d="M1440 297L1360 280L1380 360L1440 297Z" fill="#5B5AA2" stroke="#5B5AA2" stroke-linejoin="bevel"/>
<path d="M1368 63L1301 0V82L1368 63Z" fill="#35355F" stroke="#35355F" stroke-linejoin="bevel"/>
<path d="M1440 513L1381 418L1362 496L1440 513Z" fill="#45457B" stroke="#6665B6" stroke-linejoin="bevel"/>
<path d="M1381 418L1440 361L1380 360L1381 418Z" fill="#3F3F71" stroke="#3F3F71" stroke-linejoin="bevel"/>
<path d="M1440 513L1362 496L1370 563L1440 513Z" fill="#4A4A84" stroke="#4A4A84" stroke-linejoin="bevel"/>
<path d="M1305 720H1361L1296 657L1305 720Z" fill="#3A3A68" stroke="#3A3A68" stroke-linejoin="bevel"/>
<path d="M1440 573V513L1370 563L1440 573Z" fill="#5B5AA2" stroke="#5B5AA2" stroke-linejoin="bevel"/>
<path d="M1440 418V361L1381 418H1440Z" fill="#45457B" stroke="#45457B" stroke-linejoin="bevel"/>
<path d="M73 720H149L155 645L73 720Z" fill="#303056" stroke="#303056" stroke-linejoin="bevel"/>
<path d="M155 645L149 720L208 660L155 645Z" fill="#4F4F8E" stroke="#4F4F8E" stroke-linejoin="bevel"/>
<path d="M64 647L155 645L146 572L64 647Z" fill="#5B5AA2" stroke="#5B5AA2" stroke-linejoin="bevel"/>
<path d="M1440 361V297L1380 360L1440 361Z" fill="#35355F" stroke="#35355F" stroke-linejoin="bevel"/>
<path d="M141 353L152 276L61 295L141 353Z" fill="#303056" stroke="#303056" stroke-linejoin="bevel"/>
<path d="M135 440L67 517L143 516L135 440Z" fill="#5B5AA2" stroke="#5B5AA2" stroke-linejoin="bevel"/>
<path d="M1440 573L1370 563L1361 635L1440 573Z" fill="#6060AC" stroke="#6060AC" stroke-linejoin="bevel"/>
<path d="M225 0L142 78L213 85L225 0Z" fill="#6665B6" stroke="#6665B6" stroke-linejoin="bevel"/>
<path d="M61 295L152 276L62 229L61 295Z" fill="#45457B" stroke="#45457B" stroke-linejoin="bevel"/>
<path d="M152 276L151 208L62 229L152 276Z" fill="#4F4F8E" stroke="#4F4F8E" stroke-linejoin="bevel"/>
<path d="M67 517L82 563L143 516L67 517Z" fill="#4A4A84" stroke="#4A4A84" stroke-linejoin="bevel"/>
<path d="M1440 130L1368 63L1379 148L1440 130Z" fill="#6665B6" stroke="#6665B6" stroke-linejoin="bevel"/>
<path d="M1379 148L1368 63L1301 82L1379 148Z" fill="#3A3A68" stroke="#3A3A68" stroke-linejoin="bevel"/>
<path d="M0 506L67 517V442L0 506Z" fill="#555598" stroke="#555598" stroke-linejoin="bevel"/>
<path d="M67 442V517L135 440L67 442Z" fill="#35355F" stroke="#35355F" stroke-linejoin="bevel"/>
<path d="M62 229L151 208L58 133L62 229Z" fill="#45457B" stroke="#45457B" stroke-linejoin="bevel"/>
<path d="M65 347L0 419L67 442L65 347Z" fill="#3A3A68" stroke="#3A3A68" stroke-linejoin="bevel"/>
<path d="M1440 297V228L1360 280L1440 297Z" fill="#35355F" stroke="#35355F" stroke-linejoin="bevel"/>
<path d="M1440 656V573L1361 635L1440 656Z" fill="#303056" stroke="#303056" stroke-linejoin="bevel"/>
<path d="M58 133L151 208L152 142L58 133Z" fill="#3A3A68" stroke="#3A3A68" stroke-linejoin="bevel"/>
<path d="M1361 720L1440 656L1361 635V720Z" fill="#45457B" stroke="#45457B" stroke-linejoin="bevel"/>
<path d="M1440 0H1368V63L1440 0Z" fill="#555598" stroke="#555598" stroke-linejoin="bevel"/>
<path d="M1368 63V0H1301L1368 63Z" fill="#6665B6" stroke="#6665B6" stroke-linejoin="bevel"/>
<path d="M1440 228V130L1377 205L1440 228Z" fill="#45457B" stroke="#45457B" stroke-linejoin="bevel"/>
<path d="M82 563L64 647L146 572L82 563Z" fill="#5B5AA2" stroke="#5B5AA2" stroke-linejoin="bevel"/>
<path d="M0 589L64 647L82 563L0 589Z" fill="#4F4F8E" stroke="#4F4F8E" stroke-linejoin="bevel"/>
<path d="M0 589L82 563L67 517L0 589Z" fill="#303056" stroke="#303056" stroke-linejoin="bevel"/>
<path d="M225 0H135L142 78L225 0Z" fill="#4F4F8E" stroke="#4F4F8E" stroke-linejoin="bevel"/>
<path d="M142 78L58 133L152 142L142 78Z" fill="#4F4F8E" stroke="#4F4F8E" stroke-linejoin="bevel"/>
<path d="M63 60L58 133L142 78L63 60Z" fill="#303056" stroke="#303056" stroke-linejoin="bevel"/>
<path d="M0 364L65 347L0 301V364Z" fill="#6060AC" stroke="#6060AC" stroke-linejoin="bevel"/>
<path d="M0 364V419L65 347L0 364Z" fill="#6060AC" stroke="#6060AC" stroke-linejoin="bevel"/>
<path d="M1361 720H1440V656L1361 720Z" fill="#6060AC" stroke="#6060AC" stroke-linejoin="bevel"/>
<path d="M64 647L73 720L155 645L64 647Z" fill="#35355F" stroke="#35355F" stroke-linejoin="bevel"/>
<path d="M65 347L61 295L0 301L65 347Z" fill="#303056" stroke="#303056" stroke-linejoin="bevel"/>
<path d="M64 647L0 720H73L64 647Z" fill="#4A4A84" stroke="#4A4A84" stroke-linejoin="bevel"/>
<path d="M1440 130V72L1368 63L1440 130Z" fill="#4A4A84" stroke="#4A4A84" stroke-linejoin="bevel"/>
<path d="M0 301L61 295L0 226V301Z" fill="#35355F" stroke="#35355F" stroke-linejoin="bevel"/>
<path d="M0 226L61 295L62 229L0 226Z" fill="#303056" stroke="#303056" stroke-linejoin="bevel"/>
<path d="M0 419V506L67 442L0 419Z" fill="#555598" stroke="#555598" stroke-linejoin="bevel"/>
<path d="M135 0L63 60L142 78L135 0Z" fill="#3A3A68" stroke="#3A3A68" stroke-linejoin="bevel"/>
<path d="M58 133L0 226L62 229L58 133Z" fill="#3F3F71" stroke="#3F3F71" stroke-linejoin="bevel"/>
<path d="M0 130V226L58 133L0 130Z" fill="#3A3A68" stroke="#3A3A68" stroke-linejoin="bevel"/>
<path d="M0 506V589L67 517L0 506Z" fill="#555598" stroke="#555598" stroke-linejoin="bevel"/>
<path d="M1440 72V0L1368 63L1440 72Z" fill="#555598" stroke="#555598" stroke-linejoin="bevel"/>
<path d="M0 589V635L64 647L0 589Z" fill="#3A3A68" stroke="#3A3A68" stroke-linejoin="bevel"/>
<path d="M135 0H62L63 60L135 0Z" fill="#3A3A68" stroke="#3A3A68" stroke-linejoin="bevel"/>
<path d="M0 60V130L58 133L0 60Z" fill="#4F4F8E" stroke="#4F4F8E" stroke-linejoin="bevel"/>
<path d="M0 60L58 133L63 60H0Z" fill="#6665B6" stroke="#6665B6" stroke-linejoin="bevel"/>
<path d="M0 635V720L64 647L0 635Z" fill="#555598" stroke="#555598" stroke-linejoin="bevel"/>
<path d="M62 0L0 60H63L62 0Z" fill="#35355F" stroke="#35355F" stroke-linejoin="bevel"/>
<path d="M62 0H0V60L62 0Z" fill="#6665B6" stroke="#6665B6" stroke-linejoin="bevel"/>
</g>
<defs>
<clipPath id="clip0_623_50670">
<rect width="1440" height="720" fill="white"/>
</clipPath>
</defs>
</svg>
